<?xml version="1.0" standalone="no"?>
<!DOCTYPE svg PUBLIC "-//W3C//DTD SVG 1.1//EN" "http://www.w3.org/Graphics/SVG/1.1/DTD/svg11.dtd" >
<svg xmlns="http://www.w3.org/2000/svg">
<metadata></metadata>
<defs>
<font id="darkwomanregular" horiz-adv-x="722" >
<font-face units-per-em="2048" ascent="1536" descent="-512" />
<missing-glyph horiz-adv-x="626" />
<glyph unicode="&#xfb02;" horiz-adv-x="1091" d="M-139.5 403q5.5 21 18.5 25q59 28 92 37q91 21 156 29q68 5 90 77q31 91 105 205q62 88 147 156q54 43 123 29.5t100 -72.5q19 -46 10 -98q0 -4 -2.5 -7t-7.5 -7t-6 -5q-6 0 -14 4q-10 12 -32 38t-32 38q-9 9 -26.5 12.5t-28.5 -2.5q-108 -57 -152 -127q-4 -7 -20 -32.5 t-23 -37t-18.5 -32.5t-19.5 -38.5t-15 -35.5q-3 -8 4.5 -20t16.5 -13q99 -8 223 39q19 6 53 22.5t53 22.5q96 28 156 119q52 82 156 148q7 5 21.5 10.5t17.5 7.5q15 7 36 2.5t29 -16.5q9 -14 10 -36.5t-8 -33.5q-24 -29 -39 -41q-110 -95 -131 -111q-65 -53 -88 -129 q-13 -36 -27 -65q-29 -60 -26 -125q0 -14 -10 -86q-1 -5 -5 -20t-4 -23q0 -63 28.5 -97.5t90.5 -17.5q30 7 64 17t75 23t64 20q27 5 35 4q15 -3 10 -25q-2 -12 -25 -26q-38 -30 -124 -58q-33 -12 -76 -26q-13 -4 -39 -10.5t-39 -10.5q-25 0 -39 2q-30 4 -41 8q-25 12 -35 25 q-46 59 -43 119q4 86 10 129q6 40 20 112.5t19 100.5q1 9 -9 17t-19 5q-4 -2 -15 -2q-120 -56 -356 -108q-21 -3 -41 -13q-26 -21 -29 -30q-5 -9 -20 -68q-67 -217 -86 -407q-3 -24 -11 -83t-11.5 -98t-0.5 -71v-121q0 -25 -8 -41q-8 -17 -29 -29q-9 -4 -24.5 7t-18.5 22 q0 2 -2 7t-2 7q1 55 0 100.5t3 100.5t14 100q18 84 28 199q10 114 72 336q2 7 2 43q0 2 -3.5 5t-6.5 3q-49 4 -70 0q-17 -4 -137 -47q-36 -12 -55 31q-8 17 -2.5 38z" />
<glyph horiz-adv-x="0" />
<glyph horiz-adv-x="682" />
<glyph unicode=" "  horiz-adv-x="626" />
<glyph unicode="&#x09;" horiz-adv-x="626" />
<glyph unicode="&#xa0;" horiz-adv-x="626" />
<glyph unicode="!" horiz-adv-x="505" d="M215 53q-1 20 15.5 35.5t41.5 17.5q19 1 35.5 -18t16.5 -41q0 -20 -19.5 -34.5t-44.5 -12.5q-19 0 -31 15t-14 38zM287 543q38 274 141 481q18 43 64 82q11 11 32 18q17 5 35 -10q16 -13 12 -35q-5 -19 -10 -24q-77 -108 -149 -299q-66 -177 -80 -234q0 -3 -17 -14 q-16 -6 -22 10q-6 24 -6 25z" />
<glyph unicode="&#x22;" horiz-adv-x="362" d="M0 893q13 81 55 139q8 9 54 55q34 36 75 -2q9 -9 8.5 -25.5t-10.5 -23.5q-12 -9 -26 -16q-62 -37 -86 -123q-5 -18 2.5 -49t7.5 -37t-6 -12.5t-15 -7.5q-10 -1 -22 3.5t-17 12.5q-23 44 -20 86zM150 797q5 157 100 295q6 8 22 24q33 29 66 -4q6 -6 6 -20q-5 -16 -10 -19 q-78 -78 -121 -227q-5 -16 -13 -47t-10 -37q-3 -12 -16 -8q-15 10 -16 12q-3 6 -4.5 13.5t-2 12t-1.5 5.5z" />
<glyph unicode="#" horiz-adv-x="921" d="M-32.5 663.5q-3.5 14.5 1.5 24.5q12 25 23 31q91 48 147 61q20 4 64 14.5t67 14.5q51 9 74 59q9 19 26.5 54.5t28 57.5t23.5 53.5t22 58.5q10 27 37 30q27 4 45.5 -15t16.5 -44q-1 -8 -17 -45q-34 -74 -69 -144q-3 -6 0.5 -11t11.5 -5q38 -5 121 16q28 9 37 31 q9 19 31.5 69.5t35.5 76.5q2 6 21 30q6 8 20 10t25 -4q50 -30 24 -83q-3 -7 -20 -32.5t-19 -43.5q0 -16 11 -21q2 0 9.5 -3t12.5 -3q25 -2 101 -2q5 0 71 -8q9 0 19 -12t10 -23q0 -18 -12 -29.5t-27 -7.5q-44 12 -133 8q-32 -2 -98 -18q-24 -3 -37 -29q-6 -11 -41 -90 q-5 -12 1 -22.5t19 -10.5q135 5 160 7q21 2 60.5 7t60.5 7q8 2 15.5 -7t6.5 -18q0 -14 -6 -20q-12 -12 -33 -19q-28 -4 -47 -4q-40 0 -79 -4t-101.5 -14t-77.5 -12q-31 -6 -45 -37q-11 -21 -34 -69.5t-37 -74.5q-122 -250 -148 -299q-9 -17 -63 -90q-5 -8 -16 -10t-17 4 t-10.5 16.5t-1.5 14.5q9 26 14 35q98 164 209 456q4 12 -5.5 23t-21.5 8q-8 -1 -33.5 -7.5t-38.5 -6.5q-42 0 -65 -23t-39 -65q-40 -100 -41 -103q-5 -16 -13.5 -47.5t-13.5 -46.5q-2 -6 -20 -12q-21 -3 -31 16q-13 24 -6 60q7 30 28.5 84t28.5 77q6 13 -10 19q-2 2 -5 2 t-5 -2q-18 -3 -35 -13q-25 -14 -43 -22q-17 -9 -32 -6.5t-23 14.5q-9 15 -6 36t16 30q26 16 33 18q58 20 104 33q56 16 72 63q3 10 16 45q3 11 -7.5 21.5t-22.5 7.5q-4 -1 -12 -2t-11 -2q-119 -34 -182 -74q-15 -10 -23 -10q-16 -3 -34 4q-9 4 -12.5 18.5zM350 651 q-1 -4 1 -9t6 -11.5t5 -9.5q58 9 74 10q19 1 29 2t20.5 4t14 3.5t10 8.5t7.5 10.5t8.5 17t11.5 21.5q6 9 14.5 31t9.5 25q3 6 -3.5 17t-12.5 11h-60q-87 -3 -112 -75q-21 -47 -23 -56z" />
<glyph unicode="$" horiz-adv-x="761" d="M2 80q16 24 33 26q4 0 8.5 -1t10 -2.5t9.5 -2.5q8 -2 23 -6.5t26.5 -7t22.5 -2.5q71 0 101 21.5t40 89.5q4 25 13 70t12 61q18 112 25 145q5 38 -27 64q-31 24 -63 61q-39 45 -44.5 106t13.5 111t51 80q50 44 164 125q35 21 49 53q8 18 24.5 54t24.5 55q49 97 113 153 q11 11 39 19q8 3 22 -3.5t15 -13.5q8 -15 4 -26q-12 -26 -31 -52q-42 -58 -62 -116q-3 -10 5 -18.5t20 -8.5q60 4 88 8q110 10 174 -57q13 -13 19 -25q5 -21 2 -28q-5 -8 -25 -13q-10 -3 -29 5q-117 50 -286 -9q-22 -6 -33 -28q-24 -41 -31 -66q-34 -136 -61 -274 q-12 -58 43 -82q20 -9 119 -60q19 -10 49 -32q38 -32 48 -81t-13 -93q-45 -82 -105 -123q-124 -89 -223 -111q-38 -8 -51 -49q-3 -10 -12 -33.5t-13.5 -36.5t-10 -33t-7.5 -36q-11 -65 -26.5 -134.5t-38.5 -164t-32 -133.5q-3 -6 -18 -11q-2 0 -5 5t-3 8q-3 55 4.5 122.5 t15.5 107.5t25 120q19 87 16 190q0 12 -12 25t-25 14q-22 3 -66 7t-65 7q-28 3 -49 31q-9 13 -4 29zM305 705q3 -12 21 -41q4 -6 24 -11q4 0 10 11q30 127 35 153q3 13 0 29q0 3 -2.5 7.5t-3.5 4.5q-20 0 -24 -4q-66 -51 -60 -149zM369 203q-4 -35 8.5 -49.5t32.5 -6.5 q8 2 26 11q20 8 41 21.5t34.5 24t36.5 30.5t32 28q30 25 27 63.5t-36 63.5q-33 28 -90 49q-32 14 -43.5 10t-21.5 -34q-13 -33 -21.5 -70.5t-15.5 -81t-10 -59.5z" />
<glyph unicode="%" horiz-adv-x="980" d="M2 702q4 18 12 35q14 31 41 63t42.5 46.5t56.5 50.5q4 4 9 6t12.5 4.5l10.5 3.5q15 4 42.5 13.5t41.5 13.5q26 9 29 35q1 3 3 17t3 20q3 13 20 22t31 6q2 -1 6.5 -2t6.5 -2q32 -16 71 -19.5t62.5 0t72.5 13.5q103 25 123 29q102 23 154 53q23 13 47 16q19 4 43 -20 q14 -18 4 -35q-1 -3 -24 -43q-82 -120 -162 -240q-23 -35 -71 -103t-71 -103q-2 -3 -13.5 -18t-16.5 -23q-185 -339 -244 -564q-3 -10 -28 -117t-46 -161q-2 -2 -10 -6q-4 4 -6 8q-4 8 -4 12v37q0 56 18 137q52 278 209 588q9 18 27.5 50t21.5 38q78 131 230 389q3 4 3.5 12 t-1.5 11q-9 6 -23 6q-61 -12 -123 -27q-90 -20 -133 -32q-49 -16 -51 -50q-1 -2 -2 -6t-2 -6q-22 -129 -174 -215q-23 -12 -92 -43q-19 -11 -35 -14q-57 -13 -92 22q-38 38 -29 92zM106 719q-2 -2 3 -12q3 -14 18 -11q62 11 123 52q24 13 63 57q3 2 4 5.5t1 8.5t1 8 q-1 12 -18 22t-31 7q-79 -21 -133 -84q-6 -6 -11 -14.5t-11 -21t-9 -17.5zM511.5 95.5q-5.5 19.5 8.5 78.5q20 71 74 131q54 62 156 72q73 3 118 -58q19 -26 31 -55q18 -42 -4 -84q-59 -113 -168 -164q-10 -4 -22 -7t-22.5 -5t-12.5 -2h-41q-35 0 -66 31q-46 43 -51.5 62.5z M633 152q-2 -12 2 -37q3 -11 16 -18.5t23 -4.5q87 22 139 115q2 4 2 12q3 21 -15 43.5t-42 28.5q-17 7 -23 -6q-6 -9 -47 -39q-45 -31 -55 -94z" />
<glyph unicode="&#x26;" horiz-adv-x="1118" d="M5.5 206.5q-14.5 54.5 10.5 133.5q37 115 136 172q3 2 23.5 15t29.5 20q9 6 14 20.5t2 22.5q-8 20 -24.5 60t-24.5 59q-47 106 -35 221q6 62 66 104q197 129 477 84q33 -4 69 -13t82 -22t68 -18q65 -17 129 -64q41 -27 62 -71q11 -22 6.5 -48.5t-21.5 -41.5 q-74 -65 -164 -99q-72 -27 -217.5 -82.5t-218.5 -83.5q-74 -25 -98 -51q-13 -13 -6 -28q16 -47 69 -107q26 -27 58.5 -58.5t55.5 -52t63.5 -56.5l58.5 -52q32 -27 54.5 -35t62.5 -2q13 2 101.5 14t135.5 17q6 0 19 -19q4 -8 -7 -14q-31 -22 -41 -25q-16 -5 -47.5 -13 t-46.5 -13q-8 -2 -24.5 -10t-18.5 -9q-26 -10 0 -36l54 -60q12 -12 0 -28q-9 -15 -26.5 -24t-27.5 -3q-5 3 -19 11t-22 13q-15 11 -43.5 35t-42.5 35q-44 33 -90 27q-97 -9 -129 -15q-140 -27 -301 17q-80 21 -141 73q-56 46 -70.5 100.5zM117 248q-2 -14 16 -45 q25 -38 74 -58q129 -65 248 -51q20 2 62 5t63 5q3 0 6.5 4t3.5 7q2 3 1.5 8t-3.5 6q-38 40 -115 121t-115 121q-9 9 -30.5 33.5t-34.5 35.5q-16 13 -45 9q-28 -9 -55 -33q-69 -58 -76 -168zM227 858q-7 -93 66 -227q8 -13 43 -17q13 -3 31 4q269 98 464 173q26 9 115 57 q4 3 12.5 10t12.5 10q11 9 11.5 29t-11.5 29q-27 23 -39 26q-160 63 -373 80q-14 1 -29.5 1t-27 -0.5t-29.5 -3t-26.5 -4t-28.5 -6.5t-25.5 -6.5t-28.5 -8t-26 -7.5q-51 -12 -79.5 -48.5t-31.5 -90.5z" />
<glyph unicode="'" horiz-adv-x="501" d="M285.5 861.5q0.5 5.5 3.5 17t4 16.5q22 112 106 205q3 5 12 12.5t11 9.5q12 10 28 8t27 -16q8 -10 12 -27q0 -10 -2 -12t-5 -9t-5 -9q-85 -67 -143 -207q-3 -10 -15 -14q-11 -7 -18 -7q-10 3 -14 15q-2 12 -1.5 17.5z" />
<glyph unicode="(" horiz-adv-x="350" d="M0 242q0 22 1 44.5t3 38.5t7 38t7.5 32.5t8.5 34.5t8 31q30 124 96 272q43 94 123 201q65 88 186 203q43 38 133 53q8 3 25 -6q37 -18 49 -58q5 -19 -10.5 -36.5t-34.5 -14.5q-16 4 -24 8q-30 13 -62 -6q-81 -43 -149 -127q-209 -272 -277 -559q-22 -95 -16 -182 q3 -112 69 -180q11 -9 29 -41q4 -9 0 -13q-5 -13 -22 -10q-61 26 -101 101q-40 77 -49 176z" />
<glyph unicode=")" horiz-adv-x="438" d="M-57 -72q4 15 12 23q20 15 38 31.5t36.5 37t32 35t32 40.5t27.5 38t28.5 42.5t25 40t27 44t25.5 41.5q45 78 54 96q83 157 98 334q16 185 -86 330q-45 61 -64 92q-12 19 -3.5 35.5t34.5 25.5q30 10 51 -8q2 -2 9.5 -8.5t9.5 -9.5q23 -27 45 -63.5t32.5 -58.5t32.5 -71 q38 -88 29 -217q5 -76 -37 -207q-76 -223 -233 -426q-6 -8 -27.5 -36.5t-30 -39t-28 -34t-32 -37t-31 -30.5t-36.5 -31q-7 -6 -17 -11.5t-24 -11t-20 -8.5q-6 0 -10 8q-3 7 0 14z" />
<glyph unicode="*" horiz-adv-x="505" d="M125 885q-7 30 8 45q6 8 14.5 16t19 18t15.5 15q8 8 8 16q-5 0 -15.5 1t-16.5 1q-12 2 -18 12t-3 25q4 8 8 10q1 0 8 3.5t11 3.5q28 0 31 28q0 5 4 13q4 9 17.5 12.5t19.5 -2.5q6 -3 14 -11.5t12 -11.5q8 -9 15 -8t10 10q4 26 8 35q4 12 18 13.5t21 -7.5q2 -2 6 -8t6 -8 q8 -14 23 -2l4 4q17 11 24 4q9 -9 6 -25q-2 -12 2 -16t17 -4h61q5 0 13 -4q9 -5 2 -12q-11 -11 -15 -13q-20 -2 -63 -2q-36 -3 -74 -12q-10 -2 -18 -18q-15 -27 0 -54q15 -22 34 -65q11 -17 11 -41q0 -1 -6 -19q-1 -6 -10.5 -6.5t-12.5 4.5q-4 4 -6.5 9t-4.5 12t-3 10 q-15 38 -37 49q-12 7 -19 29q-2 8 -10 24q-1 6 -9 9t-13 0q-20 -13 -31.5 -21.5t-26 -23.5t-22.5 -31q-1 -2 -3.5 -4t-6 -5t-5.5 -5q-4 -3 -12.5 -0.5t-9.5 8.5z" />
<glyph unicode="+" horiz-adv-x="610" d="M0 560.5q2 18.5 16 27.5q17 11 37 18q13 4 39.5 11.5t40.5 11.5q8 2 24.5 6t24.5 6q30 5 37 39q1 5 2 16.5t2 16.5q3 15 10.5 45t10.5 45q3 7 13 13.5t19 6.5q12 -2 22 -13.5t9 -21.5q-4 -34 -8 -49q-2 -11 -16 -65q0 -5 4 -10.5t10 -6.5q18 0 51 -1t49 -1h52q33 -3 98 0 q6 0 11 -6.5t3 -11.5l-10 -10q-4 -4 -8 -4q-67 -13 -90 -13q-55 0 -84 -2q-31 0 -58 -6q-35 -9 -42 -18q-8 -11 -11 -43q-2 -18 -6 -54.5t-6 -54.5q-13 -81 2 -156v-24q0 -4 -8 -10t-11 -4q-9 3 -14 8q-7 11 -10 22q-22 91 -8 224q4 40 4 65q0 8 -7 15t-14 6q-32 0 -49 -5 q-51 -10 -65 -45q0 -2 -2.5 -3.5t-2.5 -2.5q-16 -16 -30 -6q-14 7 -21 14q-12 12 -10 30.5z" />
<glyph unicode="," horiz-adv-x="296" d="M0 -430q-2 90 39 203q15 41 115 288q16 28 34 41q9 7 37 2q20 -7 23 -30q0 -19 -2 -27q-5 -23 -19 -51q-99 -170 -184 -461q-5 -12 -20 -12q-15 -3 -21 12q0 2 -1 6.5t-1 7.5v21z" />
<glyph unicode="-" horiz-adv-x="534" d="M0 375q2 8 9 17t14 9q30 5 36 5q37 0 82 10q145 26 267 43q24 4 73 0q6 0 17 -17q-10 -16 -11 -16q-20 -10 -24 -10q-34 -5 -95 -20.5t-77 -18.5q-123 -29 -201 -45q-5 -2 -17.5 -5t-17.5 -5q-23 -9 -40.5 8.5t-14.5 44.5z" />
<glyph unicode="." horiz-adv-x="253" d="M90 94.5q12 34.5 49 48.5h15q28 1 53.5 -20.5t25.5 -46.5q0 -49 -45 -68q-33 -17 -69 -2q-15 8 -21 19q-20 35 -8 69.5z" />
<glyph unicode="/" horiz-adv-x="581" d="M0 29q0 8 2 10q34 62 105.5 207.5t113.5 220.5q27 48 74 133.5t87 155.5t77 131q60 100 102 166q13 18 47 61q19 22 45 20.5t45 -24.5q8 -9 9.5 -24t-5.5 -23q-34 -39 -69.5 -85.5t-59 -79.5t-62 -94t-52.5 -84t-58.5 -97t-52.5 -88q-23 -40 -69 -112t-62 -97 q-80 -130 -164 -295q-4 -7 -13.5 -17t-10.5 -12q-2 1 -5.5 1.5t-6 1t-3.5 1.5q-5 5 -14 23z" />
<glyph unicode="0" horiz-adv-x="530" d="M18.5 327.5q0.5 10.5 1.5 20.5q-3 70 15 131q12 35 28 109q2 5 6.5 15t6.5 15q4 6 21.5 34t25.5 44q35 58 90 99q67 52 147 4q42 -27 60 -64q7 -13 24.5 -34l22.5 -27q71 -89 65 -199q0 -25 -4 -35q-3 -9 -14 -40.5t-16.5 -45.5t-15.5 -38t-21.5 -42.5t-24.5 -35.5 q-8 -12 -24 -33.5t-23 -30.5q-54 -74 -153 -111q-37 -15 -89 5q-81 34 -106 122q-1 4 -5 22.5t-5.5 24t-4.5 21.5t-4 24.5t-2.5 21.5t-1 23.5zM100 340q1 -17 2 -51t2 -51q2 -12 15 -43q15 -37 50.5 -50.5t70.5 5.5q22 10 65 45t109 129t57 200q-2 12 -2 35q-2 36 -27 84 q-20 35 -58.5 51.5t-76.5 7.5q-4 -1 -19.5 -7t-23.5 -7q-52 -7 -80.5 -39t-48.5 -88q0 -2 -1 -5t-1 -5q-37 -143 -33 -211z" />
<glyph unicode="1" horiz-adv-x="604" d="M-3 177.5q-3 13.5 1 19.5q31 41 45 51q106 83 272 268q32 37 64 79.5t71 98.5t58 82q12 18 29 35q6 7 20.5 8.5t20.5 -4.5q11 -11 15.5 -26.5t-1.5 -24.5q-61 -82 -66 -90q-85 -124 -108 -258q-1 -11 -7.5 -30.5t-7.5 -23.5q-19 -92 -6 -145q1 -7 -5.5 -13.5t-14.5 -4.5 q-10 0 -10 2q-30 52 -27 106q0 4 3.5 20t4.5 25q9 63 2 88q0 9 -6 9q-4 3 -10 -3t-18 -16t-21.5 -19.5t-15.5 -19.5q-28 -42 -117 -135q-60 -64 -92 -100q-9 -11 -29 -10.5t-33 12.5q-8 6 -11 19.5z" />
<glyph unicode="2" horiz-adv-x="522" d="M1.5 101q-4.5 32 6.5 51t60 90q30 44 84 116q66 92 124 240q18 44 21 107q0 8 -10 19t-19 11q-37 0 -43 -2q-69 -19 -123 -86q-3 -5 -7 -16t-5 -13q-7 -20 -13 -25.5t-14 -2.5q-10 4 -24 33q-8 23 2 53q18 51 78 90q41 25 106 53q12 4 35 4q47 1 81 -29.5t34 -72.5 q0 -43 -13 -76q-30 -79 -45 -110q-54 -116 -151 -252q-58 -82 -84 -152q-3 -9 2 -21t14 -16q3 -2 21 -8q13 -4 20 -2q168 19 205 27q95 19 145 45q3 2 21 2q4 0 8 -8q2 -2 2 -6t-2 -5q-6 -8 -16.5 -15.5t-16 -10.5t-21.5 -10.5t-18 -8.5q-173 -75 -280 -86q-91 -7 -141 43 q-19 18 -23.5 50z" />
<glyph unicode="3" horiz-adv-x="616" d="M1.5 83q-7.5 37 23.5 81q8 12 18 2q5 -3 8 -8q3 -4 3.5 -8t0 -7.5t-2 -9t-1.5 -8.5q-3 -21 19 -39q38 -26 77 -29q3 -1 9.5 -3t9.5 -3q60 -12 117 6h4q3 -1 22 4q53 18 105 39q68 21 102 101q4 8 14 43q9 31 -3.5 64t-41.5 52q-76 39 -92 46q-83 36 -114 47 q-33 13 -56 36q-19 17 -16 42t26 34q41 17 74 27q50 18 84 55q15 20 10 44t-28 30q-86 25 -168 4q-10 -2 -29 -16q-4 -4 -9 -10t-11 -13.5t-9 -11.5q-6 -5 -16.5 -3.5t-13.5 7.5q-12 15 -17 29q-6 14 -2 28.5t15 22.5q60 49 155 59q11 2 68 2q54 3 94 -31q1 -1 9.5 -7.5 t11 -8.5t8.5 -8.5t8.5 -11t5.5 -11.5t4 -14q7 -65 -26 -106q-31 -38 -95 -80q-6 -5 -6 -15.5t6 -13.5q5 -3 15.5 -7t15.5 -7q15 -8 60.5 -30.5t70.5 -35.5q46 -26 72 -72q21 -38 16 -75q-12 -80 -53 -148q-33 -53 -92 -82q-97 -53 -185 -53q-13 0 -75 -4q-6 0 -40 2t-55 4 q-20 5 -53 19q-44 23 -51.5 60z" />
<glyph unicode="4" horiz-adv-x="686" d="M4 446q-14 36 10 54q22 21 97 82q141 117 180 145q77 55 162 90q12 6 27 -2.5t18 -21.5q7 -43 -19 -66q-1 -1 -4 -3t-4 -3q-40 -21 -51 -76q-8 -32 -27 -93.5t-22 -72.5q-3 -13 0 -22q6 -17 14 -17q37 -8 57 -4q13 2 98.5 13t129.5 26q11 4 22 0q13 -3 13 -16 q-1 -1 -2.5 -5t-2.5 -5q-3 -2 -9 -6.5t-9 -6.5q-122 -39 -190 -49q-9 -2 -28.5 -5t-29.5 -5q-60 -17 -70 -24q-21 -14 -28 -66q-1 -11 -2 -25q-3 -41 -13.5 -122t-13.5 -122q0 -7 -16 -12q-4 -3 -9.5 0.5t-7.5 9.5q-6 21 -6 45v117v127q-3 41 -43 47q-63 8 -92 10 q-38 2 -86 31q-31 19 -43 53zM119 473q0 -8 4 -8q59 -21 123 -27q15 -1 28.5 8t16.5 21q18 63 45 164q-2 4 -3 9.5t-2 9t-3 5.5q-6 3 -21 -2q-2 -1 -5 -3t-5 -3q-95 -70 -172 -153q-1 -1 -6 -21z" />
<glyph unicode="5" horiz-adv-x="710" d="M2 80q-6 13 6 33q12 13 21 4q9 -8 25.5 -24.5t25.5 -24.5q27 -27 53 -19q41 12 82 12q59 3 121 41q86 51 123 93q36 39 18 88q-19 55 -78 61q-16 2 -94 2q-85 -6 -176 23q-66 23 -78 94q0 4 -1 12t-1 12q-15 117 76 187q4 3 14.5 11t15.5 12.5t13 11.5t14 14.5t11 15.5 q19 31 59 31q116 9 154 18q17 5 69 5q27 1 82.5 3t83.5 3q17 0 54 0.5t59 1t53 4t57 10.5q17 -1 46.5 2t46.5 3.5t47 -5.5q6 0 6 -6q0 -8 -4 -10q-3 -4 -19 -15q-30 -6 -35 -6q-81 -9 -407 -65q-28 -8 -47 -8q-70 0 -187 -23q-32 -5 -61 -31q-11 -10 -70 -43 q-28 -15 -42.5 -61.5t3.5 -73.5q15 -26 33 -33q78 -28 139 -18q3 1 16 1.5t19 2.5q18 7 35.5 9t35.5 -2t32 -9t34 -14q58 -27 79 -86.5t-1 -112.5q-18 -59 -67 -96q-171 -135 -361 -121q-89 6 -133 86z" />
<glyph unicode="6" horiz-adv-x="720" d="M0 219q6 50 12 70q84 275 267 405q90 67 94 70q48 38 131 55q56 11 106 -33q3 -3 8 -22q3 -8 -5.5 -16.5t-18.5 -8.5q-2 0 -6 -1t-6 -1q-17 0 -27 2q-98 0 -190 -73q-121 -96 -209 -246q-64 -107 -70 -221q0 -34 21 -59t57 -34q17 -3 32 4.5t21 22.5q1 2 3 5t3 5 q21 126 170 183q43 16 137 36q74 16 142 -49q42 -36 30 -92q-13 -72 -69 -106q-138 -78 -242 -90q-20 -2 -63 -15q-18 -5 -59 -6.5t-62 2.5q-15 4 -44.5 11.5t-43.5 11.5q-94 26 -113 131q-2 9 -6 59zM297 141q-3 -7 2.5 -18.5t11.5 -13.5q6 0 17.5 -2t17.5 -3q120 3 246 82 q23 13 29 41q3 11 -9.5 24t-31.5 19q-39 16 -64 9q-74 -14 -123 -37q-72 -42 -96 -101z" />
<glyph unicode="7" horiz-adv-x="686" d="M-27.5 800q1.5 20 13.5 29q65 45 151 52q24 3 150 8v-4h104q43 2 148 -25q36 -9 56.5 -45t12.5 -74q-13 -56 -69 -184q-3 -6 -7 -33q-1 -1 2 -3.5t5 -2.5q12 -8 22 -8q18 1 50.5 1.5t59 2.5t50.5 8q23 4 35 2q19 -5 55 -1.5t57 -0.5q1 0 6 -10v-10q-6 -6 -10 -6 q-186 -27 -205 -29q-22 -3 -46 -7.5t-55.5 -11.5t-45.5 -10q-48 -12 -70 -55q-43 -85 -63 -126t-49.5 -112.5t-46.5 -132.5q-3 -12 -12 -35.5t-11 -29.5q-3 -12 -18 -8q-16 11 -17 12q-6 17 -2 35q31 172 80 262q16 28 39 84.5t27 64.5v11q-19 6 -21 6q-92 -15 -145 -33 q-5 -2 -35 -2q-12 0 -22 16t-5 27q13 33 39 39q12 3 48.5 12.5t61.5 14t50 4.5q19 0 55 8q41 11 56 39q10 22 30 59.5t27 52.5q22 45 16 90q-3 27 -22 39q-6 2 -23 10t-29 12t-24 5q-152 20 -309 -21q-10 -3 -17 -14q-12 -29 -45 -29q-46 0 -65 15q-6 6 -8 10 q-11 12 -9.5 32z" />
<glyph unicode="8" horiz-adv-x="636" d="M10 182q-14 38 4 82q21 49 60 88q28 28 94 74q22 13 22 39v74q3 111 84 192q28 24 45 41q43 37 109 47q31 6 94 6q29 0 56 -20q77 -52 40 -150q-39 -80 -98 -118q-34 -25 -141 -91q-8 -5 -64 -34q-16 -10 -8 -31q21 -48 92 -111q8 -7 27.5 -21.5t28.5 -23.5 q31 -24 53 -49q26 -29 20.5 -65.5t-39.5 -59.5q-71 -51 -143 -51h-49q-102 -6 -184 41q-55 30 -76 74q-18 43 -27 67zM76.5 207.5q-2.5 -41.5 56.5 -109.5q15 -14 31 -20q8 -2 27 -8t30.5 -8.5t27.5 -5.5t30 -3q79 -3 135 41q18 15 10 31q-4 5 -10.5 16t-13 19.5t-13.5 13.5 q-56 40 -131 135q-13 19 -33 35q-11 11 -20 6q-48 -25 -62 -39q-62 -62 -64.5 -103.5zM270 516q0 -9 7.5 -15.5t15.5 -4.5q80 25 199 106q6 5 9 15.5t-1 15.5q-15 15 -19 16q-5 1 -53 8q-32 -3 -63 -6q-13 -2 -33 -14q-68 -46 -62 -121zM451 743q6 -13 10 -14q4 -2 14 -7.5 t16 -8.5t15 -5.5t18 -2.5q16 0 21 8q5 6 3 16.5t-9 11.5q-10 3 -27.5 8t-22.5 7q-8 -2 -17.5 -3.5t-12.5 -2.5q-1 0 -8 -7z" />
<glyph unicode="9" horiz-adv-x="602" d="M-326 -426q-2 8 3 15.5t14 7.5q43 -2 110 36q139 92 197 148q18 17 60 50t63 54q149 152 237 316q8 15 25 46.5t25 47.5q51 98 63 203q0 4 6.5 36.5t1.5 49.5q-3 9 -10 16q-11 7 -18 -4q-3 -4 -9.5 -13.5t-9.5 -13.5q-91 -111 -196 -182q-35 -25 -105 -51q-21 -6 -43 -6 q-53 -1 -77 37t-11 79q30 84 68 146q38 68 127 129q47 31 135 61q16 4 71.5 15t83.5 22q15 7 35 -5t25 -30q6 -18 6 -20q0 -81 14 -150q1 -4 1.5 -9.5t1 -14t1.5 -15.5q-1 -5 -10 -49.5t-16 -68.5q-45 -177 -185 -373q-185 -255 -485 -467q-36 -26 -102 -53q-39 -16 -74 -10 q-17 3 -23 20zM80 438q0 -6 7 -13t13 -7q2 0 6 -1t5 -1q79 15 116 47q12 9 34.5 26.5t33.5 26.5q71 51 125 156q2 6 2 41q-2 9 -13 17t-20 5q-185 -40 -268 -188q-36 -74 -37 -78q-2 -5 -2.5 -16.5t-1.5 -14.5z" />
<glyph unicode=":" horiz-adv-x="299" d="M3.5 83q10.5 29 41.5 40q1 1 5 1t5 1q23 0 45.5 -18.5t22.5 -38.5q0 -42 -37 -58q-28 -16 -59 0q-9 3 -17 15q-17 29 -6.5 58zM152 588q7 21 18 30q50 44 94 -6q6 -7 12 -20t7 -14v-21q-10 -12 -29.5 -48t-36.5 -52q-9 -9 -27.5 -4.5t-23.5 16.5q0 2 -2.5 6t-1.5 6 q4 19 -4.5 54t-5.5 53z" />
<glyph unicode=";" horiz-adv-x="288" d="M-147 -227q4 24 12 32q117 123 174 316q8 32 29 63q6 9 20 12t23 -3q23 -15 36 -43q1 -2 2.5 -6.5t2.5 -6.5q-1 -3 -2.5 -11t-2.5 -11q-92 -218 -241 -342q-11 -9 -31 -17q-14 -7 -20 6q-4 9 -2 11zM129 469q-36 45 2 86q7 7 29 20q25 19 53 -6q26 -23 29 -61 q0 -19 -15 -36t-37 -23q-17 -6 -34.5 -0.5t-26.5 20.5z" />
<glyph unicode="&#x3c;" horiz-adv-x="999" d="M1.5 645q-4.5 18 0.5 35q6 34 31 41q176 55 407 192q108 63 258 138l73.5 38.5t80.5 43.5q111 61 305 116q4 1 29 6q1 0 4.5 1t5.5 1q7 -2 18 -12.5t11 -17.5q1 -6 -3.5 -14.5t-9.5 -10.5q-6 -2 -18 -7t-18 -7q-42 -18 -48 -21l-65 -26q-133 -58 -160 -72 q-279 -160 -440 -254q-16 -10 -50.5 -29.5t-50.5 -29.5q-14 -7 -55 -39q-3 -2 -9 -7.5t-9 -7.5q-20 -13 -25.5 -45.5t8.5 -52.5q88 -139 191 -225q151 -131 338 -262q23 -16 246 -185q0 -1 1 -5t1 -5q0 -2 1 -4.5t1 -3.5q-6 -6 -9 -6q-4 1 -22 10h-2q-19 9 -57 26.5 t-56 26.5q-287 152 -518 336q-69 53 -117 99q-32 32 -39 38q-41 42 -62.5 63.5t-62 52t-79.5 48.5l-2 2q-1 1 -4.5 4t-4.5 4q-10 9 -14.5 27z" />
<glyph unicode="=" horiz-adv-x="626" d="M0.5 497q0.5 18 13.5 27q62 39 88 47q110 35 172 41q17 2 75 12t89 11q6 1 14 2t22.5 3t25.5 3q16 3 65 -12q29 -10 35 -41q3 -14 -9 -25.5t-24 -5.5q-42 22 -116 14q-185 -21 -308 -57q-2 -1 -5 -2t-5 -2q-27 -14 -35 -39q-8 -28 -45 -24q-26 7 -41 20q-12 10 -11.5 28z M53 328q-2 6 2 18q7 17 31 33q54 22 88 29q28 5 85.5 17t86.5 17q121 17 207 35h14q13 -13 15 -16q4 -6 -1.5 -16.5t-13.5 -12.5q-56 -8 -160.5 -33t-119.5 -28q-17 -3 -99 -23q-39 -12 -92 -41q-9 -6 -24.5 1.5t-18.5 19.5z" />
<glyph unicode="&#x3e;" horiz-adv-x="1058" d="M-83 -42.5q5 19.5 17 28.5q28 20 74 45q352 211 598 405q46 37 73 60t60.5 58t57.5 71q15 19 8 53q-10 33 -31 45q-5 3 -15.5 9t-15.5 9q-57 34 -86 45q-191 75 -444 222q-124 75 -203 96q-8 8 -18 33q-7 20 -4 51q2 32 20 50.5t49 18.5h17h2h28q41 0 68 -34 q88 -109 203 -184t268 -144q32 -16 76 -33q9 -4 19.5 -9t24 -10t21.5 -9q66 -29 134 -29h6q37 0 64.5 -19t55.5 -55q6 -7 5.5 -21.5t-7.5 -23.5q-2 -2 -5 -7t-5 -7q-14 -21 -24 -31q-9 -6 -28 -19.5t-28 -19.5l-6 -4q-13 -10 -92 -68t-99.5 -73t-91 -66.5t-101 -73t-92 -65 t-102.5 -71t-94 -62.5t-102 -66q-22 -15 -66 -44t-65 -44q-12 -7 -34 -22.5t-34 -22.5q-9 -6 -22 -6q-25 0 -33 12q-6 12 -1 31.5z" />
<glyph unicode="?" horiz-adv-x="589" d="M133 61q-7 20 4 42t31 30q21 8 43 -0.5t31 -28.5q14 -32 2.5 -60.5t-43.5 -41.5q-2 -1 -6.5 -2t-6.5 -2q-3 2 -11 5t-11 5q-5 3 -9.5 8t-8 11t-5.5 10.5t-5.5 12.5t-4.5 11zM178.5 982.5q16.5 48.5 61.5 74.5q95 58 188 61q32 4 49 4q77 0 121 -30q23 -14 29 -39 q9 -56 -15 -111q-33 -65 -88 -123q-27 -28 -106 -121q-36 -42 -53 -86q-10 -26 2 -49q18 -32 28 -55q3 -6 -0.5 -19t-9.5 -14q-26 -4 -35 2q-41 21 -65 74q-17 33 -4 74q17 47 41 77q19 21 52.5 62t43.5 53q57 60 84 94q35 45 37 78q4 15 -9 23q-38 30 -81 24 q-74 -12 -111 -24q-97 -33 -109 -109q-5 -18 -10 -22q-5 -7 -20 -11q-6 -2 -12 2t-7 11q-18 51 -1.5 99.5z" />
<glyph unicode="A" horiz-adv-x="696" d="M-113 131q15 35 66 102q118 153 188 250q31 39 29 74q-3 33 27 43q61 22 102 86q12 19 81.5 130t106.5 169q7 13 12 27.5t10.5 34t8.5 28.5q8 32 47 45q9 3 17 3q15 0 28 -10q21 -16 23 -40v-12q-20 -75 -22 -176q-1 -29 -1 -56q0 -67 4 -120q0 -21 11 -33.5t28 -11.5h21 q22 0 56 -1q28 -1 54 -1h37q41 2 76 12q14 -2 33 -2q39 0 102 7q45 5 78 5q36 0 57 -6q2 0 5.5 -3.5t3.5 -4.5t-1.5 -7t-3 -9.5t-4.5 -4.5q-20 -10 -39 -10q-44 -2 -148 -20q-99 -17 -157 -17h-6q-75 -19 -145 -22q-32 -1 -45 -15.5t-13 -46.5v-340q0 -47 -8 -149 q-3 -14 -22 -33q-5 -5 -15 -5q-5 0 -10 1q-18 6 -18 16q-2 18 -3 38.5t-1.5 45.5t-1.5 39h4q-3 46 -9.5 132t-9.5 124l-3 48l-3 48q-2 47 -20 61q-12 9 -40 9q-12 0 -28 -2q-30 -5 -39 -8q-23 -7 -50.5 -12.5t-39 -8.5t-29.5 -14t-35.5 -32.5t-42.5 -59.5 q-84 -126 -210 -301q-15 -21 -35 -41q-4 -6 -17.5 -6.5t-19.5 4.5q-26 18 -26 40q0 9 5 19zM381 648q7 -12 22 -11q22 0 68 4q13 1 24 13.5t13 23.5q0 8 1 27t1 34q-5 63 -8 86q0 9 -8 9h-2h-4q-5 -1 -7 -3q-7 -11 -21.5 -33t-21.5 -34q-36 -56 -57 -92q-4 -6 -4 -12t4 -12z " />
<glyph unicode="B" horiz-adv-x="811" d="M-59 115q0 31 32 97q2 5 8 17l9 19q19 44 47 55q7 3 14 0q10 -5 10 -10q-13 -49 -34 -113q-11 -27 -11 -56q0 -36 17 -75q37 -85 121 -129q39 -22 112 -41q21 -4 29 -2q23 4 70 9t83.5 12.5t67.5 23.5q45 23 88 55q83 62 86 168q0 21 -1 61t-1 60q-3 47 -39 96 q-70 95 -174 140q-43 18 -164 73q-6 3 -17.5 -5t-14.5 -17q-12 -28 -18.5 -82.5t-8.5 -64.5q-11 -46 -33 -68q-21 -18 -41 -12q-15 3 -26 14q-39 48 -39 111q3 128 63 245q118 232 322 412q16 12 26 14q17 7 33 7q20 0 39 -11q12 -6 19 -28t1 -39q-22 -63 -34 -82 q-21 -32 -63 -90.5t-50 -69.5q-48 -69 -59 -104q-3 -12 1.5 -31t14.5 -25q30 -18 51 -28q82 -40 121 -60q83 -46 150 -147q52 -79 52 -191q0 -33 -5 -69q-1 -7 -6.5 -21.5t-6.5 -21.5q-10 -93 -63.5 -152.5t-145.5 -99.5q-137 -60 -227 -60h-14h-80q-133 3 -225 103 q-37 37 -50 75q-1 4 -4 12q-33 97 -32 126z" />
<glyph unicode="C" horiz-adv-x="927" d="M18 266q-18 80 -18 157q0 208 133 396q130 185 311 268q54 24 95 35q26 8 52 8q33 0 67 -14q58 -26 92 -84q11 -19 11 -38q-1 -16 -9 -34q-18 -38 -56 -47q-10 -2 -19 -2q-33 0 -54 29q-1 2 -25 43q-6 15 -23.5 23.5t-31.5 3.5q-182 -67 -275 -183q-77 -103 -116 -200 q-40 -101 -40 -202q0 -70 19 -142q21 -83 81 -129t136 -48h62q11 -1 23 -1q100 0 255 69q37 16 104 49.5t91 44.5q17 4 30 -6q8 -3 8 -8q0 -6 -10 -16q-23 -28 -34 -35q-55 -35 -79.5 -50.5t-70.5 -39.5t-86 -37q-17 -5 -61 -27q-96 -45 -226 -45q-25 0 -51 2q-72 3 -141 47 q-113 69 -144 213z" />
<glyph unicode="D" horiz-adv-x="802" d="M-195 989q1 2 3.5 7.5t3.5 7.5q74 105 163 141q103 40 215 49q21 2 42 2q107 0 217 -59q114 -60 213 -187q75 -101 81 -217q1 -16 5 -65t6 -74q-1 -13 -2 -45t-1.5 -47t-3 -43t-5.5 -46.5t-9 -42t-14 -44.5q-84 -209 -254 -289q-62 -30 -88 -35q-18 -4 -34 -4 q-57 0 -95 45q-20 23 -10 57q3 9 9.5 13.5t12.5 1.5q7 -4 25 -16.5t28 -16.5q16 -12 31 -6q40 12 61.5 20t50.5 28.5t46 47.5q14 21 28 35q71 71 101 194q20 85 20 169q0 88 -22 175q-51 189 -232 287q-96 53 -201 53q-86 0 -178 -36q-62 -24 -110 -88q-4 -5 -25 -58 q-9 -30 -16 -43q-2 -5 -25 -16q-2 -2 -12 8q-27 35 -27 103q0 16 2 34zM139 217q0 1 5 38.5t10 59.5q52 242 106 426q4 13 21 43q4 12 21 20q14 7 25 7h5q14 -3 26.5 -18.5t12.5 -28.5q0 -21 -2 -31q-2 -13 -11 -45q-29 -85 -85.5 -254t-84.5 -254q-3 -10 -26 -10 q-11 4 -19 20q-1 2 -4 27z" />
<glyph unicode="E" horiz-adv-x="894" d="M-86 475q6 28 27 33q4 1 73 12q33 3 45 33q4 9 12.5 27.5t12.5 27.5q57 138 123 223q38 59 43 78q20 66 88 99q213 113 440 113q25 0 51 -1q20 0 56 -16q3 -1 4.5 -5t2.5 -11t1 -9q0 -6 -8 -10q-25 -10 -29 -10h-10q-32 1 -70 -5q-44 -6 -73.5 -13.5t-80.5 -22t-73 -19.5 q-12 -4 -14 -4q-76 -28 -122 -70.5t-59 -113.5q-6 -37 -47 -53q-48 -19 -71 -74q-8 -19 -25 -55t-25 -54q-7 -15 2.5 -30t24.5 -13q70 7 198.5 29.5t155.5 26.5q26 4 91.5 16t113 19t92.5 10q2 1 23 -10q-2 -2 -5 -7t-5 -6q-22 -10 -50 -19.5t-46.5 -14.5t-55 -14t-49.5 -13 q-78 -21 -232.5 -60t-232.5 -59q-23 -3 -43 -12q-33 -13 -39 -43q-10 -42 -10 -81q0 -35 8 -69q13 -61 59 -99q42 -36 105 -36h10q69 0 145 29q12 5 70 27.5t77 30t67 28.5t74.5 35.5t63 37t66.5 46.5q3 2 12.5 -1.5t12.5 -7.5q6 -6 6 -15q0 -5 -2 -11q-15 -22 -31 -33 q-219 -155 -407 -223q-57 -20 -92.5 -26.5t-98.5 -6.5q-22 0 -59 6q-28 4 -43 14q-105 60 -137 170q-7 25 -10.5 52t-5 60.5t-3.5 51.5q-5 30 -35 45q-20 10 -47 33q-12 11 -12 29q0 6 2 14z" />
<glyph unicode="F" horiz-adv-x="937" d="M-256 479q3 12 17 25.5t24 13.5h14q59 -18 124 -18q68 0 143 20q3 0 7.5 1t6.5 1q49 0 73.5 25.5t34.5 75.5q12 68 74 194q7 15 36 68t38 84q16 4 22 4q26 -3 43 -23q30 -30 17 -53q-31 -60 -43 -80q-44 -75 -88 -190q-8 -16 -4 -43q0 -6 5.5 -12.5t10.5 -8.5 q36 -8 68 -8q35 0 65 10q24 7 51 11.5t60.5 7.5t50.5 6q15 1 56 7t63 7q64 4 194 8q7 0 23 -16q5 -8 -3 -20t-20 -15q-37 -5 -109.5 -18.5t-109.5 -18.5q-258 -36 -383 -71q-40 -11 -43 -13q-33 -15 -41 -41q-42 -141 -42 -255q0 -52 9 -99q3 -17 -2 -31q-5 -15 -18 -18 q-3 -1 -7 -1q-10 0 -20 7q-38 38 -41 94q-1 24 -1 47q0 108 16 179q2 11 4 33t2 24q0 9 -10 20t-19 11q-25 2 -76 2q-35 1 -104.5 1t-104.5 1q-12 0 -40 14q-12 4 -19 20q-5 12 -5 22q0 5 1 9zM16 924q23 34 25 37q41 43 115 71q90 33 170 58q122 38 270 37q57 0 117 -5 q61 -6 129 -39q78 -40 96 -127q0 -2 -2 -6t-2 -6q-10 -20 -25 -8l-7.5 5t-8.5 6t-8 7q-64 71 -203 82q-15 1 -35 1q-40 0 -100 -5q-32 -3 -89.5 -13.5t-72.5 -12.5q-2 0 -5 -1t-5 -1q-15 0 -37 -11q-10 -3 -25 -10h-4q-6 -2 -19.5 -5t-19.5 -5q-1 0 -3 -1t-3 -1 q-93 -20 -149 -92q-13 -19 -37 -21q-2 0 -5 -1q-21 0 -40 13q-9 6 -15 25q-4 11 -4 20q0 5 2 9z" />
<glyph unicode="G" horiz-adv-x="1042" d="M8 459q4 20 8 30q59 130 92 180q25 36 52 64q152 154 381 283q30 17 89.5 44.5t67.5 31.5q67 30 154 30h16q83 -6 138 -73q17 -21 17 -49q0 -12 -3 -25q-5 -21 -25 -31t-37 0q-17 9 -47.5 28.5t-46.5 28.5q-32 18 -61 9q-249 -71 -393 -199q-39 -35 -62 -51 q-29 -20 -57 -50t-45 -52.5t-45 -61.5q-43 -62 -61 -134q-13 -54 -13 -124q0 -23 2 -49v-1q0 -10 2 -26q1 -61 51 -109.5t115 -54.5q35 -4 71 -4q145 0 302 62q90 37 104 48q20 15 40 61q22 51 26 59q31 68 39 120q2 11 -6.5 20.5t-20.5 10.5q-30 5 -61 5q-101 0 -218 -52 q-7 -3 -22.5 -10.5t-27.5 -11.5t-23 -5h-7q-38 0 -61 33q-11 15 -11.5 38.5t11.5 35.5q20 24 37 29q57 20 109 28q140 19 311 60q10 2 31 2q109 -3 112 -107q0 -67 -26 -123q-14 -30 -14 -65q0 -21 5 -43q6 -37 -18 -58q-65 -57 -123 -145q-14 -20 -43 -8q-23 11 -44 11 q-17 0 -32 -7q-6 -2 -27.5 -10t-31.5 -13q-139 -59 -339 -59q-33 0 -67 2q-90 3 -174 70q-55 42 -80 133q-18 77 -18 153q0 51 8 101z" />
<glyph unicode="H" horiz-adv-x="935" d="M0 492q4 16 18 28q9 9 25 21q38 21 49 61q2 12 35 139q16 56 47.5 169.5t48.5 170.5q6 19 29 35q22 17 53.5 3.5t36.5 -40.5q6 -43 6 -68v-12q0 -61 -8 -110q-4 -47 -35 -72q-64 -52 -82 -166q-1 -10 8.5 -21.5t20.5 -11.5q5 0 15 -1t18 -1t14 2q110 19 346 66 q44 8 53 53q27 178 39 238q11 60 49 201q3 11 35 53q13 13 29 13q8 0 16 -3q33 -11 43.5 -33t-2.5 -53q-21 -46 -34.5 -99t-26 -124t-19.5 -103q-3 -6 -0.5 -39t2.5 -40q0 -9 12 -18t23 -9q52 4 80 8q4 1 22.5 3.5t24 3t22 3t24 3t22 1.5t24 0.5t22 -1t24 -2t22.5 -3.5 q16 -3 16 -14q0 -4 -2 -8q-5 -13 -6 -15q-5 -10 -10 -10q-34 -3 -113.5 -21.5t-124.5 -19.5q-25 0 -61 -12q-46 -14 -57 -51q-17 -43 -21 -62q-38 -226 -43 -254q-15 -94 -43 -219q-2 -11 -6.5 -23.5t-8.5 -20.5l-11.5 -23l-10.5 -21q-3 -9 -15 -13q-9 -3 -18 -4q-4 0 -8 1 q-11 3 -19.5 13t-8.5 22q0 53 2 63q22 88 46.5 252t35.5 221v33q0 11 -10 21t-21 10h-47q-282 -66 -297 -70q-10 -2 -30 -10t-30 -10q-46 -12 -61 -70q-11 -41 -14 -94q-3 -32 -9 -63t-18.5 -78.5t-15.5 -61.5q-4 -8 -13 -8q-18 3 -26 12q-10 13 -13 29q-6 55 -6 80v63 q4 19 4 37q0 68 -51 127q-6 8 -6 19q-1 3 0 8z" />
<glyph unicode="I" d="M-168 49q0 7 4 16t8 9q10 2 56 6.5t69 13.5q128 52 224 104t174 124q219 203 329 446q33 76 33 133v6q-3 51 -47 78q-47 28 -94 28q-14 0 -29 -3q-95 -18 -156 -37q-62 -21 -77 -74q-7 -23 -31 -55q-3 -8 -23 -23q-34 -21 -57 -21q-8 0 -16 3q-51 23 -54 76v9q0 48 29 77 q120 122 311 145q36 5 105 8q6 -1 37 -2.5t49 -3.5q63 -9 112 -55q60 -53 60 -126q0 -23 -6 -48q-25 -101 -58 -166q-140 -280 -385 -484q-216 -182 -483 -233h-3q-10 0 -44 4q-14 2 -25.5 16t-11.5 29z" />
<glyph unicode="J" horiz-adv-x="647" d="M-352 -281q9 53 45 99q37 50 78 96q21 22 62 62.5t66 66t58 62t59 69.5q3 3 11.5 4t13.5 -2q6 -1 7.5 -8.5t-1.5 -13.5q-23 -37 -31 -48q-16 -19 -69.5 -88t-87.5 -102q-24 -28 -24 -51q0 -5 1 -10h-9.5t-6.5 -1.5t-3 -5.5t7 -10q2 -4 8 6q3 7 2 13q32 5 39 10 q21 17 92.5 72.5t117 93.5t87.5 78q146 142 246 278q98 128 180 293q8 17 15.5 37t12.5 35t11 39t8.5 35.5t8 39.5t7.5 37q2 16 -2 41q-2 31 -21 51.5t-48 20.5q-10 1 -24 1q-29 0 -72 -3q-22 -2 -64 -23q-45 -28 -49 -61q-10 -42 -33 -60q-29 -18 -51 -16q-15 3 -28.5 17.5 t-16.5 29.5q-2 12 -2 23q0 33 16 57q41 58 90 84q112 59 203 59h6q55 0 82 -4q32 -2 62 -28t36 -58q12 -60 12 -106q0 -23 -3 -43q-20 -156 -136 -342q-11 -16 -31 -47t-36.5 -55.5t-32.5 -45.5q-82 -113 -137 -172q-138 -158 -266 -260q-36 -29 -105.5 -87.5t-105.5 -86.5 q-62 -48 -168 -121q-10 -7 -27 -7q-12 0 -26 3q-17 5 -27 20q-7 12 -7 23q0 5 1 10z" />
<glyph unicode="K" horiz-adv-x="1230" d="M0 23q0 46 4 69q12 63 35.5 197.5t36.5 204.5q5 24 -13 53q-15 24 -15 44q0 24 22 44q42 39 67 121q34 110 56 174q30 93 92 174q16 20 39 20q4 0 8 -1q28 -4 45 -33q8 -12 4 -27q-9 -17 -31 -47q-70 -102 -110 -242q-7 -17 6 -22q4 -2 26 -2q5 0 13 4v2q310 120 512 192 q123 43 204 45q35 0 56 -8q15 -5 30 -27q7 -10 1 -27.5t-17 -17.5q-17 1 -33.5 1t-32.5 -1q-32 -2 -72.5 -11.5t-59 -14.5t-70 -21.5t-60.5 -19.5q-3 -1 -79 -29q-176 -81 -299 -123q-8 -3 -50 -24q-15 -9 -23.5 -28t-2.5 -34q19 -47 35 -76q64 -92 155 -137 q139 -71 217 -102q20 -7 71.5 -26.5t78 -29t69.5 -24t80 -25t74 -18.5q15 -2 39 -14q6 -3 10 -17q2 -6 2 -10q0 -6 -4 -10q-13 -19 -18 -17q-32 8 -97 18.5t-96 18.5q-182 44 -399 135q-171 74 -285 224q-4 4 -9 7.5t-12.5 7.5t-11.5 7q-3 3 -12 -2q-6 -6 -6 -12 q-8 -52 -59 -318q-2 -10 -10.5 -45t-12 -52t-7 -45t-3.5 -52q0 -19 -29 -27q-3 -1 -7 -1q-6 0 -14 4q-12 6 -14 14q-14 28 -14 39z" />
<glyph unicode="L" horiz-adv-x="903" d="M0 174q13 110 47 201q125 335 246 528q61 102 82 172q6 17 26 33q19 15 42 15q3 -1 7 -1q27 -2 46 -22q17 -22 24 -35q6 -12 2 -29q-10 -29 -20 -37q-27 -27 -55 -63.5t-44 -61.5t-45.5 -73t-40.5 -66q-30 -44 -77 -157q-6 -15 -35.5 -83t-40.5 -96t-27 -80.5t-22 -97.5 q-4 -20 -4 -28q-1 -6 -1 -12q0 -29 20 -51q22 -25 51 -24h7q95 11 160 23q252 53 328 72q67 16 148 16h26q4 0 10 -6.5t6 -11.5q2 -7 -12 -25q-3 -6 -12 -6q-49 -18 -144 -43t-137 -39q-56 -19 -268 -66q-10 -2 -139 -12q-76 11 -95 17q-38 10 -47 49q-13 53 -13 85 q0 8 1 15z" />
<glyph unicode="M" horiz-adv-x="1265" d="M-145 76q2 4 2 10q20 79 43 109q11 12 63 77q5 6 37.5 48.5t50.5 64.5q110 125 285 346q76 97 219 260q41 47 84 96q6 9 18 15q5 5 11 8q8 8 34 8q21 0 27 -6q24 -24 27 -43q1 -13 1 -25q0 -37 -7 -65q-19 -58 -80 -225q-12 -35 -21 -56q-46 -130 -74 -270q-1 -3 5 -20h2 q8 -15 18 -15q11 0 21 10q2 2 6 6.5t6 6.5q38 34 53 55q63 86 213 240q3 4 23 24q1 1 8 9t12 12q60 63 90 95.5t73 92t69 113.5q3 7 22 30q2 2 6 6.5t6 6.5q10 14 37 14q14 0 23 -6q45 -26 51 -68q4 -36 4 -72q0 -73 -16 -149q-7 -29 -15 -47q-2 -7 -6 -21.5t-6 -21.5 q-93 -372 -111 -719q0 -6 -5 -13.5t-11 -8.5h-4q-15 0 -21 6q-57 96 -57 188q2 176 59 443q0 3 1.5 7.5t1.5 6.5q17 76 17 132q0 31 -5 56l-2 9l-6 -5q-9 -3 -15 -6q-22 -7 -32 -20q-39 -45 -74 -92q-12 -14 -34 -41.5t-34 -40.5q-20 -26 -174 -209q-75 -89 -160 -195 q-54 -64 -135 -92q-8 -4 -16 -4q-17 0 -30.5 10t-18.5 25q-15 57 -15 72q3 46 21 108q11 41 33.5 124t33.5 124q28 94 41 147q4 13 -2 23q-8 8 -16 8q-10 0 -21 -14q-20 -24 -30 -39q-57 -68 -84 -111q-24 -34 -76 -94q-30 -34 -41 -49q-100 -124 -248 -330q-9 -12 -28 -55 q-2 -12 -11 -29q-19 -39 -53 -39q-20 0 -45 21q-18 18 -18 38v5z" />
<glyph unicode="N" horiz-adv-x="1122" d="M2 55q-2 4 -2 12t2 19q18 101 59 197q28 69 144 333q35 81 100 215q11 26 45 64q22 25 50 25q7 0 14 -2q36 -8 47 -46q12 -43 35 -122.5t26 -90.5q37 -141 140 -352q34 -74 114 -151q15 -15 36 -13t30 21q22 44 34 73.5t22.5 71t10.5 80.5q14 56 23.5 112.5t21.5 146.5 t15 114q4 34 8 47q20 78 22 92t2 29.5t-1 35t-1 29.5h-2v78q2 14 14 28t25 17q10 3 21 3q7 1 15 -1q18 -4 24 -14q14 -22 41 -67t41 -68q3 -5 3 -11q1 -8 -5 -16q-10 -16 -29 -16q-54 0 -66 -54q-12 -39 -14 -61q-6 -52 -17.5 -156.5t-17.5 -156.5q-26 -192 -43 -267 q-18 -80 -69 -176q-30 -58 -117 -69q-3 -1 -7 -1q-12 0 -24 9q-61 61 -76 80q-126 158 -207 370q-8 20 -27 73.5t-34.5 90.5t-34.5 70q-5 10 -12 10q-2 0 -12 -10q-4 -8 -37 -71.5t-45 -98.5q-19 -51 -55.5 -138.5t-65 -162.5t-47.5 -143q-3 -10 -17 -43q-5 -11 -33.5 -20.5 t-35.5 -0.5q-13 13 -31 53z" />
<glyph unicode="O" horiz-adv-x="847" d="M20 406q7 36 25 81q7 16 21.5 45l17.5 35q71 156 88 209q6 20 25 43q184 184 415 187h6q91 0 152.5 -56t71.5 -151q4 -25 4 -70v-20q0 -254 -160 -443q-142 -174 -367 -250q-51 -14 -81 -14q-69 0 -134 41q-41 23 -63 74q-35 81 -35 171q0 57 14 118zM133 231 q6 -49 34.5 -76.5t74.5 -29.5h16q55 0 90 18l2 2q62 30 121 68q133 86 201 219q66 126 78 289q-4 82 -25 123q-27 57 -82 67q-16 2 -45 2h-16h-11q-19 0 -30 -14q-7 -13 4 -27l12 -18q3 -4 9 -12.5t9 -12.5q6 -13 0 -32q-7 -15 -16 -15q-4 -2 -12 -2q-18 -6 -37 -6 q-4 2 -12 2q-91 0 -181 -84q-76 -67 -118 -153q-69 -139 -69 -258q0 -25 3 -50z" />
<glyph unicode="P" horiz-adv-x="837" d="M-14 1093q0 43 34 60q75 39 125 43q17 1 71 4.5t75 5.5q23 -2 61 -4.5t59.5 -4t50 -7t52.5 -14.5q122 -45 244 -142q7 -5 18.5 -15.5t14.5 -12.5q89 -63 100 -207q1 -12 2 -23q0 -63 -43 -117q-81 -93 -223 -141q-7 -2 -27.5 -6t-30.5 -8q-30 -11 -66 -11q-55 0 -122 27 q-22 10 -33 47q-3 9 6 19.5t19 9.5l20 -4t23 -6q27 -11 58 -10q39 0 85 16q131 49 203 145q23 30 23 66q0 22 -9 47q-8 27 -20 39q-141 161 -307 196q-131 27 -196 27h-9q-120 -7 -172 -74q-10 -10 -25 -14q-15 -3 -29 4q-32 22 -32 65zM6 68v9q0 19 3 39q4 26 8.5 43 t12.5 45t11 42q35 147 88 313q4 12 9.5 25t10.5 22.5t13 24t12 22.5q2 4 21 23q11 12 33 12h2q20 0 32 -10q10 -6 17 -24q5 -12 5 -22q0 -4 -1 -7q-10 -31 -17 -41q-42 -71 -78 -193q-18 -59 -51 -173.5t-49 -168.5q-7 -26 -18 -39q-9 -12 -25 -12t-25 14q-3 9 -7 28t-7 28z " />
<glyph unicode="Q" horiz-adv-x="1054" d="M0 291q0 152 66 313q41 102 106 154q18 13 54 46.5t57 47.5q156 108 178 125q66 53 217 119q60 27 153 27q29 0 62 -3q48 -5 80 -57q37 -50 43 -107q4 -31 7 -76t3 -49q-1 -159 -52 -284.5t-145 -239.5q-5 -7 -25.5 -30t-29.5 -37q-18 -24 -12 -56q23 -96 78 -188 q3 -7 -9 -25q-6 -9 -19 -9q-1 -1 -2 -1q-11 0 -17 8q-36 36 -50 54q-11 16 -32.5 47t-32.5 47q-13 13 -27 10q-10 -3 -29 -13t-24 -12q-75 -30 -133 -57q-82 -36 -191 -36q-32 0 -67 3q-41 3 -80 31q-127 92 -127 248zM109 265.5q0 -14.5 2 -27.5q9 -56 42.5 -92t88.5 -46 q27 -5 52 -5q48 0 91 16q142 45 223 104q36 26 39 74q0 7 1 21.5t1 21.5q-2 23 0.5 49.5t7 44.5t12.5 48t11 44q2 9 16 23q20 26 52 20q12 -2 24 -14t12 -25q2 -23 2 -71q0 -7 9 -11q4 -4 10 2q149 174 156 443q0 50 -27 112q-10 23 -39 41q-35 20 -66 20q-15 0 -30 -5 q-2 -1 -84 -25q-9 -4 -26.5 -12t-26.5 -12q-16 -10 -11 -23l6 -12q76 -49 97 -66q30 -23 30 -61q0 -13 -12 -25t-27 -8q-6 2 -36 22q-49 37 -117 37q-23 0 -47 -4q-101 -15 -150 -49q-7 -6 -20.5 -12.5t-18.5 -9.5q-80 -45 -137 -127q-108 -149 -108 -340q0 -10 -1 -28 t-1 -32.5z" />
<glyph unicode="R" horiz-adv-x="794" d="M0 45v14q1 8 4.5 24t5.5 26t3.5 24.5t0.5 26.5v5q0 32 21 109q29 96 51 140q18 33 18 61q0 7 -1 13q-5 34 -42 67q-24 19 -24 49.5t18 57.5q14 25 35 22q26 0 72 -8q14 -4 23 -3t12.5 4.5t11.5 16.5q66 112 108 176q12 19 41 41q24 18 56 7q12 -4 20.5 -21.5t3.5 -28.5 q-13 -32 -30 -65q-113 -190 -134 -228q-5 -8 7 -26q12 -12 26 -8q63 17 82 28q90 48 229 162q62 53 117 111q23 26 43 59q15 26 6.5 58t-34.5 45q-61 35 -132 35q-11 0 -22 -1q-107 -6 -188 -37q-111 -39 -162 -118q-16 -25 -29 -33q-5 -4 -14.5 -4t-12.5 4q-23 27 -23 66 q0 44 26 67q21 21 45 39q163 101 391 108q4 0 24 -0.5t26 -1t23.5 -1.5t26.5 -3t23 -4.5t26 -6.5t23 -9q51 -24 77 -76q19 -37 20 -77q0 -15 -3 -29q-18 -76 -59 -117q-74 -78 -105 -103q-94 -77 -223 -167q-16 -12 -35 -23t-43 -24t-37 -21q-11 -6 -14 -23t6 -28 q132 -167 193 -260q183 -203 340 -301q16 -10 54.5 -34t60 -37.5t51.5 -35t53 -41.5q16 -12 20 -20q2 -4 2.5 -11t-2.5 -16q0 -2 -4.5 -4t-7.5 -2q-25 0 -29 2q-283 149 -454 297q-48 41 -154 160q-58 67 -178 213q-8 9 -24.5 27.5t-24.5 27.5q-12 9 -23 20 q-22 22 -46.5 15.5t-33.5 -35.5q-12 -43 -29.5 -93.5t-30.5 -85t-35.5 -93t-33.5 -86.5q-3 -8 -10.5 -10.5t-15.5 1.5q-12 8 -21 17q-2 4 -2 14z" />
<glyph unicode="S" horiz-adv-x="679" d="M12 125q-2 10 -2 19q0 36 29 65q3 6 16 6q9 0 13 -4q1 -1 2 -3t2 -3q4 -4 4 -6q18 -99 149 -107q24 0 56 4q120 24 165 107q19 35 19 78q0 49 -25 108q-22 51 -94 184q-28 48 -65 156q-9 22 -11 33q-11 31 -11 70q0 21 3 45q9 67 60 112q108 91 253 127h3q20 4 30 4h13 q219 0 323 -145q0 -5 -6 -17v-4q-4 0 -8 -2q-4 -4 -10 -4v2q-16 3 -29 13q-82 53 -201 53q-54 0 -106 -8q-32 -5 -115 -43q-54 -28 -76 -76q-17 -32 -17 -73q0 -17 3 -36q9 -50 24 -84q66 -132 107 -198q19 -32 32.5 -73.5t17.5 -65t13 -78.5l2 -9q1 -7 1 -14q0 -40 -19 -98 q-18 -52 -57 -74q-124 -76 -224 -76q-20 0 -30 2h-2q-3 0 -9.5 -1t-9.5 -1q-61 0 -159 41q-44 20 -54 74z" />
<glyph unicode="T" horiz-adv-x="528" d="M6 109q10 47 41 139q6 18 18.5 53.5t18.5 52.5q20 57 43 123q8 26 17.5 52t21.5 54.5t21 48.5t25 53t23 47t26 51.5t24 47.5q4 7 11 21.5t11 21.5q30 62 99 125q17 17 32 17q4 0 6 -2q17 -3 33 -18.5t19 -30.5v-11q0 -14 -2 -18q-29 -48 -45 -66q-39 -44 -89 -137 q-112 -221 -231 -534q-24 -64 -43 -168v-4q-3 -8 -20 -17h-3q-2 -2 -8 -2q-16 0 -28 12q-23 29 -23 65q0 12 2 24zM23 997q-4 11 -4 21q0 26 24 45q85 70 184 94q6 2 19 5t20 5q6 1 39.5 9t41.5 10t39 9t42.5 9t39.5 7.5t43 7.5t40 5.5t43.5 5t40.5 2.5t43 1q29 0 43 -2h57 q47 0 72 2h41q113 0 228 -25t267 -75h3q6 -3 10 -7q8 -8 16 -24q0 -6 -2 -8q-9 -9 -18 -9q-5 0 -9 2q-14 2 -40 5.5t-39 5.5q-126 13 -177 24q-133 21 -235 21q-107 0 -231 -19q-54 -8 -80 -8q-54 -1 -120.5 -12.5t-100.5 -20t-113 -30.5q-88 -26 -156 -88q-17 -17 -33 -17 q-26 0 -38 49z" />
<glyph unicode="U" horiz-adv-x="1015" d="M14 240q-4 21 -4 41.5t4 40.5q91 343 328 610l39 39q2 1 6 4t6 4q7 10 31 10q16 0 25 -6q26 -17 26 -57v-11q-5 -21 -10 -26q-23 -31 -76 -84l-6 -6q-75 -78 -121 -176q-7 -12 -14 -29q-89 -177 -113 -281q-5 -17 -4 -33q0 -22 8 -42q6 -15 22.5 -27t33.5 -12q1 0 4.5 1 t5.5 1q80 24 129 59q28 19 90.5 63t95.5 66l31 23q12 6 22 16q34 26 50 31q51 22 84 60t63 91q71 131 129 187q15 15 47 39l6 4q8 8 23 8q27 0 41 -21q15 -23 15 -49q0 -24 -13 -39q0 -2 -4 -6q-6 -9 -17 -20q-103 -100 -157 -236q-48 -127 -54 -278v-82q0 -61 -2 -94 q0 -9 -12 -21h-2q0 -2 -2 -2q-6 0 -16 5t-11 9q-1 1 -8 15q-12 20 -14 30q-14 57 -17 103q-4 35 -4 104q0 9 -1 27t-1 26q0 17 -9.5 27t-24.5 10q-16 0 -29 -8q-23 -16 -77.5 -51t-82.5 -55q-90 -63 -229 -125q-41 -20 -101 -23q-39 0 -70 21.5t-40 56.5q-7 21 -10 39 q-1 3 -4.5 13t-4.5 16z" />
<glyph unicode="V" horiz-adv-x="718" d="M10 451v59q1 27 3 85t3 85v18q5 60 7 74q26 130 26 217q0 22 -2 41q-2 27 26.5 54.5t63.5 31.5q2 2 8 2q23 0 43 -14.5t23 -34.5q4 -31 4 -90q0 -7 -8 -23q-1 -1 -2 -4t-2 -4q-44 -103 -66 -307q-20 -220 -20 -353q0 -41 2 -73q2 -23 14 -25q19 0 37 3q8 2 20 14 q7 8 23.5 25t24.5 26q109 119 139 154q6 4 14 16q81 93 139 139q28 20 66 64q10 10 14 16q28 28 78.5 82.5t65.5 69.5q17 18 103.5 110t133.5 140q12 14 43 36q2 1 6.5 4.5t6.5 4.5q4 4 8 4q6 0 6 -8v-3q4 -8 4 -12q-2 -2 -2 -4q-4 -20 -8 -24q-87 -103 -152 -185 q-156 -193 -241 -280q-36 -38 -115 -138q-3 -4 -26.5 -32.5t-35.5 -44.5q-16 -17 -34 -41q-96 -115 -170 -197q-29 -31 -50 -50t-56.5 -40.5t-70.5 -28.5q-6 -2 -16 -2q-34 0 -45 35q-1 1 -2 3t-2 3q-2 6 -9.5 28t-9.5 32q-6 77 -6 147q-2 43 -2 129v55v11h-2z" />
<glyph unicode="W" horiz-adv-x="1296" d="M0 152q34 196 141 366q139 230 230 342q10 13 49 47q19 15 48.5 4t35.5 -34q5 -16 5 -31q0 -20 -9 -37q-8 -19 -37 -57q-8 -11 -67.5 -95.5t-92.5 -128.5q-56 -72 -106 -213q-5 -1 -1.5 -24t3.5 -27q-9 0 -13 -2q-1 -1 -2 -4t-2 -4q1 1 7 5.5t8 8.5q8 -1 16 -1 q26 0 47 16q64 54 194.5 141t184.5 129q22 17 46.5 13.5t45.5 -25.5q31 -35 39 -56q41 -109 41 -166q0 -59 12 -118q6 -19 33 -60q7 -12 29 -15t35 3q45 19 75 68q82 120 101 215q6 27 12 51q4 26 27.5 85t25.5 95q5 73 27 186q6 29 6 57q0 66 -31 128q-13 27 -26 63 q-3 8 6 24t18 17q24 6 49 6q20 0 33 -10q49 -35 148.5 -87.5t119.5 -63.5q5 -2 17 -27q1 -2 1 -5q0 -5 -3 -11q-1 -4 -6 -8.5t-7 -2.5q-26 6 -72.5 19.5t-60.5 17.5q-37 11 -82 21q-10 3 -23 -6.5t-13 -20.5q-1 -12 -2.5 -34t-2.5 -34q0 -124 -16 -223q-4 -25 -8 -72t-6 -65 q-25 -204 -92 -328q-50 -92 -136 -151q-31 -20 -79 -33q-7 -2 -15 -2q-16 0 -35 8q-92 43 -116 119q-5 18 -16.5 51t-19 60.5t-11.5 52.5q-7 81 -39 131q-3 4 -13.5 8t-15.5 2q-123 -72 -145 -90q-40 -31 -110 -91.5t-87 -74.5q-10 -9 -49 -38.5t-58 -47.5 q-16 -14 -37 -20.5t-35.5 -7.5t-41.5 -1q-34 0 -58 28q-19 22 -19 50q0 7 1 15z" />
<glyph unicode="X" horiz-adv-x="923" d="M4 53q-4 22 -4 42q0 57 33 102q52 71 119 118q28 18 83.5 55t83.5 56q13 8 81.5 50.5t103.5 66.5q33 20 33 55q4 104 8 320q3 89 28 165q5 19 23 31q15 10 34 10h7q23 -2 42.5 -23t18.5 -44v-27q-5 -16 -9 -33t-7 -37.5t-5 -33.5t-3.5 -39t-2 -35.5t-2 -40.5t-1.5 -37 v-12q0 -26 6 -72q2 -9 8.5 -13t15.5 -1q3 1 27 9.5t35 14.5q23 15 69.5 47t69.5 48q197 139 369 235q11 6 45 19q7 0 14 -7q9 -5 9 -16q0 -6 -5 -10q-57 -48 -108 -80q-172 -104 -492 -350q-7 -5 -37 -35q-26 -26 -26 -59q0 -69 4 -201q0 -45 1 -135.5t1 -135.5 q0 -57 -39 -108q-11 -14 -30 -20q-7 -2 -13 -2q-9 0 -14 6q-27 27 -21 41q5 20 7 41.5t2.5 52t0.5 41.5q2 27 2 52q0 82 -18 146q-6 22 -9 63t-5 54q-2 17 -18.5 24.5t-33.5 -1.5q-193 -102 -319 -242q-17 -18 -33.5 -41t-35 -50.5t-29.5 -43.5q-5 -5 -31 -10q-9 -3 -19.5 7 t-13.5 23z" />
<glyph unicode="Y" horiz-adv-x="503" d="M0 915q0 89 55 156q12 14 36.5 14.5t39.5 -12.5q10 -9 15.5 -24.5t0.5 -24.5q-4 -13 -14.5 -34t-13.5 -29q-15 -34 -15 -66q0 -22 7 -43q2 -7 7 -20.5t7 -20.5q12 -31 45 -52q29 -18 58 -18h8q75 9 129.5 30.5t93.5 70.5q100 121 116 139q13 15 50.5 60.5t58.5 68.5 q15 18 46 21q6 1 11 1q26 0 47 -12q14 -8 23 -34q5 -15 5 -25q0 -8 -3 -14q-4 -7 -11.5 -21.5t-12 -22.5t-12 -19t-15.5 -19q-18 -18 -55 -57t-67.5 -67t-61.5 -50q-114 -79 -168 -201q-3 -6 -10.5 -18.5t-10.5 -18.5q-137 -257 -209 -516q-3 -15 -12 -27q0 -1 -23 -12 q-3 0 -8 10q-1 9 -3 27.5t-3 27.5q-1 21 2.5 47.5t6.5 40.5t11.5 48.5t10.5 42.5q47 159 112 286q18 33 41 88q3 7 -3.5 19t-14.5 14h-98q-40 0 -95 25q-67 30 -86 104q-18 81 -18 137z" />
<glyph unicode="Z" horiz-adv-x="1028" d="M2 668q11 38 43 41q68 6 207 14q18 0 76.5 0.5t86 1.5t73.5 5t83 11q8 -1 16 -1q95 0 179 91q85 96 96 107q7 9 2.5 21t-16.5 18q-7 3 -23 10.5t-28 11.5t-23 5q-61 5 -136 5q-28 -1 -56 -1q-108 -2 -189 -29q-10 -4 -22.5 -4.5t-30 1t-25.5 1.5q-13 1 -25 15.5t-14 29.5 q-1 26 13.5 47.5t36.5 24.5q55 8 80 10q105 5 126 8q89 12 122 12h5q175 -13 238 -26q19 -4 57 -25q44 -28 54 -71q3 -14 4 -27q0 -28 -15 -55q-11 -21 -26.5 -43t-35 -47.5t-30.5 -41.5q-1 -1 -6 -28q0 -1 5.5 -3.5t8.5 -2.5l240 -6v4q19 -1 93 -4t114 -3q69 0 172 -30 q14 -4 14 -13q0 -5 -4 -12q-5 -7 -24 -18q-10 -5 -15 -2q-81 10 -163 12q-18 0 -38 1q-74 -1 -176 -5q-130 -6 -163 -6q-24 -7 -50.5 -9.5t-59.5 -2.5t-50 -1q-70 -3 -119 -38q-32 -24 -119.5 -88t-148 -109.5t-115.5 -91.5q-95 -78 -145 -168q-10 -19 -0.5 -37t32.5 -21 q20 -4 31 -4q16 -2 49 -2q23 1 64.5 1.5t76.5 1.5t66 3q80 3 141 17q41 9 88 13t87.5 4.5t87.5 0.5h88q6 0 13 -5.5t9 -10.5q0 -13 -12 -29q-14 -14 -27 -14q-28 -1 -81 -12t-76 -13q-53 -5 -244.5 -30t-296.5 -27h-17q-75 0 -155 23q-44 10 -64 57q-10 23 -11 44 q0 21 11 40q32 54 56 78q140 134 198 184q30 26 86.5 70t75.5 59q17 17 21 25q6 8 6 30q0 2 -5 5t-8 3q-42 9 -90 9q-53 0 -114 -11q-5 -1 -10.5 -6t-12.5 -13t-10 -11q-18 -26 -45 -26q-5 0 -10 1q-48 14 -121 39q-15 4 -26 28q-7 16 -7 28q0 7 2 12z" />
<glyph unicode="[" horiz-adv-x="632" d="M-14 -8q-12 181 10 282q6 25 11.5 55t11 68t8.5 56q29 184 86 372q59 179 96 265q14 32 47 45q85 25 143 16q26 -4 55.5 -5t69.5 -1.5t56 -1.5q68 -4 102 -8q14 -2 53 -19q2 -1 8 -18q3 -16 -10 -19q-30 -6 -33 -6h-135v2q-55 0 -157 -4q-56 -4 -78 -39q-11 -18 -23 -24 q-19 -7 -33.5 -21.5t-20.5 -25.5t-17 -35q-40 -90 -74 -213q-57 -203 -105 -463q-5 -28 -20 -178q0 -2 3 -6t3 -5q4 -4 8 -6q13 -2 42 -7.5t42 -7.5t42 -6t42.5 -3t42.5 2q1 0 19 1t26 5q30 10 89.5 17t86.5 16q34 9 68 0q13 -6 10 -19q0 -8 -2 -8q-25 -21 -39 -25 q-173 -45 -229 -57q-112 -24 -201 -16q-17 0 -45 -4q-27 -6 -42 8.5t-17 40.5z" />
<glyph unicode="\" horiz-adv-x="561" d="M0 1059q-3 38 27 59q4 4 9.5 7t12.5 6.5t10 5.5q19 -7 27 -13q39 -27 39 -67q3 -76 25 -160q10 -50 28 -88q7 -16 19.5 -50t19.5 -50q6 -14 16.5 -43.5t20.5 -52t25 -40.5t22 -47q16 -46 54.5 -129t43.5 -94q56 -136 127 -266q7 -11 4 -25q-3 -10 -14 -18q-8 -4 -14 2 q-11 16 -32.5 44t-38.5 52t-30 47q-4 8 -33 59.5t-37 65.5t-32 58t-35 67t-29.5 60t-32 69t-26.5 64q-14 33 -44 93t-38 77q-65 144 -80 256q-1 11 -7 29.5t-7 21.5z" />
<glyph unicode="]" horiz-adv-x="620" d="M0 66q4 10 20 22q4 2 11 2q46 -8 126 26q5 2 7 3q11 3 41 16q2 1 16 10q9 6 31 48.5t24 54.5q5 15 5 20q-2 43 8.5 119.5t11.5 101.5q5 31 6 33q11 40 31.5 131t34.5 138q9 31 25.5 92.5t25.5 91.5q4 7 5 23.5t1 17.5q0 9 -6.5 14.5t-15.5 5.5q-62 -4 -95 -4v-2h-43 q-63 3 -114 -16q-41 -15 -62 28q-11 24 6 41q31 31 56 27q28 -6 104 -2q93 4 139 2q51 0 90 29q15 11 29 14q13 3 31 -4q16 -8 24 -19q19 -19 21.5 -42t-14.5 -44t-31 -28q-39 -18 -60 -72q-41 -121 -53 -162q-34 -120 -67 -268q-7 -37 -21 -147q0 -18 4 -54q2 -14 6.5 -42 t6.5 -42q4 -23 0 -63q-6 -65 -72 -80q-72 -14 -154 -47q-37 -15 -90 -29q-22 -4 -38 14.5t-11 41.5z" />
<glyph unicode="^" horiz-adv-x="737" d="M97.5 813.5q-2.5 9.5 0.5 13.5q19 28 25 33q17 16 38.5 32.5t37 26t44 27.5t40.5 25q47 27 88 24q49 1 85 -21.5t50 -62.5q4 -10 14 -49q5 -22 -10.5 -41t-40.5 -22q-6 -2 -18 5.5t-15 14.5q-7 14 -10 29q-1 4 -1 15t-1 16q-3 13 -17 24.5t-28 11.5q-54 0 -90 -14 q-100 -47 -139 -84q-9 -11 -25 -18q-5 -3 -19 2q-6 3 -8.5 12.5z" />
<glyph unicode="_" horiz-adv-x="1705" />
<glyph unicode="`" horiz-adv-x="270" d="M0 1092q4 12 10 24q10 12 24.5 13.5t26.5 -7.5q3 -3 10.5 -9t10.5 -9q74 -83 94 -184q1 -4 4 -15t3.5 -16.5t-1.5 -16.5q-4 -8 -12 -12q-8 0 -16 4q-10 7 -13 15q-53 123 -129 184q-3 2 -10 16q0 2 -1 6t-1 7z" />
<glyph unicode="a" d="M-4 127v2q18 254 199 426q50 47 127 76q23 10 45 10q33 0 63 -23q16 -10 29 -20q12 -8 20 -16q10 -7 21 -7q8 0 22 7q7 4 25 8h6q26 0 37 -25q12 -21 6 -37q-47 -84 -70 -116q-28 -46 -28 -95v-10v-37q0 -48 2 -73q2 -21 16 -58q43 -100 164 -100h12q15 0 39 4q32 4 47 4 q17 0 37 -4q1 -1 4 -2.5t5.5 -3.5t2.5 -4q-5 -18 -8 -25q-4 -8 -12 -8q-18 -4 -25 -8q-56 -15 -71 -17q-12 -2 -39 -2q-69 0 -142 37q-74 42 -108 148q-1 3 -3 10t-3 10q-8 31 -19 47q-6 6 -14 6h-2q-21 -14 -37 -30q-10 -10 -29.5 -31t-29.5 -31q-55 -55 -62 -63 q-34 -34 -90 -66q-20 -8 -35 -8q-34 0 -65.5 25t-34.5 61v25q0 10 -2 14zM80 141q2 -4 2 -16q1 -9 10 -15t17 -6h6q6 3 10 7q11 3 22 10q130 92 240 229q36 45 51 121q1 3 1 6q0 12 -9 29q-9 15 -31 37q-14 12 -30 12q-6 0 -13 -2q-81 -24 -149 -104q-108 -126 -127 -299v-9 z" />
<glyph unicode="b" horiz-adv-x="987" d="M0 39q0 18 4 24q15 18 29 27q38 24 74.5 52t74.5 63.5t63.5 60.5t69.5 70t64 65q36 36 55 91q11 32 36 91t34 81q51 130 139 225q13 14 29 28t37 31t32 27q10 9 22 9q14 0 28 -13q23 -21 23 -41q0 -9 -5 -19t-20.5 -43.5t-27 -55.5t-24.5 -42q-122 -184 -188 -274 q-51 -68 -86 -179q-8 -24 -8 -38q0 -18 -0.5 -50.5t-0.5 -59t1 -50.5q0 -24 16 -64q15 -32 42.5 -38t55.5 16q100 74 148 217q6 17 6 63q0 33 -2 41q-3 38 -29 58q-22 15 -37 37q-11 15 -11 32q0 15 9 31q4 10 19 16.5t24 1.5q2 -1 16 -7t21 -11q79 -49 176 -49q53 0 80 -2 q5 -1 51 -12q24 -7 38 -25q9 -12 9 -22q0 -5 -2 -9q-6 -13 -22 -21t-33 -5q-86 13 -147 13q-29 0 -52 -3q-9 -1 -17.5 -10t-10.5 -17q0 -2 -2 -6t-2 -6q2 -14 2 -30q0 -28 -7 -56q-11 -46 -24.5 -75t-40.5 -77q-42 -81 -133 -145q-34 -25 -72 -25q-14 0 -29 4q-55 12 -83 62 q-37 76 -37 127q1 13 1 31q0 35 -3 88q0 12 -4 12q-18 5 -23 0q-16 -14 -44.5 -41.5t-43.5 -40.5q-14 -13 -44 -42t-48 -46t-45.5 -39.5t-52.5 -38.5q-22 -15 -43.5 -5t-24.5 38z" />
<glyph unicode="c" horiz-adv-x="661" d="M0 197q6 143 94 256q83 107 193 159q66 29 129 29h12q37 -3 65.5 -29.5t32.5 -62.5q7 -30 -20 -47q-12 -8 -23 -4q-17 4 -22 12q-25 37 -71 37q-21 0 -46 -8q-82 -26 -141 -97q-60 -70 -82 -133q-21 -59 -21 -116q0 -4 1 -13.5t1 -13.5q3 -32 31 -57t60 -25t38 2 q14 4 58.5 15.5t74 21t56.5 22.5q19 10 106.5 49t130.5 68q24 14 50 17q7 2 22 -13q4 -5 4 -10q0 -7 -6 -14q-2 -1 -5 -4.5t-5 -4.5q-14 -8 -54.5 -33t-60.5 -37t-53.5 -31t-62.5 -33.5t-58 -26.5l-81 -30l-81 -30q-29 -10 -67 -10q-18 0 -37 2q-71 6 -115 59 q-47 56 -47 126v8z" />
<glyph unicode="d" horiz-adv-x="768" d="M12 166q0 3 11 45q33 130 43 160q7 27 24 56.5t30 47t38 49.5q3 3 8 10.5t8 10.5q80 102 219 151q15 6 31 6q27 0 51 -18q21 -14 43 -25q8 -4 10 -4q12 0 24 9t15 20q2 6 6 14q10 31 11 35q6 57 47 170l20 60q20 67 76 139q17 20 41 20h6q22 -8 36 -26t11 -35 q-11 -45 -18 -57q-53 -101 -107 -238q-31 -90 -37 -160q-2 -29 -18 -176q-3 -22 -3 -45q0 -92 48 -195q25 -60 76 -98q50 -36 121 -39h22h25q12 -4 18 -10q4 -8 4 -12q-4 -21 -22 -29q-22 -14 -56 -14q-8 0 -32 4q-101 18 -178 92q-19 17 -43 66q-67 140 -70 258 q0 10 -12 26l-4 2q-4 4 -9 4q-10 0 -20 -10q-26 -37 -51 -65v-3q-81 -100 -146 -188q-60 -81 -166 -147q-17 -10 -43 -13h-10q-31 0 -53 25q-28 36 -28 91q0 17 3 36zM111 190q0 -4 2 -8q0 -6 4 -22q0 -13 12 -19q4 -2 10 -2q7 0 15 4q52 36 104.5 90.5t79.5 89t82 107.5 q4 5 24 35q11 14 11 32q0 17 -9 38q-2 4 -7 12t-7 12q0 1 -1 2t-1 2q-16 29 -49 29q-12 0 -16 -2q-74 -32 -109 -74q-79 -94 -119 -194q-26 -63 -26 -129v-3z" />
<glyph unicode="e" horiz-adv-x="514" d="M4 160q-1 14 -1 28q0 51 9 97q19 109 76 196q10 17 25 29q83 72 153 108q29 12 45 17q14 4 27 4q26 0 50 -16q36 -24 44 -66q2 -11 2 -21q0 -28 -18 -51q-48 -60 -137 -106q-29 -13 -86 -17h-37q-29 0 -39 -26q-29 -60 -35 -119q-1 -9 -1 -17q0 -42 25 -77q19 -29 50 -35 q6 -1 15.5 -1.5t15.5 -1t8 -1.5q41 0 85.5 8.5t70 17t73.5 25.5q19 7 57.5 24.5t57.5 24.5q3 2 22 -4q6 -2 6 -10q0 -13 -10 -20q-2 -2 -5 -5.5t-5 -5.5q-115 -73 -260 -119q-32 -11 -81 -11q-25 0 -54 3q-59 6 -101.5 48t-46.5 100zM215 479q2 -1 5.5 -4.5t6.5 -5.5t6 -2 q56 0 89 55v10q-7 7 -11 7h-10q-49 0 -82 -47q-1 -2 -2 -6.5t-2 -6.5z" />
<glyph unicode="f" horiz-adv-x="534" d="M10 545q5 27 21 37q74 43 141 51q43 6 70 51q16 26 46.5 78.5t45.5 77.5q99 158 291 258q36 19 71 19q28 0 54 -11q62 -26 88 -88q19 -43 19 -86q0 -53 -30 -105q-36 -63 -77 -90q-12 -8 -27 2q-6 6 -10 27q-1 3 4 14q43 49 55 168q3 26 -28 50.5t-56 15.5 q-59 -21 -96 -43q-152 -93 -217 -244q-11 -28 0 -42.5t41 -16.5q2 0 6.5 -1t7.5 -1h14q47 9 134.5 11t105.5 3q88 7 166 7q128 0 225 -19q13 -2 37.5 -2.5t45 -3t36.5 -11.5q8 -8 6 -10q-6 -22 -10 -25q-19 -8 -43 -8q-36 -2 -77 -3t-89.5 -1.5t-75.5 -1.5q-24 -1 -70.5 -2 t-75.5 -2t-68.5 -5t-72.5 -11q-19 -4 -40.5 -6t-52.5 -2t-42 -1q-43 -4 -121 -8q-80 -9 -114 -84q-52 -117 -84 -243t-62 -295q-7 -43 -12 -181q0 -27 -0.5 -76t-0.5 -89t1 -76q1 -17 16 -105q3 -19 -4 -34q-8 -13 -18 -13h-2q-29 7 -35 43q-4 15 -8 45q-15 122 -16 150 q-1 20 0 42.5t3 50t3 42.5v76q0 234 65 446q18 59 56 203q0 18 -9 27q-5 3 -26 -2q-5 -1 -20 -7.5t-23 -7.5q-28 -3 -48 18q-15 16 -15 37q0 6 1 13z" />
<glyph unicode="g" horiz-adv-x="630" d="M-225 -694l2 2q6 12 12 12h6q19 0 31 -6q30 -12 59 -12q36 0 64 14q3 1 8 3t8 3q31 10 53 27q61 42 102.5 75t91.5 87.5t81 111.5q71 130 108 264q26 102 60 246q8 36 8 60q0 2 -6 26q-1 1 -2 3t-2 3q0 4 -8 4q-15 0 -21 -6q-33 -33 -49 -47q-32 -35 -80 -76 q-40 -40 -90 -75q-31 -22 -74 -22q-10 0 -20 1q-43 6 -67 31.5t-25 68.5q-1 13 -1 26q0 55 17 103q16 44 46 92.5t50.5 75t63.5 80.5q2 3 7 9.5t7 9.5q2 1 45 32q87 62 102 72q45 31 76 31q24 0 49 -19q13 -10 29 -10q11 0 27 4q8 2 22 2q32 0 51 -22q17 -19 17 -41 q0 -7 -2 -14v-5q-2 -6 -5 -19t-5 -19q-47 -143 -50 -250q0 -42 -16 -101q-42 -150 -63 -215l-9 -28q-64 -208 -178 -373q-109 -161 -272 -240q-64 -30 -142 -35h-16q-63 0 -98 41q-4 6 -4 10q0 3 2 5zM100 143q0 -15 13 -28q19 -19 39 -19q4 0 16 4q1 1 4 2t4 2q12 3 21 9 q177 124 260 286q7 13 12 41v13l2 2l-2 2q0 10 -2 14q-1 4 -2 12t-2 11q-3 17 -16.5 27.5t-32.5 10.5q-12 0 -21 -6q-3 -1 -8 -3t-8 -3q-31 -16 -39 -22q-180 -129 -236 -324q-2 -8 -2 -22v-9z" />
<glyph unicode="h" horiz-adv-x="745" d="M23 55q-9 39 -9 81q0 54 15 114q51 197 82 301q68 211 94 278q69 187 153 287q14 14 33 14q16 0 33 -10q33 -29 33 -59q0 -19 -13 -37q0 -1 -3.5 -5.5t-4.5 -8.5q-15 -24 -33 -45q-66 -71 -129 -228q-113 -279 -153 -532q-2 -12 26 -35q6 -6 17 -6q7 0 16 6 q188 135 287 262q66 82 131 150q24 28 39 43q10 12 27 12q30 0 45 -29q13 -32 13 -62q0 -10 -1 -20q-19 -73 -23 -96q-18 -69 -30 -137q-13 -61 -13 -146v-2v-9q0 -52 33 -103q24 -32 35 -43q2 -5 2 -10q0 -10 -12 -19q-11 -8 -29 -8q-20 0 -49 10q-20 7 -33 17l-14 14 q-21 40 -21 67v117q0 107 -2 160q0 15 -22 33q-4 4 -11 4q-17 0 -24 -10q-32 -39 -75.5 -83.5t-71.5 -70t-82 -74.5q-68 -58 -115 -102q-12 -13 -37 -23q-4 -4 -6 -4q-12 -6 -27 -6q-25 0 -46 15t-25 38z" />
<glyph unicode="i" horiz-adv-x="231" d="M0 113q3 187 98 364q15 29 49 29t52 -31q6 -17 4 -24q-6 -24 -19 -50q-13 -25 -24.5 -53t-25.5 -65t-21 -54q-29 -75 -29 -133q0 -27 6 -51q0 -2 -1 -6t-1 -6q-2 -6 -12 -16t-17 -11q-4 -1 -8 -1q-17 0 -26 11q-17 21 -19 37q-6 25 -6 60zM162 1072q5 30 28 44q4 2 8 3 t9 1.5t8 1.5q24 -6 25 -8q19 -21 58 -62t58 -61q6 -8 6 -13.5t-6 -10.5q-24 -19 -31 -19h-1q-88 16 -148 76q-15 15 -15 37q0 5 1 11z" />
<glyph unicode="j" horiz-adv-x="294" d="M-436 -451q-4 31 -4 63q0 46 8 93q4 19 10 40t14.5 46t12.5 39q2 9 16 18q5 5 12 5q5 0 9 -9q7 -14 7 -33q0 -24 -11 -55q-19 -59 -19 -123q0 -22 2 -45q3 -29 30.5 -47t55.5 -8q207 78 295 260q96 200 121 289q20 64 20 165q0 31 -2 66q-3 26 -22 45q-41 35 -47 93 q-3 34 24 55q14 12 37 8q34 -9 51 -39q62 -101 62 -184v-60q2 -18 2 -37q0 -108 -58 -233q-87 -188 -206 -330q-115 -139 -283 -176q-10 -2 -20 -2q-33 0 -67 23q-44 30 -50 73zM285 899q-2 5 -2 11q0 8 3 18q7 19 17 26q17 11 32 11q9 0 17 -4q21 -9 41 -29q16 -14 16 -31 q0 -8 -3 -16q-6 -13 -21.5 -35.5t-19.5 -28.5q-1 -1 -5.5 -2t-5.5 -2l-24 6q-25 18 -45 76z" />
<glyph unicode="k" horiz-adv-x="970" d="M0 139q0 1 2 11.5t4 15.5q29 69 55.5 146t57 176t47.5 149q47 133 63 172q11 28 48 102.5t51 118.5q4 12 10 23.5t18 28.5t15 22q9 14 35 16q3 0 6 1q22 0 37 -11q17 -12 24.5 -36.5t-0.5 -39.5q-16 -32 -20 -37q-104 -135 -185 -366q-34 -95 -86 -256q-3 -6 4 -13 q16 0 25 3q8 4 22 18q20 20 25 35q16 40 37 63t59 27q96 58 131 84q87 69 179 117q23 10 46 -7t23 -43q-3 -54 -47 -84q-17 -11 -66.5 -48t-85 -59t-73.5 -40q-15 -7 -18 -26.5t8 -34.5q130 -166 301 -232q183 -74 322 -74h7q42 0 54 -14q8 -8 12 -24q0 -1 -10 -11 q-16 -10 -54.5 -11t-54.5 -5q-63 4 -129 12q-315 45 -516 273q-27 30 -51 49q-12 8 -27 -2q-134 -121 -188 -211q-7 -7 -19 -23q-9 -12 -28.5 -15.5t-34.5 3.5q-17 6 -27 24q-8 14 -9 26q0 4 1 7z" />
<glyph unicode="l" horiz-adv-x="413" d="M0 376v9q0 23 4 61q5 46 8 66.5t10.5 64t10.5 62.5q22 137 92 317q37 94 92 152q17 14 43 18q4 1 8 1q20 0 31 -27q6 -9 5 -28t-7 -28q-3 -3 -8 -11t-8 -11q-73 -66 -117 -213q-3 -11 -27 -95.5t-33 -129.5q-33 -159 -33 -274q0 -16 1 -31q3 -70 32 -123q21 -40 60 -43 q11 -1 23 -1q48 0 92 21q7 4 31 17t38 20q4 2 17 2q31 0 36 -18q1 -4 1 -8q0 -10 -9 -23q-2 -6 -9.5 -16.5t-8.5 -12.5q-21 -13 -64.5 -35.5t-64.5 -35.5q-40 -21 -80 -21q-66 3 -105 57q-56 69 -59 156v88q-1 49 -2 73z" />
<glyph unicode="m" horiz-adv-x="894" d="M14 199q5 19 18 72t19 76.5t18.5 69.5t22 76t22.5 68t27 72q9 20 27 26q9 4 17 4q15 0 30 -12q24 -20 21 -45q0 -12 -7 -26q-59 -116 -106 -332q0 -4 6 -10q7 -3 12 2q54 37 62 47q50 52 139 153q10 13 26.5 39t24.5 37q10 12 35 37q7 7 24 5.5t25 -7.5q23 -23 23 -52v-7 q0 -13 -6 -25q-14 -35 -23.5 -73.5t-19.5 -91.5t-15 -75q0 -7 6 -10q2 -1 6 -1t5 1q34 19 43 27q121 116 239 291q13 17 21 32q9 12 25.5 18.5t31.5 2.5q36 -9 43 -43q12 -50 12 -78q-1 -26 -2 -80.5t-3.5 -97t-8.5 -80.5q-8 -46 -8 -90q0 -61 16 -115q4 -13 0 -39 q0 -4 -4.5 -10t-9.5 -8q-4 -1 -8 -1q-9 0 -17 5q-17 18 -22 31q-37 116 -37 216q0 33 4 64q-4 48 -8 144q0 6 -8 6q-7 4 -13 -2q-9 -12 -28 -34.5t-33.5 -41.5t-26.5 -37q-57 -89 -190 -209q-13 -13 -58 -31q-11 -3 -25 1.5t-20 13.5q-24 37 -24 67q0 10 2 19q10 49 10 114 q0 17 -14 17q-11 0 -13 -2q-4 -4 -13.5 -13t-15 -14.5t-12.5 -14t-12 -16.5q-25 -35 -79 -95t-72 -83q-5 -7 -41 -28q-27 -11 -51 5q-23 15 -23 40q0 73 14 131z" />
<glyph unicode="n" horiz-adv-x="606" d="M0 160q15 120 20 137q24 90 80 281q2 12 13 26q23 35 55 35h1q13 0 27 -22q14 -23 11 -44q-2 -16 -10 -53q-52 -164 -66 -213q-2 -7 8 -22q0 -1 2.5 -1t6 1t4.5 2q33 25 45 35q35 33 105 100.5t106 101.5q10 9 31.5 27t31.5 27q19 13 38.5 4t27.5 -31q8 -28 8 -41 q-4 -117 -15 -166q-21 -87 -21 -178q0 -21 1 -43q3 -85 74 -127q16 -8 22 -14q7 -4 11 -18q2 -6 2 -10q0 -6 -3 -9q-4 -7 -17 -11q-9 -3 -16 -3q-3 0 -5 1q-122 36 -144 170q-3 17 -8 166q1 15 4.5 47t3.5 46.5t-4 46.5q-1 1 -2 3t-2.5 3.5t-3.5 1.5q-8 4 -14 -2l-40 -40 t-46.5 -47.5t-36.5 -41.5q-22 -28 -49 -56.5t-62.5 -63t-52.5 -52.5q-15 -15 -51 -19q-30 -3 -52 17q-19 18 -18 42v7z" />
<glyph unicode="o" horiz-adv-x="561" d="M-4 139q-1 16 -1 31q0 59 13 100q8 20 12 41q2 5 8 22t9 25q14 46 16 76q1 13 6.5 39t6.5 31q1 3 3 10t3 10q21 100 116 135q10 4 31 12.5t31 12.5q4 2 12 5t12 5q33 11 54 11q42 0 78 -22t59 -54q45 -67 63 -148q15 -59 27 -129q4 -24 4 -47q0 -82 -47 -158 q-54 -83 -164 -153q-52 -34 -164 -37h-2q-73 0 -127 51q-53 53 -59 131zM94 193q-3 -12 -3 -25q0 -41 30 -84q21 -28 51 -31q10 -2 31 -2q27 0 43 8q8 4 14 4q50 22 80 39q64 40 100.5 92t36.5 105q-2 91 -12 151.5t-39 112.5q-30 52 -94 55h-9q-71 0 -118 -47q-1 -1 -2 -3 t-2 -3h2q8 -4 14 -4q5 0 21 4l2 2q32 8 45 8q50 0 96 -38q9 -9 29 -25q3 -3 4.5 -6.5t2 -7t1.5 -4.5q0 -19 -8 -27q-12 -12 -25 -12h-2q-3 0 -27 6q-2 1 -5.5 2t-4.5 2q-27 8 -53 8q-59 0 -105 -57q-82 -102 -88 -197q0 -6 -4 -18q0 -2 -1 -4.5t-1 -3.5z" />
<glyph unicode="p" horiz-adv-x="575" d="M-86 -365q69 182 149 533q46 204 125 338q18 30 19 31q17 21 43 18q12 -2 25 -14t14 -25q3 -13 -2 -24q-1 -2 -31 -50q-53 -83 -74 -178q-2 -2 2 -10q7 -14 17 0q1 1 32 51q22 38 66 115t66 115q34 60 38 75q1 4 6 11t7 10q12 15 37 16h3q23 0 36 -14q21 -24 35 -57.5 t18.5 -52.5t11.5 -60q-10 -109 -35.5 -189t-81.5 -143q-84 -97 -225 -129q-5 -1 -25 4q-33 3 -43 -2.5t-20 -32.5q-9 -25 -37 -93.5t-41 -108.5q-7 -23 -74 -191q-3 -7 -17 -12q-10 -3 -17 -3q-5 0 -9 1q-9 3 -17 16q-7 11 -7 19q0 30 6 36zM201 96q-2 -11 10 -18 q8 -5 15 -5q4 0 7 1q112 41 181 153q50 84 53 203q-1 5 -2 19.5t-2 21.5q-2 13 -14 33q-3 9 -14 10q-2 1 -3 1q-9 0 -12 -7q-11 -16 -39.5 -56t-42.5 -63q-95 -174 -109 -201q-14 -26 -24 -55q-4 -12 -4 -37z" />
<glyph unicode="q" horiz-adv-x="571" d="M4 88q-4 28 -4 55q0 51 14 103q40 130 117 223q111 129 268 168q16 3 28 3q6 0 11 -1q67 -11 133 -55q17 -10 21 -33q1 -10 1 -21.5t-0.5 -27.5t-0.5 -27q1 -5 1 -11q0 -44 -42 -116q-34 -69 -78 -104q-21 -14 -40.5 -39t-27 -38.5t-26.5 -49.5q-11 -22 -27 -62 q-12 -33 -53 -142.5t-63 -168.5q-65 -190 -125 -352q-3 -9 -13 -25.5t-12 -21.5q-5 -5 -9 -5q-2 0 -3 1q-17 11 -17 14q0 37 6 53q83 315 170 574q3 9 -3 18t-15 8q-12 -3 -27 -6q-6 -1 -28.5 -7t-34.5 -7q-8 -1 -16 -1q-39 0 -66 27q-32 31 -39 74zM84 145q4 -20 4 -28 q1 -6 12 -14.5t19 -10.5h24q90 25 146 90q19 19 28 43q36 104 129 293q0 10 -2 12q-10 10 -22 13q-3 1 -6 1l-6 -1q-84 -23 -142 -70q-124 -98 -180 -289q-2 -8 -2.5 -21.5t-1.5 -17.5z" />
<glyph unicode="r" horiz-adv-x="593" d="M0 92q16 145 27 205q2 9 14.5 97.5t26.5 133.5q4 19 12 33q3 7 17.5 11t23.5 -1q38 -21 38 -58q0 -5 -1 -11q-2 -11 -7.5 -34t-7.5 -36q0 -2 11 -18q8 2 10 4q3 3 9 8t9 8q12 10 35 33q139 141 356 197q35 9 79.5 14t69 6t84.5 1.5t73 0.5q6 0 22 -8q10 -3 10 -10 q0 -3 -2 -6q-5 -15 -12 -17q-15 -9 -35 -6q-135 0 -313 -47q-127 -31 -270 -141l-25 -25q-119 -164 -141 -309q-5 -32 -19 -80q-2 -10 -22 -25q-13 -7 -25 -7q-9 -1 -17 3q-20 8 -24 31q-4 8 -4 10q0 9 -1 24t-1 19z" />
<glyph unicode="s" horiz-adv-x="548" d="M2 55q-6 12 -6 23q0 17 14 33q7 10 21 10q8 0 14 -6q9 -12 18 -27q11 -20 31 -20q110 0 201 49q46 21 88 80q4 4 0 16q-4 16 -16 25q-9 8 -20 17t-24 19t-20 15t-20.5 15t-20.5 15q-13 9 -59 50q-18 14 -29 34q-27 38 -27 78q0 14 3 29q12 42 55 72q69 51 168 57 q8 2 24 2q59 0 160 -33q13 -4 29 -20q5 -8 5 -17q0 -4 -1 -8q-2 -5 -7.5 -10.5t-11.5 -5.5h-41h-18h-6h-2q-8 0 -19 1t-16 1q-7 1 -21 2t-20 2q-20 4 -31 4q-34 0 -92 -20h-6q-14 -4 -39 -29q-1 0 -2 -1t-2 -1q-13 -12 -13.5 -31.5t11.5 -34.5q29 -36 72 -65q4 -3 84 -62 q2 -2 7 -6t7 -6q34 -24 49 -61q12 -25 12 -48q0 -32 -24 -59q0 -4 -4 -4q-7 -14 -19 -20q-111 -81 -211 -97q-9 -2 -27.5 -6t-27.5 -6q-28 -4 -45 -4q-43 0 -86 18q-24 11 -39 41z" />
<glyph unicode="t" horiz-adv-x="516" d="M0 719q0 19 9.5 34.5t23.5 18.5q29 7 51 10q82 9 106 13q44 6 62 47q17 38 20 49q10 41 45 113t43 94q2 3 9 9.5t10 10.5q6 8 23 8q1 0 2 1q15 0 24 -7q28 -20 25 -43q-1 -8 -13 -37q-69 -158 -86 -194q-3 -8 3.5 -19.5t13.5 -11.5q6 -1 16.5 -2.5t19.5 -2.5t17 -1h147 v-2q15 0 45 1t54.5 1t46.5 -2q3 0 34 -3.5t36.5 -4.5t33 -4.5t37 -5t33 -5.5t36.5 -7t32.5 -8t36 -10t32.5 -11q11 -4 11 -16q0 -3 -1 -7q-3 -16 -14 -18q-10 -5 -12 -5q-17 1 -50.5 2t-60 3.5t-49.5 7.5q-66 15 -145 15q-46 0 -95 -5q-147 -13 -264 -16q-39 0 -53 -35 q-18 -44 -23 -62q-2 -7 -6 -24.5t-8 -26.5q-9 -17 -16 -35t-14 -40t-11.5 -35.5t-11 -41t-8.5 -36.5t-9 -41.5t-8 -38.5q-2 -6 -7 -23.5t-7 -27.5t-12 -49t-13.5 -56.5t-8 -48t-5.5 -55.5q0 -13 -23 -31q-6 -4 -11 -4l-11 4q-26 22 -23 47q2 17 8.5 52.5t8.5 52.5 q3 36 10 74t19 89t16 72q50 215 59 258q3 12 -8 22.5t-25 10.5q-70 -4 -104 -4q-17 0 -30 13.5t-13 29.5z" />
<glyph unicode="u" horiz-adv-x="677" d="M0 94q2 20 6 55.5t6.5 56.5t7.5 40q29 105 64 168q62 116 133 196q4 7 27 25q5 5 12 5q8 0 20 -7q26 -19 26 -40q0 -15 -13 -30q-56 -65 -105 -145q-63 -102 -90 -246q0 -13 10 -20q6 -2 23 2q24 14 31 20q19 17 87 76t111 99.5t82 82.5q19 21 53 60.5t41 46.5 q10 12 33 8q18 -5 25 -25q11 -24 0 -57q-6 -13 -18 -36t-15 -28q-37 -87 -38 -154q0 -3 1 -7q0 -61 31 -106.5t94 -61.5q6 -2 22 -4.5t27 -6t19 -10.5q10 -15 8 -20q0 -12 -14 -17q-17 -6 -28 -6h-5q-29 5 -72 15q-111 33 -162 147q-6 16 -8.5 32t-3 42t-0.5 32q-4 14 -8 23 q-2 1 -5 1t-5 -1q-12 -4 -21 -10q-86 -82 -145 -144q-62 -62 -144 -104q-32 -18 -57 -4q-40 21 -43 67v1v1v1v-1v-1v-1v-10z" />
<glyph unicode="v" horiz-adv-x="423" d="M0 514q2 14 8 41q5 20 19 104q1 4 4 11.5t4 11.5q3 6 17.5 14.5t21.5 8.5q28 0 39 -25q4 -9 7.5 -29t4.5 -24q-1 -7 -4 -34t-6 -40q-21 -91 -21 -238v-118q0 -12 4.5 -20t10.5 -7q16 4 20 8q24 30 128.5 149t152.5 191q10 15 16 17q7 4 20 0q3 0 6 -3.5t3 -5.5 q0 -29 -4 -34q-8 -11 -33.5 -51t-44 -65.5t-37.5 -49.5q-126 -154 -223 -310q-7 -14 -31 -20q-9 -2 -18 -2q-14 0 -25 6q-12 4 -16 16q-15 35 -15 45q0 111 4 142q5 54 5 93q0 29 -3 50q-6 29 0 57q4 26 0 35q-11 18 -13 40q-1 13 -1 23q-1 7 0 13z" />
<glyph unicode="w" horiz-adv-x="917" d="M-2 88q5 56 37 135q47 117 158 246q36 41 94 92q23 23 32 29q7 10 27 10t39 -16q10 -10 10 -33q0 -22 -10 -35q-2 0 -6 -4q-3 -5 -12 -10q-21 -11 -42 -29t-33 -31t-34 -39l-4 -2q-93 -111 -148 -221q-8 -14 -8 -45q0 -5 15 -10q11 0 20 6q2 1 7 4t7 4q43 26 64 43 q13 10 28.5 20t27 17t31.5 16t28.5 12.5t31 13t27.5 11.5q18 9 37 9q32 0 63 -25q48 -38 95 -104q2 -3 16 -17q4 0 8 4l4 4q1 1 4.5 3.5t5.5 4.5t3 5q2 4 6 16q15 34 20 59q4 32 4 63q0 66 -18 122q-1 2 -2 7.5t-2 8.5q-31 97 -64 143q-4 8 -4 17v6q-3 12 8 27q13 16 31 16 h8q4 -2 8 -2q14 -5 15 -6q100 -55 268 -70q5 -1 15 -2t14 -2q109 -12 215 -18q16 -1 32 -3.5t37.5 -7t30.5 -6.5q4 -1 13.5 -3t13.5 -3q5 -1 8.5 -8t3.5 -10q2 -4 2 -8t-2 -7q-2 -4 -10 -8h-6q-12 -6 -29 -6h-78h-43h-43q-16 -2 -51 -2q-125 0 -309 31q-20 3 -29 -6 q-8 -16 -2 -33q2 -9 7 -27.5t7 -27.5q2 -8 9 -32t10 -38q8 -35 8 -72q0 -99 -59 -209q-11 -23 -56 -43q-2 0 -6 -1t-6 -1q-13 0 -23 10q-23 15 -36 46q-18 51 -52 90q-24 34 -73 34q-19 0 -29 -2q-38 -9 -84 -38q-102 -69 -154 -105q-25 -18 -41 -27q-20 -8 -32 -12 q-4 -2 -15 -2q-21 0 -38.5 14.5t-18.5 34.5q-2 12 -2 35z" />
<glyph unicode="x" horiz-adv-x="712" d="M-2 43q-3 19 -3 37q0 80 54 141q44 50 84 72q21 12 45 24q43 28 141 84q45 23 48 70v51q0 17 1 54.5t1 56.5q3 35 8 53q6 24 29 31q4 2 14 2q26 0 39 -23q16 -32 16 -51q1 -6 -4 -49q0 -3 -1 -10.5t-1 -10.5v-14v-37q0 -20 8 -28q2 -4 12 -4q9 0 13 2q53 19 73 28 q29 12 103 43q188 78 209 86q123 49 260 74h6q8 0 10 -2h2q1 -1 5 -4.5t6 -5.5t4 -5t2 -6q0 -18 -15 -26l-16 -6q-117 -43 -150 -52q-188 -54 -383 -161q-7 -3 -21.5 -10.5t-21.5 -10.5q-28 -14 -63 -35q-45 -27 -43 -73v-45q5 -116 12 -154q13 -65 13 -122q0 -36 -5 -68 q-2 -15 -20 -37q-6 -6 -20 -6h-7q-10 3 -14 16q-4 45 -33 221q-18 104 -28 176q0 8 -7 8q-1 0 -3.5 -1t-4.5 -1q-77 -29 -194 -114q-62 -50 -74 -121q0 -10 -2 -14q-4 -38 -14 -54q-8 -8 -23 -18h-6q-8 0 -18 7.5t-13 14.5q-1 1 -2 4.5t-2 4.5z" />
<glyph unicode="y" horiz-adv-x="741" d="M-20 -903q-1 8 -1 16q0 28 13 64q61 172 117 288q175 365 311 619q26 46 37 74q3 6 4 14t1 18t1 15q-14 -11 -70.5 -54.5t-93 -70t-74.5 -49.5q-28 -20 -47 -27q-21 -10 -42 -10q-24 0 -48 14q-82 50 -82 155v7q2 65 41 172q55 131 146 227q8 8 45 31q19 7 36 -10 q19 -23 19 -42q0 -16 -14 -30q-114 -109 -164 -276q-10 -33 -10 -62q0 -32 12 -59q11 -14 22 -12h13q172 72 260 170q21 24 65.5 69t65.5 68q73 83 86 168q3 27 28 43q22 13 41 13q25 0 47 -22q13 -13 29 -45q6 -12 6 -20q0 -10 -8 -16q-64 -64 -121 -197q-19 -44 -43.5 -90 t-60.5 -108.5t-51 -88.5q-245 -433 -441 -858q-8 -19 -24.5 -55.5t-24.5 -54.5q-5 -5 -12 -5q-2 -1 -3 -1q-4 0 -7 4q-4 5 -4 14z" />
<glyph unicode="z" horiz-adv-x="587" d="M-94 360q-1 5 -1 10q0 8 3 18q5 14 16 20q32 16 39 16q23 3 97.5 15.5t115.5 13.5q36 1 102.5 10t81.5 10q33 3 46 41q3 13 -7 18q-23 20 -59 23q-11 1 -23 1q-70 0 -170 -26q-4 -1 -8 -4t-8.5 -7.5t-7.5 -6.5q-13 -20 -35 -23q-39 0 -61 17q-11 8 -16.5 21.5t-2.5 25.5 q11 33 35 41q40 9 107 20q105 17 184 17q47 0 84 -6q27 -4 41 -11q41 -21 41 -59v-33q-2 -17 4 -22.5t26 -5.5h93q29 3 71 6q1 0 3.5 -1t4.5 -1q29 0 43 -2q38 -5 48 -13q3 -1 3 -4q0 -1 -1 -2q-4 -11 -27 -20q-18 -6 -20 -6q-12 -2 -39 -2q-19 -1 -55 -6.5t-54 -6.5 q-44 -6 -86 -6q-62 -3 -106 -47q-51 -51 -78 -76q-28 -25 -83.5 -76.5t-82.5 -76.5q-4 -4 -43 -48q-6 -7 -2 -20t14 -16q4 -1 18.5 -4t22.5 -3q23 -2 47 -1q58 0 115 10q38 9 71 9q19 0 35 -3q6 0 13 -15q6 -13 -4 -20q-26 -15 -29 -16q-20 -3 -69.5 -11t-76.5 -11.5 t-68 -6.5q-31 -2 -58 -2h-17q-38 0 -80 29q-8 3 -22 22q-16 21 -6 51q12 31 45 60q29 28 90 85.5t90 86.5q41 36 49 57v10q0 4 -8 4q-29 0 -43 -2q-73 -15 -86 -16q-42 -6 -53 -45q-3 -16 -25 -16q-94 0 -141 4q-26 0 -37 34z" />
<glyph unicode="{" horiz-adv-x="419" d="M-57 -209q2 7 6 20.5t6 20.5q40 135 65 188q27 61 35 84q2 5 29 66q23 52 41 123q17 61 8 149q-1 15 -11 26.5t-24 14.5q-3 1 -10 2t-10 2q-27 4 -33 7q-26 6 -49 32q-12 15 -12 35.5t12 34.5q21 25 35 31q28 17 61 24q37 10 82 49q24 21 27 52q3 18 0 43q0 31 -2 45v43 q-6 94 34 207q19 59 78 108q91 74 164 88q20 4 35 4q37 3 59 -28q24 -30 11 -62q-4 -17 -16.5 -27t-26.5 -10q-5 0 -17 4q-10 5 -14 9q-2 1 -7 3t-7 3q-22 9 -48 -4q-44 -24 -90 -76q-14 -14 -20 -35q-29 -65 -47 -166v-14v-17v-2q6 -18 6 -30q8 -66 8 -97q3 -50 -37 -84 q-7 -6 -21.5 -17t-21.5 -17q-7 -5 -21.5 -16.5t-21.5 -16.5v-12v-3q0 -4 2 -4q76 -84 45 -233q-27 -127 -69 -209q-49 -91 -111 -285q-3 -10 -8 -30.5t-8 -30.5v-2q-4 -11 10 -25q6 -12 18 -12q8 1 23.5 2t23.5 2q62 4 93 12q9 2 25 7.5t22 7.5q162 48 229 84q2 2 6 2 q12 0 23 -11q4 -6 0 -22v-2q0 -8 -8 -12q-2 -5 -11 -9q-174 -89 -305 -122q-60 -16 -121 -19q-2 -2 -8 -2q-79 0 -104 82q-9 22 -2 47z" />
<glyph unicode="|" horiz-adv-x="243" d="M-4 -420q-11 114 4 238q8 74 8 110q2 44 5 133.5t5 133.5q0 19 9 84q1 4 7 57t11 80q27 175 31 278q14 41 21.5 118.5t11.5 100.5q10 56 18 168q3 67 16 152q7 35 17 180h-4v113q3 28 28 47q22 19 52 6q61 -24 49 -88q-31 -141 -64 -315q-1 -3 -12 -97q-5 -47 -16 -125 q-1 -12 -5.5 -34t-5.5 -33q-4 -85 -18 -139q-8 -24 -8 -56q-3 -41 -9.5 -90t-11.5 -80t-16 -91.5l-15 -82.5q-1 -7 -3 -21.5t-3 -21.5q0 -56 -11 -158t-13 -133q-3 -40 -18 -154.5t-15 -178.5q0 -15 -2.5 -30.5t-7 -36t-6.5 -30.5q-3 -16 -19 -10q-10 0 -10 6z" />
<glyph unicode="}" horiz-adv-x="413" d="M-170 -266q9 18 20 18h3q35 -8 71 17q2 1 6.5 3.5t8 5t6.5 5.5q65 43 98 78q92 100 141 215q35 83 41 168q0 21 4 57q4 95 19 166q2 9 -6.5 21t-20.5 18q-6 4 -22 12q-13 6 -49 29q-47 30 -54 106q-1 5 4 25q19 63 86 143q30 38 52 62q10 14 32 39t29 34q33 39 61 111 q12 31 -6 61q-43 68 -118 68q-21 0 -48 -10q-4 0 -12 -4q-3 -1 -10 -4t-10 -4h-9q-12 0 -26 9.5t-21 22.5q-14 28 6 51q1 0 2.5 1.5t2.5 1.5q13 18 24 22q6 2 47 14q8 4 13 4h2q105 0 180 -47q86 -56 80 -153q-3 -74 -45 -135q-12 -17 -34 -45.5t-28 -36.5t-19.5 -24.5 t-19.5 -24.5q-61 -83 -96 -134q-7 -10 -14 -30q-4 -8 -4 -11q-3 -6 0.5 -17.5t9.5 -16.5q35 -18 53 -23l2 -2q2 0 3.5 1.5t2.5 3.5t2 3q7 14 9 17q5 17 16 34q11 19 33 25q20 4 28 4q42 0 72 -33q31 -39 25 -84q-2 -10 -11 -24l-6 -7q-7 -8 -12 -12q-3 -2 -10.5 -5t-10.5 -5 q-25 -15 -28 -18q-10 -9 -19 -43q-4 -22 -8 -31q-16 -40 -12 -90q0 -66 -29 -176q-40 -163 -162 -314h-2q-9 -9 -39 -34q-5 -5 -23.5 -21t-26 -22.5t-23.5 -20t-27 -21t-26 -17.5t-29 -17q-22 -11 -68 -23h-6q-25 0 -41 23q-13 20 -4 41z" />
<glyph unicode="&#xa8;" horiz-adv-x="1396" d="M657 1325q-23 63 7 98q18 21 39 22.5t40 -18.5q20 -20 23 -53q-4 -7 -12 -26.5t-13 -28.5q-15 -26 -45 -23q-28 0 -39 29zM952 1307q18 46 27 59q10 22 36.5 22t41.5 -20q5 -6 10.5 -18t7.5 -15q-2 -6 -3 -15.5t-3 -12.5q-27 -36 -43 -52q-9 -9 -23 -10.5t-24 4.5 q-37 19 -27 58z" />
<glyph unicode="&#xad;" horiz-adv-x="534" d="M0 375q2 8 9 17t14 9q30 5 36 5q37 0 82 10q145 26 267 43q24 4 73 0q6 0 17 -17q-10 -16 -11 -16q-20 -10 -24 -10q-34 -5 -95 -20.5t-77 -18.5q-123 -29 -201 -45q-5 -2 -17.5 -5t-17.5 -5q-23 -9 -40.5 8.5t-14.5 44.5z" />
<glyph unicode="&#xb0;" horiz-adv-x="350" d="M29 967q50 129 170 161q32 8 68.5 -7t56.5 -44q5 -7 11.5 -19.5t8.5 -15.5q13 -32 4 -61q-16 -35 -29 -53q-32 -38 -83.5 -62t-96.5 -24h-18q-53 -3 -79.5 39t-12.5 86zM109 963q-7 -21 8 -39q16 -20 35 -15q45 13 75 29q21 8 39 33q4 4 7.5 9t5.5 11l2 6q3 18 -5.5 31.5 t-21.5 13.5q-25 5 -31 5q-37 2 -69.5 -21.5t-44.5 -62.5z" />
<glyph unicode="&#xb4;" horiz-adv-x="1705" d="M0.5 847.5q-0.5 4.5 4 19t5.5 18.5q18 107 109 215q8 8 24 20q14 12 31 9.5t29 -17.5q3 -5 7 -15t5 -12q-2 -6 -2 -14q-2 -2 -5 -9t-5 -9q-91 -70 -152 -217q-3 -10 -14 -17q-16 -5 -21 -4q-11 3 -14 14q-1 14 -1.5 18.5z" />
<glyph unicode="&#xc0;" horiz-adv-x="696" d="M-113 131q-16 -33 21 -59q6 -5 19.5 -4.5t17.5 6.5q20 20 35 41q126 175 210 301q31 47 54.5 70.5t35.5 29.5t47.5 13t59.5 14q9 3 39 8q50 6 67.5 -7.5t20.5 -60.5l3 -48l3 -48q3 -38 9.5 -124t9.5 -132h-4q1 -14 1.5 -39t1.5 -45.5t3 -38.5q0 -10 18 -16q17 -4 25 4 q19 19 22 33q8 102 8 149v340q0 32 13 46.5t45 15.5q70 3 145 22q59 -1 163.5 17t147.5 20q19 0 39 10q3 1 4.5 4.5t3 9.5t1.5 7t-3.5 4.5t-5.5 3.5q-41 11 -135 1t-135 -5q-35 -10 -76 -11.5t-90.5 0.5t-77.5 1q-17 -1 -28 11.5t-11 33.5q-5 75 -3 176t22 176v12 q-2 24 -23 40t-45 7q-39 -13 -47 -45q-3 -9 -8.5 -28.5t-10.5 -34t-12 -27.5q-37 -58 -106.5 -169t-81.5 -130q-41 -64 -102 -86q-30 -10 -27 -43q2 -35 -29 -74q-70 -97 -188 -250q-51 -67 -66 -102zM381 648.5q-7 11.5 0 23.5q21 36 57 92q7 12 21.5 34t21.5 33q2 2 7 3 t6 0q8 0 8 -9q3 -23 8 -86q0 -15 -1 -34t-1 -27q-2 -11 -13 -23.5t-24 -13.5q-46 -4 -68 -4q-15 0 -22 11.5zM510 1460q5 15 10 25q10 12 24.5 13.5t26.5 -7.5q3 -3 10.5 -9t10.5 -9q74 -83 94 -185q1 -4 4 -14.5t3.5 -16t-1.5 -16.5q-4 -8 -12 -12q-8 0 -16 4q-11 7 -13 14 q-54 124 -129 185q-3 2 -10 16q0 2 -1 5.5t-1 6.5z" />
<glyph unicode="&#xc1;" horiz-adv-x="696" d="M-113 131q15 35 66 102q118 153 188 250q31 39 29 74q-3 33 27 43q61 22 102 86q12 19 81.5 130t106.5 169q7 13 12 27.5t10.5 34t8.5 28.5q8 32 47 45q24 9 45 -7t23 -40v-12q-20 -75 -22 -176t3 -176q0 -21 11 -33.5t28 -11.5q28 1 77.5 -1t90.5 -0.5t76 11.5 q41 -5 135 5t135 -1q2 0 5.5 -3.5t3.5 -4.5t-1.5 -7t-3 -9.5t-4.5 -4.5q-20 -10 -39 -10q-43 -2 -147.5 -20t-163.5 -17q-75 -19 -145 -22q-32 -1 -45 -15.5t-13 -46.5v-340q0 -47 -8 -149q-3 -14 -22 -33q-8 -8 -25 -4q-18 6 -18 16q-2 18 -3 38.5t-1.5 45.5t-1.5 39h4 q-3 46 -9.5 132t-9.5 124l-3 48l-3 48q-3 47 -20.5 60.5t-67.5 7.5q-30 -5 -39 -8q-23 -7 -50.5 -12.5t-39 -8.5t-29.5 -14t-35.5 -32.5t-42.5 -59.5q-84 -126 -210 -301q-15 -21 -35 -41q-4 -6 -17.5 -6.5t-19.5 4.5q-37 26 -21 59zM381 648.5q7 -11.5 22 -11.5q22 0 68 4 q13 1 24 13.5t13 23.5q0 8 1 27t1 34q-5 63 -8 86q0 9 -8 9q-1 1 -6 0t-7 -3q-7 -11 -21.5 -33t-21.5 -34q-36 -56 -57 -92q-7 -12 0 -23.5zM624 1249q0 4 4 18.5t5 18.5q19 109 108 215q9 9 25 21q14 12 30.5 9t28.5 -18q3 -4 5 -8.5t4.5 -9.5t3.5 -8q-2 -6 -2 -14 q-2 -2 -5.5 -9.5t-5.5 -9.5q-89 -69 -151 -217q-3 -8 -15 -16q-16 -5 -20 -4q-11 3 -14 14q-1 14 -1 18z" />
<glyph unicode="&#xc2;" horiz-adv-x="821" d="M2 104q14 49 31 76q36 59 139 217q45 70 47 125q3 47 45 66q29 15 58 41.5t44.5 45t43.5 54.5q53 72 110 137q11 13 33 42t35 44q54 51 57 119q0 14 17 35q23 27 47 22q32 -7 41 -34q16 -70 22 -105q2 -16 -6 -41q-24 -89 -4 -256q3 -25 16.5 -35t40.5 -12q16 -1 48 -2 t48 -2q11 -4 15 -20q3 -14 -4 -25q-24 -19 -33 -21q-6 -1 -96 -12q-12 -2 -24 -11.5t-13 -21.5q-6 -33 -16.5 -93.5t-14.5 -80.5q-23 -143 -94 -327q-5 -14 -35 -58q-2 -2 -25 -8q-9 -1 -19.5 9t-8.5 16q11 43 20 65q50 115 80 328q15 105 17 121q2 12 -10 24.5t-25 12.5 h-70q-106 -20 -158 -27q-44 -9 -71 -39q-5 -5 -18.5 -17t-22.5 -22t-15 -20q-78 -114 -143 -217q-35 -60 -39 -101q0 -2 -10 -22q-6 -10 -22 -18t-25 -5q-14 3 -25.5 22t-7.5 31zM485 668q-3 -7 3 -17.5t14 -13.5q16 -8 26 -8q86 13 119 20q4 0 9.5 6.5t7.5 12.5l10 135 q6 37 4.5 74t-19.5 34q-23 -1 -93.5 -106t-80.5 -137zM512 1252.5q-3 19.5 4 31.5q4 5 11.5 16.5t11.5 16.5q72 72 88 86q7 6 33 28t36 30.5t32 27.5t35 31t31 28.5t33.5 32t30.5 31.5q17 17 44 7.5t32 -34.5q7 -35 4 -65q-1 -12 -4 -25.5t-7.5 -29.5t-6.5 -25 q-2 -11 -8 -40t-8.5 -40t-7 -40t-5 -40.5t-2.5 -40.5t2 -41q1 -10 -8 -18.5t-17 -3.5q-19 10 -22 14q-7 18 -8.5 22t-7 20.5t-6.5 25.5t-3.5 25.5t-2 32.5t2.5 34l8 48v5q3 11 -8 22q-3 6 -15.5 4.5t-19.5 -8.5q-112 -93 -157 -168q-4 -6 -10 -12t-15.5 -13.5t-13.5 -10.5 q-15 -10 -34 -9t-28 13q-11 12 -14 31.5z" />
<glyph unicode="&#xc4;" horiz-adv-x="872" d="M0 213q26 75 70 131q10 15 30 41t27 35q26 37 31 76q6 56 67 77q39 13 113 70q27 21 79 62.5t83.5 66t78.5 56.5t89 55q20 11 27.5 31t6.5 61q-2 9 -8 48t-10 60q-1 9 9.5 22.5t21.5 18.5q26 9 49 0t29 -32q9 -35 12 -68q2 -43 5 -128.5t5 -127.5q0 -16 1 -34.5t2.5 -40 t2.5 -34.5q2 -9 10.5 -15.5t18.5 -6.5q16 -1 48 -2t48 -2q53 0 94 -8q53 -12 107 -15q17 -1 33.5 -3t37.5 -6.5t31.5 -7.5t36.5 -10.5t33 -9.5t12 -22q3 -13 -14 -16q-6 -3 -14 -3q-15 0 -27 3q-91 21 -214 22.5t-216 -4.5q-13 0 -24.5 -9.5t-14.5 -21.5 q-9 -38 -27.5 -112.5t-27.5 -112.5q-3 -14 -11.5 -55t-13.5 -64q-19 -82 -74 -174q-24 -35 -49 -43q-15 -4 -26 4q-11 7 -11 23q4 23 15 37q39 59 69 174q50 205 62 305q1 19 -11.5 32t-29.5 11q-164 -14 -217 -21q-26 -4 -131 -28q-15 -5 -35 -21q-80 -79 -94 -96 q-12 -14 -36.5 -42.5t-39 -46t-33.5 -43.5t-33 -50q-3 -5 -10 -9q-5 -8 -17.5 -8t-17.5 8q-10 16 -8 23zM475 625q0 -2 2.5 -4.5t3.5 -2.5q46 -4 66 -4q54 -2 145 21q28 7 31 37q0 7 1 20.5t1 20.5q0 17 -4 53q-1 9 -11.5 13t-19.5 -1q-37 -15 -77.5 -41t-63.5 -44.5 t-68 -55.5zM657 1325q-23 63 7 98q18 21 39 22.5t40 -18.5q20 -20 23 -53q-4 -7 -12 -26.5t-13 -28.5q-15 -26 -45 -23q-28 0 -39 29zM952 1307q18 46 27 59q10 22 36.5 22t41.5 -20q5 -6 10.5 -18t7.5 -15q-2 -6 -3 -15.5t-3 -12.5q-27 -36 -43 -52q-9 -9 -23 -10.5 t-24 4.5q-37 19 -27 58z" />
<glyph unicode="&#xc8;" horiz-adv-x="894" d="M-86.5 475q6.5 28 27.5 33q4 1 73 12q33 3 45 33q4 9 12.5 27.5t12.5 27.5q57 138 123 223q38 59 43 78q20 66 88 99q237 126 491 112q20 0 56 -16q3 -1 4.5 -5t2.5 -11t1 -9q0 -6 -8 -10q-25 -10 -29 -10q-37 1 -80.5 -5.5t-73 -13.5t-80.5 -21.5t-73 -19.5 q-12 -4 -14 -4q-76 -28 -122 -70.5t-59 -113.5q-6 -37 -47 -53q-48 -19 -71 -74q-8 -19 -25 -55t-25 -54q-7 -15 2.5 -30t24.5 -13q70 7 198.5 29.5t155.5 26.5q26 4 91.5 16t113 19t92.5 10q2 1 23 -10q-2 -2 -5 -7t-5 -6q-22 -10 -50 -19.5t-46.5 -14.5t-55 -14t-49.5 -13 q-78 -21 -232.5 -60t-232.5 -59q-23 -3 -43 -12q-33 -13 -39 -43q-19 -79 -2 -150q14 -61 59.5 -99.5t114.5 -35.5q69 0 145 29q12 5 70 27.5t77 30t67 28.5t74.5 35.5t63 37t66.5 46.5q3 2 12.5 -1.5t12.5 -7.5q9 -9 4 -26q-15 -22 -31 -33q-219 -155 -407 -223 q-57 -20 -92.5 -26.5t-98.5 -6.5q-22 0 -59 6q-28 4 -43 14q-105 60 -137 170q-7 25 -10.5 52t-5 60.5t-3.5 51.5q-5 30 -35 45q-20 10 -47 33q-17 15 -10.5 43z" />
<glyph unicode="&#xc9;" horiz-adv-x="894" d="M-86.5 475q6.5 28 27.5 33q4 1 73 12q33 3 45 33q4 9 12.5 27.5t12.5 27.5q57 138 123 223q38 59 43 78q20 66 88 99q237 126 491 112q20 0 56 -16q3 -1 4.5 -5t2.5 -11t1 -9q0 -6 -8 -10q-25 -10 -29 -10q-37 1 -80.5 -5.5t-73 -13.5t-80.5 -21.5t-73 -19.5 q-12 -4 -14 -4q-76 -28 -122 -70.5t-59 -113.5q-6 -37 -47 -53q-48 -19 -71 -74q-8 -19 -25 -55t-25 -54q-7 -15 2.5 -30t24.5 -13q70 7 198.5 29.5t155.5 26.5q26 4 91.5 16t113 19t92.5 10q2 1 23 -10q-2 -2 -5 -7t-5 -6q-22 -10 -50 -19.5t-46.5 -14.5t-55 -14t-49.5 -13 q-78 -21 -232.5 -60t-232.5 -59q-23 -3 -43 -12q-33 -13 -39 -43q-19 -79 -2 -150q14 -61 59.5 -99.5t114.5 -35.5q69 0 145 29q12 5 70 27.5t77 30t67 28.5t74.5 35.5t63 37t66.5 46.5q3 2 12.5 -1.5t12.5 -7.5q9 -9 4 -26q-15 -22 -31 -33q-219 -155 -407 -223 q-57 -20 -92.5 -26.5t-98.5 -6.5q-22 0 -59 6q-28 4 -43 14q-105 60 -137 170q-7 25 -10.5 52t-5 60.5t-3.5 51.5q-5 30 -35 45q-20 10 -47 33q-17 15 -10.5 43zM438.5 1257q0.5 5 5 18.5t5.5 18.5q19 109 108 215q9 9 25 21q14 12 30.5 9.5t28.5 -17.5q3 -5 7 -15t5 -12 q-2 -6 -2 -14q-2 -3 -5 -10t-5 -9q-91 -70 -152 -217q-3 -9 -14 -16q-16 -5 -20 -4q-12 4 -15 14q-2 13 -1.5 18z" />
<glyph unicode="&#xca;" horiz-adv-x="894" d="M-86.5 475q6.5 28 27.5 33q4 1 73 12q33 3 45 33q4 9 12.5 27.5t12.5 27.5q57 138 123 223q38 59 43 78q20 66 88 99q237 126 491 112q20 0 56 -16q3 -1 4.5 -5t2.5 -11t1 -9q0 -6 -8 -10q-25 -10 -29 -10q-37 1 -80.5 -5.5t-73 -13.5t-80.5 -21.5t-73 -19.5 q-12 -4 -14 -4q-76 -28 -122 -70.5t-59 -113.5q-6 -37 -47 -53q-48 -19 -71 -74q-8 -19 -25 -55t-25 -54q-7 -15 2.5 -30t24.5 -13q70 7 198.5 29.5t155.5 26.5q26 4 91.5 16t113 19t92.5 10q2 1 23 -10q-2 -2 -5 -7t-5 -6q-22 -10 -50 -19.5t-46.5 -14.5t-55 -14t-49.5 -13 q-78 -21 -232.5 -60t-232.5 -59q-23 -3 -43 -12q-33 -13 -39 -43q-19 -79 -2 -150q14 -61 59.5 -99.5t114.5 -35.5q69 0 145 29q12 5 70 27.5t77 30t67 28.5t74.5 35.5t63 37t66.5 46.5q3 2 12.5 -1.5t12.5 -7.5q9 -9 4 -26q-15 -22 -31 -33q-219 -155 -407 -223 q-57 -20 -92.5 -26.5t-98.5 -6.5q-22 0 -59 6q-28 4 -43 14q-105 60 -137 170q-7 25 -10.5 52t-5 60.5t-3.5 51.5q-5 30 -35 45q-20 10 -47 33q-17 15 -10.5 43zM478.5 1266q-2.5 10 0.5 14q19 28 25 33q16 16 38 32t38 26t43.5 27t40.5 25q48 28 88 25q49 1 85 -21.5 t50 -62.5q4 -10 14 -49q5 -22 -10.5 -41.5t-40.5 -22.5q-6 -2 -18 6t-15 15q-7 15 -10 28q-1 4 -1 15t-1 16q-3 14 -17.5 25.5t-27.5 11.5q-54 0 -90 -14q-102 -48 -140 -84q-10 -13 -24 -19q-5 -3 -19 2q-6 3 -8.5 13z" />
<glyph unicode="&#xcb;" horiz-adv-x="894" d="M-86.5 475q6.5 28 27.5 33q4 1 73 12q33 3 45 33q4 9 12.5 27.5t12.5 27.5q57 138 123 223q38 59 43 78q20 66 88 99q237 126 491 112q20 0 56 -16q3 -1 4.5 -5t2.5 -11t1 -9q0 -6 -8 -10q-25 -10 -29 -10q-37 1 -80.5 -5.5t-73 -13.5t-80.5 -21.5t-73 -19.5 q-12 -4 -14 -4q-76 -28 -122 -70.5t-59 -113.5q-6 -37 -47 -53q-48 -19 -71 -74q-8 -19 -25 -55t-25 -54q-7 -15 2.5 -30t24.5 -13q70 7 198.5 29.5t155.5 26.5q26 4 91.5 16t113 19t92.5 10q2 1 23 -10q-2 -2 -5 -7t-5 -6q-22 -10 -50 -19.5t-46.5 -14.5t-55 -14t-49.5 -13 q-78 -21 -232.5 -60t-232.5 -59q-23 -3 -43 -12q-33 -13 -39 -43q-19 -79 -2 -150q14 -61 59.5 -99.5t114.5 -35.5q69 0 145 29q12 5 70 27.5t77 30t67 28.5t74.5 35.5t63 37t66.5 46.5q3 2 12.5 -1.5t12.5 -7.5q9 -9 4 -26q-15 -22 -31 -33q-219 -155 -407 -223 q-57 -20 -92.5 -26.5t-98.5 -6.5q-22 0 -59 6q-28 4 -43 14q-105 60 -137 170q-7 25 -10.5 52t-5 60.5t-3.5 51.5q-5 30 -35 45q-20 10 -47 33q-17 15 -10.5 43zM416 1325q-23 64 6 98q18 21 39.5 22.5t40.5 -18.5q19 -19 22 -53q-4 -7 -11.5 -26.5t-12.5 -28.5 q-15 -26 -45 -23q-28 0 -39 29zM711 1307q20 50 26 59q10 22 36.5 22t41.5 -20q5 -6 11.5 -18.5t7.5 -14.5q-2 -5 -3.5 -15t-3.5 -13q-27 -36 -43 -52q-9 -9 -23 -10.5t-24 4.5q-36 19 -26 58z" />
<glyph unicode="&#xcc;" d="M-168 49q0 7 4 16t8 9q10 2 56 6.5t69 13.5q128 52 224 104t174 124q219 203 329 446q35 80 33 139q-3 51 -47 78q-62 36 -123 25q-95 -18 -156 -37q-62 -21 -77 -74q-7 -23 -31 -55q-3 -8 -23 -23q-46 -28 -73 -18q-51 23 -54 76q-3 54 29 86q120 122 311 145 q36 5 105 8q6 -1 37 -2.5t49 -3.5q63 -9 112 -55q79 -70 54 -174q-25 -101 -58 -166q-140 -280 -385 -484q-216 -182 -483 -233q-7 -1 -47 4q-14 2 -25.5 16t-11.5 29z" />
<glyph unicode="&#xcd;" d="M-168 49q0 7 4 16t8 9q10 2 56 6.5t69 13.5q128 52 224 104t174 124q219 203 329 446q35 80 33 139q-3 51 -47 78q-62 36 -123 25q-95 -18 -156 -37q-62 -21 -77 -74q-7 -23 -31 -55q-3 -8 -23 -23q-46 -28 -73 -18q-51 23 -54 76q-3 54 29 86q120 122 311 145 q36 5 105 8q6 -1 37 -2.5t49 -3.5q63 -9 112 -55q79 -70 54 -174q-25 -101 -58 -166q-140 -280 -385 -484q-216 -182 -483 -233q-7 -1 -47 4q-14 2 -25.5 16t-11.5 29zM462 1243q0 4 4 18.5t5 18.5q18 107 109 215q12 12 24 21q14 12 31 9t29 -18q4 -5 7.5 -14.5t4.5 -11.5 q-2 -6 -2 -15q-2 -2 -5 -9t-5 -9q-91 -70 -152 -217q-3 -10 -14 -17q-16 -6 -21 -4q-10 3 -14 15q-1 14 -1 18z" />
<glyph unicode="&#xce;" horiz-adv-x="854" d="M0 100q-17 94 10 146q14 28 17 37q3 5 8 16t8 16q8 19 27 33q8 8 22 8q4 0 8 -2q6 -3 10.5 -12.5t2.5 -15.5q-3 -10 -19 -58q-9 -25 -16 -55q-11 -35 16 -94q1 -2 12 -13l3 -2q31 -22 65 -22q10 0 16 2q201 30 320 149q95 90 166 242q35 74 94 283q4 16 14 86q0 15 4 39 q-4 16 -4 24q-2 9 -5 27t-5 27q-5 19 -24 33t-41 14h-7q-111 -20 -176 -74q-51 -42 -30 -107q7 -22 -4.5 -41.5t-32.5 -31.5q-15 -6 -29 -6q-32 0 -51 26q-44 62 -4 144q35 78 114 124q88 55 207 82q10 4 29 4q38 0 74 -28q99 -74 90 -199q-18 -208 -88 -366q-1 -5 -4 -12 t-4 -9q-16 -31 -23 -51q-85 -242 -344 -400q-6 -3 -19.5 -8t-19.5 -8q-12 -3 -22 -8q-45 -19 -132 -35q-5 -1 -16 -3t-16 -3q-21 -6 -39 -6q-83 0 -142 71q-15 18 -20 37zM549 1329q-4 16 2 25q1 1 3 5t3 5q156 146 287 225q45 26 121 45q44 10 87.5 -16t55.5 -70 q3 -15 6.5 -41t5.5 -34q-1 -10 -2.5 -23t-1.5 -18q-2 -14 -15 -28t-26 -15q-15 -2 -33 7t-22 21q-3 10 -7 32t-7 32q-3 11 -15 21.5t-22 10.5q-68 4 -113 -22q-175 -99 -256 -176q-18 -14 -37 -6q-10 4 -14 20z" />
<glyph unicode="&#xcf;" d="M-168 49q0 7 4 16t8 9q10 2 56 6.5t69 13.5q128 52 224 104t174 124q219 203 329 446q35 80 33 139q-3 51 -47 78q-62 36 -123 25q-95 -18 -156 -37q-62 -21 -77 -74q-7 -23 -31 -55q-3 -8 -23 -23q-46 -28 -73 -18q-51 23 -54 76q-3 54 29 86q120 122 311 145 q36 5 105 8q6 -1 37 -2.5t49 -3.5q63 -9 112 -55q79 -70 54 -174q-25 -101 -58 -166q-140 -280 -385 -484q-216 -182 -483 -233q-7 -1 -47 4q-14 2 -25.5 16t-11.5 29zM438 1352q-23 68 6 106q15 22 35.5 23.5t38.5 -19.5q18 -22 21 -57q-4 -7 -11 -28t-12 -31 q-14 -28 -41 -25q-27 0 -37 31zM711 1331q21 59 24 66q10 23 34.5 23.5t37.5 -21.5q5 -7 11 -21t7 -16q-2 -6 -3 -17t-3 -14q-5 -7 -18 -26t-21 -29q-22 -22 -45 -6q-34 20 -24 61z" />
<glyph unicode="&#xd2;" horiz-adv-x="847" d="M20 406q7 36 25 81q7 16 21.5 45l17.5 35q71 156 88 209q6 20 25 43q184 184 415 187h6q91 0 152.5 -56t71.5 -151q4 -25 4 -70v-20q0 -254 -160 -443q-142 -174 -367 -250q-51 -14 -81 -14q-69 0 -134 41q-41 23 -63 74q-57 132 -21 289zM133 231q6 -49 34.5 -76.5 t74.5 -29.5h16q55 0 90 18l2 2q62 30 121 68q133 86 201 219q66 126 78 289q-4 82 -25 123q-27 57 -82 67q-16 2 -45 2h-16h-11q-19 0 -30 -14q-7 -13 4 -27l12 -18q3 -4 9 -12.5t9 -12.5q6 -13 0 -32q-7 -15 -16 -15q-4 -2 -12 -2q-18 -6 -37 -6q-4 2 -12 2q-91 0 -181 -84 q-76 -67 -118 -153q-84 -169 -66 -308zM492 1417q7 21 10 27q26 29 55 6q3 -3 11 -9.5t12 -10.5q76 -88 100 -203q1 -5 4 -16.5t3.5 -17.5t-1.5 -17q-4 -12 -14 -15q-9 0 -17 4q-5 3 -14 17q-54 135 -137 202q-1 0 -10 19q0 1 -1 5t-1 9z" />
<glyph unicode="&#xd3;" horiz-adv-x="847" d="M20 406q7 36 25 81q7 16 21.5 45l17.5 35q71 156 88 209q6 20 25 43q184 184 415 187h6q91 0 152.5 -56t71.5 -151q4 -25 4 -70v-20q0 -254 -160 -443q-142 -174 -367 -250q-51 -14 -81 -14q-69 0 -134 41q-41 23 -63 74q-57 132 -21 289zM133 231q6 -49 34.5 -76.5 t74.5 -29.5h16q55 0 90 18l2 2q62 30 121 68q133 86 201 219q66 126 78 289q-4 82 -25 123q-27 57 -82 67q-16 2 -45 2h-16h-11q-19 0 -30 -14q-7 -13 4 -27l12 -18q3 -4 9 -12.5t9 -12.5q6 -13 0 -32q-7 -15 -16 -15q-4 -2 -12 -2q-18 -6 -37 -6q-4 2 -12 2q-91 0 -181 -84 q-76 -67 -118 -153q-84 -169 -66 -308zM429 1216q0 4 4 18.5t5 18.5q18 107 109 215q12 12 24 21q14 12 31 9.5t29 -17.5q3 -5 7 -15t5 -12q-2 -6 -2 -14q-2 -3 -5 -10t-5 -9q-91 -70 -152 -217q-3 -9 -14 -16q-17 -6 -21 -4q-10 4 -14 14q-1 14 -1 18z" />
<glyph unicode="&#xd4;" horiz-adv-x="847" d="M20 406q7 36 25 81q7 16 21.5 45l17.5 35q71 156 88 209q6 20 25 43q184 184 415 187h6q91 0 152.5 -56t71.5 -151q4 -25 4 -70v-20q0 -254 -160 -443q-142 -174 -367 -250q-51 -14 -81 -14q-69 0 -134 41q-41 23 -63 74q-57 132 -21 289zM133 231q6 -49 34.5 -76.5 t74.5 -29.5h16q55 0 90 18l2 2q62 30 121 68q133 86 201 219q66 126 78 289q-4 82 -25 123q-27 57 -82 67q-16 2 -45 2h-16h-11q-19 0 -30 -14q-7 -13 4 -27l12 -18q3 -4 9 -12.5t9 -12.5q6 -13 0 -32q-7 -15 -16 -15q-4 -2 -12 -2q-18 -6 -37 -6q-4 2 -12 2q-91 0 -181 -84 q-76 -67 -118 -153q-84 -169 -66 -308zM433.5 1207q-2.5 10 0.5 14q17 26 25 32q17 16 39 32.5t36 26t44 28t40 24.5q48 28 89 25q49 1 85 -21.5t50 -62.5q4 -8 14 -50q5 -22 -10.5 -41t-40.5 -22q-6 -2 -18 5.5t-15 14.5q-7 14 -10 29q-1 4 -1 15t-1 16q-3 14 -17.5 25.5 t-27.5 11.5q-51 0 -90 -15q-102 -48 -140 -84q-9 -12 -24 -18q-5 -3 -19 2q-6 3 -8.5 13z" />
<glyph unicode="&#xd6;" horiz-adv-x="862" d="M12 369q88 352 367 559q20 14 54 42.5t48 39.5q117 85 131 94q11 6 45 16q85 18 130 -11t73 -103q8 -28 12 -64v-129h-2q0 -81 -2 -98q-25 -324 -266 -520q-108 -89 -246 -160q-95 -50 -221 -17q-77 23 -104 97q-50 132 -19 254zM113 213q6 -38 24.5 -56.5t61.5 -27.5 q36 -5 47 -2q7 2 34 7t39 8t31.5 10.5t34.5 17.5q22 15 79 50t85 56q149 114 211 306q58 173 49 276q7 100 -6 141q-5 12 -21.5 21t-33.5 6q-14 -2 -20.5 -11.5t-0.5 -19.5q5 -10 18 -33.5t19 -37.5q13 -47 -21 -76q-14 -9 -28 -6q-18 4 -27 16q-35 42 -102 39 q-71 -3 -113 -57q-30 -45 -35 -56q-6 -13 -12.5 -28.5t-13.5 -33.5t-11 -28t-17 -17t-24 -5q-56 17 -73 12t-43 -45q-44 -69 -88 -156q-62 -121 -43 -270zM561 1393q15 143 60 215q1 2 5.5 5t6.5 5q11 11 27.5 11.5t31.5 -9.5q37 -21 35 -49v-15q-4 -9 -23.5 -52.5 t-25.5 -67.5q-5 -20 -6 -59.5t-2 -51.5q0 -13 -19 -20.5t-33 0.5q-2 1 -7 3t-7 3q-46 32 -43 82zM805 1339q0 13 4 33q40 161 121 283q21 32 57 37q1 0 16 -8t19 -15q13 -29 6 -61q-4 -21 -29 -58q-101 -171 -133 -241q-3 -10 -26 -15q-9 -3 -20 8t-11 23q-4 8 -4 14z" />
<glyph unicode="&#xd9;" horiz-adv-x="1015" d="M14 240q-9 42 0 82q91 343 328 610l39 39q2 1 6 4t6 4q7 10 31 10q16 0 25 -6q26 -17 26 -57v-11q-5 -21 -10 -26q-23 -31 -76 -84l-6 -6q-75 -78 -121 -176q-7 -12 -14 -29q-89 -177 -113 -281q-11 -40 4 -75q6 -15 22.5 -27t33.5 -12q1 0 4.5 1t5.5 1q80 24 129 59 q28 19 90.5 63t95.5 66l31 23q12 6 22 16q34 26 50 31q51 22 84 60t63 91q71 131 129 187q15 15 47 39l6 4q8 8 23 8q27 0 41 -21q14 -22 14.5 -47.5t-12.5 -40.5q0 -2 -4 -6q-6 -9 -17 -20q-103 -100 -157 -236q-48 -127 -54 -278v-82q0 -61 -2 -94q0 -9 -12 -21h-2 q0 -2 -2 -2q-6 0 -16 5t-11 9q-1 1 -8 15q-12 20 -14 30q-14 57 -17 103q-4 35 -4 104q0 9 -1 27t-1 26q0 17 -9.5 27t-24.5 10q-16 0 -29 -8q-23 -16 -77.5 -51t-82.5 -55q-90 -63 -229 -125q-41 -20 -101 -23q-39 0 -70 21.5t-40 56.5q-7 21 -10 39q-1 3 -4.5 13t-4.5 16z M653 1386q3 9 11 25q10 12 24.5 13.5t26.5 -7.5q3 -3 10 -9t10 -9q74 -83 94 -185q1 -5 4 -15t4 -15.5t-1 -16.5q-4 -7 -13 -12q-8 0 -16 4q-9 6 -12 15q-53 123 -129 184q-5 3 -11 16q0 2 -1 5.5t-1 6.5z" />
<glyph unicode="&#xda;" horiz-adv-x="1015" d="M14 240q-9 42 0 82q91 343 328 610l39 39q2 1 6 4t6 4q7 10 31 10q16 0 25 -6q26 -17 26 -57v-11q-5 -21 -10 -26q-23 -31 -76 -84l-6 -6q-75 -78 -121 -176q-7 -12 -14 -29q-89 -177 -113 -281q-11 -40 4 -75q6 -15 22.5 -27t33.5 -12q1 0 4.5 1t5.5 1q80 24 129 59 q28 19 90.5 63t95.5 66l31 23q12 6 22 16q34 26 50 31q51 22 84 60t63 91q71 131 129 187q15 15 47 39l6 4q8 8 23 8q27 0 41 -21q14 -22 14.5 -47.5t-12.5 -40.5q0 -2 -4 -6q-6 -9 -17 -20q-103 -100 -157 -236q-48 -127 -54 -278v-82q0 -61 -2 -94q0 -9 -12 -21h-2 q0 -2 -2 -2q-6 0 -16 5t-11 9q-1 1 -8 15q-12 20 -14 30q-14 57 -17 103q-4 35 -4 104q0 9 -1 27t-1 26q0 17 -9.5 27t-24.5 10q-16 0 -29 -8q-23 -16 -77.5 -51t-82.5 -55q-90 -63 -229 -125q-41 -20 -101 -23q-39 0 -70 21.5t-40 56.5q-7 21 -10 39q-1 3 -4.5 13t-4.5 16z M715.5 1189.5q-0.5 4.5 4 19t5.5 18.5q18 107 109 215q8 8 24 20q14 12 31 9.5t29 -17.5q3 -5 7 -15t5 -12q-2 -6 -2 -14q-2 -2 -5 -9t-5 -9q-91 -70 -152 -217q-3 -10 -14 -17q-16 -5 -21 -4q-11 3 -14 14q-1 14 -1.5 18.5z" />
<glyph unicode="&#xdb;" horiz-adv-x="1015" d="M14 240q-9 42 0 82q91 343 328 610l39 39q2 1 6 4t6 4q7 10 31 10q16 0 25 -6q26 -17 26 -57v-11q-5 -21 -10 -26q-23 -31 -76 -84l-6 -6q-75 -78 -121 -176q-7 -12 -14 -29q-89 -177 -113 -281q-11 -40 4 -75q6 -15 22.5 -27t33.5 -12q1 0 4.5 1t5.5 1q80 24 129 59 q28 19 90.5 63t95.5 66l31 23q12 6 22 16q34 26 50 31q51 22 84 60t63 91q71 131 129 187q15 15 47 39l6 4q8 8 23 8q27 0 41 -21q14 -22 14.5 -47.5t-12.5 -40.5q0 -2 -4 -6q-6 -9 -17 -20q-103 -100 -157 -236q-48 -127 -54 -278v-82q0 -61 -2 -94q0 -9 -12 -21h-2 q0 -2 -2 -2q-6 0 -16 5t-11 9q-1 1 -8 15q-12 20 -14 30q-14 57 -17 103q-4 35 -4 104q0 9 -1 27t-1 26q0 17 -9.5 27t-24.5 10q-16 0 -29 -8q-23 -16 -77.5 -51t-82.5 -55q-90 -63 -229 -125q-41 -20 -101 -23q-39 0 -70 21.5t-40 56.5q-7 21 -10 39q-1 3 -4.5 13t-4.5 16z M595.5 1209q-2.5 10 0.5 14q17 26 25 32q17 16 39 32.5t36 26t44 28t40 24.5q48 28 88 25q49 1 85.5 -21.5t50.5 -62.5q4 -8 14 -50q5 -22 -10.5 -41t-40.5 -22q-6 -2 -18 5.5t-15 14.5q-7 14 -10 29q-1 4 -1 15t-1 16q-3 14 -17.5 25.5t-27.5 11.5q-52 0 -91 -15 q-100 -47 -139 -84q-9 -12 -24 -18q-5 -3 -19 2q-6 3 -8.5 13z" />
<glyph unicode="&#xdc;" horiz-adv-x="1015" d="M2 100q-4 43 2 64q41 173 100 287q149 289 256 428q17 20 32 45t33 57.5t28 48.5q10 17 31 24t38 -1q28 -13 39.5 -43t-2.5 -52q-24 -35 -39 -53q-139 -162 -303 -454q-68 -127 -92 -240q-1 -4 1 -8.5t6 -10.5t5 -8h15q117 52 194 113q31 24 104.5 78t126 96t97.5 86 q31 19 61 49t47 52.5t45 62.5q43 62 105 141q6 8 39 31q10 7 28 0t23 -21q17 -47 -2 -77q-47 -68 -86 -117q-38 -49 -57 -115q-17 -55 -25 -85t-15.5 -78t-5.5 -89q3 -78 48 -151q37 -62 104 -68q19 -1 56.5 -2t56.5 -2l30 -6q8 -2 18 -16t7 -21q-9 -23 -18 -25 q-23 -10 -62 -18l-35 -2q-99 -6 -161 29t-101 108q-45 82 -45 170q1 25 -4 144q0 10 -8 10q-3 2 -8.5 1.5t-8.5 -3.5q-14 -10 -39.5 -32t-33.5 -28q-259 -223 -457 -329q-37 -19 -74 -33q-29 -11 -60 10t-34 53zM676 1239q-3 16 4 31q102 218 293 303q16 8 45 -4 q12 -3 17.5 -20.5t0.5 -35.5q-2 -5 -6 -14t-6 -14l2 2q-25 -25 -37 -35l4 2q-49 0 -73 -24q-74 -78 -109 -117q-6 -7 -11 -14.5t-9.5 -16.5l-7.5 -15t-7 -18.5t-5.5 -16.5t-5.5 -18.5t-5 -17.5q-3 -13 -13.5 -21.5t-19.5 -5.5q-29 12 -39 25q-7 11 -12 45zM868 1253 q15 63 56 113q15 17 39.5 49.5t29.5 38.5l-4 -2q12 10 37 35l-2 -2q13 -1 39 -2t39 -2q12 -2 21.5 -11.5t9.5 -21.5q0 -20 -15 -43q-7 -17 -22 -23q-80 -46 -135 -133q-4 -6 -9 -12.5t-12 -13.5t-10 -11q-5 -6 -21 -7t-24 5q-7 4 -13 19t-4 24z" />
<glyph unicode="&#xdd;" horiz-adv-x="503" d="M0 915q0 89 55 156q12 14 36.5 14.5t39.5 -12.5q10 -9 15.5 -24.5t0.5 -24.5q-4 -13 -14.5 -34t-13.5 -29q-25 -57 -8 -109q2 -7 7 -20.5t7 -20.5q12 -31 45 -52t66 -18q75 9 129.5 30.5t93.5 70.5q100 121 116 139q13 15 50.5 60.5t58.5 68.5q15 18 46.5 21t57.5 -11 q14 -8 23 -34t2 -39q-4 -7 -11.5 -21.5t-12 -22.5t-12 -19t-15.5 -19q-18 -18 -55 -57t-67.5 -67t-61.5 -50q-114 -79 -168 -201q-3 -6 -10.5 -18.5t-10.5 -18.5q-137 -257 -209 -516q-3 -15 -12 -27q0 -1 -23 -12q-3 0 -8 10q-1 9 -3 27.5t-3 27.5q-1 21 2.5 47.5t6.5 40.5 t11.5 48.5t10.5 42.5q47 159 112 286q18 33 41 88q3 7 -3.5 19t-14.5 14h-98q-40 0 -95 25q-67 30 -86 104q-18 81 -18 137zM438.5 1257q0.5 5 5 18.5t5.5 18.5q19 109 108 215q9 9 25 21q14 12 30.5 9.5t28.5 -17.5q3 -5 7 -15t5 -12q-2 -6 -2 -14q-2 -3 -5 -10t-5 -9 q-91 -70 -152 -217q-3 -9 -14 -16q-16 -5 -20 -4q-12 4 -15 14q-2 13 -1.5 18z" />
<glyph unicode="&#xdf;" horiz-adv-x="720" d="M-25 -311q-14 68 2 143q2 9 7 31t6 33q3 54 16 117t24.5 101t35.5 113q52 153 108 295q57 137 180 318q68 100 195 149q38 13 61 -10q78 -75 60 -178q-2 -6 -13.5 -15t-15.5 -8q-15 8 -20 15t-11 19t-8 15q-5 15 -16 37q-7 13 -26 18t-32 -3q-77 -53 -131 -127 q-8 -13 -25.5 -38t-25.5 -38q-8 -12 -4 -25q5 -13 23 -8q11 5 34 10q86 14 148 6q44 -8 74 -39t34 -75q0 -6 1 -19t1 -20q-5 -99 29 -180q12 -31 4 -52q-62 -183 -250 -272q-3 -2 -24 -2q-7 0 -16.5 7.5t-12.5 15.5q-7 39 19 59q13 10 41.5 29.5t41.5 29.5q75 58 103 119 q6 12 -2 29.5t-23 23.5q-29 11 -51 0q-25 -11 -78 -45q-31 -16 -76 2q-13 6 -17 27t5 31q14 18 27 28q4 3 27.5 19.5t32.5 22.5t27.5 15.5t35.5 14.5q45 12 65 59q6 15 3 33t-15 27q-51 39 -111 22q-128 -37 -206 -170q-43 -74 -82 -178q-74 -219 -95 -446q-1 -10 0.5 -21.5 t3.5 -24.5t3 -20q3 -21 -15 -35q-14 -9 -33 -11t-28 5q-15 15 -15 21z" />
<glyph unicode="&#xe0;" d="M-4 127v2q18 254 199 426q50 47 127 76q23 10 45 10q33 0 63 -23q16 -10 29 -20q12 -8 20 -16q10 -7 21 -7q8 0 22 7q7 4 25 8h6q26 0 37 -25q12 -21 6 -37q-47 -84 -70 -116q-31 -51 -28 -105v-37q0 -48 2 -73q2 -21 16 -58q43 -100 164 -100h12q15 0 39 4q32 4 47 4 q17 0 37 -4q1 -1 4 -2.5t5.5 -3.5t2.5 -4q-5 -18 -8 -25q-4 -8 -12 -8q-18 -4 -25 -8q-56 -15 -71 -17q-12 -2 -39 -2q-69 0 -142 37q-74 42 -108 148q-1 3 -3 10t-3 10q-8 31 -19 47q-6 6 -14 6h-2q-21 -14 -37 -30q-10 -10 -29.5 -31t-29.5 -31q-55 -55 -62 -63 q-34 -34 -90 -66q-20 -8 -35 -8q-34 0 -65.5 25t-34.5 61v25q0 10 -2 14zM80 141q2 -4 2 -16q1 -9 10 -15t17 -6h6q6 3 10 7q11 3 22 10q130 92 240 229q36 45 51 121q3 14 -8 35q-9 15 -31 37q-19 16 -43 10q-81 -24 -149 -104q-108 -126 -127 -299v-9zM326 1092 q4 12 10 24q10 12 24.5 13.5t26.5 -7.5q3 -3 10.5 -9t10.5 -9q74 -83 94 -184q1 -4 4 -15t3.5 -16.5t-1.5 -16.5q-4 -8 -12 -12q-9 0 -17 4q-9 6 -12 15q-53 123 -129 184q-3 2 -10 16q0 2 -1 6t-1 7z" />
<glyph unicode="&#xe1;" d="M-4 127v2q18 254 199 426q50 47 127 76q23 10 45 10q33 0 63 -23q16 -10 29 -20q12 -8 20 -16q10 -7 21 -7q8 0 22 7q7 4 25 8h6q26 0 37 -25q12 -21 6 -37q-47 -84 -70 -116q-31 -51 -28 -105v-37q0 -48 2 -73q2 -21 16 -58q43 -100 164 -100h12q15 0 39 4q32 4 47 4 q17 0 37 -4q1 -1 4 -2.5t5.5 -3.5t2.5 -4q-5 -18 -8 -25q-4 -8 -12 -8q-18 -4 -25 -8q-56 -15 -71 -17q-12 -2 -39 -2q-69 0 -142 37q-74 42 -108 148q-1 3 -3 10t-3 10q-8 31 -19 47q-6 6 -14 6h-2q-21 -14 -37 -30q-10 -10 -29.5 -31t-29.5 -31q-55 -55 -62 -63 q-34 -34 -90 -66q-20 -8 -35 -8q-34 0 -65.5 25t-34.5 61v25q0 10 -2 14zM80 141q2 -4 2 -16q1 -9 10 -15t17 -6h6q6 3 10 7q11 3 22 10q130 92 240 229q36 45 51 121q3 14 -8 35q-9 15 -31 37q-19 16 -43 10q-81 -24 -149 -104q-108 -126 -127 -299v-9zM397.5 847.5 q0.5 5.5 5 19t5.5 18.5q19 109 108 215q5 5 25 20q14 12 30.5 9.5t28.5 -17.5q3 -5 7 -15t5 -12q-2 -6 -2 -14q-2 -2 -5 -9t-5 -9q-89 -69 -151 -217q-3 -9 -15 -17q-16 -5 -20 -4q-12 4 -15 14q-2 13 -1.5 18.5z" />
<glyph unicode="&#xe2;" d="M0 84q0 11 8 35q51 177 172 332q86 116 207 172q48 23 90 12q28 -4 37 -27q7 -10 10 -20q21 -106 19 -152q-10 -148 -11 -176q0 -45 7 -106q4 -38 40.5 -61.5t73.5 -14.5q13 4 38.5 11t41.5 11.5t37.5 13t38.5 17.5q17 7 35 4q6 0 9 -5t1 -11q-6 -18 -10 -21 q-83 -61 -178 -90q-80 -26 -156 27q-55 40 -64 110q-2 16 -3 33.5t-1.5 38.5t-1.5 33q-1 14 -2 41t-2 41q0 8 -6 8q-2 2 -5 2t-5 -2q-4 -4 -17.5 -13.5t-19.5 -15.5q-35 -38 -103.5 -113.5t-103.5 -113.5q-51 -55 -94 -68q-32 -11 -55 7q-30 23 -27 61zM117 186q0 -2 1 -5.5 t1 -4.5q6 -13 18 -4q73 70 144 141q18 18 106 111q41 44 49 94q2 6 -6.5 13t-17.5 6q-29 -6 -33 -9q-162 -123 -246 -297q-3 -7 -8 -22.5t-8 -22.5zM307 836q-20 44 6 77q52 61 115 101q11 7 31 19.5t36.5 23t32.5 18.5q43 22 90 -1t58 -70q6 -30 6 -60q0 -94 16 -139 q3 -9 -5.5 -19.5t-20.5 -15.5q-6 -2 -17 2t-14 10q-6 15 -12 33q-15 85 -29 137q-1 7 -27 33q-4 0 -10 0.5t-9.5 0.5t-6.5 -1q-95 -36 -150 -129q-3 -4 -7.5 -15t-8.5 -16q-17 -21 -39 -18q-24 3 -35 29z" />
<glyph unicode="&#xe4;" d="M0 84q0 11 8 35q51 177 172 332q86 116 207 172q48 23 90 12q28 -4 37 -27q7 -10 10 -20q21 -106 19 -152q-10 -148 -11 -176q0 -45 7 -106q4 -38 40.5 -61.5t73.5 -14.5q13 4 38.5 11t41.5 11.5t37.5 13t38.5 17.5q17 7 35 4q6 0 9 -5t1 -11q-6 -18 -10 -21 q-83 -61 -178 -90q-80 -26 -156 27q-55 40 -64 110q-2 16 -3 33.5t-1.5 38.5t-1.5 33q-1 14 -2 41t-2 41q0 8 -6 8q-2 2 -5 2t-5 -2q-4 -4 -17.5 -13.5t-19.5 -15.5q-35 -38 -103.5 -113.5t-103.5 -113.5q-51 -55 -94 -68q-32 -11 -55 7q-30 23 -27 61zM117 186q0 -2 1 -5.5 t1 -4.5q6 -13 18 -4q73 70 144 141q18 18 106 111q41 44 49 94q2 6 -6.5 13t-17.5 6q-29 -6 -33 -9q-162 -123 -246 -297q-3 -7 -8 -22.5t-8 -22.5zM324 913q3 15 17.5 27.5t29.5 11.5q24 0 42 -19.5t15 -41.5q-10 -49 -33 -86q-5 -8 -15.5 -11t-21.5 1q-13 3 -20 14 q-20 47 -14 104zM600 856q1 6 2 18.5t2 18.5q5 17 25 31.5t37 11.5q21 -1 37.5 -24t11.5 -44q-2 -10 -4.5 -20.5t-6.5 -23.5t-6 -21q-4 -15 -21.5 -25.5t-29.5 -7.5q-36 10 -45 45q-2 12 -2 41z" />
<glyph unicode="&#xe8;" horiz-adv-x="514" d="M4 160q-3 67 8 125q19 109 76 196q10 17 25 29q83 72 153 108q29 12 45 17q41 12 77 -12t44 -66q9 -41 -16 -72q-48 -60 -137 -106q-29 -13 -86 -17h-37q-29 0 -39 -26q-29 -60 -35 -119q-6 -53 24 -94q19 -29 50 -35q6 -1 15.5 -1.5t15.5 -1t8 -1.5q41 0 85.5 8.5t70 17 t73.5 25.5q19 7 57.5 24.5t57.5 24.5q3 2 22 -4q7 -3 5.5 -13.5t-9.5 -16.5q-2 -2 -5 -5.5t-5 -5.5q-115 -73 -260 -119q-48 -16 -135 -8q-59 6 -101.5 48t-46.5 100zM215 479q2 -1 5.5 -4.5t6.5 -5.5t6 -2q56 0 89 55v10q-7 7 -11 7q-55 5 -92 -47q-1 -2 -2 -6.5t-2 -6.5z " />
<glyph unicode="&#xe9;" horiz-adv-x="514" d="M4 160q-3 67 8 125q19 109 76 196q10 17 25 29q83 72 153 108q29 12 45 17q41 12 77 -12t44 -66q9 -41 -16 -72q-48 -60 -137 -106q-29 -13 -86 -17h-37q-29 0 -39 -26q-29 -60 -35 -119q-6 -53 24 -94q19 -29 50 -35q6 -1 15.5 -1.5t15.5 -1t8 -1.5q41 0 85.5 8.5t70 17 t73.5 25.5q19 7 57.5 24.5t57.5 24.5q3 2 22 -4q7 -3 5.5 -13.5t-9.5 -16.5q-2 -2 -5 -5.5t-5 -5.5q-115 -73 -260 -119q-48 -16 -135 -8q-59 6 -101.5 48t-46.5 100zM215 479q2 -1 5.5 -4.5t6.5 -5.5t6 -2q56 0 89 55v10q-7 7 -11 7q-55 5 -92 -47q-1 -2 -2 -6.5t-2 -6.5z M231.5 847.5q0.5 5.5 5 19t5.5 18.5q19 109 108 215q5 5 25 20q14 12 30.5 9.5t28.5 -17.5q3 -5 7 -15t5 -12q-2 -6 -2 -14q-2 -2 -5 -9t-5 -9q-89 -69 -151 -217q-3 -9 -15 -17q-16 -5 -20 -4q-12 4 -15 14q-2 13 -1.5 18.5z" />
<glyph unicode="&#xea;" horiz-adv-x="514" d="M4 160q-3 67 8 125q19 109 76 196q10 17 25 29q83 72 153 108q29 12 45 17q41 12 77 -12t44 -66q9 -41 -16 -72q-48 -60 -137 -106q-29 -13 -86 -17h-37q-29 0 -39 -26q-29 -60 -35 -119q-6 -53 24 -94q19 -29 50 -35q6 -1 15.5 -1.5t15.5 -1t8 -1.5q41 0 85.5 8.5t70 17 t73.5 25.5q19 7 57.5 24.5t57.5 24.5q3 2 22 -4q7 -3 5.5 -13.5t-9.5 -16.5q-2 -2 -5 -5.5t-5 -5.5q-115 -73 -260 -119q-48 -16 -135 -8q-59 6 -101.5 48t-46.5 100zM167.5 828q-2.5 10 0.5 14q17 26 25 32q17 16 39 32.5t36 26t44 28t40 24.5q48 28 88 25q49 1 85 -21.5 t50 -62.5q7 -15 15 -49q5 -22 -10.5 -41.5t-40.5 -22.5q-6 -2 -18 6t-15 15q-7 15 -10 28q-1 4 -1 15t-1 16q-3 14 -17.5 25.5t-27.5 11.5q-52 0 -91 -15q-100 -47 -139 -84q-9 -12 -24 -18q-5 -3 -19 2q-6 3 -8.5 13zM215 479q2 -1 5.5 -4.5t6.5 -5.5t6 -2q56 0 89 55v10 q-7 7 -11 7q-55 5 -92 -47q-1 -2 -2 -6.5t-2 -6.5z" />
<glyph unicode="&#xeb;" horiz-adv-x="514" d="M4 160q-3 67 8 125q19 109 76 196q10 17 25 29q83 72 153 108q29 12 45 17q41 12 77 -12t44 -66q9 -41 -16 -72q-48 -60 -137 -106q-29 -13 -86 -17h-37q-29 0 -39 -26q-29 -60 -35 -119q-6 -53 24 -94q19 -29 50 -35q6 -1 15.5 -1.5t15.5 -1t8 -1.5q41 0 85.5 8.5t70 17 t73.5 25.5q19 7 57.5 24.5t57.5 24.5q3 2 22 -4q7 -3 5.5 -13.5t-9.5 -16.5q-2 -2 -5 -5.5t-5 -5.5q-115 -73 -260 -119q-48 -16 -135 -8q-59 6 -101.5 48t-46.5 100zM70 846q-23 64 6 98q18 21 39.5 22.5t40.5 -18.5q19 -19 22 -53q-4 -7 -11.5 -26.5t-12.5 -28.5 q-15 -26 -45 -23q-28 0 -39 29zM215 479q2 -1 5.5 -4.5t6.5 -5.5t6 -2q56 0 89 55v10q-7 7 -11 7q-55 5 -92 -47q-1 -2 -2 -6.5t-2 -6.5zM365 827q21 52 26 60q10 22 36.5 22t41.5 -20q5 -6 10.5 -18t7.5 -15q-2 -6 -3 -16t-3 -13q-24 -32 -43 -51q-9 -9 -23 -10.5t-24 4.5 q-36 19 -26 57z" />
<glyph unicode="&#xec;" horiz-adv-x="231" d="M0 113q3 187 98 364q15 29 49 29t52 -31q6 -17 4 -24q-6 -24 -19 -50q-13 -25 -24.5 -53t-25.5 -65t-21 -54q-43 -110 -23 -184q0 -2 -1 -6t-1 -6q-2 -6 -12 -16t-17 -11q-23 -3 -34 10q-17 21 -19 37q-6 25 -6 60zM162 1072.5q5 29.5 28 43.5q4 2 8 3t9 1.5t8 1.5 q24 -6 25 -8q19 -21 58 -62t58 -61q12 -15 0 -24q-25 -20 -32 -19q-88 16 -148 76q-19 19 -14 48.5z" />
<glyph unicode="&#xed;" horiz-adv-x="231" d="M0 113q3 187 98 364q15 29 49 29t52 -31q6 -17 4 -24q-6 -24 -19 -50q-13 -25 -24.5 -53t-25.5 -65t-21 -54q-43 -110 -23 -184q0 -2 -1 -6t-1 -6q-2 -6 -12 -16t-17 -11q-23 -3 -34 10q-17 21 -19 37q-6 25 -6 60zM10.5 847.5q-0.5 4.5 4 19t5.5 18.5q18 107 109 215 q5 5 25 20q14 12 30.5 9.5t28.5 -17.5q3 -5 7 -15t5 -12q-2 -6 -2 -14q-2 -2 -5 -9t-5 -9q-91 -70 -152 -217q-3 -10 -14 -17q-16 -5 -20 -4q-12 4 -15 14q-1 14 -1.5 18.5zM162 1072.5q5 29.5 28 43.5q4 2 8 3t9 1.5t8 1.5q24 -6 25 -8q19 -21 58 -62t58 -61q12 -15 0 -24 q-25 -20 -32 -19q-88 16 -148 76q-19 19 -14 48.5z" />
<glyph unicode="&#xee;" horiz-adv-x="344" d="M0 106h2q4 36 6 50q13 79 19 106q25 108 75 234q4 13 17 34q24 58 28 88q0 4 5 9q2 2 2 4q6 11 20.5 19.5t28.5 8.5q6 0 14 -4q20 -9 31 -28.5t6 -38.5l-2 -2q-2 -12 -10 -27q-72 -112 -138 -338q-3 -11 -5 -24t-4 -28t-3 -24v-4q-6 -78 47 -104q8 -8 8 -17 q0 -15 -12 -24l-2 -2q-12 -8 -18 -8h-11q-62 0 -81 51q-3 8 -9 25t-8 22q0 8 -4 20zM97.5 813.5q-2.5 9.5 0.5 13.5q19 28 25 33q17 16 38.5 32.5t37 26t44 27.5t40.5 25q47 27 88 24q49 1 85 -21.5t50 -62.5q4 -10 14 -49q5 -22 -10.5 -41t-40.5 -22q-6 -2 -18 5.5 t-15 14.5q-7 14 -10 29q-1 4 -1 15t-1 16q-3 13 -17 24.5t-28 11.5q-54 0 -90 -14q-100 -47 -139 -84q-9 -11 -25 -18q-5 -3 -19 2q-6 3 -8.5 12.5z" />
<glyph unicode="&#xef;" horiz-adv-x="231" d="M0 113q3 187 98 364q15 29 49 29t52 -31q6 -17 4 -24q-6 -24 -19 -50q-13 -25 -24.5 -53t-25.5 -65t-21 -54q-43 -110 -23 -184q0 -2 -1 -6t-1 -6q-2 -6 -12 -16t-17 -11q-23 -3 -34 10q-17 21 -19 37q-6 25 -6 60zM68 909q-24 65 6 99q18 21 39.5 22.5t40.5 -18.5 q19 -19 22 -54q-4 -7 -11.5 -26.5t-12.5 -28.5q-14 -25 -46 -22q-28 0 -38 28zM362 891q18 46 27 59q10 22 36.5 22t41.5 -20q5 -6 10.5 -17.5t7.5 -14.5q-2 -6 -3 -16t-3 -13q-24 -32 -43 -51q-9 -9 -23 -10.5t-24 4.5q-37 19 -27 57z" />
<glyph unicode="&#xf0;" horiz-adv-x="602" d="M-326 -426q-2 8 3 15.5t14 7.5q43 -2 110 36q139 92 197 148q18 17 60 50t63 54q149 152 237 316q8 15 25 46.5t25 47.5q51 98 63 203q0 4 6.5 36.5t1.5 49.5q-3 9 -10 16q-11 7 -18 -4q-3 -4 -9.5 -13.5t-9.5 -13.5q-91 -111 -196 -182q-35 -25 -105 -51q-21 -6 -43 -6 q-53 -1 -77 37t-11 79q30 84 68 146q38 68 127 129q47 31 135 61q16 4 71.5 15t83.5 22q15 7 35 -5t25 -30q6 -18 6 -20q0 -81 14 -150q1 -4 1.5 -9.5t1 -14t1.5 -15.5q-1 -5 -10 -49.5t-16 -68.5q-45 -177 -185 -373q-185 -255 -485 -467q-36 -26 -102 -53q-39 -16 -74 -10 q-17 3 -23 20zM80 438q0 -6 7 -13t13 -7q2 0 6 -1t5 -1q79 15 116 47q12 9 34.5 26.5t33.5 26.5q71 51 125 156q2 6 2 41q-2 9 -13 17t-20 5q-185 -40 -268 -188q-36 -74 -37 -78q-2 -5 -2.5 -16.5t-1.5 -14.5z" />
<glyph unicode="&#xf2;" horiz-adv-x="561" d="M-4 139q-4 79 12 131q8 20 12 41q2 5 8 22t9 25q14 46 16 76q1 13 6.5 39t6.5 31q1 3 3 10t3 10q21 100 116 135q10 4 31 12.5t31 12.5q4 2 12 5t12 5q33 11 54 11q42 0 78 -22t59 -54q45 -67 63 -148q15 -59 27 -129q17 -108 -43 -205q-54 -83 -164 -153 q-52 -34 -164 -37h-2q-73 0 -127 51q-53 53 -59 131zM94 193q-12 -53 27 -109q21 -28 51 -31q10 -2 31 -2q27 0 43 8q8 4 14 4q50 22 80 39q64 40 100.5 92t36.5 105q-2 91 -12 151.5t-39 112.5q-30 52 -94 55q-77 3 -127 -47q-1 -1 -2 -3t-2 -3h2q8 -4 14 -4q5 0 21 4l2 2 q32 8 45 8q50 0 96 -38q9 -9 29 -25q3 -3 4.5 -6.5t2 -7t1.5 -4.5q0 -19 -8 -27q-12 -12 -25 -12h-2q-3 0 -27 6q-2 1 -5.5 2t-4.5 2q-27 8 -53 8q-59 0 -105 -57q-82 -102 -88 -197q0 -6 -4 -18q0 -2 -1 -4.5t-1 -3.5zM186 1092q2 6 11 24q10 12 24.5 13.5t26.5 -7.5 q3 -3 10 -9t10 -9q74 -83 94 -184q1 -4 4 -15t4 -16.5t-1 -16.5q-4 -7 -13 -12q-8 0 -16 4q-9 6 -12 15q-53 123 -129 184q-5 3 -11 16q0 2 -1 6t-1 7z" />
<glyph unicode="&#xf3;" horiz-adv-x="561" d="M-4 139q-4 79 12 131q8 20 12 41q2 5 8 22t9 25q14 46 16 76q1 13 6.5 39t6.5 31q1 3 3 10t3 10q21 100 116 135q10 4 31 12.5t31 12.5q4 2 12 5t12 5q33 11 54 11q42 0 78 -22t59 -54q45 -67 63 -148q15 -59 27 -129q17 -108 -43 -205q-54 -83 -164 -153 q-52 -34 -164 -37h-2q-73 0 -127 51q-53 53 -59 131zM94 193q-12 -53 27 -109q21 -28 51 -31q10 -2 31 -2q27 0 43 8q8 4 14 4q50 22 80 39q64 40 100.5 92t36.5 105q-2 91 -12 151.5t-39 112.5q-30 52 -94 55q-77 3 -127 -47q-1 -1 -2 -3t-2 -3h2q8 -4 14 -4q5 0 21 4l2 2 q32 8 45 8q50 0 96 -38q9 -9 29 -25q3 -3 4.5 -6.5t2 -7t1.5 -4.5q0 -19 -8 -27q-12 -12 -25 -12h-2q-3 0 -27 6q-2 1 -5.5 2t-4.5 2q-27 8 -53 8q-59 0 -105 -57q-82 -102 -88 -197q0 -6 -4 -18q0 -2 -1 -4.5t-1 -3.5zM174.5 847.5q-0.5 4.5 4 19t5.5 18.5q18 107 109 215 q8 8 24 20q14 12 31 9.5t29 -17.5q3 -5 7 -15t5 -12q-2 -6 -2 -14q-2 -2 -5 -9t-5 -9q-91 -70 -152 -217q-3 -10 -14 -17q-16 -5 -21 -4q-10 3 -14 14q-1 14 -1.5 18.5z" />
<glyph unicode="&#xf4;" horiz-adv-x="561" d="M-4 139q-4 79 12 131q8 20 12 41q2 5 8 22t9 25q14 46 16 76q1 13 6.5 39t6.5 31q1 3 3 10t3 10q21 100 116 135q10 4 31 12.5t31 12.5q4 2 12 5t12 5q33 11 54 11q42 0 78 -22t59 -54q45 -67 63 -148q15 -59 27 -129q17 -108 -43 -205q-54 -83 -164 -153 q-52 -34 -164 -37h-2q-73 0 -127 51q-53 53 -59 131zM94 193q-12 -53 27 -109q21 -28 51 -31q10 -2 31 -2q27 0 43 8q8 4 14 4q50 22 80 39q64 40 100.5 92t36.5 105q-2 91 -12 151.5t-39 112.5q-30 52 -94 55q-77 3 -127 -47q-1 -1 -2 -3t-2 -3h2q8 -4 14 -4q5 0 21 4l2 2 q32 8 45 8q50 0 96 -38q9 -9 29 -25q3 -3 4.5 -6.5t2 -7t1.5 -4.5q0 -19 -8 -27q-12 -12 -25 -12h-2q-3 0 -27 6q-2 1 -5.5 2t-4.5 2q-27 8 -53 8q-59 0 -105 -57q-82 -102 -88 -197q0 -6 -4 -18q0 -2 -1 -4.5t-1 -3.5zM120.5 828q-2.5 10 0.5 14q18 27 24 32 q17 16 38.5 32.5t37 26t44 27.5t40.5 25q48 28 88 25q49 1 85 -21.5t50 -62.5q7 -15 15 -49q5 -22 -10.5 -41.5t-40.5 -22.5q-6 -2 -18 6t-15 15q-7 15 -10 28q-1 4 -1.5 15t-1.5 16q-3 14 -17.5 25.5t-27.5 11.5q-51 0 -90 -15q-100 -47 -139 -84q-9 -11 -25 -18 q-5 -2 -18 2q-6 3 -8.5 13z" />
<glyph unicode="&#xf6;" horiz-adv-x="540" d="M8 203q8 19 30.5 84t39.5 98q90 185 270 250q25 9 48 1.5t38 -28.5q31 -44 41 -61q52 -78 39 -174q0 -6 -1 -18.5t-1 -18.5q-11 -193 -197 -287q-20 -12 -32 -18q-44 -29 -119 -29q-4 0 -15 1t-18 1q-67 3 -108 70q-37 66 -15 129zM88 182q1 -38 11.5 -58.5t31.5 -33.5 q27 -15 59 -4q97 28 175 88q45 34 65 100q16 58 23 134q3 42 -25 92q-3 12 -18 16q-27 6 -60 6q-45 3 -76 -33q-8 -8 -23.5 -27.5t-23.5 -27.5q-10 -11 -32 -31.5t-29 -27.5q-5 -3 -14 -21q-7 -17 -23 -49.5t-23 -48.5q-18 -40 -18 -74zM362 844q-17 57 0 96q2 5 13 12.5 t14 10.5q36 -10 37 -11q6 -6 15.5 -19.5t13.5 -17.5q10 -15 30 -8q19 3 35 0q12 -3 22.5 -21.5t4.5 -27.5q-12 -21 -58 -92q-3 -7 -14.5 -11t-15.5 1q-78 62 -84 67q-9 9 -13 21z" />
<glyph unicode="&#xf9;" horiz-adv-x="677" d="M0 94v5v5q3 -46 43 -67q25 -14 57 4q82 42 144 104q59 62 145 144q9 6 21 10q2 1 5 1t5 -1q4 -9 8 -23q1 -9 1 -26t0.5 -27.5t3 -25.5t7.5 -27q51 -114 162 -147q43 -10 72 -15q12 -2 33 6q14 5 14 17q2 5 -8 20q-8 7 -19 10.5t-27 6t-22 4.5q-63 16 -94 61.5t-31 106.5 q-2 70 37 161q3 5 15 28t18 36q11 33 0 57q-7 20 -25 25q-23 4 -33 -8q-7 -7 -41 -46.5t-53 -60.5q-39 -42 -82 -82.5t-111 -99.5t-87 -76q-7 -6 -31 -20q-17 -4 -23 -2q-10 7 -10 20q27 144 90 246q49 80 105 145q32 37 -13 70q-21 13 -32 2q-23 -18 -27 -25 q-71 -80 -133 -196q-35 -63 -64 -168q-5 -19 -7.5 -40t-6.5 -56.5t-6 -55.5zM414 1012q4 12 10 24q10 12 24.5 13.5t26.5 -7.5q3 -3 10.5 -9t10.5 -9q74 -83 94 -184q1 -4 4 -14.5t3.5 -16t-1.5 -16.5q-5 -9 -12 -13q-9 0 -17 4q-9 6 -12 15q-53 123 -129 184q-3 2 -10 16 q0 2 -1 6t-1 7z" />
<glyph unicode="&#xfa;" horiz-adv-x="677" d="M0 94q2 20 6 55.5t6.5 56.5t7.5 40q29 105 64 168q62 116 133 196q4 7 27 25q11 11 32 -2q45 -33 13 -70q-56 -65 -105 -145q-63 -102 -90 -246q0 -13 10 -20q6 -2 23 2q24 14 31 20q19 17 87 76t111 99.5t82 82.5q19 21 53 60.5t41 46.5q10 12 33 8q18 -5 25 -25 q11 -24 0 -57q-6 -13 -18 -36t-15 -28q-39 -91 -37 -161q0 -61 31 -106.5t94 -61.5q6 -2 22 -4.5t27 -6t19 -10.5q10 -15 8 -20q0 -12 -14 -17q-21 -8 -33 -6q-29 5 -72 15q-111 33 -162 147q-6 16 -8.5 32t-3 42t-0.5 32q-4 14 -8 23q-2 1 -5 1t-5 -1q-12 -4 -21 -10 q-86 -82 -145 -144q-62 -62 -144 -104q-32 -18 -57 -4q-40 21 -43 67v1v1v1v-1v-1v-1v-10zM374 825q0 4 4 18.5t5 18.5q18 107 109 215q12 12 24 21q14 12 30.5 9.5t28.5 -17.5q4 -5 8.5 -15.5t4.5 -11.5q-2 -6 -2 -14q-2 -2 -5.5 -9.5t-5.5 -9.5q-89 -69 -151 -217 q-3 -9 -14 -16q-17 -5 -21 -4q-10 3 -14 14q-1 14 -1 18z" />
<glyph unicode="&#xfb;" horiz-adv-x="677" d="M0 94q2 20 6 55.5t6.5 56.5t7.5 40q29 105 64 168q62 116 133 196q4 7 27 25q11 11 32 -2q45 -33 13 -70q-56 -65 -105 -145q-63 -102 -90 -246q0 -13 10 -20q6 -2 23 2q24 14 31 20q19 17 87 76t111 99.5t82 82.5q19 21 53 60.5t41 46.5q10 12 33 8q18 -5 25 -25 q11 -24 0 -57q-6 -13 -18 -36t-15 -28q-39 -91 -37 -161q0 -61 31 -106.5t94 -61.5q6 -2 22 -4.5t27 -6t19 -10.5q10 -15 8 -20q0 -12 -14 -17q-21 -8 -33 -6q-29 5 -72 15q-111 33 -162 147q-6 16 -8.5 32t-3 42t-0.5 32q-4 14 -8 23q-2 1 -5 1t-5 -1q-12 -4 -21 -10 q-86 -82 -145 -144q-62 -62 -144 -104q-32 -18 -57 -4q-40 21 -43 67v1v1v1v-1v-1v-1v-10zM300.5 783q-2.5 10 0.5 14q17 26 25 32q17 16 39 32.5t36 26t44 28t40 24.5q48 28 88 25q49 1 85.5 -21.5t50.5 -62.5q4 -8 14 -50q5 -22 -10.5 -41t-40.5 -22q-6 -2 -18 5.5 t-15 14.5q-7 14 -10 29q-1 4 -1 15t-1 16q-3 14 -17.5 25.5t-27.5 11.5q-51 0 -90 -15q-102 -48 -140 -84q-9 -12 -24 -18q-5 -3 -19 2q-6 3 -8.5 13z" />
<glyph unicode="&#xfc;" horiz-adv-x="677" d="M6 154q50 149 94 213q9 14 45 88q3 5 10.5 15t10.5 15q21 21 43 21q12 -2 25.5 -14t17.5 -27q0 -2 1 -6t1 -6q-4 -18 -12 -35q-4 -8 -15 -22.5t-12 -16.5q-81 -125 -109 -209q-4 -10 -4 -35q-1 -7 9 -16.5t16 -7.5q5 2 17.5 5t17.5 5q198 92 291 239q13 23 36 50 q6 7 23.5 5.5t22.5 -9.5q21 -31 16 -60q-1 -8 -6 -26.5t-6 -20.5q-36 -101 -23 -231q1 -5 1 -11.5t-0.5 -14t-0.5 -11.5q0 -9 -6.5 -17t-13.5 -8q-17 0 -23 6q-28 19 -31 51q-3 18 -8 55t-8 56q0 9 -10.5 13.5t-16.5 -1.5q-14 -11 -54.5 -42.5t-63.5 -47.5q-90 -63 -177 -84 q-65 -13 -90 45q-22 48 -8 97zM283 791q-12 28 0 59q4 13 14 16q31 17 59.5 6.5t40.5 -41.5v-12q2 -22 -17.5 -44t-39.5 -21q-38 0 -57 37zM547 676q-45 52 8 96q4 4 35 19h20q14 -12 49.5 -30.5t51.5 -35.5q9 -11 4 -29.5t-17 -21.5q-2 -1 -4 -2.5t-3.5 -2.5t-2.5 -1 q-20 4 -55 -4.5t-53 -4.5q-22 3 -33 17z" />
<glyph unicode="&#xfd;" horiz-adv-x="741" d="M-20 -903q-5 34 12 80q61 172 117 288q175 365 311 619q26 46 37 74q3 6 4 14t1 18t1 15q-14 -11 -70.5 -54.5t-93 -70t-74.5 -49.5q-28 -20 -47 -27q-46 -21 -90 4q-85 52 -82 162q2 65 41 172q55 131 146 227q8 8 45 31q19 7 36 -10q35 -42 5 -72q-114 -109 -164 -276 q-20 -70 2 -121q11 -14 22 -12h13q172 72 260 170q21 24 65.5 69t65.5 68q73 83 86 168q3 27 28 43q50 29 88 -9q13 -13 29 -45q12 -25 -2 -36q-64 -64 -121 -197q-19 -44 -43.5 -90t-60.5 -108.5t-51 -88.5q-245 -433 -441 -858q-8 -19 -24.5 -55.5t-24.5 -54.5 q-5 -5 -12 -5q-6 -2 -10 3t-4 14zM507 788q0 4 4 18.5t5 18.5q18 107 109 215q12 12 24 21q14 12 31 9.5t29 -17.5q3 -5 7 -15t5 -12q-2 -6 -2 -14q-2 -3 -5 -10t-5 -9q-91 -70 -152 -217q-3 -9 -14 -16q-17 -6 -21 -4q-10 4 -14 14q-1 14 -1 18z" />
<glyph unicode="&#xff;" horiz-adv-x="741" d="M-20 -903q-5 34 12 80q61 172 117 288q175 365 311 619q26 46 37 74q3 6 4 14t1 18t1 15q-14 -11 -70.5 -54.5t-93 -70t-74.5 -49.5q-28 -20 -47 -27q-46 -21 -90 4q-85 52 -82 162q2 65 41 172q55 131 146 227q8 8 45 31q19 7 36 -10q35 -42 5 -72q-114 -109 -164 -276 q-20 -70 2 -121q11 -14 22 -12h13q172 72 260 170q21 24 65.5 69t65.5 68q73 83 86 168q3 27 28 43q50 29 88 -9q13 -13 29 -45q12 -25 -2 -36q-64 -64 -121 -197q-19 -44 -43.5 -90t-60.5 -108.5t-51 -88.5q-245 -433 -441 -858q-8 -19 -24.5 -55.5t-24.5 -54.5 q-5 -5 -12 -5q-6 -2 -10 3t-4 14zM449 981q-23 64 6 98q18 21 39.5 22.5t40.5 -18.5q19 -19 22 -53q-4 -7 -12 -26.5t-13 -28.5q-15 -26 -45 -23q-27 0 -38 29zM743 963q19 46 27 59q10 22 36.5 22t41.5 -20q5 -6 10.5 -18t7.5 -15q-2 -6 -3 -15.5t-3 -12.5q-27 -36 -43 -52 q-9 -9 -23 -10.5t-24 4.5q-37 19 -27 58z" />
<glyph unicode="&#x2c6;" horiz-adv-x="552" d="M97.5 813.5q-2.5 9.5 0.5 13.5q19 28 25 33q17 16 38.5 32.5t37 26t44 27.5t40.5 25q47 27 88 24q49 1 85 -21.5t50 -62.5q4 -10 14 -49q5 -22 -10.5 -41t-40.5 -22q-6 -2 -18 5.5t-15 14.5q-7 14 -10 29q-1 4 -1 15t-1 16q-3 13 -17 24.5t-28 11.5q-54 0 -90 -14 q-100 -47 -139 -84q-9 -11 -25 -18q-5 -3 -19 2q-6 3 -8.5 12.5z" />
<glyph unicode="&#x2000;" horiz-adv-x="846" />
<glyph unicode="&#x2001;" horiz-adv-x="1692" />
<glyph unicode="&#x2002;" horiz-adv-x="846" />
<glyph unicode="&#x2003;" horiz-adv-x="1692" />
<glyph unicode="&#x2004;" horiz-adv-x="564" />
<glyph unicode="&#x2005;" horiz-adv-x="423" />
<glyph unicode="&#x2006;" horiz-adv-x="282" />
<glyph unicode="&#x2007;" horiz-adv-x="282" />
<glyph unicode="&#x2008;" horiz-adv-x="211" />
<glyph unicode="&#x2009;" horiz-adv-x="338" />
<glyph unicode="&#x200a;" horiz-adv-x="94" />
<glyph unicode="&#x2010;" horiz-adv-x="534" d="M0 375q2 8 9 17t14 9q30 5 36 5q37 0 82 10q145 26 267 43q24 4 73 0q6 0 17 -17q-10 -16 -11 -16q-20 -10 -24 -10q-34 -5 -95 -20.5t-77 -18.5q-123 -29 -201 -45q-5 -2 -17.5 -5t-17.5 -5q-23 -9 -40.5 8.5t-14.5 44.5z" />
<glyph unicode="&#x2011;" horiz-adv-x="534" d="M0 375q2 8 9 17t14 9q30 5 36 5q37 0 82 10q145 26 267 43q24 4 73 0q6 0 17 -17q-10 -16 -11 -16q-20 -10 -24 -10q-34 -5 -95 -20.5t-77 -18.5q-123 -29 -201 -45q-5 -2 -17.5 -5t-17.5 -5q-23 -9 -40.5 8.5t-14.5 44.5z" />
<glyph unicode="&#x2012;" horiz-adv-x="534" d="M0 375q2 8 9 17t14 9q30 5 36 5q37 0 82 10q145 26 267 43q24 4 73 0q6 0 17 -17q-10 -16 -11 -16q-20 -10 -24 -10q-34 -5 -95 -20.5t-77 -18.5q-123 -29 -201 -45q-5 -2 -17.5 -5t-17.5 -5q-23 -9 -40.5 8.5t-14.5 44.5z" />
<glyph unicode="&#x2013;" horiz-adv-x="393" d="M0 801q2 7 7 13.5t9 6.5q10 2 29 2q20 0 66 8q174 31 204 35q29 3 58 0q2 0 4 -2t4.5 -5.5t3.5 -4.5q-1 -2 -3.5 -7.5t-4.5 -6.5q-14 -9 -19 -9q-37 -3 -133 -30q-25 -6 -77 -17.5t-78 -17.5q-4 -1 -13.5 -3t-13.5 -3q-18 -7 -32 6.5t-11 34.5z" />
<glyph unicode="&#x2014;" horiz-adv-x="2084" d="M2 375q8 8 37 17t57 9q124 5 148 5q152 0 337 10q596 26 1097 43q99 4 300 0q25 0 70 -17q-41 -16 -45 -16q-82 -10 -99 -10q-140 -5 -390.5 -20.5t-316.5 -18.5q-505 -29 -825 -45q-21 -2 -72.5 -5t-71.5 -5q-95 -9 -167 8.5t-59 44.5z" />
<glyph unicode="&#x2018;" horiz-adv-x="198" d="M2 872q-4 12 6 48q17 97 94 184q3 3 10.5 9t10.5 9q10 9 25.5 7t25.5 -15q2 -3 5 -11t5 -11q-2 -6 -2 -13q-2 -2 -4.5 -8t-5.5 -8q-74 -59 -129 -184q-3 -9 -12 -15q-8 -4 -17 -4q-7 2 -12 12z" />
<glyph unicode="&#x2019;" horiz-adv-x="206" d="M-0.5 1085.5q-0.5 15.5 8.5 24.5q38 42 76 4q27 -27 51 -57q42 -55 55 -137q3 -45 -22 -84q-5 -8 -16 -13t-21 -4q-8 2 -13.5 8.5t-4.5 12.5q0 9 7 38t1 48q-24 83 -84 118q-4 3 -13.5 9.5t-13.5 9.5q-10 7 -10.5 22.5z" />
<glyph unicode="&#x201a;" horiz-adv-x="192" d="M-9 -131q1 9 7 12q6 4 34 16t40 27q53 73 45 142q-1 5 -2 15t-2 15q0 14 13 24t26 7q53 -6 47 -57q-7 -43 -15 -74q-20 -72 -75 -127q-32 -32 -80 -35q-8 -2 -19.5 4t-15.5 15q-4 7 -3 16z" />
<glyph unicode="&#x201c;" horiz-adv-x="301" d="M0 934q10 65 45 115q28 32 43 47q27 30 64 -2q7 -8 6.5 -21.5t-8.5 -19.5q-4 -2 -11.5 -7.5t-11.5 -7.5q-50 -30 -70 -100q-5 -15 2 -39.5t7 -30.5t-5.5 -11t-11.5 -5q-21 -4 -33 12q-19 36 -16 70zM123 856q3 129 82 242q2 2 7.5 9.5t10.5 10.5q27 24 53 -2q9 -9 5 -16 q0 -10 -7 -17q-65 -62 -100 -186q-15 -57 -18 -70q-3 -10 -15 -6q-9 5 -12 10q-6 15 -6 25z" />
<glyph unicode="&#x201d;" horiz-adv-x="301" d="M0 1100q0 12 4 16q26 26 55 2q11 -11 17 -20q79 -113 82 -242q0 -10 -6 -25q0 -3 -13 -10q-11 -4 -14 6q-3 14 -10 38t-9 32q-31 119 -100 186q-6 6 -6 17zM124 1072.5q0 13.5 7 21.5q34 34 62 2q31 -31 43 -47q35 -50 45 -115q3 -32 -17 -70q-12 -16 -31 -12q-7 0 -12 5 t-4 11q0 8 5.5 32t0.5 38q-16 70 -69 100q-21 14 -23 15q-7 6 -7 19.5z" />
<glyph unicode="&#x201e;" horiz-adv-x="403" d="M80 -51q-3 59 22 117q5 15 16 40.5t13 30.5q17 34 45 51q9 8 22.5 5t20.5 -15q4 -4 4 -16q-3 -11 -8 -15q-83 -96 -86 -229q0 -10 -2 -16q0 -11 -11 -17t-20 0q-7 4 -12 13q-1 8 -2 25t-2 26zM217 -57q-7 73 41 182q6 12 23.5 16t29.5 -6q6 -6 6 -14q4 -4 0 -8 q-46 -90 -55 -197q-2 -18 -10 -49q-4 -8 -12 -8q-3 0 -8 3t-5 5q-9 58 -10 76z" />
<glyph unicode="&#x2022;" horiz-adv-x="1705" />
<glyph unicode="&#x2026;" horiz-adv-x="761" d="M90 94.5q12 34.5 49 48.5h15q28 1 53.5 -20.5t25.5 -46.5q0 -49 -45 -68q-33 -17 -69 -2q-15 8 -21 19q-20 35 -8 69.5zM362 96q0 12 11 19q23 25 53.5 23.5t50.5 -27.5q1 -1 2 -5.5t2 -5.5q6 -22 -5.5 -49t-29.5 -31q-38 -11 -65 19q-25 22 -19 57zM593.5 67 q-0.5 20 8.5 27q2 0 5.5 3.5t6.5 2.5q18 2 49 20.5t50 20.5q22 0 35 -8q56 -38 20 -92q-4 -6 -9.5 -12t-11.5 -10.5t-8 -6.5q-4 -1 -8.5 -2.5t-6.5 -2.5t-3 -1q-16 7 -56 15.5t-59 19.5q-12 6 -12.5 26z" />
<glyph unicode="&#x202f;" horiz-adv-x="338" />
<glyph unicode="&#x205f;" horiz-adv-x="423" />
<glyph unicode="&#x25fc;" horiz-adv-x="727" d="M0 0v727h727v-727h-727z" />
</font>
</defs>
</svg>
