<?xml version="1.0" encoding="utf-8"?>
<!-- Generator: Adobe Illustrator 19.1.0, SVG Export Plug-In . SVG Version: 6.00 Build 0)  -->
<svg version="1.1" id="Capa_1" xmlns="http://www.w3.org/2000/svg" xmlns:xlink="http://www.w3.org/1999/xlink" x="0px" y="0px"
	 viewBox="0 0 487.7 200.3" style="enable-background:new 0 0 487.7 200.3;" xml:space="preserve">
<style type="text/css">
	.st0{clip-path:url(#SVGID_2_);}
	.st1{fill:#00A39C;}
	.st2{fill:#025F6A;}
	.st3{fill:#FFFFFF;stroke:#FFFFFF;stroke-width:0.5;stroke-miterlimit:10;}
</style>
<g>
	<g>
		<g>
			<defs>
				<polygon id="SVGID_1_" points="28.2,160 28.2,0 459.1,0 459.1,93 				"/>
			</defs>
			<clipPath id="SVGID_2_">
				<use xlink:href="#SVGID_1_"  style="overflow:visible;"/>
			</clipPath>
			<g class="st0">
				<path class="st1" d="M132.4,23.3c3.2,0,5.5,0.9,6.9,2.7c1.4,1.8,2,4.1,2,6.8v97.4c0,2.8-0.8,5-2.4,6.6c-1.6,1.6-3.8,2.4-6.5,2.4
					c-2.6,0-4.8-0.8-6.5-2.3c-1.7-1.5-2.6-3.8-2.6-6.8V62.3c-0.8,1.8-1.9,3.4-3.2,4.7c-1.3,1.4-2.9,2-4.6,2c-2.4,0-4.4-0.8-6-2.4
					c-1.6-1.6-2.4-3.6-2.4-6c0-1.7,0.4-3.2,1.3-4.6l14.5-25.4c1.2-2.1,2.5-3.8,4.2-5.2C128.5,24,130.3,23.3,132.4,23.3z"/>
				<path class="st1" d="M155.8,128.9c-1.2-1-1.9-2.1-2.4-3.1c-0.4-1-0.6-2.1-0.6-3.3c0-2.8,0.8-5,2.5-6.6c1.7-1.6,3.8-2.4,6.4-2.4
					c0.9,0,1.9,0.2,3,0.5c1,0.4,2.3,1.1,3.6,2.3c2.9,2.4,5.4,4,7.5,4.6c2.1,0.7,4.4,1,7.1,1c3.1,0,6-0.5,8.6-1.6
					c2.6-1.1,4.8-2.6,6.7-4.5c1.9-1.9,3.3-4.1,4.3-6.7c1-2.6,1.5-5.3,1.5-8.2c0-6.3-1.8-11.4-5.4-15.3c-3.6-3.9-8.8-5.9-15.6-5.9
					c-2.6,0-4.8-0.9-6.5-2.6c-1.7-1.7-2.6-3.8-2.6-6.2c0-0.8,0.2-1.8,0.5-2.8c0.4-1,0.9-2,1.7-2.9c0.8-0.9,1.8-1.6,2.9-2.2
					c1.2-0.6,2.5-0.9,3.9-0.9c3.2,0,5.9-1,7.9-3.1s3.1-4.7,3.1-7.9c0-3.1-1-5.7-2.9-7.6c-1.9-1.9-4.4-2.9-7.3-2.9
					c-1.8,0-3.4,0.3-4.8,0.9s-2.5,1.4-3.4,2.2c-1.5,1.5-2.6,2.3-3.5,2.5c-0.8,0.2-1.9,0.3-3.1,0.3c-2.5,0-4.6-1-6.4-2.9
					c-1.7-1.9-2.6-3.9-2.6-5.9c0-2,0.7-3.9,2.1-5.7c1.4-1.8,3.2-3.5,5.4-4.9c2.2-1.4,4.7-2.5,7.4-3.3c2.7-0.8,5.4-1.2,8-1.2
					c4.2,0,8.1,0.7,11.6,2.2c3.6,1.5,6.6,3.5,9.2,6c2.6,2.5,4.6,5.4,6,8.6c1.4,3.2,2.1,6.6,2.1,10.1c0,4.6-0.8,8.4-2.4,11.5
					c-1.6,3-3.7,5.6-6.4,7.7c3,1.3,5.7,3,8.1,5.1c2.4,2.1,4.3,4.6,6,7.5c1.6,2.8,2.9,5.9,3.7,9.3c0.8,3.4,1.3,6.8,1.3,10.4
					c0,5.4-1,10.5-3.1,15.2c-2,4.7-4.8,8.8-8.3,12.3c-3.5,3.5-7.6,6.3-12.4,8.2c-4.8,2-9.9,3-15.3,3c-6.2,0-11.4-1-15.7-3.1
					C163,134.5,159.2,131.9,155.8,128.9z"/>
				<path class="st1" d="M286.8,24.1c2.7,0,4.9,0.8,6.6,2.4c1.7,1.6,2.5,3.8,2.5,6.5c0,2.7-0.8,4.9-2.5,6.6
					c-1.7,1.7-3.9,2.5-6.6,2.5h-28l-2.5,22.5c3.1-1.9,7.7-2.8,13.8-2.8c5,0,9.6,1,13.8,3.1c4.2,2,7.8,4.8,10.8,8.4
					c3,3.6,5.3,7.7,7,12.4c1.7,4.7,2.5,9.8,2.5,15.2c0,5.4-1,10.5-3.1,15.2c-2,4.7-4.8,8.8-8.4,12.3c-3.6,3.5-7.7,6.3-12.5,8.3
					c-4.8,2-9.8,3.1-15.2,3.1c-6.6,0-12.4-1.2-17.4-3.7c-5-2.5-9.7-6.1-14.2-10.9c-1.7-1.7-2.5-3.8-2.5-6.3c0-2.4,0.8-4.6,2.4-6.5
					c1.6-1.9,3.8-2.9,6.7-2.9c2,0,4,0.9,6.1,2.7c3.5,2.9,6.8,5.3,10,7.1c3.2,1.8,6.5,2.7,9.8,2.7c6.3,0,11.2-1.9,14.8-5.7
					c3.6-3.8,5.4-8.9,5.4-15.4c0-6.9-1.8-12.1-5.4-15.7c-3.6-3.6-8.5-5.3-14.5-5.3c-6.1,0-10.7,1.4-14,4.2c-2,1.8-4.1,2.7-6.4,2.7
					c-2.8,0-5.1-0.8-6.9-2.4c-1.8-1.6-2.5-4.2-2-7.8l5.3-45.1c0.3-2.4,1.2-4.2,2.5-5.5c1.4-1.3,3.5-1.9,6.4-1.9H286.8z"/>
			</g>
		</g>
	</g>
	<g>
		<g>
			<g>
				<path class="st2" d="M441.1,102.9c-1.8,0.2-3.6,0.4-5.4,0.7c-33.1,4.3-66.1,9.5-102.9,14.5c-25.8,3.4-55.1,8-80.8,11.9
					c60.9-8.7,124.9-18.5,183.6-25.7c-5.8,1.4-12.8,2.9-21.1,4.1c-19.8,2.8-39.4,5.6-58.8,8.4c0-0.2-0.1-0.7-0.1-0.9
					c-54.9,8.9-106.6,14.9-161.5,24.2c2-0.2,0.8,0.2,0.5,0.4c-0.1,0-0.3,0-0.4,0.1c0.1,0,0.3,0,0.4-0.1c-0.3,0.2-0.1,0.2,3.3-0.3
					c-3.4,0.5-3.7,0.5-3.3,0.3c54.1-8.3,104.8-15.7,158.9-23.4c-84,12.2-164.9,24.8-251,37.7c-3.7,0.6-11,1.7-14.7,2.2
					c-14.8,1.5-29.5,3.5-44.2,5.7c3.5-1.7-11.5-1.7,17.9-5.6c0-0.2-0.1-0.7-0.1-0.9c-29.5,3.3-41,1.8-11.8-3.5
					c32.9-5.8,77.1-11.6,117.4-18.1c29.3-4.6,58.7-9.3,88.1-13.2c40.5-5.4,84.5-12.2,125-17.4c14.7-2,40.3-6.5,47.7-6.9
					c5.3-0.5,5.6,0,4.9,0.6c-24.1,3.5-48.2,7.1-72,10.6c-29.2,4.1-58.4,8.2-87.7,12.2c28.6-3.7,57.9-7.8,87.7-12.2
					c23.8-3.4,47.5-6.7,71.3-10.1c-0.8,0.6-1.6,1.2,0,1.4c0,0,7.3-1.1,11-1.7c14.9-1.1,11.4,1,4.2,3.2
					C445.5,101.7,443.5,102.3,441.1,102.9z"/>
			</g>
		</g>
	</g>
	<g>
		<path class="st3" d="M2.9,192.2c0.2,1,0.4,1.9,0.9,2.6c0.4,0.8,1,1.4,1.6,1.9c0.6,0.5,1.4,0.8,2.2,1c0.8,0.2,1.6,0.3,2.5,0.1
			c1.3-0.2,2.4-0.6,3.2-1.4c0.9-0.8,1.5-1.7,2-2.9l2.3,0.3c-0.3,0.8-0.6,1.6-1.1,2.3c-0.5,0.7-1,1.3-1.7,1.8
			c-0.6,0.5-1.4,0.9-2.2,1.3c-0.8,0.3-1.6,0.5-2.5,0.7c-1.3,0.2-2.6,0.1-3.7-0.2c-1.1-0.3-2.1-0.8-3-1.6c-0.9-0.7-1.6-1.6-2.1-2.6
			c-0.6-1-0.9-2.2-1.1-3.5c-0.2-1.2-0.1-2.4,0.2-3.6c0.3-1.1,0.7-2.2,1.4-3.1c0.7-0.9,1.5-1.7,2.5-2.3c1-0.6,2.1-1,3.4-1.2
			c1.4-0.2,2.6-0.1,3.7,0.2c1.1,0.3,2.1,0.8,2.9,1.6c0.8,0.7,1.5,1.6,2,2.7c0.5,1.1,0.9,2.4,1,3.8L2.9,192.2z M13.8,186.7
			c-0.4-0.6-0.8-1.2-1.4-1.6c-0.5-0.4-1.2-0.8-1.9-0.9c-0.7-0.2-1.6-0.2-2.5-0.1c-0.8,0.1-1.6,0.3-2.2,0.7c-0.7,0.4-1.2,0.8-1.7,1.4
			c-0.5,0.6-0.8,1.2-1,1.9c-0.2,0.7-0.3,1.5-0.3,2.3l12-1.5C14.5,188,14.2,187.3,13.8,186.7z"/>
		<path class="st3" d="M28.6,198l-0.9,0.1l-10.3-16.9l2.8-0.4l7.3,12.6l0.1,0l3.9-14l2.7-0.4L28.6,198z"/>
		<path class="st3" d="M39.1,187.5c0.2,1,0.4,1.9,0.9,2.6c0.4,0.8,1,1.4,1.6,1.9c0.6,0.5,1.4,0.8,2.2,1c0.8,0.2,1.6,0.3,2.5,0.1
			c1.3-0.2,2.4-0.6,3.2-1.4c0.9-0.8,1.5-1.7,2-2.9l2.3,0.3c-0.3,0.8-0.6,1.6-1.1,2.3c-0.5,0.7-1,1.3-1.7,1.8
			c-0.6,0.5-1.4,0.9-2.2,1.3c-0.8,0.3-1.6,0.5-2.5,0.7c-1.3,0.2-2.6,0.1-3.7-0.2c-1.1-0.3-2.1-0.8-3-1.6c-0.9-0.7-1.6-1.6-2.1-2.6
			c-0.6-1-0.9-2.2-1.1-3.5c-0.2-1.2-0.1-2.4,0.2-3.6c0.3-1.1,0.7-2.2,1.4-3.1c0.7-0.9,1.5-1.7,2.5-2.3c1-0.6,2.1-1,3.4-1.2
			c1.4-0.2,2.6-0.1,3.7,0.2c1.1,0.3,2.1,0.8,2.9,1.6c0.8,0.7,1.5,1.6,2,2.7c0.5,1.1,0.9,2.4,1,3.8L39.1,187.5z M50,182
			c-0.4-0.6-0.8-1.2-1.4-1.6c-0.5-0.4-1.2-0.8-1.9-0.9c-0.7-0.2-1.6-0.2-2.5-0.1c-0.8,0.1-1.6,0.3-2.2,0.7s-1.2,0.8-1.7,1.4
			c-0.5,0.6-0.8,1.2-1,1.9c-0.2,0.7-0.3,1.5-0.3,2.3l12-1.5C50.7,183.4,50.4,182.7,50,182z"/>
		<path class="st3" d="M69.3,191.9L68,181.4c-0.1-0.7-0.2-1.4-0.4-2c-0.2-0.6-0.5-1.1-0.8-1.5c-0.3-0.4-0.8-0.7-1.3-0.9
			c-0.5-0.2-1.2-0.2-1.9-0.1c-0.7,0.1-1.4,0.3-1.9,0.7c-0.5,0.4-1,0.9-1.3,1.5c-0.3,0.6-0.5,1.3-0.6,2.1c-0.1,0.8-0.1,1.6,0,2.5
			l1.2,9.3l-2.6,0.3L56,176.2l2.6-0.3l0.3,2.5l0.1,0c0.4-1,1-1.8,1.9-2.4c0.8-0.6,1.9-1,3.1-1.2c1.8-0.2,3.3,0.1,4.4,1.1
			c1.1,1,1.8,2.5,2.1,4.7l1.4,11.1L69.3,191.9z"/>
		<path class="st3" d="M78.3,175.7l1.9,14.9l-2.6,0.3L75.6,176l-1.9,0.2l-0.3-2.3l1.9-0.2l-0.8-5.9l2.6-0.3l0.8,5.9l3.1-0.4l0.3,2.3
			L78.3,175.7z"/>
		<path class="st3" d="M101.4,179.1c0.2,1.3,0.1,2.5-0.2,3.6c-0.3,1.2-0.8,2.2-1.5,3.1c-0.7,0.9-1.6,1.7-2.6,2.3
			c-1.1,0.6-2.3,1-3.6,1.2c-1.4,0.2-2.6,0.1-3.8-0.2c-1.2-0.3-2.2-0.8-3.1-1.5c-0.9-0.7-1.6-1.6-2.2-2.6c-0.6-1-0.9-2.2-1.1-3.5
			c-0.2-1.3-0.1-2.5,0.2-3.6s0.8-2.2,1.5-3.1c0.7-0.9,1.6-1.7,2.6-2.3c1.1-0.6,2.3-1,3.6-1.2c1.4-0.2,2.6-0.1,3.8,0.2
			c1.2,0.3,2.2,0.8,3.1,1.6s1.6,1.6,2.2,2.6C100.8,176.7,101.2,177.8,101.4,179.1z M98.9,179.4c-0.1-0.9-0.4-1.7-0.8-2.5
			c-0.4-0.8-0.9-1.5-1.6-2c-0.6-0.6-1.4-1-2.2-1.2c-0.9-0.3-1.8-0.3-2.8-0.2c-1,0.1-1.9,0.4-2.7,0.9s-1.4,1.1-1.9,1.8
			c-0.5,0.7-0.8,1.5-1.1,2.3s-0.3,1.8-0.1,2.7c0.1,0.9,0.4,1.8,0.8,2.5c0.4,0.8,0.9,1.5,1.6,2c0.6,0.6,1.4,1,2.2,1.2
			c0.9,0.3,1.8,0.3,2.8,0.2c1-0.1,2-0.4,2.7-0.9c0.8-0.5,1.4-1.1,1.9-1.8s0.8-1.5,1-2.3S99,180.3,98.9,179.4z"/>
		<path class="st3" d="M115.9,180.7c0.1,0.8,0,1.6-0.2,2.3c-0.2,0.7-0.6,1.3-1,1.9c-0.5,0.6-1,1-1.7,1.4c-0.7,0.4-1.4,0.6-2.3,0.7
			c-0.7,0.1-1.4,0.1-2,0c-0.7-0.1-1.3-0.3-1.8-0.6s-1.1-0.6-1.6-1.1c-0.5-0.4-0.9-0.9-1.3-1.5l1.4-1.5c0.3,0.4,0.6,0.8,1,1.1
			c0.4,0.3,0.8,0.6,1.2,0.9c0.4,0.2,0.9,0.4,1.4,0.5c0.5,0.1,1,0.1,1.5,0.1c0.5-0.1,1-0.2,1.4-0.4c0.4-0.2,0.7-0.5,1-0.8
			c0.3-0.3,0.4-0.7,0.5-1.1c0.1-0.4,0.1-0.8,0.1-1.2c-0.1-0.5-0.2-0.9-0.5-1.2c-0.3-0.3-0.6-0.6-1.1-0.8c-0.4-0.2-0.9-0.4-1.4-0.5
			c-0.5-0.1-1.1-0.3-1.6-0.4c-0.5-0.1-1.1-0.3-1.6-0.5c-0.5-0.2-1-0.4-1.4-0.7c-0.4-0.3-0.8-0.7-1.1-1.1c-0.3-0.4-0.5-1-0.6-1.6
			c-0.1-0.7,0-1.4,0.1-2s0.5-1.2,0.9-1.6c0.4-0.5,0.9-0.9,1.6-1.2c0.6-0.3,1.3-0.5,2.1-0.6c1.1-0.1,2.1-0.1,2.9,0.3
			c0.8,0.3,1.6,0.8,2.2,1.5l-1.2,1.7c-0.5-0.5-1-0.9-1.6-1.1c-0.6-0.3-1.3-0.3-2-0.3c-0.4,0.1-0.8,0.2-1.1,0.4
			c-0.3,0.2-0.6,0.4-0.8,0.7c-0.2,0.3-0.4,0.6-0.5,0.9c-0.1,0.3-0.1,0.7-0.1,1c0.1,0.4,0.2,0.8,0.5,1c0.3,0.3,0.6,0.5,1,0.7
			c0.4,0.2,0.9,0.3,1.4,0.5c0.5,0.1,1.1,0.3,1.6,0.4c0.5,0.1,1.1,0.3,1.6,0.5c0.5,0.2,1,0.5,1.5,0.8s0.8,0.7,1.1,1.2
			C115.6,179.5,115.8,180.1,115.9,180.7z"/>
		<path class="st3" d="M142.8,182.5l-0.4-3l-0.1,0c-0.2,0.6-0.6,1.1-1,1.6c-0.4,0.5-0.8,0.9-1.4,1.3s-1.1,0.7-1.7,0.9
			c-0.6,0.2-1.2,0.4-1.9,0.5c-1.3,0.2-2.5,0.1-3.6-0.2s-2.1-0.9-2.9-1.6c-0.8-0.7-1.5-1.6-2.1-2.7c-0.5-1.1-0.9-2.2-1.1-3.5
			c-0.2-1.2-0.1-2.4,0.1-3.6c0.2-1.1,0.7-2.2,1.3-3.1c0.6-0.9,1.4-1.7,2.4-2.3s2.1-1,3.4-1.2c0.6-0.1,1.3-0.1,1.9,0
			c0.6,0.1,1.2,0.2,1.8,0.4c0.6,0.2,1.1,0.5,1.6,0.8s1,0.7,1.4,1.2l0.1,0l-2-15.1l2.6-0.3l3.8,29.5L142.8,182.5z M141.8,173.6
			c-0.1-0.9-0.4-1.7-0.8-2.5c-0.4-0.8-0.9-1.4-1.5-1.9c-0.6-0.5-1.3-0.9-2.2-1.2c-0.8-0.2-1.7-0.3-2.7-0.2c-0.9,0.1-1.8,0.4-2.5,0.8
			c-0.7,0.4-1.3,1-1.8,1.6c-0.5,0.7-0.8,1.4-0.9,2.3c-0.2,0.9-0.2,1.8-0.1,2.7c0.1,0.9,0.4,1.7,0.8,2.5c0.4,0.8,0.9,1.5,1.5,2
			c0.6,0.6,1.3,1,2.2,1.3c0.8,0.3,1.7,0.4,2.6,0.2c1-0.1,1.9-0.4,2.6-0.9c0.7-0.5,1.3-1.1,1.7-1.8c0.4-0.7,0.7-1.5,0.9-2.4
			C141.9,175.5,141.9,174.6,141.8,173.6z"/>
		<path class="st3" d="M150.4,173.1c0.2,1,0.4,1.9,0.9,2.6c0.4,0.8,1,1.4,1.6,1.9c0.6,0.5,1.4,0.8,2.2,1c0.8,0.2,1.6,0.3,2.5,0.1
			c1.3-0.2,2.4-0.6,3.2-1.4c0.9-0.8,1.5-1.7,2-2.9l2.3,0.3c-0.3,0.8-0.6,1.6-1.1,2.3c-0.5,0.7-1,1.3-1.7,1.8
			c-0.6,0.5-1.4,0.9-2.2,1.3c-0.8,0.3-1.6,0.5-2.5,0.7c-1.3,0.2-2.6,0.1-3.7-0.2c-1.1-0.3-2.1-0.8-3-1.6c-0.9-0.7-1.6-1.6-2.1-2.6
			c-0.6-1-0.9-2.2-1.1-3.5c-0.2-1.2-0.1-2.4,0.2-3.6c0.3-1.1,0.7-2.2,1.4-3.1c0.7-0.9,1.5-1.7,2.5-2.3c1-0.6,2.1-1,3.4-1.2
			c1.4-0.2,2.6-0.1,3.7,0.2c1.1,0.3,2.1,0.8,2.9,1.6c0.8,0.7,1.5,1.6,2,2.7c0.5,1.1,0.9,2.4,1,3.8L150.4,173.1z M161.2,167.7
			c-0.4-0.6-0.8-1.2-1.4-1.6c-0.5-0.4-1.2-0.8-1.9-0.9c-0.7-0.2-1.6-0.2-2.5-0.1c-0.8,0.1-1.6,0.3-2.2,0.7c-0.7,0.4-1.2,0.8-1.7,1.4
			s-0.8,1.2-1,1.9c-0.2,0.7-0.3,1.5-0.3,2.3l12-1.5C161.9,169,161.6,168.3,161.2,167.7z"/>
		<path class="st3" d="M192.2,176.1l-0.4-3l-0.1,0c-0.2,0.6-0.5,1.1-0.9,1.6s-0.9,0.9-1.4,1.3s-1.1,0.7-1.7,0.9
			c-0.6,0.2-1.2,0.4-1.9,0.5c-1.3,0.2-2.4,0.1-3.5-0.2c-1.1-0.3-2.1-0.8-2.9-1.6s-1.6-1.6-2.1-2.7c-0.6-1.1-0.9-2.2-1.1-3.5
			c-0.2-1.2-0.1-2.4,0.2-3.6c0.3-1.1,0.7-2.2,1.4-3.1c0.6-0.9,1.4-1.6,2.4-2.2c1-0.6,2.1-1,3.4-1.1c0.6-0.1,1.3-0.1,1.9,0
			c0.6,0.1,1.2,0.2,1.8,0.4s1.1,0.5,1.6,0.8c0.5,0.3,1,0.8,1.3,1.2l0.1,0l-0.4-2.9l2.6-0.3l2.2,17.2L192.2,176.1z M191.2,167.3
			c-0.1-0.9-0.4-1.7-0.8-2.5c-0.4-0.8-0.9-1.4-1.5-1.9c-0.6-0.5-1.3-0.9-2.2-1.2c-0.8-0.2-1.7-0.3-2.6-0.2c-1,0.1-1.8,0.4-2.5,0.9
			c-0.7,0.5-1.3,1-1.8,1.7c-0.5,0.7-0.8,1.4-0.9,2.3c-0.2,0.9-0.2,1.8-0.1,2.7c0.1,0.9,0.4,1.8,0.8,2.5c0.4,0.8,0.9,1.5,1.5,2
			c0.6,0.6,1.4,1,2.2,1.3s1.7,0.4,2.7,0.2c1-0.1,1.8-0.4,2.5-0.9c0.7-0.5,1.3-1.1,1.7-1.8s0.7-1.5,0.9-2.4S191.3,168.2,191.2,167.3z
			"/>
		<path class="st3" d="M210.2,173.7c-0.9,0.4-1.9,0.7-3,0.9c-1.3,0.2-2.5,0.1-3.6-0.2c-1.2-0.3-2.2-0.8-3.1-1.5
			c-0.9-0.7-1.7-1.6-2.3-2.6c-0.6-1.1-1-2.3-1.2-3.6c-0.2-1.3-0.1-2.5,0.2-3.7c0.3-1.2,0.8-2.2,1.6-3.1c0.7-0.9,1.6-1.6,2.7-2.2
			c1.1-0.6,2.2-1,3.5-1.1c1.1-0.1,2.1-0.1,3,0c0.9,0.2,1.8,0.5,2.7,1.1l0.3,2.7c-0.3-0.3-0.7-0.5-1.2-0.8c-0.4-0.2-0.9-0.4-1.4-0.6
			c-0.5-0.1-1-0.2-1.6-0.3c-0.5,0-1.1,0-1.7,0c-0.9,0.1-1.8,0.4-2.6,0.9c-0.8,0.4-1.4,1-1.9,1.7c-0.5,0.7-0.9,1.4-1.2,2.3
			c-0.2,0.9-0.3,1.8-0.2,2.8c0.1,1,0.4,1.8,0.9,2.6c0.5,0.8,1,1.5,1.7,2c0.7,0.5,1.5,0.9,2.3,1.2s1.8,0.3,2.8,0.2
			c1.2-0.2,2.2-0.5,3.1-1.1c0.9-0.5,1.6-1.2,2.2-2l0.3,2.7C211.9,172.7,211.1,173.3,210.2,173.7z"/>
		<path class="st3" d="M218.4,157.6l1.9,14.9l-2.6,0.3l-1.9-14.9l-1.9,0.3l-0.3-2.3l1.9-0.3l-0.8-5.9l2.6-0.3l0.8,5.9l3.1-0.4
			l0.3,2.3L218.4,157.6z"/>
		<path class="st3" d="M226.7,148.3c0,0.2,0,0.4-0.1,0.6c-0.1,0.2-0.2,0.4-0.3,0.6c-0.1,0.2-0.3,0.3-0.5,0.4
			c-0.2,0.1-0.4,0.2-0.6,0.2c-0.2,0-0.5,0-0.7,0c-0.2-0.1-0.4-0.2-0.6-0.3c-0.2-0.1-0.3-0.3-0.4-0.5c-0.1-0.2-0.2-0.4-0.2-0.6
			c-0.1-0.5,0.1-0.9,0.3-1.2c0.3-0.4,0.7-0.6,1.1-0.6c0.2,0,0.4,0,0.7,0c0.2,0.1,0.4,0.1,0.6,0.3c0.2,0.1,0.3,0.3,0.4,0.5
			C226.6,147.8,226.7,148,226.7,148.3z M226.7,171.6l-2.2-17.2l2.6-0.3l2.2,17.2L226.7,171.6z"/>
		<path class="st3" d="M241,170.6l-0.9,0.1l-10.3-16.9l2.8-0.4L240,166l0.1,0l3.9-14l2.7-0.4L241,170.6z"/>
		<path class="st3" d="M264.5,166.8l-0.4-3l-0.1,0c-0.2,0.6-0.5,1.1-0.9,1.6c-0.4,0.5-0.9,0.9-1.4,1.3c-0.5,0.4-1.1,0.7-1.7,0.9
			c-0.6,0.2-1.2,0.4-1.9,0.5c-1.3,0.2-2.4,0.1-3.5-0.2c-1.1-0.3-2.1-0.8-2.9-1.6c-0.8-0.7-1.6-1.6-2.1-2.7c-0.6-1.1-0.9-2.2-1.1-3.5
			c-0.2-1.2-0.1-2.4,0.2-3.6c0.3-1.1,0.7-2.2,1.4-3.1c0.6-0.9,1.4-1.6,2.4-2.2c1-0.6,2.1-1,3.4-1.1c0.6-0.1,1.3-0.1,1.9,0
			s1.2,0.2,1.8,0.4c0.6,0.2,1.1,0.5,1.6,0.8c0.5,0.3,1,0.8,1.3,1.2l0.1,0l-0.4-2.9l2.6-0.3l2.2,17.2L264.5,166.8z M263.5,157.9
			c-0.1-0.9-0.4-1.7-0.8-2.5c-0.4-0.8-0.9-1.4-1.5-1.9c-0.6-0.5-1.3-0.9-2.2-1.2c-0.8-0.2-1.7-0.3-2.6-0.2c-1,0.1-1.8,0.4-2.5,0.9
			c-0.7,0.5-1.3,1-1.8,1.7c-0.5,0.7-0.8,1.4-0.9,2.3c-0.2,0.9-0.2,1.8-0.1,2.7c0.1,0.9,0.4,1.8,0.8,2.5c0.4,0.8,0.9,1.5,1.5,2
			c0.6,0.6,1.4,1,2.2,1.3c0.8,0.3,1.7,0.4,2.7,0.2c1-0.1,1.8-0.4,2.5-0.9s1.3-1.1,1.7-1.8c0.4-0.7,0.7-1.5,0.9-2.4
			C263.6,159.8,263.6,158.9,263.5,157.9z"/>
		<path class="st3" d="M282.5,164.4c-0.9,0.4-1.9,0.7-3,0.9c-1.3,0.2-2.5,0.1-3.6-0.2s-2.2-0.8-3.1-1.5c-0.9-0.7-1.7-1.6-2.3-2.6
			c-0.6-1.1-1-2.3-1.2-3.6c-0.2-1.3-0.1-2.5,0.2-3.7c0.3-1.2,0.8-2.2,1.6-3.1c0.7-0.9,1.6-1.6,2.7-2.2c1.1-0.6,2.2-1,3.5-1.1
			c1.1-0.1,2.1-0.1,3,0c0.9,0.2,1.8,0.5,2.7,1.1l0.3,2.7c-0.3-0.3-0.7-0.5-1.2-0.8c-0.4-0.2-0.9-0.4-1.4-0.6c-0.5-0.1-1-0.2-1.6-0.3
			c-0.5,0-1.1,0-1.7,0c-0.9,0.1-1.8,0.4-2.6,0.9c-0.8,0.4-1.4,1-1.9,1.7c-0.5,0.7-0.9,1.4-1.2,2.3c-0.2,0.9-0.3,1.8-0.2,2.8
			c0.1,1,0.4,1.8,0.9,2.6c0.5,0.8,1,1.5,1.7,2c0.7,0.5,1.5,0.9,2.3,1.2s1.8,0.3,2.8,0.2c1.2-0.2,2.2-0.5,3.1-1.1
			c0.9-0.5,1.6-1.2,2.2-2l0.3,2.7C284.2,163.4,283.4,164,282.5,164.4z"/>
		<path class="st3" d="M289.4,140.2c0,0.2,0,0.4-0.1,0.6c-0.1,0.2-0.2,0.4-0.3,0.6c-0.1,0.2-0.3,0.3-0.5,0.4
			c-0.2,0.1-0.4,0.2-0.6,0.2c-0.2,0-0.5,0-0.7,0c-0.2-0.1-0.4-0.2-0.6-0.3c-0.2-0.1-0.3-0.3-0.4-0.5c-0.1-0.2-0.2-0.4-0.2-0.6
			c-0.1-0.5,0.1-0.9,0.3-1.2c0.3-0.4,0.7-0.6,1.1-0.6c0.2,0,0.4,0,0.7,0c0.2,0.1,0.4,0.1,0.6,0.3s0.3,0.3,0.4,0.5
			C289.3,139.7,289.3,139.9,289.4,140.2z M289.3,163.6l-2.2-17.2l2.6-0.3l2.2,17.2L289.3,163.6z"/>
		<path class="st3" d="M312.8,151.8c0.2,1.3,0.1,2.5-0.2,3.6c-0.3,1.2-0.8,2.2-1.5,3.1c-0.7,0.9-1.6,1.7-2.6,2.3
			c-1.1,0.6-2.3,1-3.6,1.2c-1.4,0.2-2.6,0.1-3.8-0.2s-2.2-0.8-3.1-1.5c-0.9-0.7-1.6-1.6-2.2-2.6c-0.6-1-0.9-2.2-1.1-3.5
			c-0.2-1.3-0.1-2.5,0.2-3.6s0.8-2.2,1.5-3.1c0.7-0.9,1.6-1.7,2.6-2.3c1.1-0.6,2.3-1,3.6-1.2c1.4-0.2,2.6-0.1,3.8,0.2
			c1.2,0.3,2.2,0.8,3.1,1.6s1.6,1.6,2.2,2.6C312.3,149.4,312.6,150.5,312.8,151.8z M310.3,152.1c-0.1-0.9-0.4-1.7-0.8-2.5
			c-0.4-0.8-0.9-1.5-1.6-2c-0.6-0.6-1.4-1-2.2-1.2c-0.9-0.3-1.8-0.3-2.8-0.2c-1,0.1-1.9,0.4-2.7,0.9s-1.4,1.1-1.9,1.8
			c-0.5,0.7-0.8,1.5-1.1,2.3s-0.3,1.8-0.1,2.7c0.1,0.9,0.4,1.8,0.8,2.5c0.4,0.8,0.9,1.5,1.6,2c0.6,0.6,1.4,1,2.2,1.2
			c0.9,0.3,1.8,0.3,2.8,0.2c1-0.1,2-0.4,2.7-0.9c0.8-0.5,1.4-1.1,1.9-1.8s0.8-1.5,1-2.3S310.4,153,310.3,152.1z M303.2,141.3
			l-2.3,0.3l3.1-6.3l3-0.4L303.2,141.3z"/>
		<path class="st3" d="M328.4,158.5l-1.4-10.5c-0.1-0.7-0.2-1.4-0.4-2c-0.2-0.6-0.5-1.1-0.8-1.5c-0.3-0.4-0.8-0.7-1.3-0.9
			c-0.5-0.2-1.2-0.2-1.9-0.1c-0.7,0.1-1.4,0.3-1.9,0.7c-0.5,0.4-1,0.9-1.3,1.5c-0.3,0.6-0.5,1.3-0.6,2.1c-0.1,0.8-0.1,1.6,0,2.5
			l1.2,9.3l-2.6,0.3l-2.2-17.2l2.6-0.3l0.3,2.5l0.1,0c0.4-1,1-1.8,1.9-2.4c0.8-0.6,1.9-1,3.1-1.2c1.8-0.2,3.3,0.1,4.4,1.1
			c1.1,1,1.8,2.5,2.1,4.7l1.4,11.1L328.4,158.5z"/>
		<path class="st3" d="M358.3,154.6l-0.4-3l-0.1,0c-0.2,0.6-0.6,1.1-1,1.6c-0.4,0.5-0.8,0.9-1.4,1.3c-0.5,0.4-1.1,0.7-1.7,0.9
			c-0.6,0.2-1.2,0.4-1.9,0.5c-1.3,0.2-2.5,0.1-3.6-0.2c-1.1-0.3-2.1-0.9-2.9-1.6c-0.8-0.7-1.5-1.6-2.1-2.7c-0.6-1.1-0.9-2.2-1.1-3.5
			c-0.2-1.2-0.1-2.4,0.1-3.6c0.2-1.1,0.7-2.2,1.3-3.1s1.4-1.7,2.4-2.3c1-0.6,2.1-1,3.4-1.2c0.6-0.1,1.3-0.1,1.9,0
			c0.6,0.1,1.2,0.2,1.8,0.4c0.6,0.2,1.1,0.5,1.6,0.8c0.5,0.3,1,0.7,1.4,1.2l0.1,0l-2-15.1l2.6-0.3l3.8,29.5L358.3,154.6z
			 M357.3,145.8c-0.1-0.9-0.4-1.7-0.8-2.5c-0.4-0.8-0.9-1.4-1.5-1.9c-0.6-0.5-1.3-0.9-2.2-1.2c-0.8-0.2-1.7-0.3-2.7-0.2
			c-0.9,0.1-1.8,0.4-2.5,0.8c-0.7,0.4-1.3,1-1.8,1.6c-0.5,0.7-0.8,1.4-0.9,2.3c-0.2,0.9-0.2,1.8-0.1,2.7c0.1,0.9,0.4,1.7,0.8,2.5
			c0.4,0.8,0.9,1.5,1.5,2c0.6,0.6,1.3,1,2.2,1.3c0.8,0.3,1.7,0.4,2.6,0.2c1-0.1,1.9-0.4,2.6-0.9c0.7-0.5,1.3-1.1,1.7-1.8
			c0.4-0.7,0.7-1.5,0.9-2.4S357.5,146.7,357.3,145.8z"/>
		<path class="st3" d="M365.9,145.3c0.2,1,0.4,1.9,0.9,2.6c0.4,0.8,1,1.4,1.6,1.9c0.6,0.5,1.4,0.8,2.2,1c0.8,0.2,1.6,0.3,2.5,0.1
			c1.3-0.2,2.4-0.6,3.2-1.4c0.9-0.8,1.5-1.7,2-2.9l2.3,0.3c-0.3,0.8-0.6,1.6-1.1,2.3s-1,1.3-1.7,1.8c-0.6,0.5-1.4,0.9-2.2,1.3
			c-0.8,0.3-1.6,0.5-2.5,0.7c-1.3,0.2-2.6,0.1-3.7-0.2c-1.1-0.3-2.1-0.8-3-1.6c-0.9-0.7-1.6-1.6-2.1-2.6c-0.6-1-0.9-2.2-1.1-3.5
			c-0.2-1.2-0.1-2.4,0.2-3.6c0.3-1.1,0.7-2.2,1.4-3.1c0.7-0.9,1.5-1.7,2.5-2.3c1-0.6,2.1-1,3.4-1.2c1.4-0.2,2.6-0.1,3.7,0.2
			c1.1,0.3,2.1,0.8,2.9,1.6c0.8,0.7,1.5,1.6,2,2.7c0.5,1.1,0.9,2.4,1,3.8L365.9,145.3z M376.8,139.8c-0.4-0.6-0.8-1.2-1.4-1.6
			c-0.5-0.4-1.2-0.8-1.9-0.9c-0.7-0.2-1.6-0.2-2.5-0.1c-0.8,0.1-1.6,0.3-2.2,0.7c-0.7,0.4-1.2,0.8-1.7,1.4c-0.5,0.6-0.8,1.2-1,1.9
			c-0.2,0.7-0.3,1.5-0.3,2.3l12-1.5C377.4,141.2,377.1,140.5,376.8,139.8z"/>
		<path class="st3" d="M414.4,147.4l-1.4-10.8c-0.2-1.7-0.7-2.8-1.3-3.5s-1.6-0.9-2.9-0.7c-1.3,0.2-2.3,0.8-2.8,1.8
			c-0.5,1-0.7,2.4-0.4,4.2l1.3,10l-2.6,0.3l-1.3-10.2c-0.1-0.9-0.3-1.7-0.5-2.3c-0.2-0.6-0.5-1.2-0.8-1.6s-0.8-0.7-1.3-0.8
			c-0.5-0.1-1.1-0.2-1.8-0.1c-1.3,0.2-2.1,0.8-2.7,1.9c-0.5,1.1-0.7,2.7-0.4,4.8l1.2,9.3l-2.6,0.3l-2.2-17.2l2.6-0.3l0.3,2.2l0.1,0
			c0.3-0.9,0.9-1.6,1.6-2.2c0.7-0.5,1.6-0.9,2.6-1c1.1-0.1,2.1,0,3,0.4c1,0.4,1.8,1.1,2.4,2.1c0.4-1.1,0.9-2,1.7-2.6
			c0.8-0.7,1.8-1.1,3-1.2c1.9-0.2,3.3,0.1,4.3,1.1s1.7,2.5,1.9,4.5l1.5,11.3L414.4,147.4z"/>
		<path class="st3" d="M435.3,144.7l-0.4-3l-0.1,0c-0.2,0.6-0.5,1.1-0.9,1.6c-0.4,0.5-0.9,0.9-1.4,1.3c-0.5,0.4-1.1,0.7-1.7,0.9
			c-0.6,0.2-1.2,0.4-1.9,0.5c-1.3,0.2-2.4,0.1-3.5-0.2c-1.1-0.3-2.1-0.8-2.9-1.6c-0.8-0.7-1.6-1.6-2.1-2.7c-0.6-1.1-0.9-2.2-1.1-3.5
			c-0.2-1.2-0.1-2.4,0.2-3.6s0.7-2.2,1.4-3.1c0.6-0.9,1.4-1.6,2.4-2.2s2.1-1,3.4-1.1c0.6-0.1,1.3-0.1,1.9,0c0.6,0.1,1.2,0.2,1.8,0.4
			c0.6,0.2,1.1,0.5,1.6,0.8c0.5,0.3,1,0.8,1.3,1.2l0.1,0l-0.4-2.9l2.6-0.3l2.2,17.2L435.3,144.7z M434.3,135.9
			c-0.1-0.9-0.4-1.7-0.8-2.5c-0.4-0.8-0.9-1.4-1.5-1.9c-0.6-0.5-1.3-0.9-2.2-1.2s-1.7-0.3-2.6-0.2c-1,0.1-1.8,0.4-2.5,0.9
			c-0.7,0.5-1.3,1-1.8,1.7c-0.5,0.7-0.8,1.4-0.9,2.3c-0.2,0.9-0.2,1.8-0.1,2.7c0.1,0.9,0.4,1.8,0.8,2.5c0.4,0.8,0.9,1.5,1.5,2
			s1.4,1,2.2,1.3c0.8,0.3,1.7,0.4,2.7,0.2c1-0.1,1.8-0.4,2.5-0.9c0.7-0.5,1.3-1.1,1.7-1.8c0.4-0.7,0.7-1.5,0.9-2.4
			C434.4,137.7,434.4,136.8,434.3,135.9z"/>
		<path class="st3" d="M447.6,127.9c-0.3,0-0.7,0-1,0c-1.1,0.1-1.9,0.8-2.3,1.9c-0.5,1.1-0.5,2.8-0.3,5l1.1,8.7l-2.6,0.3l-2.2-17.2
			l2.6-0.3l0.3,2.4l0.1,0c0.3-1,0.7-1.7,1.4-2.3c0.6-0.5,1.4-0.9,2.4-1c0.3,0,0.6,0,0.9,0c0.3,0,0.6,0.1,0.9,0.2l-0.3,2.6
			C448.2,128,447.9,127.9,447.6,127.9z"/>
		<path class="st3" d="M464.7,140.9c-0.9,0.4-1.9,0.7-3,0.9c-1.3,0.2-2.5,0.1-3.6-0.2c-1.2-0.3-2.2-0.8-3.1-1.5
			c-0.9-0.7-1.7-1.6-2.3-2.6c-0.6-1.1-1-2.3-1.2-3.6c-0.2-1.3-0.1-2.5,0.2-3.7c0.3-1.2,0.8-2.2,1.6-3.1c0.7-0.9,1.6-1.6,2.7-2.2
			c1.1-0.6,2.2-1,3.5-1.1c1.1-0.1,2.1-0.1,3,0c0.9,0.2,1.8,0.5,2.7,1.1l0.3,2.7c-0.3-0.3-0.7-0.5-1.2-0.8c-0.4-0.2-0.9-0.4-1.4-0.6
			s-1-0.2-1.6-0.3c-0.5,0-1.1,0-1.7,0c-0.9,0.1-1.8,0.4-2.6,0.9c-0.8,0.4-1.4,1-1.9,1.7c-0.5,0.7-0.9,1.4-1.2,2.3
			c-0.2,0.9-0.3,1.8-0.2,2.8c0.1,1,0.4,1.8,0.9,2.6c0.5,0.8,1,1.5,1.7,2c0.7,0.5,1.5,0.9,2.3,1.2s1.8,0.3,2.8,0.2
			c1.2-0.2,2.2-0.5,3.1-1.1c0.9-0.5,1.6-1.2,2.2-2l0.3,2.7C466.4,139.8,465.6,140.4,464.7,140.9z"/>
		<path class="st3" d="M484.9,138.3l-0.4-3l-0.1,0c-0.2,0.6-0.5,1.1-0.9,1.6s-0.9,0.9-1.4,1.3c-0.5,0.4-1.1,0.7-1.7,0.9
			c-0.6,0.2-1.2,0.4-1.9,0.5c-1.3,0.2-2.4,0.1-3.5-0.2c-1.1-0.3-2.1-0.8-2.9-1.6c-0.8-0.7-1.6-1.6-2.1-2.7c-0.6-1.1-0.9-2.2-1.1-3.5
			c-0.2-1.2-0.1-2.4,0.2-3.6c0.3-1.1,0.7-2.2,1.4-3.1c0.6-0.9,1.4-1.6,2.4-2.2c1-0.6,2.1-1,3.4-1.1c0.6-0.1,1.3-0.1,1.9,0
			c0.6,0.1,1.2,0.2,1.8,0.4c0.6,0.2,1.1,0.5,1.6,0.8c0.5,0.3,1,0.8,1.3,1.2l0.1,0l-0.4-2.9l2.6-0.3l2.2,17.2L484.9,138.3z
			 M483.8,129.5c-0.1-0.9-0.4-1.7-0.8-2.5c-0.4-0.8-0.9-1.4-1.5-1.9c-0.6-0.5-1.3-0.9-2.2-1.2s-1.7-0.3-2.6-0.2
			c-1,0.1-1.8,0.4-2.5,0.9c-0.7,0.5-1.3,1-1.8,1.7c-0.5,0.7-0.8,1.4-0.9,2.3c-0.2,0.9-0.2,1.8-0.1,2.7c0.1,0.9,0.4,1.8,0.8,2.5
			c0.4,0.8,0.9,1.5,1.5,2c0.6,0.6,1.4,1,2.2,1.3c0.8,0.3,1.7,0.4,2.7,0.2c1-0.1,1.8-0.4,2.5-0.9c0.7-0.5,1.3-1.1,1.7-1.8
			c0.4-0.7,0.7-1.5,0.9-2.4C483.9,131.3,483.9,130.4,483.8,129.5z"/>
	</g>
</g>
</svg>
