<?xml version="1.0" encoding="utf-8"?>
<!-- Generator: Adobe Illustrator 19.1.0, SVG Export Plug-In . SVG Version: 6.00 Build 0)  -->
<svg version="1.1" id="Capa_1" xmlns="http://www.w3.org/2000/svg" xmlns:xlink="http://www.w3.org/1999/xlink" x="0px" y="0px"
	 viewBox="0 0 430.8 178.4" style="enable-background:new 0 0 430.8 178.4;" xml:space="preserve">
<style type="text/css">
	.st0{clip-path:url(#SVGID_2_);}
	.st1{fill:#00A39C;}
	.st2{fill:#025F6A;}
	.st3{fill:#FFFFFF;stroke:#FFFFFF;stroke-width:0.5;stroke-miterlimit:10;}
</style>
<g>
	<g>
		<g>
			<defs>
				<polygon id="SVGID_1_" points="0,160 0,0 430.8,0 430.8,93 				"/>
			</defs>
			<clipPath id="SVGID_2_">
				<use xlink:href="#SVGID_1_"  style="overflow:visible;"/>
			</clipPath>
			<g class="st0">
				<path class="st1" d="M6.9,117.7c-1.2-1-1.9-2.1-2.4-3.1c-0.4-1-0.6-2.1-0.6-3.3c0-2.8,0.8-5,2.5-6.6c1.7-1.6,3.8-2.4,6.4-2.4
					c0.9,0,1.9,0.2,3,0.5c1,0.4,2.3,1.1,3.6,2.3c2.9,2.4,5.4,4,7.5,4.6c2.1,0.7,4.4,1,7.1,1c3.1,0,6-0.5,8.6-1.6
					c2.6-1.1,4.8-2.6,6.7-4.5c1.9-1.9,3.3-4.1,4.3-6.7c1-2.6,1.5-5.3,1.5-8.2c0-6.3-1.8-11.4-5.4-15.3c-3.6-3.9-8.8-5.9-15.6-5.9
					c-2.6,0-4.8-0.9-6.5-2.6c-1.7-1.7-2.6-3.8-2.6-6.2c0-0.8,0.2-1.8,0.5-2.8c0.4-1,0.9-2,1.7-2.9c0.8-0.9,1.8-1.6,2.9-2.2
					c1.2-0.6,2.5-0.9,3.9-0.9c3.2,0,5.9-1,7.9-3.1s3.1-4.7,3.1-7.9c0-3.1-1-5.7-2.9-7.6c-1.9-1.9-4.4-2.9-7.3-2.9
					c-1.8,0-3.4,0.3-4.8,0.9s-2.5,1.4-3.4,2.2c-1.5,1.5-2.6,2.3-3.5,2.5c-0.8,0.2-1.9,0.3-3.1,0.3c-2.5,0-4.6-1-6.4-2.9
					c-1.7-1.9-2.6-3.9-2.6-5.9c0-2,0.7-3.9,2.1-5.7c1.4-1.8,3.2-3.5,5.4-4.9c2.2-1.4,4.7-2.5,7.4-3.3c2.7-0.8,5.4-1.2,8-1.2
					c4.2,0,8.1,0.7,11.6,2.2c3.6,1.5,6.6,3.5,9.2,6c2.6,2.5,4.6,5.4,6,8.6c1.4,3.2,2.1,6.6,2.1,10.1c0,4.6-0.8,8.4-2.4,11.5
					c-1.6,3-3.7,5.6-6.4,7.7c3,1.3,5.7,3,8.1,5.1c2.4,2.1,4.3,4.6,6,7.5c1.6,2.8,2.9,5.9,3.7,9.3c0.8,3.4,1.3,6.8,1.3,10.4
					c0,5.4-1,10.5-3.1,15.2c-2,4.7-4.8,8.8-8.3,12.3c-3.5,3.5-7.6,6.3-12.4,8.2c-4.8,2-9.9,3-15.3,3c-6.2,0-11.4-1-15.7-3.1
					C14.1,123.3,10.3,120.7,6.9,117.7z"/>
				<path class="st1" d="M79.8,70.1c0-8.3,1.6-16,4.7-23.3c3.1-7.3,7.4-13.6,12.8-19.1c5.4-5.4,11.7-9.7,19-12.9
					c7.3-3.1,15.1-4.7,23.3-4.7c8.3,0,16,1.6,23.3,4.7c7.3,3.1,13.6,7.4,19.1,12.9c5.4,5.4,9.7,11.8,12.9,19.1
					c3.1,7.3,4.7,15.1,4.7,23.3c0,8.4-1.6,16.2-4.7,23.4c-3.1,7.2-7.4,13.5-12.9,18.9c-5.4,5.4-11.8,9.6-19.1,12.7
					c-7.3,3.1-15.1,4.6-23.3,4.6c-8.3,0-16-1.5-23.3-4.6c-7.3-3.1-13.6-7.3-19-12.7c-5.4-5.4-9.7-11.7-12.8-18.9
					C81.4,86.3,79.8,78.5,79.8,70.1z M97.9,70.1c0,5.8,1.1,11.2,3.2,16.2c2.1,5,5.1,9.4,8.9,13.2c3.8,3.8,8.2,6.8,13.3,9
					c5.1,2.2,10.5,3.3,16.4,3.3c5.8,0,11.2-1.1,16.3-3.3c5.1-2.2,9.6-5.2,13.4-9c3.8-3.8,6.8-8.2,9-13.2c2.2-5,3.3-10.4,3.3-16.2
					c0-5.8-1.1-11.2-3.3-16.3c-2.2-5.1-5.2-9.5-9-13.4c-3.8-3.8-8.3-6.8-13.4-9c-5.1-2.2-10.6-3.3-16.3-3.3
					c-5.9,0-11.3,1.1-16.4,3.3c-5.1,2.2-9.5,5.2-13.3,9c-3.8,3.8-6.7,8.3-8.9,13.4C98.9,58.9,97.9,64.4,97.9,70.1z"/>
				<path class="st1" d="M243.9,124.1c-0.8,1.4-1.9,2.4-3.1,3c-1.3,0.6-2.5,0.9-3.8,0.9c-2.7,0-5-0.9-6.8-2.7
					c-1.8-1.8-2.7-3.9-2.7-6.4c0-1.6,0.6-3.2,1.7-4.9l17.7-26.5c-5.6,0-10.7-0.8-15.6-2.5c-4.8-1.7-9-4.1-12.6-7.4
					c-3.6-3.2-6.4-7.1-8.5-11.7c-2-4.6-3.1-9.8-3.1-15.6c0-5.4,1-10.5,3.1-15.2c2-4.7,4.8-8.8,8.4-12.3c3.6-3.5,7.7-6.3,12.5-8.2
					c4.8-2,9.8-3,15.2-3c5.4,0,10.5,1,15.3,3c4.8,2,8.9,4.7,12.4,8.2c3.5,3.5,6.3,7.6,8.3,12.3s3.1,9.8,3.1,15.2
					c0,4.1-0.8,8.4-2.5,12.8c-1.7,4.5-3.8,8.6-6.3,12.3L243.9,124.1z M267.5,50.3c0-2.9-0.5-5.7-1.6-8.2c-1.1-2.6-2.6-4.8-4.5-6.7
					c-1.9-1.9-4.1-3.4-6.7-4.5c-2.6-1.1-5.3-1.6-8.2-1.6c-2.9,0-5.7,0.5-8.2,1.6c-2.5,1.1-4.7,2.6-6.6,4.5c-1.9,1.9-3.4,4.1-4.5,6.7
					c-1.1,2.6-1.6,5.3-1.6,8.2c0,2.9,0.5,5.7,1.6,8.2c1.1,2.6,2.6,4.8,4.5,6.7c1.9,1.9,4.1,3.4,6.6,4.5s5.2,1.6,8.2,1.6
					c2.9,0,5.7-0.5,8.2-1.6c2.6-1.1,4.8-2.6,6.7-4.5c1.9-1.9,3.4-4.1,4.5-6.7C266.9,56,267.5,53.3,267.5,50.3z"/>
				<path class="st1" d="M317,12.2c3.2,0,5.5,0.9,6.9,2.7c1.4,1.8,2,4.1,2,6.8v97.4c0,2.8-0.8,5-2.4,6.6c-1.6,1.6-3.8,2.4-6.5,2.4
					c-2.6,0-4.8-0.8-6.5-2.3c-1.7-1.5-2.6-3.8-2.6-6.8V51.1c-0.8,1.8-1.9,3.4-3.2,4.7c-1.3,1.4-2.9,2-4.6,2c-2.4,0-4.4-0.8-6-2.4
					c-1.6-1.6-2.4-3.6-2.4-6c0-1.7,0.4-3.2,1.3-4.6l14.5-25.4c1.2-2.1,2.5-3.8,4.2-5.2C313,12.8,314.9,12.2,317,12.2z"/>
			</g>
		</g>
		<g>
			<g>
				<g>
					<path class="st2" d="M412.9,98.9c-1.8,0.2-3.6,0.4-5.4,0.7c-33.1,4.3-66.1,9.5-102.9,14.5c-25.8,3.4-55.1,8-80.8,11.9
						c60.9-8.7,124.9-18.5,183.6-25.7c-5.8,1.4-12.8,2.9-21.1,4.1c-19.8,2.8-39.4,5.6-58.8,8.4c0-0.2-0.1-0.7-0.1-0.9
						c-54.9,8.9-106.6,14.9-161.5,24.2c2-0.2,0.8,0.2,0.5,0.4c-0.1,0-0.3,0-0.4,0.1c0.1,0,0.3,0,0.4-0.1c-0.3,0.2-0.1,0.2,3.3-0.3
						c-3.4,0.5-3.7,0.5-3.3,0.3c54.1-8.3,104.8-15.7,158.9-23.4c-84,12.2-164.9,24.8-251,37.7c-3.7,0.6-11,1.7-14.7,2.2
						c-14.8,1.5-29.5,3.5-44.2,5.7c3.5-1.7-11.5-1.7,17.9-5.6c0-0.2-0.1-0.7-0.1-0.9c-29.5,3.3-41,1.8-11.8-3.5
						c32.9-5.8,77.1-11.6,117.4-18.1c29.3-4.6,58.7-9.3,88.1-13.2c40.5-5.4,84.5-12.2,125-17.4c14.7-2,40.3-6.5,47.7-6.9
						c5.3-0.5,5.6,0,4.9,0.6c-24.1,3.5-48.2,7.1-72,10.6c-29.2,4.1-58.4,8.2-87.7,12.2c28.6-3.7,57.9-7.8,87.7-12.2
						c23.8-3.4,47.5-6.7,71.3-10.1c-0.8,0.6-1.6,1.2,0,1.4c0,0,7.3-1.1,11-1.7c14.9-1.1,11.4,1,4.2,3.2
						C417.3,97.7,415.2,98.3,412.9,98.9z"/>
				</g>
			</g>
		</g>
	</g>
	<g>
		<path class="st3" d="M75.2,170.2c0.2,1,0.5,1.9,0.9,2.6c0.4,0.8,1,1.4,1.6,1.9c0.6,0.5,1.4,0.8,2.2,1s1.6,0.3,2.5,0.1
			c1.3-0.2,2.4-0.6,3.2-1.4c0.9-0.8,1.5-1.7,2-2.9L90,172c-0.3,0.8-0.6,1.6-1.1,2.3c-0.5,0.7-1,1.3-1.7,1.8
			c-0.6,0.5-1.4,0.9-2.2,1.3s-1.6,0.6-2.5,0.7c-1.3,0.2-2.6,0.1-3.7-0.2c-1.1-0.3-2.1-0.8-3-1.5c-0.9-0.7-1.6-1.6-2.1-2.6
			s-0.9-2.2-1.1-3.5c-0.2-1.2-0.1-2.4,0.2-3.6c0.3-1.1,0.7-2.2,1.4-3.1c0.6-0.9,1.5-1.7,2.5-2.3c1-0.6,2.1-1,3.4-1.2
			c1.4-0.2,2.6-0.1,3.7,0.2c1.1,0.3,2.1,0.8,2.9,1.6c0.8,0.7,1.5,1.6,2.1,2.7c0.5,1.1,0.9,2.4,1.1,3.8L75.2,170.2z M86.1,164.7
			c-0.4-0.6-0.8-1.2-1.4-1.6c-0.5-0.4-1.2-0.7-1.9-0.9c-0.7-0.2-1.6-0.2-2.5-0.1c-0.8,0.1-1.6,0.4-2.2,0.7c-0.7,0.4-1.2,0.8-1.7,1.4
			c-0.5,0.6-0.8,1.2-1,1.9c-0.2,0.7-0.3,1.5-0.3,2.3l12-1.6C86.8,166.1,86.5,165.4,86.1,164.7z"/>
		<path class="st3" d="M100.9,176l-0.9,0.1l-10.3-16.9l2.8-0.4l7.3,12.6l0.1,0l3.8-14l2.7-0.4L100.9,176z"/>
		<path class="st3" d="M111.4,165.5c0.2,1,0.5,1.9,0.9,2.6c0.4,0.8,1,1.4,1.6,1.9c0.6,0.5,1.4,0.8,2.2,1c0.8,0.2,1.6,0.3,2.5,0.1
			c1.3-0.2,2.4-0.6,3.2-1.4c0.9-0.8,1.5-1.7,2-2.9l2.3,0.3c-0.3,0.8-0.6,1.6-1.1,2.3c-0.5,0.7-1,1.3-1.7,1.8
			c-0.6,0.5-1.4,0.9-2.2,1.3c-0.8,0.3-1.6,0.6-2.5,0.7c-1.3,0.2-2.6,0.1-3.7-0.2c-1.1-0.3-2.1-0.8-3-1.5c-0.9-0.7-1.6-1.6-2.1-2.6
			s-0.9-2.2-1.1-3.5c-0.2-1.2-0.1-2.4,0.2-3.6c0.3-1.1,0.7-2.2,1.4-3.1c0.6-0.9,1.5-1.7,2.5-2.3c1-0.6,2.1-1,3.4-1.2
			c1.4-0.2,2.6-0.1,3.7,0.2c1.1,0.3,2.1,0.8,2.9,1.6c0.8,0.7,1.5,1.6,2.1,2.7s0.9,2.4,1.1,3.8L111.4,165.5z M122.3,160
			c-0.4-0.6-0.8-1.2-1.4-1.6c-0.5-0.4-1.2-0.7-1.9-0.9c-0.7-0.2-1.6-0.2-2.5-0.1c-0.8,0.1-1.6,0.4-2.2,0.7c-0.7,0.4-1.2,0.8-1.7,1.4
			c-0.5,0.6-0.8,1.2-1,1.9c-0.2,0.7-0.3,1.5-0.3,2.3l12-1.6C122.9,161.3,122.6,160.6,122.3,160z"/>
		<path class="st3" d="M141.6,169.9l-1.4-10.5c-0.1-0.7-0.2-1.4-0.4-2c-0.2-0.6-0.5-1.1-0.8-1.5c-0.3-0.4-0.8-0.7-1.3-0.9
			c-0.5-0.2-1.2-0.2-1.9-0.1c-0.7,0.1-1.4,0.3-1.9,0.7c-0.5,0.4-1,0.9-1.3,1.5c-0.3,0.6-0.5,1.3-0.6,2.1c-0.1,0.8-0.1,1.6,0,2.5
			l1.2,9.3l-2.6,0.3l-2.3-17.2l2.6-0.3l0.3,2.5l0.1,0c0.4-1,1-1.8,1.9-2.4c0.8-0.6,1.9-1,3.1-1.2c1.8-0.2,3.3,0.1,4.4,1.1
			c1.1,1,1.8,2.5,2.1,4.7l1.5,11.1L141.6,169.9z"/>
		<path class="st3" d="M150.5,153.5l2,14.9l-2.6,0.3l-2-14.9l-1.9,0.3l-0.3-2.3l1.9-0.3l-0.8-5.9l2.6-0.3l0.8,5.9l3.1-0.4l0.3,2.3
			L150.5,153.5z"/>
		<path class="st3" d="M173.6,156.9c0.2,1.3,0.1,2.5-0.2,3.6c-0.3,1.2-0.8,2.2-1.5,3.1c-0.7,0.9-1.6,1.7-2.6,2.3
			c-1.1,0.6-2.3,1-3.6,1.2s-2.6,0.1-3.8-0.2c-1.2-0.3-2.2-0.8-3.1-1.5c-0.9-0.7-1.6-1.6-2.2-2.6c-0.6-1-0.9-2.2-1.1-3.5
			c-0.2-1.3-0.1-2.5,0.2-3.6c0.3-1.1,0.8-2.2,1.5-3.1c0.7-0.9,1.6-1.7,2.6-2.3c1.1-0.6,2.3-1,3.6-1.2c1.4-0.2,2.6-0.1,3.8,0.2
			c1.2,0.3,2.2,0.8,3.1,1.5c0.9,0.7,1.6,1.6,2.2,2.6S173.5,155.6,173.6,156.9z M171.1,157.2c-0.1-0.9-0.4-1.7-0.8-2.5
			c-0.4-0.8-0.9-1.4-1.6-2c-0.6-0.6-1.4-1-2.2-1.2c-0.9-0.3-1.8-0.3-2.8-0.2c-1,0.1-1.9,0.4-2.7,0.9c-0.8,0.5-1.4,1.1-1.9,1.8
			c-0.5,0.7-0.8,1.5-1,2.3s-0.2,1.8-0.1,2.7c0.1,0.9,0.4,1.8,0.8,2.5c0.4,0.8,0.9,1.5,1.6,2c0.6,0.6,1.4,1,2.2,1.2
			c0.9,0.3,1.8,0.3,2.8,0.2c1-0.1,2-0.4,2.7-0.9s1.4-1.1,1.9-1.8c0.5-0.7,0.8-1.5,1-2.3C171.2,159,171.2,158.1,171.1,157.2z"/>
		<path class="st3" d="M188.1,158.5c0.1,0.8,0.1,1.6-0.2,2.3c-0.2,0.7-0.6,1.3-1,1.9c-0.5,0.6-1,1-1.7,1.4c-0.7,0.4-1.4,0.6-2.3,0.7
			c-0.7,0.1-1.4,0.1-2,0c-0.7-0.1-1.3-0.3-1.8-0.6c-0.6-0.3-1.1-0.6-1.6-1.1c-0.5-0.4-0.9-0.9-1.3-1.5l1.4-1.5
			c0.3,0.4,0.6,0.8,1,1.1s0.8,0.6,1.2,0.9s0.9,0.4,1.4,0.5c0.5,0.1,1,0.1,1.5,0.1c0.5-0.1,1-0.2,1.4-0.4s0.7-0.5,1-0.8
			c0.3-0.3,0.4-0.7,0.5-1.1c0.1-0.4,0.1-0.8,0.1-1.2c-0.1-0.5-0.2-0.9-0.5-1.2c-0.3-0.3-0.6-0.6-1.1-0.8c-0.4-0.2-0.9-0.4-1.4-0.5
			c-0.5-0.1-1.1-0.3-1.6-0.4c-0.5-0.1-1.1-0.3-1.6-0.5c-0.5-0.2-1-0.4-1.4-0.7c-0.4-0.3-0.8-0.7-1.1-1.1c-0.3-0.4-0.5-1-0.6-1.6
			c-0.1-0.7,0-1.4,0.1-2c0.2-0.6,0.5-1.2,0.9-1.6c0.4-0.5,0.9-0.9,1.5-1.2c0.6-0.3,1.3-0.5,2.1-0.6c1.1-0.1,2.1-0.1,2.9,0.3
			c0.8,0.3,1.6,0.8,2.2,1.5l-1.2,1.7c-0.5-0.5-1-0.9-1.6-1.1c-0.6-0.3-1.3-0.3-2-0.2c-0.4,0.1-0.8,0.2-1.1,0.4
			c-0.3,0.2-0.6,0.4-0.8,0.7s-0.4,0.6-0.5,0.9s-0.1,0.7-0.1,1c0.1,0.4,0.2,0.8,0.5,1c0.3,0.3,0.6,0.5,1,0.7c0.4,0.2,0.9,0.3,1.4,0.5
			c0.5,0.1,1.1,0.3,1.6,0.4c0.5,0.1,1.1,0.3,1.6,0.5c0.5,0.2,1,0.5,1.5,0.8c0.4,0.3,0.8,0.7,1.1,1.2
			C187.8,157.3,188,157.9,188.1,158.5z"/>
		<path class="st3" d="M201.6,153.6c0.2,1,0.5,1.9,0.9,2.6c0.4,0.8,1,1.4,1.6,1.9c0.6,0.5,1.4,0.8,2.2,1c0.8,0.2,1.6,0.3,2.5,0.1
			c1.3-0.2,2.4-0.6,3.2-1.4c0.9-0.8,1.5-1.7,2-2.9l2.3,0.3c-0.3,0.8-0.6,1.6-1.1,2.3c-0.5,0.7-1,1.3-1.7,1.8s-1.4,0.9-2.2,1.3
			c-0.8,0.3-1.6,0.6-2.5,0.7c-1.3,0.2-2.6,0.1-3.7-0.2c-1.1-0.3-2.1-0.8-3-1.5c-0.9-0.7-1.6-1.6-2.1-2.6c-0.6-1-0.9-2.2-1.1-3.5
			c-0.2-1.2-0.1-2.4,0.2-3.6c0.3-1.1,0.7-2.2,1.4-3.1c0.6-0.9,1.5-1.7,2.5-2.3c1-0.6,2.1-1,3.4-1.2c1.4-0.2,2.6-0.1,3.7,0.2
			c1.1,0.3,2.1,0.8,2.9,1.6c0.8,0.7,1.5,1.6,2.1,2.7c0.5,1.1,0.9,2.4,1.1,3.8L201.6,153.6z M212.5,148.1c-0.4-0.6-0.8-1.2-1.4-1.6
			c-0.5-0.4-1.2-0.7-1.9-0.9c-0.7-0.2-1.6-0.2-2.5-0.1c-0.8,0.1-1.6,0.4-2.2,0.7c-0.7,0.4-1.2,0.8-1.7,1.4s-0.8,1.2-1,1.9
			c-0.2,0.7-0.3,1.5-0.3,2.3l12-1.6C213.2,149.5,212.9,148.7,212.5,148.1z"/>
		<path class="st3" d="M230.7,153c0.1,0.8,0.1,1.6-0.2,2.3c-0.2,0.7-0.6,1.3-1,1.9c-0.5,0.6-1,1-1.7,1.4c-0.7,0.4-1.4,0.6-2.3,0.7
			c-0.7,0.1-1.4,0.1-2,0c-0.7-0.1-1.3-0.3-1.8-0.6c-0.6-0.3-1.1-0.6-1.6-1.1c-0.5-0.4-0.9-0.9-1.3-1.5l1.4-1.5
			c0.3,0.4,0.6,0.8,1,1.1c0.4,0.3,0.8,0.6,1.2,0.9s0.9,0.4,1.4,0.5c0.5,0.1,1,0.1,1.5,0.1c0.5-0.1,1-0.2,1.4-0.4s0.7-0.5,1-0.8
			c0.3-0.3,0.4-0.7,0.5-1.1c0.1-0.4,0.1-0.8,0.1-1.2c-0.1-0.5-0.2-0.9-0.5-1.2c-0.3-0.3-0.6-0.6-1.1-0.8c-0.4-0.2-0.9-0.4-1.4-0.5
			c-0.5-0.1-1.1-0.3-1.6-0.4c-0.5-0.1-1.1-0.3-1.6-0.5c-0.5-0.2-1-0.4-1.5-0.7c-0.4-0.3-0.8-0.7-1.1-1.1c-0.3-0.4-0.5-1-0.6-1.6
			c-0.1-0.7,0-1.4,0.1-2c0.2-0.6,0.5-1.2,0.9-1.6c0.4-0.5,0.9-0.9,1.5-1.2s1.3-0.5,2.1-0.6c1.1-0.1,2.1-0.1,2.9,0.3
			c0.8,0.3,1.6,0.8,2.2,1.5l-1.2,1.7c-0.5-0.5-1-0.9-1.6-1.1c-0.6-0.3-1.3-0.3-2-0.2c-0.4,0.1-0.8,0.2-1.1,0.4
			c-0.3,0.2-0.6,0.4-0.8,0.7c-0.2,0.3-0.4,0.6-0.5,0.9s-0.1,0.7-0.1,1c0.1,0.4,0.2,0.8,0.5,1c0.3,0.3,0.6,0.5,1,0.7
			c0.4,0.2,0.9,0.3,1.4,0.5c0.5,0.1,1.1,0.3,1.6,0.4c0.5,0.1,1.1,0.3,1.6,0.5c0.5,0.2,1,0.5,1.5,0.8c0.4,0.3,0.8,0.7,1.1,1.2
			C230.4,151.7,230.6,152.3,230.7,153z"/>
		<path class="st3" d="M251.2,146.5c0.2,1.3,0.1,2.5-0.1,3.7c-0.3,1.2-0.7,2.2-1.3,3.1c-0.6,0.9-1.4,1.7-2.4,2.3
			c-1,0.6-2.1,1-3.3,1.2c-0.6,0.1-1.3,0.1-1.9,0c-0.6-0.1-1.3-0.2-1.8-0.4c-0.6-0.2-1.1-0.5-1.6-0.8s-0.9-0.7-1.3-1.2l-0.1,0
			l1.6,12.5l-2.6,0.3l-3.5-26.9l2.6-0.3l0.4,2.7l0.1,0c0.3-0.5,0.6-1,1-1.5c0.4-0.4,0.9-0.8,1.4-1.2s1.1-0.6,1.7-0.8
			s1.2-0.4,1.8-0.4c1.3-0.2,2.4-0.1,3.5,0.2s2,0.8,2.9,1.5c0.8,0.7,1.5,1.6,2.1,2.6C250.7,144.2,251.1,145.3,251.2,146.5z
			 M248.8,146.9c-0.1-0.9-0.4-1.7-0.8-2.5c-0.4-0.8-0.9-1.4-1.5-2c-0.6-0.5-1.3-0.9-2.2-1.2c-0.8-0.3-1.7-0.3-2.6-0.2
			c-0.9,0.1-1.8,0.4-2.5,0.9c-0.7,0.4-1.3,1-1.8,1.7c-0.5,0.7-0.8,1.4-1,2.2c-0.2,0.8-0.2,1.7-0.1,2.6c0.1,0.9,0.4,1.8,0.8,2.6
			c0.4,0.8,0.9,1.5,1.5,2.1c0.6,0.6,1.3,1,2.1,1.3c0.8,0.3,1.7,0.3,2.7,0.2c1-0.1,1.8-0.4,2.5-0.9c0.7-0.5,1.3-1.1,1.8-1.8
			c0.5-0.7,0.8-1.5,1-2.3C248.9,148.7,248.9,147.8,248.8,146.9z"/>
		<path class="st3" d="M256.2,146.4c0.2,1,0.5,1.9,0.9,2.6c0.4,0.8,1,1.4,1.6,1.9c0.6,0.5,1.4,0.8,2.2,1c0.8,0.2,1.6,0.3,2.5,0.1
			c1.3-0.2,2.4-0.6,3.2-1.4c0.9-0.8,1.5-1.7,2-2.9l2.3,0.3c-0.3,0.8-0.6,1.6-1.1,2.3c-0.5,0.7-1,1.3-1.7,1.8s-1.4,0.9-2.2,1.3
			c-0.8,0.3-1.6,0.6-2.5,0.7c-1.3,0.2-2.6,0.1-3.7-0.2c-1.1-0.3-2.1-0.8-3-1.5c-0.9-0.7-1.6-1.6-2.1-2.6c-0.6-1-0.9-2.2-1.1-3.5
			c-0.2-1.2-0.1-2.4,0.2-3.6s0.7-2.2,1.4-3.1c0.6-0.9,1.5-1.7,2.5-2.3c1-0.6,2.1-1,3.4-1.2c1.4-0.2,2.6-0.1,3.7,0.2
			c1.1,0.3,2.1,0.8,2.9,1.6c0.8,0.7,1.5,1.6,2.1,2.7s0.9,2.4,1.1,3.8L256.2,146.4z M267.1,140.9c-0.4-0.6-0.8-1.2-1.4-1.6
			c-0.5-0.4-1.2-0.7-1.9-0.9s-1.6-0.2-2.5-0.1c-0.8,0.1-1.6,0.4-2.2,0.7c-0.7,0.4-1.2,0.8-1.7,1.4c-0.5,0.6-0.8,1.2-1,1.9
			s-0.3,1.5-0.3,2.3l12-1.6C267.7,142.3,267.4,141.6,267.1,140.9z"/>
		<path class="st3" d="M286.2,150.8c-0.9,0.4-1.9,0.7-3,0.9c-1.3,0.2-2.5,0.1-3.6-0.2c-1.2-0.3-2.2-0.8-3.1-1.5s-1.7-1.5-2.3-2.6
			c-0.6-1.1-1-2.2-1.2-3.6c-0.2-1.3-0.1-2.5,0.2-3.7c0.3-1.2,0.8-2.2,1.6-3.1c0.7-0.9,1.6-1.7,2.7-2.2c1.1-0.6,2.2-1,3.5-1.1
			c1.1-0.1,2.1-0.1,3,0c0.9,0.2,1.9,0.5,2.7,1.1l0.4,2.7c-0.3-0.3-0.7-0.5-1.2-0.8c-0.4-0.2-0.9-0.4-1.4-0.6c-0.5-0.1-1-0.2-1.6-0.3
			c-0.5,0-1.1,0-1.7,0c-0.9,0.1-1.8,0.4-2.6,0.9c-0.8,0.4-1.4,1-1.9,1.7c-0.5,0.7-0.9,1.5-1.1,2.3s-0.3,1.8-0.2,2.8s0.4,1.8,0.9,2.6
			c0.5,0.8,1,1.5,1.7,2s1.5,0.9,2.3,1.2c0.9,0.2,1.8,0.3,2.8,0.2c1.2-0.2,2.2-0.5,3.1-1.1c0.8-0.5,1.6-1.2,2.2-2l0.4,2.7
			C287.9,149.8,287.1,150.4,286.2,150.8z"/>
		<path class="st3" d="M293,126.6c0,0.2,0,0.4-0.1,0.6c-0.1,0.2-0.2,0.4-0.3,0.6c-0.1,0.2-0.3,0.3-0.5,0.4c-0.2,0.1-0.4,0.2-0.6,0.2
			c-0.2,0-0.5,0-0.7,0c-0.2-0.1-0.4-0.2-0.6-0.3s-0.3-0.3-0.4-0.5c-0.1-0.2-0.2-0.4-0.2-0.6c-0.1-0.5,0.1-0.9,0.3-1.2
			c0.3-0.4,0.7-0.6,1.1-0.6c0.2,0,0.4,0,0.7,0c0.2,0.1,0.4,0.1,0.6,0.3c0.2,0.1,0.3,0.3,0.4,0.5C292.9,126.1,293,126.3,293,126.6z
			 M293,149.9l-2.3-17.2l2.6-0.3l2.3,17.2L293,149.9z"/>
		<path class="st3" d="M314.5,147.1l-0.4-3l-0.1,0c-0.2,0.6-0.5,1.1-0.9,1.6c-0.4,0.5-0.9,0.9-1.4,1.3s-1.1,0.7-1.7,0.9
			c-0.6,0.2-1.2,0.4-1.9,0.5c-1.3,0.2-2.4,0.1-3.5-0.2c-1.1-0.3-2.1-0.8-2.9-1.6c-0.9-0.7-1.6-1.6-2.1-2.7c-0.6-1.1-0.9-2.2-1.1-3.5
			c-0.2-1.2-0.1-2.4,0.2-3.6c0.3-1.1,0.7-2.2,1.3-3.1c0.6-0.9,1.4-1.6,2.4-2.3c1-0.6,2.1-1,3.4-1.2c0.6-0.1,1.3-0.1,1.9,0
			c0.6,0.1,1.2,0.2,1.8,0.4c0.6,0.2,1.1,0.5,1.6,0.8s1,0.8,1.3,1.2l0.1,0l-0.4-2.9l2.6-0.3l2.3,17.2L314.5,147.1z M313.4,138.3
			c-0.1-0.9-0.4-1.7-0.8-2.5c-0.4-0.8-0.9-1.4-1.5-1.9c-0.6-0.5-1.3-0.9-2.2-1.2c-0.8-0.2-1.7-0.3-2.6-0.2c-1,0.1-1.8,0.4-2.5,0.9
			c-0.7,0.5-1.3,1-1.8,1.7s-0.8,1.5-0.9,2.3c-0.2,0.9-0.2,1.8-0.1,2.7c0.1,0.9,0.4,1.8,0.8,2.5s0.9,1.5,1.6,2c0.6,0.6,1.4,1,2.2,1.3
			c0.8,0.3,1.7,0.4,2.7,0.2c1-0.1,1.8-0.4,2.5-0.9c0.7-0.5,1.3-1.1,1.7-1.8c0.4-0.7,0.7-1.5,0.9-2.4S313.5,139.2,313.4,138.3z"/>
		<path class="st3" d="M322,146.1l-3.9-29.5l2.6-0.3l3.9,29.5L322,146.1z"/>
		<path class="st3" d="M329.9,136.7c0.2,1,0.5,1.9,0.9,2.6c0.4,0.8,1,1.4,1.6,1.9c0.6,0.5,1.4,0.8,2.2,1c0.8,0.2,1.6,0.3,2.5,0.1
			c1.3-0.2,2.4-0.6,3.2-1.4s1.5-1.7,2-2.9l2.3,0.3c-0.3,0.8-0.6,1.6-1.1,2.3c-0.5,0.7-1,1.3-1.7,1.8c-0.6,0.5-1.4,0.9-2.2,1.3
			c-0.8,0.3-1.6,0.6-2.5,0.7c-1.3,0.2-2.6,0.1-3.7-0.2s-2.1-0.8-3-1.5c-0.9-0.7-1.6-1.6-2.1-2.6s-0.9-2.2-1.1-3.5
			c-0.2-1.2-0.1-2.4,0.2-3.6s0.7-2.2,1.4-3.1s1.5-1.7,2.5-2.3c1-0.6,2.1-1,3.4-1.2c1.4-0.2,2.6-0.1,3.7,0.2c1.1,0.3,2.1,0.8,2.9,1.6
			c0.8,0.7,1.5,1.6,2.1,2.7c0.5,1.1,0.9,2.4,1.1,3.8L329.9,136.7z M340.8,131.2c-0.4-0.6-0.8-1.2-1.4-1.6c-0.5-0.4-1.2-0.7-1.9-0.9
			c-0.7-0.2-1.6-0.2-2.5-0.1c-0.8,0.1-1.6,0.4-2.2,0.7c-0.7,0.4-1.2,0.8-1.7,1.4s-0.8,1.2-1,1.9c-0.2,0.7-0.3,1.5-0.3,2.3l12-1.6
			C341.5,132.6,341.2,131.9,340.8,131.2z"/>
		<path class="st3" d="M359,136.1c0.1,0.8,0.1,1.6-0.2,2.3c-0.2,0.7-0.6,1.3-1,1.9c-0.5,0.6-1,1-1.7,1.4c-0.7,0.4-1.4,0.6-2.3,0.7
			c-0.7,0.1-1.4,0.1-2,0c-0.7-0.1-1.3-0.3-1.8-0.6c-0.6-0.3-1.1-0.6-1.6-1.1c-0.5-0.4-0.9-0.9-1.3-1.5l1.4-1.5
			c0.3,0.4,0.6,0.8,1,1.1c0.4,0.3,0.8,0.6,1.2,0.9c0.4,0.2,0.9,0.4,1.4,0.5c0.5,0.1,1,0.1,1.5,0.1c0.5-0.1,1-0.2,1.4-0.4
			c0.4-0.2,0.7-0.5,1-0.8c0.3-0.3,0.4-0.7,0.5-1.1c0.1-0.4,0.1-0.8,0.1-1.2c-0.1-0.5-0.2-0.9-0.5-1.2c-0.3-0.3-0.6-0.6-1.1-0.8
			c-0.4-0.2-0.9-0.4-1.4-0.5c-0.5-0.1-1.1-0.3-1.6-0.4c-0.5-0.1-1.1-0.3-1.6-0.5s-1-0.4-1.5-0.7s-0.8-0.7-1.1-1.1s-0.5-1-0.6-1.6
			c-0.1-0.7,0-1.4,0.1-2c0.2-0.6,0.5-1.2,0.9-1.6c0.4-0.5,0.9-0.9,1.5-1.2c0.6-0.3,1.3-0.5,2.1-0.6c1.1-0.1,2.1-0.1,2.9,0.3
			c0.8,0.3,1.6,0.8,2.2,1.5l-1.2,1.7c-0.5-0.5-1-0.9-1.6-1.1c-0.6-0.3-1.3-0.3-2-0.2c-0.4,0.1-0.8,0.2-1.1,0.4
			c-0.3,0.2-0.6,0.4-0.8,0.7c-0.2,0.3-0.4,0.6-0.5,0.9c-0.1,0.3-0.1,0.7-0.1,1c0.1,0.4,0.2,0.8,0.5,1s0.6,0.5,1,0.7
			c0.4,0.2,0.9,0.3,1.4,0.5c0.5,0.1,1.1,0.3,1.6,0.4c0.5,0.1,1.1,0.3,1.6,0.5c0.5,0.2,1,0.5,1.5,0.8c0.4,0.3,0.8,0.7,1.1,1.2
			C358.7,134.8,358.9,135.4,359,136.1z"/>
	</g>
</g>
</svg>
