<?xml version="1.0" encoding="utf-8"?>
<!-- Generator: Adobe Illustrator 19.1.0, SVG Export Plug-In . SVG Version: 6.00 Build 0)  -->
<svg version="1.1" id="Capa_1" xmlns="http://www.w3.org/2000/svg" xmlns:xlink="http://www.w3.org/1999/xlink" x="0px" y="0px"
	 viewBox="0 0 430.8 180.8" style="enable-background:new 0 0 430.8 180.8;" xml:space="preserve">
<style type="text/css">
	.st0{clip-path:url(#SVGID_2_);}
	.st1{fill:#00A39C;}
	.st2{fill:#025F6A;}
	.st3{fill:#FFFFFF;stroke:#FFFFFF;stroke-width:0.5;stroke-miterlimit:10;}
</style>
<g>
	<g>
		<g>
			<defs>
				<polygon id="SVGID_1_" points="0,160 0,0 430.8,0 430.8,93 				"/>
			</defs>
			<clipPath id="SVGID_2_">
				<use xlink:href="#SVGID_1_"  style="overflow:visible;"/>
			</clipPath>
			<g class="st0">
				<path class="st1" d="M152.5,19.4c3,0,5.3,0.8,6.9,2.5c1.6,1.7,2.4,3.8,2.4,6.4v68.8c1.8,0.3,3.3,1.2,4.6,2.6
					c1.3,1.4,2,3.4,2,5.9c0,5.1-2.3,8.1-6.8,9v11.8c0,2.8-0.8,5-2.4,6.6c-1.6,1.6-3.8,2.4-6.6,2.4c-2.8,0-5-0.8-6.6-2.4
					c-1.6-1.6-2.4-3.8-2.4-6.6V115h-35.7c-2.4,0-4.5-0.8-6.3-2.5c-1.8-1.7-2.7-3.9-2.7-6.6c0-1.7,0.5-3.5,1.6-5.3l43.7-76.5
					C146.2,20.9,148.9,19.4,152.5,19.4z M122.5,97h21.2V61.3L122.5,97z"/>
				<path class="st1" d="M208,18.7c6.2,0,11.6,1,16.3,3.1c4.7,2.1,8.7,4.9,11.9,8.3c3.2,3.5,5.6,7.4,7.2,11.9
					c1.6,4.5,2.4,9.2,2.4,14.1c0,4.1-0.6,7.9-1.7,11.5c-1.2,3.6-2.7,7-4.7,10.4c-2,3.4-4.3,6.6-7,9.7c-2.7,3.1-5.5,6.2-8.6,9.3
					l-19,19.3h34.1c2.7,0,4.9,0.8,6.5,2.4c1.6,1.6,2.4,3.8,2.4,6.5c0,2.8-0.8,5.1-2.4,6.7c-1.6,1.6-3.8,2.4-6.5,2.4h-54.5
					c-3,0-5.4-0.9-7.1-2.6c-1.7-1.7-2.6-3.8-2.6-6.2c0-2.6,1.1-5.1,3.3-7.5l33.1-33.8c4.7-4.8,8.7-9.6,11.9-14.2
					c3.2-4.7,4.8-9.3,4.9-13.9c0-2.2-0.4-4.4-1.3-6.8c-0.9-2.3-2.2-4.4-3.8-6.3c-1.7-1.9-3.8-3.4-6.3-4.6c-2.5-1.2-5.4-1.8-8.6-1.8
					c-3.2,0-6.2,0.6-8.9,1.9c-2.7,1.3-5.2,2.9-7.6,5c-1.2,1-2.3,1.8-3.3,2.2c-1,0.4-2.3,0.6-3.8,0.6c-2.4,0-4.5-0.8-6.2-2.4
					c-1.7-1.6-2.6-3.7-2.6-6.4c0-2.3,0.9-4.6,2.7-6.8c4-4.6,8.6-7.8,13.7-9.6C197.1,19.6,202.4,18.7,208,18.7z"/>
			</g>
		</g>
	</g>
	<g>
		<g>
			<g>
				<path class="st2" d="M412.9,102.9c-1.8,0.2-3.6,0.4-5.4,0.7c-33.1,4.3-66.1,9.5-102.9,14.5c-25.8,3.4-55.1,8-80.8,11.9
					c60.9-8.7,124.9-18.5,183.6-25.7c-5.8,1.4-12.8,2.9-21.1,4.1c-19.8,2.8-39.4,5.6-58.8,8.4c0-0.2-0.1-0.7-0.1-0.9
					c-54.9,8.9-106.6,14.9-161.5,24.2c2-0.2,0.8,0.2,0.5,0.4c-0.1,0-0.3,0-0.4,0.1c0.1,0,0.3,0,0.4-0.1c-0.3,0.2-0.1,0.2,3.3-0.3
					c-3.4,0.5-3.7,0.5-3.3,0.3c54.1-8.3,104.8-15.7,158.9-23.4c-84,12.2-164.9,24.8-251,37.7c-3.7,0.6-11,1.7-14.7,2.2
					c-14.8,1.5-29.5,3.5-44.2,5.7c3.5-1.7-11.5-1.7,17.9-5.6c0-0.2-0.1-0.7-0.1-0.9c-29.5,3.3-41,1.8-11.8-3.5
					c32.9-5.8,77.1-11.6,117.4-18.1c29.3-4.6,58.7-9.3,88.1-13.2c40.5-5.4,84.5-12.2,125-17.4c14.7-2,40.3-6.5,47.7-6.9
					c5.3-0.5,5.6,0,4.9,0.6c-24.1,3.5-48.2,7.1-72,10.6c-29.2,4.1-58.4,8.2-87.7,12.2c28.6-3.7,57.9-7.8,87.7-12.2
					c23.8-3.4,47.5-6.7,71.3-10.1c-0.8,0.6-1.6,1.2,0,1.4c0,0,7.3-1.1,11-1.7c14.9-1.1,11.4,1,4.2,3.2
					C417.3,101.7,415.2,102.3,412.9,102.9z"/>
			</g>
		</g>
	</g>
	<g>
		<path class="st3" d="M56.8,172.7c0.2,1,0.5,1.9,0.9,2.6c0.4,0.8,1,1.4,1.6,1.9s1.4,0.8,2.2,1c0.8,0.2,1.6,0.3,2.5,0.1
			c1.3-0.2,2.4-0.6,3.2-1.4s1.5-1.7,2-2.9l2.3,0.3c-0.3,0.8-0.6,1.6-1.1,2.3c-0.5,0.7-1,1.3-1.7,1.8c-0.6,0.5-1.4,0.9-2.2,1.3
			c-0.8,0.3-1.6,0.6-2.5,0.7c-1.3,0.2-2.6,0.1-3.7-0.2c-1.1-0.3-2.1-0.8-3-1.5c-0.9-0.7-1.6-1.6-2.1-2.6c-0.6-1-0.9-2.2-1.1-3.5
			c-0.2-1.2-0.1-2.4,0.2-3.6c0.3-1.1,0.7-2.2,1.4-3.1c0.6-0.9,1.5-1.7,2.5-2.3c1-0.6,2.1-1,3.4-1.2c1.4-0.2,2.6-0.1,3.7,0.2
			c1.1,0.3,2.1,0.8,2.9,1.6c0.8,0.7,1.5,1.6,2.1,2.7c0.5,1.1,0.9,2.4,1.1,3.8L56.8,172.7z M67.7,167.1c-0.4-0.6-0.8-1.2-1.4-1.6
			c-0.5-0.4-1.2-0.7-1.9-0.9c-0.7-0.2-1.6-0.2-2.5-0.1c-0.8,0.1-1.6,0.4-2.2,0.7c-0.7,0.4-1.2,0.8-1.7,1.4s-0.8,1.2-1,1.9
			c-0.2,0.7-0.3,1.5-0.3,2.3l12-1.6C68.4,168.5,68.1,167.8,67.7,167.1z"/>
		<path class="st3" d="M82.5,178.4l-0.9,0.1l-10.3-16.9l2.8-0.4l7.3,12.6l0.1,0l3.8-14l2.7-0.4L82.5,178.4z"/>
		<path class="st3" d="M93,167.9c0.2,1,0.5,1.9,0.9,2.6c0.4,0.8,1,1.4,1.6,1.9s1.4,0.8,2.2,1s1.6,0.3,2.5,0.1
			c1.3-0.2,2.4-0.6,3.2-1.4s1.5-1.7,2-2.9l2.3,0.3c-0.3,0.8-0.6,1.6-1.1,2.3c-0.5,0.7-1,1.3-1.7,1.8c-0.6,0.5-1.4,0.9-2.2,1.3
			c-0.8,0.3-1.6,0.6-2.5,0.7c-1.3,0.2-2.6,0.1-3.7-0.2c-1.1-0.3-2.1-0.8-3-1.5c-0.9-0.7-1.6-1.6-2.1-2.6c-0.6-1-0.9-2.2-1.1-3.5
			c-0.2-1.2-0.1-2.4,0.2-3.6c0.3-1.1,0.7-2.2,1.4-3.1c0.6-0.9,1.5-1.7,2.5-2.3c1-0.6,2.1-1,3.4-1.2c1.4-0.2,2.6-0.1,3.7,0.2
			c1.1,0.3,2.1,0.8,2.9,1.6c0.8,0.7,1.5,1.6,2.1,2.7c0.5,1.1,0.9,2.4,1.1,3.8L93,167.9z M103.9,162.4c-0.4-0.6-0.8-1.2-1.4-1.6
			c-0.5-0.4-1.2-0.7-1.9-0.9s-1.6-0.2-2.5-0.1c-0.8,0.1-1.6,0.4-2.2,0.7s-1.2,0.8-1.7,1.4s-0.8,1.2-1,1.9c-0.2,0.7-0.3,1.5-0.3,2.3
			l12-1.6C104.6,163.7,104.3,163,103.9,162.4z"/>
		<path class="st3" d="M123.2,172.3l-1.4-10.5c-0.1-0.7-0.2-1.4-0.4-2c-0.2-0.6-0.5-1.1-0.8-1.5c-0.3-0.4-0.8-0.7-1.3-0.9
			c-0.5-0.2-1.2-0.2-1.9-0.1c-0.7,0.1-1.4,0.3-1.9,0.7c-0.5,0.4-1,0.9-1.3,1.5c-0.3,0.6-0.5,1.3-0.6,2.1c-0.1,0.8-0.1,1.6,0,2.5
			l1.2,9.3l-2.6,0.3l-2.3-17.2l2.6-0.3l0.3,2.5l0.1,0c0.4-1,1-1.8,1.9-2.4c0.8-0.6,1.9-1,3.1-1.2c1.8-0.2,3.3,0.1,4.4,1.1
			c1.1,1,1.8,2.5,2.1,4.7l1.5,11.1L123.2,172.3z"/>
		<path class="st3" d="M132.1,156l2,14.9l-2.6,0.3l-2-14.9l-1.9,0.3l-0.3-2.3l1.9-0.3l-0.8-5.9l2.6-0.3l0.8,5.9l3.1-0.4l0.3,2.3
			L132.1,156z"/>
		<path class="st3" d="M155.2,159.3c0.2,1.3,0.1,2.5-0.2,3.6c-0.3,1.2-0.8,2.2-1.5,3.1c-0.7,0.9-1.6,1.7-2.6,2.3s-2.3,1-3.6,1.2
			s-2.6,0.1-3.8-0.2c-1.2-0.3-2.2-0.8-3.1-1.5c-0.9-0.7-1.6-1.6-2.2-2.6c-0.6-1-0.9-2.2-1.1-3.5c-0.2-1.3-0.1-2.5,0.2-3.6
			c0.3-1.1,0.8-2.2,1.5-3.1c0.7-0.9,1.6-1.7,2.6-2.3c1.1-0.6,2.3-1,3.6-1.2c1.4-0.2,2.6-0.1,3.8,0.2c1.2,0.3,2.2,0.8,3.1,1.5
			c0.9,0.7,1.6,1.6,2.2,2.6C154.7,156.9,155.1,158.1,155.2,159.3z M152.7,159.6c-0.1-0.9-0.4-1.7-0.8-2.5c-0.4-0.8-0.9-1.4-1.6-2
			c-0.6-0.6-1.4-1-2.2-1.2c-0.9-0.3-1.8-0.3-2.8-0.2c-1,0.1-1.9,0.4-2.7,0.9c-0.8,0.5-1.4,1.1-1.9,1.8s-0.8,1.5-1,2.3
			c-0.2,0.9-0.2,1.8-0.1,2.7s0.4,1.8,0.8,2.5c0.4,0.8,0.9,1.5,1.6,2s1.4,1,2.2,1.2s1.8,0.3,2.8,0.2c1-0.1,2-0.4,2.7-0.9
			c0.8-0.5,1.4-1.1,1.9-1.8s0.8-1.5,1-2.3C152.8,161.4,152.9,160.6,152.7,159.6z"/>
		<path class="st3" d="M169.8,161c0.1,0.8,0.1,1.6-0.2,2.3c-0.2,0.7-0.6,1.3-1,1.9c-0.5,0.6-1,1-1.7,1.4c-0.7,0.4-1.4,0.6-2.3,0.7
			c-0.7,0.1-1.4,0.1-2,0s-1.3-0.3-1.8-0.6c-0.6-0.3-1.1-0.6-1.6-1.1c-0.5-0.4-0.9-0.9-1.3-1.5l1.4-1.5c0.3,0.4,0.6,0.8,1,1.1
			c0.4,0.3,0.8,0.6,1.2,0.9s0.9,0.4,1.4,0.5c0.5,0.1,1,0.1,1.5,0.1c0.5-0.1,1-0.2,1.4-0.4c0.4-0.2,0.7-0.5,1-0.8
			c0.3-0.3,0.4-0.7,0.5-1.1c0.1-0.4,0.1-0.8,0.1-1.2c-0.1-0.5-0.2-0.9-0.5-1.2c-0.3-0.3-0.6-0.6-1.1-0.8c-0.4-0.2-0.9-0.4-1.4-0.5
			c-0.5-0.1-1.1-0.3-1.6-0.4c-0.5-0.1-1.1-0.3-1.6-0.5c-0.5-0.2-1-0.4-1.4-0.7c-0.4-0.3-0.8-0.7-1.1-1.1c-0.3-0.4-0.5-1-0.6-1.6
			c-0.1-0.7,0-1.4,0.1-2s0.5-1.2,0.9-1.6c0.4-0.5,0.9-0.9,1.5-1.2c0.6-0.3,1.3-0.5,2.1-0.6c1.1-0.1,2.1-0.1,2.9,0.3
			c0.8,0.3,1.6,0.8,2.2,1.5l-1.2,1.7c-0.5-0.5-1-0.9-1.6-1.1c-0.6-0.3-1.3-0.3-2-0.2c-0.4,0.1-0.8,0.2-1.1,0.4
			c-0.3,0.2-0.6,0.4-0.8,0.7c-0.2,0.3-0.4,0.6-0.5,0.9c-0.1,0.3-0.1,0.7-0.1,1c0.1,0.4,0.2,0.8,0.5,1c0.3,0.3,0.6,0.5,1,0.7
			c0.4,0.2,0.9,0.3,1.4,0.5s1.1,0.3,1.6,0.4c0.5,0.1,1.1,0.3,1.6,0.5s1,0.5,1.5,0.8c0.4,0.3,0.8,0.7,1.1,1.2
			C169.5,159.7,169.7,160.3,169.8,161z"/>
		<path class="st3" d="M199.2,165.8c-0.3,1.3-0.8,2.4-1.4,3.4c-0.7,0.9-1.5,1.7-2.6,2.2s-2.2,0.9-3.4,1.1c-1.1,0.1-2.2,0.1-3.3,0
			c-1.1-0.2-2-0.5-2.9-1c-0.9-0.5-1.6-1.2-2.2-2c-0.6-0.8-1-1.9-1.3-3l2.6-0.3c0.2,0.8,0.5,1.4,0.9,2c0.4,0.6,0.9,1,1.5,1.4
			c0.6,0.4,1.3,0.6,2,0.7c0.7,0.1,1.5,0.1,2.3,0c1.2-0.2,2.2-0.5,2.9-1c0.7-0.5,1.3-1.1,1.7-1.9c0.4-0.8,0.6-1.7,0.7-2.7
			c0.1-1,0-2.2-0.1-3.4l-0.2-1.6l-0.1,0c-0.2,0.6-0.5,1.1-0.9,1.6c-0.4,0.5-0.9,0.9-1.4,1.3c-0.5,0.4-1.1,0.7-1.7,0.9
			c-0.6,0.2-1.2,0.4-1.9,0.5c-1.3,0.2-2.4,0.1-3.5-0.2c-1.1-0.3-2.1-0.8-2.9-1.6c-0.9-0.7-1.6-1.6-2.1-2.7c-0.6-1.1-0.9-2.2-1.1-3.5
			c-0.2-1.2-0.1-2.4,0.2-3.6c0.3-1.1,0.7-2.2,1.3-3.1c0.6-0.9,1.4-1.6,2.4-2.3s2.1-1,3.4-1.2c0.6-0.1,1.3-0.1,1.9,0
			c0.6,0.1,1.2,0.2,1.8,0.4c0.6,0.2,1.1,0.5,1.6,0.8s1,0.8,1.3,1.2l0.1,0l-0.4-2.9l2.6-0.3l2.1,16.2
			C199.5,163,199.4,164.5,199.2,165.8z M195.7,153.8c-0.1-0.9-0.4-1.7-0.8-2.5c-0.4-0.8-0.9-1.4-1.5-1.9c-0.6-0.5-1.3-0.9-2.2-1.2
			c-0.8-0.2-1.7-0.3-2.6-0.2c-1,0.1-1.8,0.4-2.5,0.9c-0.7,0.4-1.3,1-1.8,1.7c-0.5,0.7-0.8,1.5-0.9,2.3c-0.2,0.9-0.2,1.8-0.1,2.7
			c0.1,0.9,0.4,1.7,0.8,2.5c0.4,0.8,0.9,1.5,1.6,2c0.6,0.6,1.4,1,2.2,1.3c0.8,0.3,1.7,0.4,2.7,0.2c1-0.1,1.8-0.4,2.5-0.9
			c0.7-0.5,1.3-1.1,1.7-1.8c0.4-0.7,0.7-1.5,0.9-2.4C195.8,155.6,195.8,154.7,195.7,153.8z"/>
		<path class="st3" d="M209,145.7c-0.3,0-0.7,0-1,0c-1.1,0.1-1.9,0.8-2.3,1.9c-0.5,1.1-0.5,2.8-0.2,5l1.1,8.7l-2.6,0.3l-2.3-17.2
			l2.6-0.3l0.3,2.4l0.1,0c0.3-1,0.7-1.7,1.4-2.3s1.4-0.9,2.4-1c0.3,0,0.6,0,0.9,0c0.3,0,0.6,0.1,0.9,0.2l-0.2,2.6
			C209.6,145.8,209.3,145.8,209,145.7z"/>
		<path class="st3" d="M228.1,158.5l-0.4-3l-0.1,0c-0.2,0.6-0.5,1.1-0.9,1.6c-0.4,0.5-0.9,0.9-1.4,1.3c-0.5,0.4-1.1,0.7-1.7,0.9
			c-0.6,0.2-1.2,0.4-1.9,0.5c-1.3,0.2-2.4,0.1-3.5-0.2c-1.1-0.3-2.1-0.8-2.9-1.6c-0.9-0.7-1.6-1.6-2.1-2.7c-0.6-1.1-0.9-2.2-1.1-3.5
			c-0.2-1.2-0.1-2.4,0.2-3.6s0.7-2.2,1.3-3.1c0.6-0.9,1.4-1.6,2.4-2.3c1-0.6,2.1-1,3.4-1.2c0.6-0.1,1.3-0.1,1.9,0
			c0.6,0.1,1.2,0.2,1.8,0.4c0.6,0.2,1.1,0.5,1.6,0.8s1,0.8,1.3,1.2l0.1,0l-0.4-2.9l2.6-0.3l2.3,17.2L228.1,158.5z M227.1,149.7
			c-0.1-0.9-0.4-1.7-0.8-2.5s-0.9-1.4-1.5-1.9c-0.6-0.5-1.3-0.9-2.2-1.2c-0.8-0.2-1.7-0.3-2.6-0.2c-1,0.1-1.8,0.4-2.5,0.9
			c-0.7,0.5-1.3,1-1.8,1.7c-0.5,0.7-0.8,1.5-0.9,2.3c-0.2,0.9-0.2,1.8-0.1,2.7c0.1,0.9,0.4,1.8,0.8,2.5c0.4,0.8,0.9,1.5,1.6,2
			s1.4,1,2.2,1.3c0.8,0.3,1.7,0.4,2.7,0.2c1-0.1,1.8-0.4,2.5-0.9c0.7-0.5,1.3-1.1,1.7-1.8s0.7-1.5,0.9-2.4
			C227.2,151.5,227.2,150.6,227.1,149.7z"/>
		<path class="st3" d="M246.3,156.1l-1.4-10.5c-0.1-0.7-0.2-1.4-0.4-2c-0.2-0.6-0.5-1.1-0.8-1.5c-0.3-0.4-0.8-0.7-1.3-0.9
			c-0.5-0.2-1.2-0.2-1.9-0.1c-0.7,0.1-1.4,0.3-1.9,0.7c-0.5,0.4-1,0.9-1.3,1.5c-0.3,0.6-0.5,1.3-0.6,2.1c-0.1,0.8-0.1,1.6,0,2.5
			l1.2,9.3l-2.6,0.3l-2.3-17.2l2.6-0.3l0.3,2.5l0.1,0c0.4-1,1-1.8,1.9-2.4c0.8-0.6,1.9-1,3.1-1.2c1.8-0.2,3.3,0.1,4.4,1.1
			s1.8,2.5,2.1,4.7l1.5,11.1L246.3,156.1z"/>
		<path class="st3" d="M263.7,138.7l2,14.9l-2.6,0.3l-2-14.9l-2,0.3l-0.3-2.3l2-0.3l-0.9-6.8c-0.1-1-0.1-1.9,0-2.7
			c0.2-0.8,0.4-1.4,0.8-2c0.4-0.5,0.9-1,1.5-1.3c0.6-0.3,1.3-0.5,2-0.6c0.2,0,0.5,0,0.9,0c0.4,0,0.7,0,0.9,0.1l0.3,2.4
			c-0.5-0.1-1-0.2-1.6-0.1c-0.4,0.1-0.8,0.2-1.2,0.4s-0.6,0.4-0.8,0.8c-0.2,0.3-0.3,0.8-0.4,1.3c-0.1,0.5,0,1.2,0.1,2l0.8,6.3
			l4.3-0.6l0.3,2.3L263.7,138.7z"/>
		<path class="st3" d="M287.9,141.9c0.2,1.3,0.1,2.5-0.2,3.6c-0.3,1.2-0.8,2.2-1.5,3.1c-0.7,0.9-1.6,1.7-2.6,2.3
			c-1.1,0.6-2.3,1-3.6,1.2s-2.6,0.1-3.8-0.2s-2.2-0.8-3.1-1.5c-0.9-0.7-1.6-1.6-2.2-2.6c-0.6-1-0.9-2.2-1.1-3.5
			c-0.2-1.3-0.1-2.5,0.2-3.6c0.3-1.1,0.8-2.2,1.5-3.1c0.7-0.9,1.6-1.7,2.6-2.3c1.1-0.6,2.3-1,3.6-1.2c1.4-0.2,2.6-0.1,3.8,0.2
			c1.2,0.3,2.2,0.8,3.1,1.5c0.9,0.7,1.6,1.6,2.2,2.6C287.4,139.5,287.7,140.6,287.9,141.9z M285.4,142.2c-0.1-0.9-0.4-1.7-0.8-2.5
			c-0.4-0.8-0.9-1.4-1.6-2c-0.6-0.6-1.4-1-2.2-1.2c-0.9-0.3-1.8-0.3-2.8-0.2c-1,0.1-1.9,0.4-2.7,0.9c-0.8,0.5-1.4,1.1-1.9,1.8
			c-0.5,0.7-0.8,1.5-1,2.3s-0.2,1.8-0.1,2.7c0.1,0.9,0.4,1.8,0.8,2.5c0.4,0.8,0.9,1.5,1.6,2c0.6,0.6,1.4,1,2.2,1.2
			c0.9,0.3,1.8,0.3,2.8,0.2c1-0.1,2-0.4,2.7-0.9s1.4-1.1,1.9-1.8c0.5-0.7,0.8-1.5,1-2.3C285.5,144,285.5,143.1,285.4,142.2z"/>
		<path class="st3" d="M297.6,134.1c-0.3,0-0.7,0-1,0c-1.1,0.1-1.9,0.8-2.3,1.9c-0.5,1.1-0.5,2.8-0.2,5l1.1,8.7l-2.6,0.3l-2.3-17.2
			l2.6-0.3l0.3,2.4l0.1,0c0.3-1,0.7-1.7,1.4-2.3s1.4-0.9,2.4-1c0.3,0,0.6,0,0.9,0c0.3,0,0.6,0.1,0.9,0.2l-0.2,2.6
			C298.2,134.2,297.9,134.1,297.6,134.1z"/>
		<path class="st3" d="M324.2,145.8l-1.4-10.8c-0.2-1.7-0.7-2.8-1.3-3.5s-1.6-0.9-2.9-0.7c-1.3,0.2-2.3,0.8-2.8,1.8
			c-0.5,1-0.7,2.4-0.4,4.2l1.3,10l-2.6,0.3l-1.3-10.2c-0.1-0.9-0.3-1.7-0.5-2.3c-0.2-0.6-0.5-1.2-0.8-1.6s-0.8-0.7-1.3-0.8
			c-0.5-0.1-1.1-0.2-1.8-0.1c-1.3,0.2-2.1,0.8-2.7,1.9c-0.5,1.1-0.6,2.7-0.4,4.8l1.2,9.3l-2.6,0.3l-2.3-17.2l2.6-0.3l0.3,2.2l0.1,0
			c0.3-0.9,0.9-1.6,1.6-2.2c0.7-0.5,1.6-0.9,2.6-1s2.1,0,3,0.4c1,0.4,1.8,1.1,2.4,2.1c0.4-1.1,0.9-2,1.7-2.6s1.8-1.1,3-1.2
			c1.9-0.2,3.3,0.1,4.3,1.1c1,1,1.7,2.5,2,4.5l1.5,11.3L324.2,145.8z"/>
		<path class="st3" d="M345.1,143.1l-0.4-3l-0.1,0c-0.2,0.6-0.5,1.1-0.9,1.6c-0.4,0.5-0.9,0.9-1.4,1.3c-0.5,0.4-1.1,0.7-1.7,0.9
			c-0.6,0.2-1.2,0.4-1.9,0.5c-1.3,0.2-2.4,0.1-3.5-0.2c-1.1-0.3-2.1-0.8-2.9-1.6c-0.9-0.7-1.6-1.6-2.1-2.7c-0.6-1.1-0.9-2.2-1.1-3.5
			c-0.2-1.2-0.1-2.4,0.2-3.6c0.3-1.1,0.7-2.2,1.3-3.1c0.6-0.9,1.4-1.6,2.4-2.3c1-0.6,2.1-1,3.4-1.2c0.6-0.1,1.3-0.1,1.9,0
			c0.6,0.1,1.2,0.2,1.8,0.4c0.6,0.2,1.1,0.5,1.6,0.8s1,0.8,1.3,1.2l0.1,0l-0.4-2.9l2.6-0.3l2.3,17.2L345.1,143.1z M344.1,134.3
			c-0.1-0.9-0.4-1.7-0.8-2.5c-0.4-0.8-0.9-1.4-1.5-1.9c-0.6-0.5-1.3-0.9-2.2-1.2c-0.8-0.2-1.7-0.3-2.6-0.2c-1,0.1-1.8,0.4-2.5,0.9
			c-0.7,0.5-1.3,1-1.8,1.7c-0.5,0.7-0.8,1.5-0.9,2.3c-0.2,0.9-0.2,1.8-0.1,2.7c0.1,0.9,0.4,1.8,0.8,2.5c0.4,0.8,0.9,1.5,1.6,2
			c0.6,0.6,1.4,1,2.2,1.3c0.8,0.3,1.7,0.4,2.7,0.2c1-0.1,1.8-0.4,2.5-0.9c0.7-0.5,1.3-1.1,1.7-1.8c0.4-0.7,0.7-1.5,0.9-2.4
			C344.2,136.1,344.2,135.2,344.1,134.3z"/>
		<path class="st3" d="M353.9,126.8l2,14.9l-2.6,0.3l-2-14.9l-1.9,0.3l-0.3-2.3l1.9-0.3l-0.8-5.9l2.6-0.3l0.8,5.9l3.1-0.4l0.3,2.3
			L353.9,126.8z"/>
		<path class="st3" d="M377.1,130.1c0.2,1.3,0.1,2.5-0.2,3.6c-0.3,1.2-0.8,2.2-1.5,3.1c-0.7,0.9-1.6,1.7-2.6,2.3
			c-1.1,0.6-2.3,1-3.6,1.2c-1.4,0.2-2.6,0.1-3.8-0.2c-1.2-0.3-2.2-0.8-3.1-1.5s-1.6-1.6-2.2-2.6c-0.6-1-0.9-2.2-1.1-3.5
			c-0.2-1.3-0.1-2.5,0.2-3.6c0.3-1.1,0.8-2.2,1.5-3.1c0.7-0.9,1.6-1.7,2.6-2.3s2.3-1,3.6-1.2c1.4-0.2,2.6-0.1,3.8,0.2
			c1.2,0.3,2.2,0.8,3.1,1.5c0.9,0.7,1.6,1.6,2.2,2.6C376.5,127.7,376.9,128.9,377.1,130.1z M374.5,130.5c-0.1-0.9-0.4-1.7-0.8-2.5
			c-0.4-0.8-0.9-1.4-1.6-2c-0.6-0.6-1.4-1-2.2-1.2c-0.9-0.3-1.8-0.3-2.8-0.2c-1,0.1-1.9,0.4-2.7,0.9c-0.8,0.5-1.4,1.1-1.9,1.8
			c-0.5,0.7-0.8,1.5-1,2.3c-0.2,0.9-0.2,1.8-0.1,2.7s0.4,1.8,0.8,2.5c0.4,0.8,0.9,1.5,1.6,2c0.6,0.6,1.4,1,2.2,1.2
			c0.9,0.3,1.8,0.3,2.8,0.2c1-0.1,2-0.4,2.7-0.9c0.8-0.5,1.4-1.1,1.9-1.8c0.5-0.7,0.8-1.5,1-2.3
			C374.6,132.3,374.7,131.4,374.5,130.5z"/>
	</g>
</g>
</svg>
