<?xml version="1.0" encoding="utf-8"?>
<!-- Generator: Adobe Illustrator 19.1.0, SVG Export Plug-In . SVG Version: 6.00 Build 0)  -->
<svg version="1.1" id="Capa_1" xmlns="http://www.w3.org/2000/svg" xmlns:xlink="http://www.w3.org/1999/xlink" x="0px" y="0px"
	 viewBox="-117 275.9 360.2 290" style="enable-background:new -117 275.9 360.2 290;" xml:space="preserve">
<style type="text/css">
	.st0{fill:#05A89E;}
	.st1{fill:#067873;}
	.st2{fill:#0F8884;}
	.st3{fill:#006069;}
	.st4{fill:none;}
</style>
<g>
	<g>
		<polygon class="st0" points="245.3,275.9 245.3,309.9 221.8,309.9 238.5,275.9 		"/>
		<polygon class="st1" points="238.5,275.9 221.8,309.9 203.1,275.9 		"/>
		<polygon class="st0" points="203.1,275.9 221.8,309.9 198.3,351.7 174.3,309.9 192,275.9 		"/>
		<polygon class="st2" points="192,275.9 174.3,309.9 155,275.9 		"/>
		<polygon class="st3" points="174.3,309.9 151.8,351.7 198.3,351.7 		"/>
		<polygon class="st3" points="174.3,309.9 128.3,309.9 146.5,275.9 155,275.9 		"/>
		<polygon class="st2" points="128.3,309.9 151.8,351.7 174.3,309.9 		"/>
		<polygon class="st1" points="221.8,309.9 245.3,351.7 198.3,351.7 		"/>
		<polygon class="st2" points="221.8,309.9 245.3,351.7 245.3,309.9 		"/>
		<polygon class="st2" points="146.5,275.9 128.3,309.9 109.6,275.9 		"/>
		<polygon class="st3" points="128.3,309.9 104.2,351.7 151.8,351.7 		"/>
		<polygon class="st1" points="128.3,309.9 104.2,351.7 62,275.9 109.6,275.9 		"/>
		<polygon class="st0" points="81.4,309.2 34.7,396.5 128.5,396.5 		"/>
		<polygon class="st0" points="81.4,309.2 62,275.9 52.4,275.9 35.7,309.2 		"/>
		<polygon class="st0" points="60.1,436.9 35.5,481 -10.4,481.3 34.7,396.5 		"/>
		<polygon class="st1" points="81.6,396.5 105.3,440.7 58.1,440.7 		"/>
		<polygon class="st3" points="81.6,396.5 105.3,440.7 128.5,396.5 		"/>
		<polygon class="st1" points="245.3,351.7 221.8,396.5 198.3,351.7 		"/>
		<polygon class="st0" points="221.8,396.5 198.3,351.7 175,396.5 		"/>
		<polygon class="st2" points="198.3,351.7 175,396.5 128.5,396.5 151.8,351.7 		"/>
		<polygon class="st3" points="151.8,351.7 104.2,351.7 128.5,396.5 		"/>
		<polygon class="st0" points="245.3,351.7 221.8,396.5 245.3,396.5 		"/>
		<polygon class="st0" points="198.3,440.1 175,396.5 152.3,440.5 175.8,481 		"/>
		<polygon class="st2" points="198.3,440.1 221.8,396.5 175,396.5 		"/>
		<polygon class="st2" points="221.8,396.5 245.3,440.1 245.3,396.5 		"/>
		<polygon class="st1" points="221.8,396.5 245.3,440.1 198.3,440.1 		"/>
		<polygon class="st2" points="175,396.5 152.3,440.5 128.5,396.5 		"/>
		<polygon class="st1" points="152.3,440.5 175.8,481 82.4,481 105.3,440.7 		"/>
		<polygon class="st2" points="82.4,481 35.5,481 58.1,440.7 		"/>
		<polygon class="st3" points="198.3,440.1 222.5,481 175.8,481 		"/>
		<polygon class="st0" points="198.3,440.1 245.3,440.1 246,481 222.5,481 		"/>
		<polygon class="st3" points="-59.2,396.5 -35.8,440.7 -12.3,396.5 		"/>
		<polygon class="st1" points="-12.3,396.5 11.4,440.7 -35.8,440.7 		"/>
		<polygon class="st3" points="-12.3,396.5 11.4,440.7 34.6,396.5 		"/>
		<polygon class="st3" points="-35.8,440.7 -12.2,484.7 11.4,440.7 		"/>
		<polygon class="st3" points="58.9,351.7 10.4,351.7 34.7,396.5 		"/>
		<polygon class="st0" points="34.7,396.5 10.4,351.7 -12.9,396.5 		"/>
		<polygon class="st3" points="10.4,351.7 -37.2,351.7 -12.9,396.5 		"/>
		<polygon class="st0" points="-12.9,396.5 -37.2,351.7 -59.2,396.5 		"/>
		<line class="st4" x1="152.3" y1="440.5" x2="128.5" y2="396.5"/>
		<polygon class="st0" points="152.3,440.7 128.6,396.5 105.4,440.7 		"/>
		<polygon class="st2" points="17.4,275.9 35.7,309.2 -11.4,309.2 4.8,275.9 		"/>
		<polygon class="st0" points="4.8,275.9 -11.4,309.2 -29.9,275.9 		"/>
		<polygon class="st2" points="-11.4,309.2 -57.9,309.2 -41.9,275.9 -29.9,275.9 		"/>
		<polygon class="st0" points="-41.9,275.9 -57.9,309.2 -76.2,275.9 		"/>
		<polygon class="st2" points="-57.9,309.2 -104.9,309.2 -88.5,275.9 -76.2,275.9 		"/>
		<polygon class="st3" points="-104.9,309.2 -118.4,309.2 -118.4,275.9 -88.5,275.9 		"/>
		<polygon class="st0" points="35.7,309.2 10.4,351.7 -11.4,309.2 		"/>
		<polygon class="st2" points="35.7,309.2 58.9,351.7 10.4,351.7 		"/>
		<polygon class="st2" points="10.4,351.7 -37.2,351.7 -11.4,309.2 		"/>
		<polygon class="st0" points="-11.4,309.2 -37.2,351.7 -57.9,309.2 		"/>
		<polygon class="st2" points="-37.2,351.7 -57.9,309.2 -80.9,351.7 		"/>
		<polygon class="st0" points="-104.9,309.2 -80.9,351.7 -57.9,309.2 		"/>
		<polygon class="st1" points="81.4,309.2 58.9,351.7 35.7,309.2 		"/>
		<polygon class="st3" points="17.4,275.9 35.7,309.2 52.4,275.9 		"/>
		<polygon class="st2" points="246,481 246,524.6 222.5,481 		"/>
		<polygon class="st0" points="222.5,481 175.8,567.8 246,567.8 246,524.6 		"/>
		<polygon class="st2" points="222.5,481 199.1,524.6 175.8,481 		"/>
		<polygon class="st1" points="175.8,481 152.6,524.6 199.1,524.6 		"/>
		<polygon class="st3" points="152.6,524.6 127.7,567.8 175.8,567.8 199.1,524.6 		"/>
		<polygon class="st2" points="175.8,481 152.6,524.6 129.1,481 		"/>
		<polygon class="st1" points="152.6,524.6 105,524.6 129.1,481 		"/>
		<polygon class="st2" points="152.6,524.6 127.7,567.8 105,524.6 		"/>
		<polygon class="st2" points="105,524.6 82.4,481 129.1,481 		"/>
		<polygon class="st1" points="105,524.6 58.9,524.6 35.5,481 82.4,481 		"/>
		<polygon class="st3" points="127.7,567.8 81.9,567.8 105,524.6 		"/>
		<polygon class="st2" points="105,524.6 81.9,567.8 58.9,524.6 		"/>
		<polygon class="st3" points="81.9,567.8 35.5,567.8 58.9,524.6 		"/>
		<polygon class="st2" points="58.9,524.6 35.5,567.8 11.7,524.6 		"/>
		<polygon class="st1" points="35.5,567.8 -11.6,567.8 11.7,524.6 		"/>
		<polygon class="st2" points="11.7,524.6 -11.6,567.8 -35.6,524.6 		"/>
		<polygon class="st2" points="35.5,481 58.9,524.6 11.7,524.6 		"/>
		<polygon class="st1" points="35.5,481 11.7,524.6 -13.2,481.3 		"/>
		<polygon class="st0" points="11.7,524.6 -35.8,440.7 -83.1,524.6 		"/>
		<polygon class="st1" points="-11.6,567.8 -35.7,524.6 -59.3,567.8 		"/>
		<polygon class="st2" points="-35.7,524.6 -59.3,567.8 -83.1,524.6 		"/>
		<polygon class="st3" points="-118.4,440.7 -118.4,482.5 -106,482.5 -81.2,440.7 		"/>
		<polygon class="st3" points="-81.2,440.7 -59.5,482.5 -35.8,440.7 		"/>
		<polygon class="st3" points="-106,482.5 -83.1,524.6 -59.5,482.5 		"/>
		<polygon class="st0" points="-59,396.5 -80.9,351.7 -104,396.4 -81.2,440.7 		"/>
		<polygon class="st0" points="-59.3,567.8 -118.4,567.8 -118.4,524.6 -83.1,524.6 		"/>
		<polygon class="st1" points="-83.1,524.6 -118.4,524.6 -118.4,482.5 -106,482.5 		"/>
		<polygon class="st3" points="-37.2,351.7 -59,396.5 -80.9,351.7 		"/>
		<polygon class="st2" points="-118.4,351.7 -118.4,363.8 -118.4,396.2 -104,396.4 -80.8,351.7 		"/>
		<polygon class="st1" points="-80.8,351.7 -104.9,309.2 -118.4,309.2 -118.4,351.7 		"/>
		<polygon class="st0" points="-59.5,482.5 -81.2,440.7 -106,482.5 		"/>
		<polygon class="st1" points="-35.8,440.7 -59,396.5 -81.2,440.7 		"/>
		<polygon class="st1" points="-81.2,440.7 -118.4,440.7 -118.4,396.2 -104,396.2 		"/>
		<polygon class="st3" points="105.4,440.7 82.4,481 58.1,440.7 		"/>
		<polygon class="st3" points="34.7,396.5 58.1,440.7 81.6,396.5 		"/>
	</g>
</g>
</svg>
