<?xml version="1.0" encoding="utf-8"?>
<!-- Generator: Adobe Illustrator 19.1.0, SVG Export Plug-In . SVG Version: 6.00 Build 0)  -->
<svg version="1.1" id="Capa_1" xmlns="http://www.w3.org/2000/svg" xmlns:xlink="http://www.w3.org/1999/xlink" x="0px" y="0px"
	 viewBox="0 0 1920.1 1180.7" style="enable-background:new 0 0 1920.1 1180.7;" xml:space="preserve">
<style type="text/css">
	.st0{fill:#12936D;}
	.st1{fill:#8CC796;}
	.st2{fill:#DCEACA;}
	.st3{fill:#D1E3B7;}
	.st4{fill:#EBEEC2;}
	.st5{fill:#F7F7DE;}
	.st6{fill:#F4F3C8;}
	.st7{fill:#E9EDC9;}
	.st8{fill:#F3ECAE;}
	.st9{fill:#90C89A;}
	.st10{fill:#C2D6A1;}
	.st11{fill:#DEE8B5;}
	.st12{fill:#D9E3A5;}
	.st13{fill:#E3E7AC;}
	.st14{fill:#E1E1A7;}
	.st15{fill:#F9ED9D;}
	.st16{fill:#DDEAC6;}
	.st17{fill:#EAF1D3;}
	.st18{fill:#E3ECC5;}
	.st19{fill:#E7ECB6;}
	.st20{fill:#FAE57E;}
	.st21{fill:#F5DC6E;}
	.st22{fill:#FCE24E;}
	.st23{fill:#FBEAA6;}
	.st24{fill:#FFF4BB;}
	.st25{fill:#F4EDB9;}
	.st26{fill:#F8D82D;}
	.st27{fill:#FEE67C;}
	.st28{fill:#F3CE26;}
	.st29{fill:#FDCF35;}
	.st30{fill:#F6A300;}
	.st31{fill:#F2EFC0;}
	.st32{fill:#F0F4DF;}
	.st33{fill:#E4EDC8;}
	.st34{fill:#E5EABF;}
	.st35{fill:#DDE2BB;}
	.st36{fill:#EAEEC8;}
	.st37{fill:#F3AE27;}
	.st38{fill:#FBC800;}
	.st39{fill:#FFD600;}
	.st40{fill:#F59A00;}
	.st41{fill:#EC6330;}
	.st42{fill:#F28C61;}
	.st43{fill:#EA533F;}
	.st44{fill:#E52A26;}
	.st45{fill:#D81623;}
	.st46{fill:#EF7836;}
	.st47{fill:#F9B12E;}
	.st48{fill:#E84626;}
	.st49{fill:#C93446;}
	.st50{fill:#E62E2E;}
	.st51{fill:#E9465A;}
	.st52{fill:#EF7C4B;}
	.st53{fill:#F08202;}
	.st54{fill:#F28B1F;}
	.st55{fill:#F1884F;}
	.st56{fill:#F9AE20;}
	.st57{fill:#ED6C5A;}
	.st58{fill:#EB5B37;}
	.st59{fill:#EC6223;}
	.st60{fill:#FCCE4C;}
	.st61{fill:#FEE24A;}
	.st62{fill:#F6A653;}
	.st63{fill:#FABD5F;}
	.st64{fill:#FBC878;}
	.st65{fill:#FFE978;}
	.st66{fill:#FFE24F;}
	.st67{fill:#F59E2B;}
	.st68{fill:#FEE79D;}
	.st69{fill:#FCDF3F;}
	.st70{fill:#FDDC61;}
	.st71{fill:#FCE389;}
	.st72{fill:#F9AE1D;}
	.st73{fill:#FBBB11;}
	.st74{fill:#FDD760;}
	.st75{fill:#FCEA9E;}
	.st76{fill:#F3EDC4;}
	.st77{fill:#EBEFC3;}
	.st78{fill:#EFEBB7;}
	.st79{fill:#F9ECA9;}
	.st80{fill:#F3E9A4;}
	.st81{fill:#FDE175;}
	.st82{fill:#FCEB9D;}
	.st83{fill:#FFEFA0;}
	.st84{fill:#FDDD3E;}
	.st85{fill:#F4DA6D;}
	.st86{fill:#FDE57F;}
	.st87{fill:#FED53C;}
	.st88{fill:#FEDF62;}
	.st89{fill:#FED867;}
	.st90{fill:#F9B445;}
	.st91{fill:#FCD01B;}
	.st92{fill:#F9B728;}
	.st93{fill:#FAC457;}
	.st94{fill:#FEDE69;}
	.st95{fill:#EB7442;}
	.st96{fill:#C06F81;}
	.st97{fill:#DF1D36;}
	.st98{fill:#81527C;}
</style>
<g>
	<g>
		<polygon class="st0" points="0,0 77.1,0 232.3,107.3 0,171.2 		"/>
		<polygon class="st1" points="77.1,0 246,0 232.3,107.3 		"/>
		<polygon class="st1" points="0,171.2 108.7,267.7 0,324 		"/>
		<polygon class="st2" points="0,357.6 196.9,368.2 108.7,266.3 0,322.6 		"/>
		<polygon class="st3" points="0,357.6 196.9,368.2 0,607.1 		"/>
		<polygon class="st4" points="0,607.1 232.3,642 196.9,368.2 		"/>
		<polygon class="st5" points="0,607.1 215.2,838.3 0,838.3 		"/>
		<polygon class="st6" points="0,607.1 215.2,838.3 452.5,780.5 232.3,642 		"/>
		<polygon class="st7" points="215.2,838.3 77.1,1010.3 0,885.5 0,838.3 		"/>
		<polygon class="st8" points="77.1,1010.3 330.8,935.7 215.2,838.3 		"/>
		<polygon class="st9" points="77.1,1010.3 0,885.5 0,985.9 		"/>
		<polygon class="st10" points="77.1,1010.3 0,1133.5 0,985.9 		"/>
		<polygon class="st11" points="0,1180.7 143.6,1180.7 77.1,1010.3 0,1133.5 		"/>
		<polygon class="st12" points="77.1,1010.3 246,1180.7 143.6,1180.7 		"/>
		<polygon class="st13" points="77.1,1010.3 330.8,935.7 352.1,1180.7 246,1180.7 		"/>
		<polygon class="st14" points="330.8,935.7 352.1,1180.7 466.2,1180.7 		"/>
		<polygon class="st15" points="215.2,838.3 452.5,780.5 330.8,935.7 		"/>
		<polygon class="st16" points="108.7,266.3 232.3,107.3 0,171.2 		"/>
		<polygon class="st17" points="232.3,107.3 398.5,317.2 108.7,266.3 		"/>
		<polygon class="st18" points="232.3,107.3 432.7,71.4 330.8,0 246,0 		"/>
		<polygon class="st19" points="232.3,107.3 432.7,71.4 398.5,317.2 		"/>
		<polygon class="st20" points="452.5,780.5 618.4,985.9 330.8,935.7 		"/>
		<polygon class="st21" points="330.8,935.7 618.4,985.9 548.4,1180.7 466.2,1180.7 		"/>
		<polygon class="st22" points="618.4,985.9 813.1,1156.4 764.5,1180.7 548.4,1180.7 		"/>
		<polygon class="st23" points="452.5,780.5 651.9,742.5 618.4,985.9 		"/>
		<polygon class="st24" points="452.5,780.5 483,634.4 651.9,742.5 		"/>
		<polygon class="st25" points="452.5,780.5 483,634.4 232.3,642 		"/>
		<polygon class="st26" points="618.4,985.9 832.9,915.9 813.1,1156.4 		"/>
		<polygon class="st27" points="618.4,985.9 832.9,915.9 651.9,742.5 		"/>
		<polygon class="st28" points="813.1,1156.4 1026.2,1106.1 832.9,915.9 		"/>
		<polygon class="st29" points="1026.2,1106.1 1035.3,883.2 832.9,915.9 		"/>
		<polygon class="st30" points="1035.3,883.2 1260.5,985.9 1026.2,1106.1 		"/>
		<polygon class="st31" points="398.5,317.2 618.4,247.6 432.7,71.4 		"/>
		<polygon class="st32" points="432.7,71.4 432.7,0 330.8,0 		"/>
		<polygon class="st33" points="432.7,71.4 514.9,0 432.7,0 		"/>
		<polygon class="st34" points="432.7,71.4 568.2,121.6 607.7,0 514.9,0 		"/>
		<polygon class="st35" points="568.2,121.6 725.7,18.2 712.7,0 607.7,0 		"/>
		<polygon class="st36" points="432.7,71.4 618.4,247.6 813.1,212.3 		"/>
		<polygon class="st37" points="1026.2,1106.1 1260.5,985.9 1272.7,1147.2 		"/>
		<polygon class="st38" points="1026.2,1106.1 1026.2,1180.7 1239.2,1180.7 1272.7,1147.2 		"/>
		<polygon class="st39" points="1026.2,1180.7 1026.2,1106.1 813.1,1156.4 832.9,1180.7 		"/>
		<polygon class="st20" points="813.1,1156.4 764.5,1180.7 832.9,1180.7 		"/>
		<polygon class="st40" points="1239.2,1180.7 1272.7,1147.2 1345.7,1180.7 		"/>
		<polygon class="st40" points="1272.7,1147.2 1453,1059 1260.5,985.9 		"/>
		<polygon class="st41" points="1272.7,1147.2 1453,1059 1461.4,1180.7 1345.7,1180.7 		"/>
		<polygon class="st42" points="1453,1059 1461.4,1180.7 1555.7,1180.7 		"/>
		<polygon class="st41" points="1453,1059 1850.9,960.1 1641.7,1180.7 1555.7,1180.7 		"/>
		<polygon class="st43" points="1641.7,1180.7 1768,1180.7 1746.3,1070.4 		"/>
		<polygon class="st44" points="1768,1180.7 1920.1,1180.7 1920.1,1157.9 1746.3,1070.4 		"/>
		<polygon class="st45" points="1746.3,1070.4 1850.9,960.1 1920.1,1038.4 1920.1,1157.9 		"/>
		<polygon class="st46" points="1453,1059 1658.4,890.1 1850.9,960.1 		"/>
		<polygon class="st30" points="1453,1059 1453,779.8 1658.4,890.1 		"/>
		<polygon class="st47" points="1453,1059 1260.5,985.9 1453,779.8 		"/>
		<polygon class="st48" points="1658.4,890.1 1891.2,623.8 1850.9,960.1 		"/>
		<polygon class="st49" points="1850.9,960.1 1920.1,974.5 1920.1,1038.4 		"/>
		<polygon class="st50" points="1850.9,960.1 1920.1,919.4 1920.1,974.5 		"/>
		<polygon class="st51" points="1850.9,960.1 1891.2,623.8 1920.1,645.9 1920.1,919.4 		"/>
		<polygon class="st52" points="1658.4,890.1 1675.1,612.4 1891.2,623.8 		"/>
		<polygon class="st53" points="1453,779.8 1675.1,612.4 1658.4,890.1 		"/>
		<polygon class="st30" points="1035.3,883.2 1260.5,985.9 1161.6,791.9 		"/>
		<polygon class="st54" points="1161.6,791.9 1260.5,985.9 1453,779.8 		"/>
		<polygon class="st55" points="1453,779.8 1675.1,612.4 1379.2,556.8 		"/>
		<polygon class="st56" points="1161.6,791.9 1379.2,556.8 1453,779.8 		"/>
		<polygon class="st57" points="1379.2,556.8 1641.7,289 1675.1,612.4 		"/>
		<polygon class="st58" points="1641.7,289 1891.2,623.8 1920.1,593.4 1920.1,435.1 		"/>
		<polygon class="st59" points="1641.7,289 1675.1,612.4 1891.2,623.8 		"/>
		<polygon class="st20" points="1641.7,289 1379.2,556.8 1239.2,387.9 		"/>
		<polygon class="st60" points="1239.2,387.9 1239.2,109.5 1440.4,220.6 		"/>
		<polygon class="st61" points="1239.2,387.9 1440.4,220.6 1641.7,289 		"/>
		<polygon class="st62" points="1239.2,387.9 1056.6,482.3 1379.2,556.8 		"/>
		<polygon class="st63" points="1056.6,482.3 1044.4,316.4 1239.2,387.9 		"/>
		<polygon class="st64" points="1044.4,316.4 1239.2,109.5 1239.2,387.9 		"/>
		<polygon class="st65" points="1056.6,482.3 813.1,435.1 1044.4,316.4 		"/>
		<polygon class="st66" points="813.1,435.1 813.1,212.3 1044.4,316.4 		"/>
		<polygon class="st67" points="1161.6,791.9 1079.4,576.6 1379.2,556.8 		"/>
		<polygon class="st68" points="813.1,435.1 813.1,212.3 618.4,247.6 		"/>
		<polygon class="st69" points="1044.4,316.4 945.5,117.1 1239.2,109.5 		"/>
		<polygon class="st70" points="945.5,117.1 813.1,212.3 1044.4,316.4 		"/>
		<polygon class="st71" points="945.5,117.1 858.8,13.6 813.1,212.3 		"/>
		<polygon class="st72" points="1035.3,883.2 952.6,791.9 1161.6,791.9 		"/>
		<polygon class="st73" points="952.6,791.9 1079.4,576.6 1161.6,791.9 		"/>
		<polygon class="st74" points="1035.3,883.2 651.9,742.5 832.9,915.9 		"/>
		<polygon class="st75" points="483,634.4 474.6,487.9 232.3,642 		"/>
		<polygon class="st76" points="232.3,642 398.5,317.2 474.6,487.9 		"/>
		<polygon class="st77" points="398.5,317.2 108.7,266.3 196.9,368.2 303.8,502.3 		"/>
		<polygon class="st78" points="196.9,368.2 232.3,642 303.8,502.3 		"/>
		<polygon class="st79" points="398.5,317.2 618.4,247.6 598.6,487.9 		"/>
		<polygon class="st80" points="398.5,317.2 598.6,487.9 474.6,487.9 		"/>
		<polygon class="st81" points="618.4,247.6 813.1,435.1 598.6,487.9 		"/>
		<polygon class="st82" points="483,634.4 598.6,487.9 474.6,487.9 		"/>
		<polygon class="st83" points="483,634.4 651.9,742.5 598.6,487.9 		"/>
		<polygon class="st84" points="1035.3,883.2 805.5,624.8 786.6,791.9 		"/>
		<polygon class="st85" points="786.6,791.9 651.9,742.5 805.5,624.8 		"/>
		<polygon class="st86" points="651.9,742.5 805.5,624.8 598.6,487.9 		"/>
		<polygon class="st87" points="805.5,624.8 1079.4,576.6 954.1,791.9 		"/>
		<polygon class="st88" points="598.6,487.9 813.1,435.1 805.5,624.8 		"/>
		<polygon class="st89" points="805.5,624.8 813.1,435.1 1056.6,482.3 		"/>
		<polygon class="st30" points="805.5,624.8 1079.4,576.6 1056.6,482.3 		"/>
		<polygon class="st90" points="1079.4,576.6 1056.6,482.3 1379.2,556.8 		"/>
		<polygon class="st61" points="1440.4,220.6 1453,0 1489.2,0 1641.7,289 		"/>
		<polygon class="st91" points="1239.2,109.5 1379.2,0 1453,0 1440.4,220.6 		"/>
		<polygon class="st92" points="1239.2,109.5 1194.1,0 1379.2,0 		"/>
		<polygon class="st93" points="1239.2,109.5 1194.1,0 957.7,0 945.5,117.1 		"/>
		<polygon class="st94" points="945.5,117.1 957.7,0 883.6,0 858.8,13.6 		"/>
		<polygon class="st78" points="568.2,121.6 725.7,18.2 813.1,212.3 		"/>
		<polygon class="st95" points="1641.7,289 1920.1,311.4 1920.1,435.1 		"/>
		<polygon class="st96" points="1641.7,289 1911.7,126.2 1920.1,142.5 1920.1,311.4 		"/>
		<polygon class="st97" points="1890.2,624.9 1920.1,593.4 1920.1,645.9 		"/>
		<polygon class="st98" points="1920.1,142.5 1911.7,126.2 1920.1,105.3 		"/>
	</g>
</g>
</svg>
