<?xml version="1.0" encoding="utf-8"?>
<!-- Generator: Adobe Illustrator 19.1.0, SVG Export Plug-In . SVG Version: 6.00 Build 0)  -->
<svg version="1.1" id="Capa_1" xmlns="http://www.w3.org/2000/svg" xmlns:xlink="http://www.w3.org/1999/xlink" x="0px" y="0px"
	 viewBox="0 0 561.7 68.3" style="enable-background:new 0 0 561.7 68.3;" xml:space="preserve">
<style type="text/css">
	.st0{fill:#05A89E;}
	.st1{fill:none;stroke:#05A89E;stroke-width:7.5;stroke-miterlimit:10;}
	.st2{fill:#05A89E;stroke:#05A89E;stroke-width:2;stroke-miterlimit:10;}
</style>
<g>
	<g>
		<polyline class="st0" points="29.4,8.5 61.4,8.7 61.4,68.1 69.9,68.1 69.9,8 101.4,8 101.4,68.3 153.7,68.3 153.7,60 109.5,60 
			109.5,1.2 22.2,1.2 		"/>
		<path class="st1" d="M3.7,1.3v62.9h32c0,0,13.9,1,14-13.3c0-11.6-13.7-11.6-13.7-11.6H3.7"/>
	</g>
	<g>
		<path class="st2" d="M184.3,66.9h-2L156.8,2.7h7.1l19.6,50.9h0.2l19.7-50.9h6.8L184.3,66.9z"/>
		<path class="st2" d="M216.7,65.2V2.7h6.4v62.6H216.7z"/>
		<path class="st2" d="M257,66.9h-2L229.5,2.7h7.1l19.6,50.9h0.2L276,2.7h6.8L257,66.9z"/>
		<path class="st2" d="M289.4,65.2V2.7h31v5.7h-24.6v21h23.9v5.6h-23.9v24.6h24.6v5.7H289.4z"/>
		<path class="st2" d="M383.8,66.8l-45.2-51.6h-0.1v50h-6.4V2h3.1l45.2,51.4h0.1V2.7h6.4v64.2H383.8z"/>
		<path class="st2" d="M439.4,64.4c-3.2,1.2-6.7,1.8-10.4,1.8c-3.2,0-6.2-0.4-9.1-1.2c-2.9-0.8-5.5-1.9-7.9-3.3
			c-2.4-1.4-4.6-3.1-6.6-5.1c-1.9-2-3.6-4.2-5-6.5c-1.4-2.4-2.4-5-3.1-7.7s-1.1-5.6-1.1-8.6c0-2.9,0.4-5.8,1.1-8.6
			c0.7-2.8,1.8-5.3,3.2-7.7c1.4-2.4,3-4.6,5-6.5c2-2,4.2-3.7,6.6-5.1c2.4-1.4,5.1-2.5,7.9-3.3c2.8-0.8,5.8-1.2,8.9-1.2
			c3.8,0,7.4,0.6,10.7,1.8c3.3,1.2,6.3,3,9,5.2v7.7h-0.2c-1.1-1.3-2.4-2.5-3.9-3.6c-1.5-1.1-3.1-2-4.8-2.8c-1.7-0.8-3.5-1.4-5.3-1.8
			c-1.8-0.4-3.7-0.6-5.5-0.6c-3.7,0-7.2,0.7-10.4,2c-3.2,1.3-6,3.2-8.3,5.5c-2.3,2.3-4.2,5.1-5.5,8.3c-1.3,3.2-2,6.7-2,10.4
			c0,2.4,0.3,4.7,0.9,7c0.6,2.2,1.5,4.3,2.6,6.3s2.5,3.7,4.1,5.3c1.6,1.6,3.4,3,5.3,4.1c1.9,1.1,4,2,6.3,2.7c2.3,0.6,4.6,1,7,1
			c1.7,0,3.4-0.2,5.2-0.6c1.8-0.4,3.6-1,5.3-1.7c1.7-0.7,3.3-1.6,4.9-2.7c1.5-1,2.8-2.2,3.9-3.5h0.2v7.7
			C445.7,61.5,442.6,63.2,439.4,64.4z"/>
		<path class="st2" d="M459.5,65.2V2.7h6.4v62.6H459.5z"/>
		<path class="st2" d="M520.6,65.2L513,46.6h-26.4l-7.5,18.7h-6.6L498.6,1h3.1l25.9,64.2H520.6z M499.9,13.5L499.9,13.5l-11.1,27.6
			h22.1L499.9,13.5z"/>
		<path class="st2" d="M534.3,65.2V2.7h6.4v56.9h20v5.7H534.3z"/>
	</g>
</g>
</svg>
