<?xml version="1.0" encoding="utf-8"?>
<!-- Generator: Adobe Illustrator 19.1.0, SVG Export Plug-In . SVG Version: 6.00 Build 0)  -->
<svg version="1.1" id="Capa_1" xmlns="http://www.w3.org/2000/svg" xmlns:xlink="http://www.w3.org/1999/xlink" x="0px" y="0px"
	 viewBox="0 0 245.3 245.3" style="enable-background:new 0 0 245.3 245.3;" xml:space="preserve">
<style type="text/css">
	.st0{fill:#FFFFFF;}
	.st1{fill-rule:evenodd;clip-rule:evenodd;fill:#FFFFFF;}
</style>
<g>
	<path class="st0" d="M122.7,245.3C55,245.3,0,190.3,0,122.7C0,55,55,0,122.7,0c67.6,0,122.7,55,122.7,122.7
		C245.3,190.3,190.3,245.3,122.7,245.3z M122.7,12.1c-61,0-110.6,49.6-110.6,110.6c0,61,49.6,110.6,110.6,110.6
		c61,0,110.6-49.6,110.6-110.6C233.3,61.7,183.6,12.1,122.7,12.1z"/>
	<path class="st1" d="M142.6,201.4c0,0-1-10.4-1.4-13.8c-0.6-4.4-3-17.4-3-17.4s-0.8-3.8-4.1-6.3c-3.9-2.8-8.1-3.3-10.9-3.3l0,2l0-2
		c-2.9,0-7.1,0.4-11,3.1c-3.4,2.3-4.2,6.2-4.2,6.2s-2.7,13-3.3,17.3c-0.5,3.4-1.7,13.8-1.7,13.8s-0.9,8.4,7,15
		c5.2,4.4,11.5,4.5,12.6,4.4c0.9,0,7.3,0.2,12.8-4.2C143.3,209.8,142.6,201.4,142.6,201.4z M119.4,167.4c4.3-1.9,9.3,0.1,11.2,4.4
		c1.9,4.3-0.1,9.3-4.4,11.2c-4.3,1.9-9.3-0.1-11.2-4.4C113.1,174.3,115.1,169.3,119.4,167.4z M126,217.1l-3.6,0l-3.7,0
		c-6.8-0.1-12.2-6.4-12.1-14.1c0.1-7.7,5.8-11.3,12.6-11.2l7.4,0.1c6.8,0.1,12,3.8,11.9,11.5C138.3,211,132.8,217.2,126,217.1z"/>
	<g>
		<g>
			<path class="st0" d="M53.3,110.3v2.4h-1.8v-2.5c0-3.1-1.2-5.4-4.4-5.4c-3.2,0-4.4,2.3-4.4,5.4v15c0,3.1,1.2,5.4,4.4,5.4
				c3.2,0,4.4-2.3,4.4-5.4v-3.4h1.8v3.3c0,4.2-1.8,7.3-6.2,7.3c-4.4,0-6.2-3.1-6.2-7.3v-14.7c0-4.2,1.8-7.3,6.2-7.3
				C51.5,103,53.3,106.1,53.3,110.3z"/>
			<path class="st0" d="M59.2,125.7l-1.4,6.4H56l6.3-28.9H65l6.4,28.9h-1.9l-1.4-6.4H59.2z M59.4,124.1h8.4l-4.2-18.7L59.4,124.1z"
				/>
			<path class="st0" d="M76.1,132.1h-1.7v-28.8h2.5l8.6,24.3v-24.3h1.7v28.8h-2.1l-9-25.7V132.1z"/>
			<path class="st0" d="M92.2,132.1h-1.7v-28.8h2.5l8.6,24.3v-24.3h1.7v28.8h-2.1l-9-25.7V132.1z"/>
			<path class="st0" d="M116.3,116.6v1.7h-7.9v12h9.5v1.7h-11.4v-28.8h11.4v1.7h-9.5v11.6H116.3z"/>
			<path class="st0" d="M127.3,103.3c4.4,0,6.4,2.9,6.4,7.2v14.5c0,4.2-1.9,7.2-6.4,7.2H121v-28.8H127.3z M127.3,130.4
				c3.2,0,4.5-2.2,4.5-5.4v-14.7c0-3.2-1.4-5.4-4.5-5.4h-4.4v25.4H127.3z"/>
			<path class="st0" d="M145.1,118.5v13.5h-1.9v-28.8h1.9v13.5h9v-13.5h1.9v28.8h-1.9v-13.5H145.1z"/>
			<path class="st0" d="M169.1,116.6v1.7h-7.9v12h9.5v1.7h-11.4v-28.8h11.4v1.7h-9.5v11.6H169.1z"/>
			<path class="st0" d="M176.6,125.7l-1.4,6.4h-1.7l6.3-28.9h2.8l6.4,28.9H187l-1.4-6.4H176.6z M176.8,124.1h8.4l-4.2-18.7
				L176.8,124.1z"/>
			<path class="st0" d="M198.1,103.3c4.4,0,6.4,2.9,6.4,7.2v14.5c0,4.2-1.9,7.2-6.4,7.2h-6.3v-28.8H198.1z M198,130.4
				c3.2,0,4.5-2.2,4.5-5.4v-14.7c0-3.2-1.4-5.4-4.5-5.4h-4.4v25.4H198z"/>
		</g>
	</g>
</g>
</svg>
