<?xml version="1.0" encoding="utf-8"?>
<!-- Generator: Adobe Illustrator 19.1.0, SVG Export Plug-In . SVG Version: 6.00 Build 0)  -->
<svg version="1.1" id="Capa_1" xmlns="http://www.w3.org/2000/svg" xmlns:xlink="http://www.w3.org/1999/xlink" x="0px" y="0px"
	 viewBox="0 0 613.8 367.3" style="enable-background:new 0 0 613.8 367.3;" xml:space="preserve">
<style type="text/css">
	.st0{fill:#025F6A;stroke:#025F6A;stroke-miterlimit:10;}
	.st1{fill:#028684;}
	.st2{fill:#025F6A;}
	.st3{fill:#028684;stroke:#FFFFFF;stroke-width:4;stroke-miterlimit:10;}
	.st4{fill:#00A39C;}
	.st5{fill:#FFFFFF;stroke:#FFFFFF;stroke-width:0.75;stroke-miterlimit:10;}
</style>
<g>
	<g>
		<path class="st0" d="M39.9,200.4c-2.9,1.1-6.1,1.7-9.5,1.7c-2.9,0-5.7-0.4-8.3-1.1c-2.6-0.7-5-1.7-7.2-3c-2.2-1.3-4.2-2.8-6-4.6
			c-1.8-1.8-3.3-3.8-4.5-6c-1.2-2.2-2.2-4.5-2.9-7c-0.7-2.5-1-5.1-1-7.8s0.3-5.3,1-7.8c0.7-2.5,1.6-4.9,2.9-7c1.3-2.2,2.8-4.2,4.6-6
			c1.8-1.8,3.8-3.3,6-4.6c2.2-1.3,4.6-2.3,7.2-3c2.6-0.7,5.3-1.1,8.2-1.1c3.5,0,6.8,0.5,9.8,1.6c3,1.1,5.7,2.7,8.2,4.8v7.1h-0.1
			c-1-1.2-2.2-2.3-3.6-3.3c-1.4-1-2.8-1.8-4.4-2.5c-1.6-0.7-3.2-1.3-4.8-1.6c-1.7-0.4-3.3-0.6-5-0.6c-3.4,0-6.6,0.6-9.5,1.8
			c-2.9,1.2-5.4,2.9-7.6,5c-2.1,2.1-3.8,4.7-5,7.6c-1.2,2.9-1.8,6.1-1.8,9.5c0,2.2,0.3,4.3,0.9,6.3c0.6,2,1.4,3.9,2.4,5.7
			c1,1.8,2.3,3.4,3.8,4.9c1.5,1.5,3.1,2.7,4.9,3.8c1.8,1,3.7,1.9,5.7,2.4c2.1,0.6,4.2,0.9,6.4,0.9c1.5,0,3.1-0.2,4.8-0.6
			c1.7-0.4,3.3-0.9,4.8-1.6c1.6-0.7,3.1-1.5,4.4-2.4c1.4-0.9,2.6-2,3.6-3.2h0.1v7C45.6,197.8,42.8,199.3,39.9,200.4z"/>
		<path class="st0" d="M96.4,201.1l-6.9-17H65.4l-6.8,17h-6.1l23.8-58.6h2.8l23.6,58.6H96.4z M77.5,154L77.5,154l-10.1,25.1h20.2
			L77.5,154z"/>
		<path class="st0" d="M134.1,201.1l-17.9-26.1h-1.5v26.1h-5.8v-57.1h10.6c3.2,0,6,0.4,8.4,1.1c2.4,0.7,4.3,1.7,5.8,3.1
			c1.5,1.3,2.7,3,3.4,4.9c0.7,1.9,1.1,4.1,1.1,6.6c0,2.1-0.3,4.1-1,5.9c-0.7,1.8-1.7,3.3-3,4.6c-1.3,1.3-3,2.3-4.9,3.1
			c-1.9,0.8-4.2,1.3-6.8,1.5l18.4,26.4H134.1z M132.2,159.9c0-1.8-0.3-3.3-0.8-4.7c-0.5-1.3-1.4-2.5-2.5-3.4
			c-1.2-0.9-2.6-1.6-4.4-2.1c-1.8-0.5-4-0.7-6.5-0.7h-3.2v21.4h4.7c2.1,0,3.9-0.2,5.5-0.7c1.6-0.5,2.9-1.2,4-2.1
			c1.1-0.9,1.9-2,2.5-3.3C131.9,163,132.2,161.5,132.2,159.9z"/>
		<path class="st0" d="M186.7,201.1l-6.9-17h-24.1l-6.8,17h-6.1l23.8-58.6h2.8l23.6,58.6H186.7z M167.8,154L167.8,154l-10.1,25.1
			h20.2L167.8,154z"/>
		<path class="st0" d="M232.3,200.4c-2.9,1.1-6.1,1.7-9.5,1.7c-2.9,0-5.7-0.4-8.3-1.1c-2.6-0.7-5-1.7-7.2-3c-2.2-1.3-4.2-2.8-6-4.6
			c-1.8-1.8-3.3-3.8-4.5-6c-1.2-2.2-2.2-4.5-2.9-7c-0.7-2.5-1-5.1-1-7.8s0.3-5.3,1-7.8c0.7-2.5,1.6-4.9,2.9-7c1.3-2.2,2.8-4.2,4.6-6
			c1.8-1.8,3.8-3.3,6-4.6c2.2-1.3,4.6-2.3,7.2-3c2.6-0.7,5.3-1.1,8.2-1.1c3.5,0,6.8,0.5,9.8,1.6c3,1.1,5.7,2.7,8.2,4.8v7.1h-0.1
			c-1-1.2-2.2-2.3-3.6-3.3c-1.4-1-2.8-1.8-4.4-2.5c-1.6-0.7-3.2-1.3-4.8-1.6c-1.7-0.4-3.3-0.6-5-0.6c-3.4,0-6.6,0.6-9.5,1.8
			c-2.9,1.2-5.4,2.9-7.6,5c-2.1,2.1-3.8,4.7-5,7.6c-1.2,2.9-1.8,6.1-1.8,9.5c0,2.2,0.3,4.3,0.9,6.3c0.6,2,1.4,3.9,2.4,5.7
			c1,1.8,2.3,3.4,3.8,4.9c1.5,1.5,3.1,2.7,4.9,3.8c1.8,1,3.7,1.9,5.7,2.4c2.1,0.6,4.2,0.9,6.4,0.9c1.5,0,3.1-0.2,4.8-0.6
			c1.7-0.4,3.3-0.9,4.8-1.6c1.6-0.7,3.1-1.5,4.4-2.4c1.4-0.9,2.6-2,3.6-3.2h0.1v7C238,197.8,235.2,199.3,232.3,200.4z"/>
		<path class="st0" d="M265.4,149.3v51.9h-5.9v-51.9h-14.2v-5.2h34.4v5.2H265.4z"/>
		<path class="st0" d="M286.4,201.1v-57.1h28.3v5.2h-22.4v19.2h21.8v5.1h-21.8v22.4h22.4v5.2H286.4z"/>
		<path class="st0" d="M350.7,201.1l-17.9-26.1h-1.5v26.1h-5.8v-57.1H336c3.2,0,6,0.4,8.4,1.1c2.4,0.7,4.3,1.7,5.8,3.1
			c1.5,1.3,2.7,3,3.4,4.9c0.7,1.9,1.1,4.1,1.1,6.6c0,2.1-0.3,4.1-1,5.9c-0.7,1.8-1.7,3.3-3,4.6c-1.3,1.3-3,2.3-4.9,3.1
			c-1.9,0.8-4.2,1.3-6.8,1.5l18.4,26.4H350.7z M348.8,159.9c0-1.8-0.3-3.3-0.8-4.7c-0.5-1.3-1.4-2.5-2.5-3.4
			c-1.2-0.9-2.6-1.6-4.4-2.1c-1.8-0.5-4-0.7-6.5-0.7h-3.2v21.4h4.7c2.1,0,3.9-0.2,5.5-0.7c1.6-0.5,2.9-1.2,4-2.1
			c1.1-0.9,1.9-2,2.5-3.3C348.5,163,348.8,161.5,348.8,159.9z"/>
		<path class="st0" d="M365.1,201.1v-57.1h5.8v57.1H365.1z M370.2,140.1h-4.9l8.1-12.2h6.3L370.2,140.1z"/>
		<path class="st0" d="M414.2,185.5c0,2.2-0.4,4.3-1.2,6.3c-0.8,2-2,3.8-3.5,5.3c-1.5,1.5-3.4,2.7-5.5,3.6c-2.2,0.9-4.6,1.3-7.3,1.3
			c-2.1,0-4.1-0.3-6-0.8s-3.6-1.3-5.1-2.3c-1.5-1-2.9-2.2-4-3.7c-1.2-1.4-2.1-3-2.8-4.8l3.8-3.3c0.6,1.5,1.4,2.9,2.4,4.1
			c1,1.2,2.1,2.2,3.3,3.1c1.2,0.8,2.6,1.5,4,1.9s3,0.7,4.5,0.7c1.8,0,3.4-0.3,4.8-0.9c1.4-0.6,2.6-1.4,3.6-2.4s1.8-2.2,2.3-3.5
			c0.5-1.3,0.8-2.7,0.8-4.2c0-1.3-0.2-2.4-0.5-3.5c-0.3-1-0.9-2-1.6-3c-0.7-0.9-1.7-1.8-2.9-2.6c-1.2-0.8-2.6-1.6-4.3-2.4l-4.3-2
			c-1.8-0.8-3.4-1.7-4.9-2.6c-1.5-0.9-2.8-2-3.9-3.1c-1.1-1.2-1.9-2.5-2.5-3.9c-0.6-1.5-0.9-3.1-0.9-5c0-2,0.4-3.9,1.1-5.7
			c0.8-1.8,1.8-3.3,3.2-4.6c1.3-1.3,2.9-2.3,4.8-3s3.8-1.1,6-1.1c1.7,0,3.3,0.2,4.8,0.6s2.9,0.9,4.2,1.6c1.3,0.7,2.5,1.5,3.5,2.4
			c1.1,0.9,2,2,2.8,3.2l-3.5,3.8c-0.7-0.9-1.5-1.8-2.3-2.5c-0.8-0.8-1.7-1.4-2.7-2c-1-0.6-2-1-3.1-1.3c-1.1-0.3-2.3-0.5-3.5-0.5
			c-1.4,0-2.6,0.2-3.8,0.6c-1.2,0.4-2.2,1-3,1.7c-0.8,0.7-1.5,1.6-2,2.7c-0.5,1.1-0.7,2.3-0.7,3.6c0,1.3,0.2,2.4,0.6,3.3
			c0.4,1,1,1.8,1.8,2.7c0.8,0.8,1.8,1.6,3.1,2.3c1.2,0.7,2.7,1.5,4.5,2.3l4.1,1.9c2.1,0.9,3.9,1.9,5.4,3c1.5,1.1,2.7,2.3,3.7,3.6
			c1,1.3,1.7,2.7,2.1,4.2C414,181.9,414.2,183.6,414.2,185.5z"/>
		<path class="st0" d="M438.5,149.3v51.9h-5.9v-51.9h-14.2v-5.2h34.4v5.2H438.5z"/>
		<path class="st0" d="M459.5,201.1v-57.1h5.8v57.1H459.5z"/>
		<path class="st0" d="M513.1,200.4c-2.9,1.1-6.1,1.7-9.5,1.7c-2.9,0-5.7-0.4-8.3-1.1c-2.6-0.7-5-1.7-7.2-3c-2.2-1.3-4.2-2.8-6-4.6
			s-3.3-3.8-4.5-6c-1.2-2.2-2.2-4.5-2.9-7c-0.7-2.5-1-5.1-1-7.8s0.3-5.3,1-7.8c0.7-2.5,1.6-4.9,2.9-7c1.3-2.2,2.8-4.2,4.6-6
			c1.8-1.8,3.8-3.3,6-4.6c2.2-1.3,4.6-2.3,7.2-3c2.6-0.7,5.3-1.1,8.2-1.1c3.5,0,6.8,0.5,9.8,1.6c3,1.1,5.7,2.7,8.2,4.8v7.1h-0.1
			c-1-1.2-2.2-2.3-3.6-3.3c-1.4-1-2.8-1.8-4.4-2.5c-1.6-0.7-3.2-1.3-4.8-1.6c-1.7-0.4-3.3-0.6-5-0.6c-3.4,0-6.6,0.6-9.5,1.8
			c-2.9,1.2-5.4,2.9-7.6,5c-2.1,2.1-3.8,4.7-5,7.6c-1.2,2.9-1.8,6.1-1.8,9.5c0,2.2,0.3,4.3,0.9,6.3c0.6,2,1.4,3.9,2.4,5.7
			c1,1.8,2.3,3.4,3.8,4.9c1.5,1.5,3.1,2.7,4.9,3.8c1.8,1,3.7,1.9,5.7,2.4c2.1,0.6,4.2,0.9,6.4,0.9c1.5,0,3.1-0.2,4.8-0.6
			c1.7-0.4,3.3-0.9,4.8-1.6c1.6-0.7,3.1-1.5,4.4-2.4c1.4-0.9,2.6-2,3.6-3.2h0.1v7C518.9,197.8,516.1,199.3,513.1,200.4z"/>
		<path class="st0" d="M569.6,201.1l-6.9-17h-24.1l-6.8,17h-6.1l23.8-58.6h2.8l23.6,58.6H569.6z M550.8,154L550.8,154l-10.1,25.1
			h20.2L550.8,154z"/>
		<path class="st0" d="M613.3,185.5c0,2.2-0.4,4.3-1.2,6.3c-0.8,2-2,3.8-3.5,5.3c-1.5,1.5-3.4,2.7-5.5,3.6c-2.2,0.9-4.6,1.3-7.3,1.3
			c-2.1,0-4.1-0.3-6-0.8s-3.6-1.3-5.1-2.3c-1.5-1-2.9-2.2-4-3.7c-1.2-1.4-2.1-3-2.8-4.8l3.8-3.3c0.6,1.5,1.4,2.9,2.4,4.1
			c1,1.2,2.1,2.2,3.3,3.1c1.2,0.8,2.6,1.5,4,1.9s3,0.7,4.5,0.7c1.8,0,3.4-0.3,4.8-0.9c1.4-0.6,2.6-1.4,3.6-2.4s1.8-2.2,2.3-3.5
			c0.5-1.3,0.8-2.7,0.8-4.2c0-1.3-0.2-2.4-0.5-3.5c-0.3-1-0.9-2-1.6-3c-0.7-0.9-1.7-1.8-2.9-2.6c-1.2-0.8-2.6-1.6-4.3-2.4l-4.3-2
			c-1.8-0.8-3.4-1.7-4.9-2.6c-1.5-0.9-2.8-2-3.9-3.1c-1.1-1.2-1.9-2.5-2.5-3.9c-0.6-1.5-0.9-3.1-0.9-5c0-2,0.4-3.9,1.1-5.7
			c0.8-1.8,1.8-3.3,3.2-4.6c1.3-1.3,2.9-2.3,4.8-3c1.8-0.7,3.8-1.1,6-1.1c1.7,0,3.3,0.2,4.8,0.6c1.5,0.4,2.9,0.9,4.2,1.6
			c1.3,0.7,2.5,1.5,3.5,2.4c1.1,0.9,2,2,2.8,3.2l-3.5,3.8c-0.7-0.9-1.5-1.8-2.3-2.5c-0.8-0.8-1.7-1.4-2.7-2c-1-0.6-2-1-3.1-1.3
			c-1.1-0.3-2.3-0.5-3.5-0.5c-1.4,0-2.6,0.2-3.8,0.6c-1.2,0.4-2.2,1-3,1.7c-0.8,0.7-1.5,1.6-2,2.7c-0.5,1.1-0.7,2.3-0.7,3.6
			c0,1.3,0.2,2.4,0.6,3.3s1,1.8,1.8,2.7c0.8,0.8,1.8,1.6,3.1,2.3c1.2,0.7,2.7,1.5,4.5,2.3l4.1,1.9c2.1,0.9,3.9,1.9,5.4,3
			c1.5,1.1,2.7,2.3,3.7,3.6c1,1.3,1.7,2.7,2.1,4.2C613.1,181.9,613.3,183.6,613.3,185.5z"/>
	</g>
	<g>
		<g>
			<path class="st1" d="M521.2,288.2c0,0,20.1,8.4,46.2,27.9l-39.6,11.6l12.7,39.6l-58.2-22.7l-55.2-19L521.2,288.2z"/>
			<path class="st2" d="M427.1,325.6v-18.9c0,0,47.2-4.8,86.8,24.4C513.9,331,451,322.2,427.1,325.6z"/>
			<path class="st1" d="M93.4,285.3c0,0-20.1,8.4-46.2,27.9l39.6,11.6l-12.7,39.6l58.2-22.7l55.2-19L93.4,285.3z"/>
			<path class="st2" d="M187.6,322.8v-16.5c0,0-47.4-9.9-84.8,24.8C102.8,331,166.1,312.9,187.6,322.8z"/>
			<path class="st3" d="M471,228.8"/>
			<path class="st4" d="M90.4,269.9c0,0,147.2-92.5,437.7,0L513.9,331c0,0-272.9-64.4-411.1,0L90.4,269.9z"/>
		</g>
		<g>
			<path class="st5" d="M188.2,294.8l-6.1-9.9l-15.1,2.5l-2.5,11.4l-3.8,0.6l8.8-39.1l1.8-0.3l20.9,34.2L188.2,294.8z M171.5,267.3
				L171.5,267.3l-3.7,16.8l12.6-2.1L171.5,267.3z"/>
			<path class="st5" d="M220.3,272.7c0.2,1.6,0.2,3.3,0,4.8c-0.2,1.6-0.6,3.1-1.2,4.5c-0.6,1.4-1.4,2.7-2.3,4
				c-0.9,1.2-2,2.3-3.3,3.2c-1.3,0.9-2.7,1.7-4.2,2.3s-3.2,1-5,1.2l-8.5,1l-4.2-35.9l8.5-1c1.8-0.2,3.5-0.2,5.1,0
				c1.6,0.2,3.2,0.7,4.6,1.3c1.4,0.6,2.8,1.4,4,2.3c1.2,1,2.3,2.1,3.2,3.3c0.9,1.2,1.7,2.6,2.3,4.1
				C219.7,269.4,220.1,271,220.3,272.7z M216.5,273.1c-0.2-2-0.8-3.8-1.6-5.5c-0.8-1.7-2-3.1-3.4-4.3s-3.1-2.1-5.1-2.6
				c-2-0.6-4.2-0.7-6.7-0.4l-4.2,0.5l3.4,29.4l4.2-0.5c2.5-0.3,4.6-0.9,6.4-2c1.8-1,3.2-2.3,4.3-3.7c1.1-1.5,1.9-3.2,2.3-5
				C216.6,277,216.7,275.1,216.5,273.1z"/>
			<path class="st5" d="M257.2,289.1l-28.1-28l0,0l1.9,28.8l-3.7,0.2l-2.5-36.5l1.8-0.1l28.1,27.9l0,0l-2-29.3l3.7-0.2l2.5,37
				L257.2,289.1z"/>
			<path class="st5" d="M281.2,284.1l20.2-0.2l0,3.3l-26.6,0.2l20.8-33.1l-18.8,0.2l0-3.3l25.2-0.2L281.2,284.1z"/>
			<path class="st5" d="M319,272.4l-0.4,15.2l-3.7-0.1l0.4-15.2l-11.8-21.3l4.3,0.1l9.5,17.7l0.1,0l10.2-17.2l4.2,0.1L319,272.4z"/>
			<path class="st5" d="M364.1,290.8l-24.2-31.4l0,0l-1.8,28.8l-3.7-0.2l2.3-36.5l1.8,0.1l24.2,31.3l0,0l1.8-29.3l3.7,0.2l-2.3,37
				L364.1,290.8z"/>
			<path class="st5" d="M373,290.7l3.5-36l17.8,1.7l-0.3,3.3l-14.2-1.4l-1.2,12.1l13.8,1.3l-0.3,3.2l-13.8-1.3l-1.4,14.2l14.2,1.4
				l-0.3,3.3L373,290.7z"/>
			<path class="st5" d="M413.3,295.2l-9.2-17.8l-0.9-0.1l-2,16.4l-3.7-0.5l4.5-35.9l6.7,0.8c2,0.3,3.8,0.7,5.2,1.3
				c1.4,0.6,2.6,1.4,3.4,2.4c0.9,1,1.4,2.1,1.8,3.3c0.3,1.3,0.4,2.7,0.2,4.2c-0.2,1.3-0.5,2.6-1.1,3.6c-0.6,1.1-1.3,2-2.2,2.7
				c-0.9,0.7-2,1.2-3.3,1.6c-1.3,0.4-2.7,0.5-4.4,0.4l9.5,18L413.3,295.2z M415.3,269.1c0.1-1.1,0.1-2.1-0.1-3
				c-0.2-0.9-0.7-1.7-1.3-2.3c-0.7-0.7-1.5-1.2-2.6-1.7c-1.1-0.4-2.5-0.8-4.1-1l-2-0.2l-1.7,13.5l2.9,0.4c1.3,0.2,2.5,0.2,3.5,0
				c1-0.2,1.9-0.5,2.7-1c0.8-0.5,1.4-1.1,1.8-1.9C414.9,271.1,415.2,270.1,415.3,269.1z"/>
			<path class="st5" d="M457.7,287.3c-0.3,1.1-0.6,2.1-1.1,3.1c-0.4,1-1,1.9-1.6,2.7c-0.6,0.9-1.4,1.7-2.3,2.4
				c-2,1.7-4.2,2.9-6.7,3.5c-2.5,0.7-5.1,0.8-7.9,0.3c-1.7-0.3-3.3-0.8-4.8-1.5c-1.5-0.7-2.9-1.6-4.1-2.6c-1.2-1-2.3-2.2-3.2-3.5
				s-1.6-2.7-2.2-4.2c-0.6-1.5-0.9-3-1.1-4.6s-0.1-3.2,0.1-4.9c0.3-1.7,0.7-3.3,1.4-4.9c0.7-1.5,1.5-2.9,2.5-4.2
				c1-1.3,2.1-2.4,3.4-3.3c1.3-1,2.7-1.7,4.2-2.3c1.5-0.6,3.1-1,4.7-1.2c1.7-0.2,3.4-0.1,5.1,0.1c1.7,0.3,3.3,0.7,4.8,1.4
				c1.5,0.6,2.8,1.4,4.1,2.4c1.2,0.9,2.3,2,3.3,3.3c1,1.2,1.8,2.6,2.4,4.1l-3.4,1.4c-1.1-2.5-2.7-4.5-4.7-6.1c-2-1.6-4.4-2.6-7.2-3
				c-1.3-0.2-2.7-0.2-4-0.1c-1.3,0.2-2.5,0.5-3.7,1c-1.2,0.5-2.3,1.2-3.3,1.9c-1,0.8-1.9,1.7-2.7,2.7c-0.8,1-1.5,2.1-2,3.4
				c-0.5,1.2-0.9,2.5-1.1,3.8c-0.2,1.4-0.3,2.7-0.1,4.1c0.1,1.3,0.4,2.6,0.9,3.8c0.4,1.2,1,2.4,1.8,3.4c0.7,1.1,1.6,2,2.6,2.9
				c1,0.8,2.1,1.5,3.3,2.1c1.2,0.6,2.5,1,3.9,1.2c1.7,0.3,3.4,0.3,5.1-0.1c1.7-0.3,3.2-0.9,4.5-1.7c1.4-0.8,2.5-1.9,3.5-3.3
				c1-1.3,1.6-2.9,2-4.7l-11.8-1.9l0.5-3.2l15.7,2.5C458.2,285.1,458,286.2,457.7,287.3z"/>
			<path class="st5" d="M474.6,289.8l-2.9,14.9l-3.7-0.7l2.9-14.9l-8.1-22.9l4.2,0.8l6.5,19l0.1,0l12.9-15.3l4.1,0.8L474.6,289.8z"
				/>
		</g>
	</g>
	<g>
		<polygon class="st2" points="315.2,0 333.5,37.1 374.5,43.1 344.9,72 351.9,112.8 315.2,93.5 278.6,112.8 285.6,72 255.9,43.1 
			296.9,37.1 		"/>
		<polygon class="st2" points="180.1,40 190.2,60.5 212.9,63.8 196.5,79.7 200.3,102.2 180.1,91.6 159.9,102.2 163.7,79.7 
			147.4,63.8 170,60.5 		"/>
		<polygon class="st2" points="59.7,40 69.9,60.5 92.5,63.8 76.1,79.7 80,102.2 59.7,91.6 39.5,102.2 43.4,79.7 27,63.8 49.6,60.5 
					"/>
		<polygon class="st2" points="440.4,40 450.6,60.5 473.2,63.8 456.8,79.7 460.7,102.2 440.4,91.6 420.2,102.2 424.1,79.7 
			407.7,63.8 430.3,60.5 		"/>
		<polygon class="st2" points="554.9,40 565,60.5 587.6,63.8 571.3,79.7 575.1,102.2 554.9,91.6 534.7,102.2 538.5,79.7 522.1,63.8 
			544.8,60.5 		"/>
	</g>
</g>
</svg>
