<?xml version="1.0" encoding="utf-8"?>
<!-- Generator: Adobe Illustrator 19.1.0, SVG Export Plug-In . SVG Version: 6.00 Build 0)  -->
<svg version="1.1" id="Capa_1" xmlns="http://www.w3.org/2000/svg" xmlns:xlink="http://www.w3.org/1999/xlink" x="0px" y="0px"
	 viewBox="0 0 1126.7 1080.2" style="enable-background:new 0 0 1126.7 1080.2;" xml:space="preserve">
<style type="text/css">
	.st0{fill:#00A39C;}
	.st1{fill:#007672;}
	.st2{fill:#028684;}
	.st3{fill:#025F6A;}
	.st4{fill:none;}
</style>
<g>
	<polygon class="st0" points="3.4,1080 3.5,954.1 128.5,954.1 40.1,1080 	"/>
	<polygon class="st1" points="40.1,1080 128.5,954.1 228.2,1080 	"/>
	<polygon class="st0" points="228.2,1080 128.5,954.1 254.1,799.6 382.3,954.2 288.1,1080.1 	"/>
	<polygon class="st2" points="288.1,1080.1 382.3,954.2 484.9,1080.1 	"/>
	<polygon class="st3" points="382.3,954.2 502.2,799.6 254.1,799.6 	"/>
	<polygon class="st3" points="382.3,954.2 627.5,954.3 530.5,1080.1 484.9,1080.1 	"/>
	<polygon class="st2" points="627.5,954.3 502.2,799.6 382.3,954.2 	"/>
	<polygon class="st1" points="128.5,954.1 3.6,799.5 254.1,799.6 	"/>
	<polygon class="st2" points="128.5,954.1 3.6,799.5 3.5,954.1 	"/>
	<polygon class="st2" points="530.5,1080.1 627.5,954.3 727.2,1080.2 	"/>
	<polygon class="st3" points="627.5,954.3 756.2,799.7 502.2,799.6 	"/>
	<polygon class="st1" points="627.5,954.3 756.2,799.7 981,1080.2 727.2,1080.2 	"/>
	<polygon class="st0" points="877.4,957.1 1126.7,634.1 626.3,634 	"/>
	<polygon class="st0" points="877.4,957.1 981,1080.2 1032.4,1080.2 1121.6,957.1 	"/>
	<polygon class="st1" points="876.5,634.1 750.4,470.6 1002.3,470.7 	"/>
	<polygon class="st3" points="876.5,634.1 750.4,470.6 626.3,634 	"/>
	<polygon class="st1" points="3.6,799.5 128.7,633.9 254.1,799.6 	"/>
	<polygon class="st0" points="128.7,633.9 254.1,799.6 378.2,634 	"/>
	<polygon class="st2" points="254.1,799.6 378.2,634 626.3,634 502.2,799.6 	"/>
	<polygon class="st3" points="502.2,799.6 756.2,799.7 626.3,634 	"/>
	<polygon class="st0" points="3.6,799.5 128.7,633.9 3.7,633.9 	"/>
	<polygon class="st0" points="254.3,472.7 378.2,634 500.1,471 374.5,320.9 	"/>
	<polygon class="st2" points="254.3,472.7 128.7,633.9 378.2,634 	"/>
	<polygon class="st2" points="128.7,633.9 3.8,472.7 3.7,633.9 	"/>
	<polygon class="st1" points="128.7,633.9 3.8,472.7 254.3,472.7 	"/>
	<polygon class="st2" points="378.2,634 500.1,471 626.3,634 	"/>
	<polygon class="st1" points="500.1,471 374.5,320.9 872.6,321 750.4,470.6 	"/>
	<polygon class="st2" points="872.6,321 1123,321.1 1002.3,470.7 	"/>
	<polygon class="st3" points="254.3,472.7 125.2,320.8 374.5,320.9 	"/>
	<polygon class="st0" points="254.3,472.7 3.8,472.7 0,320.8 125.2,320.8 	"/>
	<line class="st4" x1="500.1" y1="471" x2="626.3" y2="634"/>
	<polygon class="st0" points="500.1,470.6 626.2,634 750.3,470.6 	"/>
	<polygon class="st1" points="877.4,957.1 997.8,799.7 1121.6,957.1 	"/>
	<polygon class="st2" points="0,320.8 0.1,159.8 125.2,320.8 	"/>
	<polygon class="st0" points="125.2,320.8 374.7,0.1 0.2,0 0.1,159.8 	"/>
	<polygon class="st2" points="125.2,320.8 250.6,159.7 374.5,320.9 	"/>
	<polygon class="st1" points="374.5,320.9 498.7,160 250.6,159.7 	"/>
	<polygon class="st3" points="498.7,160 631,0.2 374.7,0.1 250.6,159.7 	"/>
	<polygon class="st2" points="374.5,320.9 498.7,160 623.5,320.9 	"/>
	<polygon class="st1" points="498.7,160 752.7,159.8 623.5,320.9 	"/>
	<polygon class="st2" points="498.7,160 631,0.2 752.7,159.8 	"/>
	<polygon class="st2" points="752.7,159.8 872.6,321 623.5,320.9 	"/>
	<polygon class="st1" points="752.7,159.8 998.6,160.1 1123,321.1 872.6,321 	"/>
	<polygon class="st3" points="631,0.2 875.7,0.2 752.7,159.8 	"/>
	<polygon class="st2" points="752.7,159.8 875.7,0.2 998.6,160.1 	"/>
	<polygon class="st3" points="875.7,0.2 1123.2,0.3 998.6,160.1 	"/>
	<polygon class="st3" points="750.3,470.6 872.6,321 1002.3,470.7 	"/>
	<polygon class="st3" points="1126.7,634.1 1002.3,470.7 876.5,634.1 	"/>
</g>
</svg>
