<?xml version="1.0" encoding="utf-8"?>
<!-- Generator: Adobe Illustrator 19.1.0, SVG Export Plug-In . SVG Version: 6.00 Build 0)  -->
<svg version="1.1" id="Capa_1" xmlns="http://www.w3.org/2000/svg" xmlns:xlink="http://www.w3.org/1999/xlink" x="0px" y="0px"
	 viewBox="0 0 321.3 168.2" style="enable-background:new 0 0 321.3 168.2;" xml:space="preserve">
<style type="text/css">
	.st0{fill:#00A39C;}
	.st1{fill:#007672;}
	.st2{fill:#028684;}
	.st3{fill:#025F6A;}
	.st4{fill:none;}
</style>
<g>
	<g>
		<polygon class="st0" points="0,0.5 18.8,0.5 18.8,19.2 0,6 		"/>
		<polygon class="st1" points="0,6 18.8,19.2 0,34.1 		"/>
		<polygon class="st0" points="0,34.1 18.8,19.2 41.9,37.9 18.8,57.1 0,43 		"/>
		<polygon class="st2" points="0,43 18.8,57.1 0,72.4 		"/>
		<polygon class="st3" points="18.8,57.1 41.9,75 41.9,37.9 		"/>
		<polygon class="st3" points="18.8,57.1 18.8,93.7 0,79.2 0,72.4 		"/>
		<polygon class="st2" points="18.8,93.7 41.9,75 18.8,57.1 		"/>
		<polygon class="st1" points="18.8,19.2 41.9,0.6 41.9,37.9 		"/>
		<polygon class="st2" points="18.8,19.2 41.9,0.6 18.8,0.5 		"/>
		<polygon class="st2" points="0,79.2 18.8,93.7 0,108.6 		"/>
		<polygon class="st3" points="18.8,93.7 41.9,112.9 41.9,75 		"/>
		<polygon class="st1" points="18.8,93.7 41.9,112.9 0,146.4 0,108.6 		"/>
		<polygon class="st0" points="18.4,131 66.6,168.2 66.6,93.5 		"/>
		<polygon class="st0" points="18.4,131 0,146.4 0,154.1 18.4,167.4 		"/>
		<polygon class="st1" points="66.6,130.8 91,112 91,149.6 		"/>
		<polygon class="st3" points="66.6,130.8 91,112 66.6,93.5 		"/>
		<polygon class="st1" points="41.9,0.6 66.6,19.2 41.9,37.9 		"/>
		<polygon class="st0" points="66.6,19.2 41.9,37.9 66.6,56.5 		"/>
		<polygon class="st2" points="41.9,37.9 66.6,56.5 66.6,93.5 41.9,75 		"/>
		<polygon class="st3" points="41.9,75 41.9,112.9 66.6,93.5 		"/>
		<polygon class="st0" points="41.9,0.6 66.6,19.2 66.6,0.6 		"/>
		<polygon class="st0" points="90.7,38 66.6,56.5 90.9,74.7 113.3,55.9 		"/>
		<polygon class="st2" points="90.7,38 66.6,19.2 66.6,56.5 		"/>
		<polygon class="st2" points="66.6,19.2 90.7,0.6 66.6,0.6 		"/>
		<polygon class="st1" points="66.6,19.2 90.7,0.6 90.7,38 		"/>
		<polygon class="st2" points="66.6,56.5 90.9,74.7 66.6,93.5 		"/>
		<polygon class="st1" points="90.9,74.7 113.3,55.9 113.3,130.2 91,112 		"/>
		<polygon class="st2" points="113.3,130.2 113.3,167.6 91,149.6 		"/>
		<polygon class="st3" points="90.7,38 113.3,18.7 113.3,55.9 		"/>
		<polygon class="st0" points="90.7,38 90.7,0.6 113.3,0 113.3,18.7 		"/>
		<line class="st4" x1="90.9" y1="74.7" x2="66.6" y2="93.5"/>
		<polygon class="st0" points="91,74.7 66.6,93.5 91,112 		"/>
		<polygon class="st1" points="18.4,131 41.9,148.9 18.4,167.4 		"/>
		<polygon class="st2" points="113.3,0 137.4,0 113.3,18.7 		"/>
		<polygon class="st0" points="113.3,18.7 161.2,55.9 161.2,0.1 137.4,0 		"/>
		<polygon class="st2" points="113.3,18.7 137.4,37.4 113.3,55.9 		"/>
		<polygon class="st1" points="113.3,55.9 137.3,74.4 137.4,37.4 		"/>
		<polygon class="st3" points="137.3,74.4 161.2,94.2 161.2,55.9 137.4,37.4 		"/>
		<polygon class="st2" points="113.3,55.9 137.3,74.4 113.3,93.1 		"/>
		<polygon class="st1" points="137.3,74.4 137.4,112.4 113.3,93.1 		"/>
		<polygon class="st2" points="137.3,74.4 161.2,94.2 137.4,112.4 		"/>
		<polygon class="st2" points="137.4,112.4 113.3,130.2 113.3,93.1 		"/>
		<polygon class="st1" points="137.4,112.4 137.3,149 113.3,167.6 113.3,130.2 		"/>
		<polygon class="st3" points="161.2,94.2 161.2,130.7 137.4,112.4 		"/>
		<polygon class="st2" points="137.4,112.4 161.2,130.7 137.3,149 		"/>
		<polygon class="st3" points="161.2,130.7 161.2,167.6 137.3,149 		"/>
		<polygon class="st3" points="91,112 113.3,130.2 91,149.6 		"/>
		<polygon class="st3" points="66.6,168.2 91,149.6 66.6,130.8 		"/>
	</g>
	<g>
		<polygon class="st0" points="321.2,0.5 302.5,0.5 302.5,19.2 321.2,6 		"/>
		<polygon class="st1" points="321.2,6 302.5,19.2 321.2,34.1 		"/>
		<polygon class="st0" points="321.2,34.1 302.5,19.2 279.4,37.9 302.5,57.1 321.3,43 		"/>
		<polygon class="st2" points="321.3,43 302.5,57.1 321.3,72.4 		"/>
		<polygon class="st3" points="302.5,57.1 279.4,74.9 279.4,37.9 		"/>
		<polygon class="st3" points="302.5,57.1 302.5,93.7 321.3,79.2 321.3,72.4 		"/>
		<polygon class="st2" points="302.5,93.7 279.4,74.9 302.5,57.1 		"/>
		<polygon class="st1" points="302.5,19.2 279.4,0.5 279.4,37.9 		"/>
		<polygon class="st2" points="302.5,19.2 279.4,0.5 302.5,0.5 		"/>
		<polygon class="st2" points="321.3,79.2 302.5,93.7 321.3,108.5 		"/>
		<polygon class="st3" points="302.5,93.7 279.4,112.9 279.4,74.9 		"/>
		<polygon class="st1" points="302.5,93.7 279.4,112.9 321.3,146.4 321.3,108.5 		"/>
		<polygon class="st0" points="302.9,130.9 254.7,168.2 254.7,93.5 		"/>
		<polygon class="st0" points="302.9,130.9 321.3,146.4 321.3,154.1 302.9,167.4 		"/>
		<polygon class="st1" points="254.7,130.8 230.3,112 230.3,149.6 		"/>
		<polygon class="st3" points="254.7,130.8 230.3,112 254.7,93.5 		"/>
		<polygon class="st1" points="279.4,0.5 254.7,19.2 279.4,37.9 		"/>
		<polygon class="st0" points="254.7,19.2 279.4,37.9 254.7,56.4 		"/>
		<polygon class="st2" points="279.4,37.9 254.7,56.4 254.7,93.5 279.4,74.9 		"/>
		<polygon class="st3" points="279.4,74.9 279.4,112.9 254.7,93.5 		"/>
		<polygon class="st0" points="279.4,0.5 254.7,19.2 254.7,0.6 		"/>
		<polygon class="st0" points="230.6,37.9 254.7,56.4 230.4,74.6 208,55.9 		"/>
		<polygon class="st2" points="230.6,37.9 254.7,19.2 254.7,56.4 		"/>
		<polygon class="st2" points="254.7,19.2 230.6,0.6 254.7,0.6 		"/>
		<polygon class="st1" points="254.7,19.2 230.6,0.6 230.6,37.9 		"/>
		<polygon class="st2" points="254.7,56.4 230.4,74.6 254.7,93.5 		"/>
		<polygon class="st1" points="230.4,74.6 208,55.9 208,130.2 230.3,112 		"/>
		<polygon class="st2" points="208,130.2 208,167.6 230.3,149.6 		"/>
		<polygon class="st3" points="230.6,37.9 207.9,18.7 208,55.9 		"/>
		<polygon class="st0" points="230.6,37.9 230.6,0.6 207.9,0 207.9,18.7 		"/>
		<line class="st4" x1="230.4" y1="74.6" x2="254.7" y2="93.5"/>
		<polygon class="st0" points="230.3,74.6 254.7,93.4 230.3,112 		"/>
		<polygon class="st1" points="302.9,130.9 279.4,148.9 302.9,167.4 		"/>
		<polygon class="st2" points="207.9,0 183.9,0 207.9,18.7 		"/>
		<polygon class="st0" points="207.9,18.7 160.1,55.9 160.1,0 183.9,0 		"/>
		<polygon class="st2" points="207.9,18.7 183.9,37.4 208,55.9 		"/>
		<polygon class="st1" points="208,55.9 183.9,74.4 183.9,37.4 		"/>
		<polygon class="st3" points="183.9,74.4 160.1,94.2 160.1,55.9 183.9,37.4 		"/>
		<polygon class="st2" points="208,55.9 183.9,74.4 208,93.1 		"/>
		<polygon class="st1" points="183.9,74.4 183.9,112.3 208,93.1 		"/>
		<polygon class="st2" points="183.9,74.4 160.1,94.2 183.9,112.3 		"/>
		<polygon class="st2" points="183.9,112.3 208,130.2 208,93.1 		"/>
		<polygon class="st1" points="183.9,112.3 184,149 208,167.6 208,130.2 		"/>
		<polygon class="st3" points="160.1,94.2 160.1,130.7 183.9,112.3 		"/>
		<polygon class="st2" points="183.9,112.3 160.1,130.7 184,149 		"/>
		<polygon class="st3" points="160.1,130.7 160.1,167.6 184,149 		"/>
		<polygon class="st3" points="230.3,112 208,130.2 230.3,149.6 		"/>
		<polygon class="st3" points="254.7,168.2 230.3,149.6 254.7,130.8 		"/>
	</g>
</g>
</svg>
