<?xml version="1.0" encoding="utf-8"?>
<!-- Generator: Adobe Illustrator 19.1.0, SVG Export Plug-In . SVG Version: 6.00 Build 0)  -->
<svg version="1.1" id="Capa_1" xmlns="http://www.w3.org/2000/svg" xmlns:xlink="http://www.w3.org/1999/xlink" x="0px" y="0px"
	 viewBox="-13 285.7 568.9 260.2" style="enable-background:new -13 285.7 568.9 260.2;" xml:space="preserve">
<style type="text/css">
	.st0{fill:url(#SVGID_1_);stroke:#FFFFFF;stroke-width:1.2;stroke-miterlimit:10;}
	.st1{fill:url(#SVGID_2_);stroke:#FFFFFF;stroke-width:1.2;stroke-miterlimit:10;}
	.st2{fill:url(#SVGID_3_);stroke:#FFFFFF;stroke-width:1.2;stroke-miterlimit:10;}
	.st3{fill:url(#SVGID_4_);stroke:#FFFFFF;stroke-width:1.2;stroke-miterlimit:10;}
	.st4{fill:url(#SVGID_5_);stroke:#FFFFFF;stroke-width:1.2;stroke-miterlimit:10;}
	.st5{fill:url(#SVGID_6_);stroke:#FFFFFF;stroke-width:1.2;stroke-miterlimit:10;}
	.st6{fill:url(#SVGID_7_);stroke:#FFFFFF;stroke-width:1.2;stroke-miterlimit:10;}
	.st7{fill:url(#SVGID_8_);stroke:#FFFFFF;stroke-width:1.2;stroke-miterlimit:10;}
	.st8{fill:url(#SVGID_9_);stroke:#FFFFFF;stroke-width:1.2;stroke-miterlimit:10;}
	.st9{fill:url(#SVGID_10_);stroke:#FFFFFF;stroke-width:1.2;stroke-miterlimit:10;}
	.st10{fill:url(#SVGID_11_);stroke:#FFFFFF;stroke-width:1.2;stroke-miterlimit:10;}
	.st11{fill:#025F6A;}
	.st12{opacity:0.9;}
	.st13{fill:#059999;}
	.st14{fill:none;stroke:#059999;stroke-width:4;stroke-miterlimit:10;}
	.st15{opacity:0.6;}
	.st16{fill:#007672;}
</style>
<g>
	<g>
		<g>
			
				<linearGradient id="SVGID_1_" gradientUnits="userSpaceOnUse" x1="310.2333" y1="499.08" x2="355.1333" y2="499.08" gradientTransform="matrix(-1 0 0 -1 496.9333 843.47)">
				<stop  offset="0" style="stop-color:#07999D"/>
				<stop  offset="0.1137" style="stop-color:#00959A"/>
				<stop  offset="0.2685" style="stop-color:#008B91"/>
				<stop  offset="0.447" style="stop-color:#007A83"/>
				<stop  offset="0.643" style="stop-color:#00636F"/>
				<stop  offset="0.851" style="stop-color:#004754"/>
				<stop  offset="1" style="stop-color:#00303C"/>
			</linearGradient>
			<polygon class="st0" points="186.7,335.7 153.9,335.7 141.8,353.1 			"/>
			
				<linearGradient id="SVGID_2_" gradientUnits="userSpaceOnUse" x1="340.6333" y1="501.28" x2="384.1333" y2="501.28" gradientTransform="matrix(-1 0 0 -1 496.9333 843.47)">
				<stop  offset="3.141360e-002" style="stop-color:#7FC9C9"/>
				<stop  offset="0.4149" style="stop-color:#7DC7C8"/>
				<stop  offset="0.553" style="stop-color:#75C0C2"/>
				<stop  offset="0.6515" style="stop-color:#69B4B8"/>
				<stop  offset="0.7311" style="stop-color:#57A4AB"/>
				<stop  offset="0.7993" style="stop-color:#3F909A"/>
				<stop  offset="0.8597" style="stop-color:#227A85"/>
				<stop  offset="0.9144" style="stop-color:#00606D"/>
				<stop  offset="0.9629" style="stop-color:#004654"/>
				<stop  offset="1" style="stop-color:#00303C"/>
			</linearGradient>
			<polygon class="st1" points="156.3,332.2 114.3,315.4 112.8,351.4 130.7,369 			"/>
			
				<linearGradient id="SVGID_3_" gradientUnits="userSpaceOnUse" x1="357.9305" y1="455.3852" x2="407.9354" y2="484.2556" gradientTransform="matrix(-1 0 0 -1 496.9333 843.47)">
				<stop  offset="0" style="stop-color:#07999D"/>
				<stop  offset="0.2575" style="stop-color:#03979C"/>
				<stop  offset="0.4089" style="stop-color:#009298"/>
				<stop  offset="0.5328" style="stop-color:#008A91"/>
				<stop  offset="0.6419" style="stop-color:#007E87"/>
				<stop  offset="0.7412" style="stop-color:#006F7A"/>
				<stop  offset="0.8334" style="stop-color:#005D6A"/>
				<stop  offset="0.9185" style="stop-color:#004956"/>
				<stop  offset="0.999" style="stop-color:#00303C"/>
				<stop  offset="1" style="stop-color:#00303C"/>
			</linearGradient>
			<polygon class="st2" points="114.3,315.4 76.6,383 94.6,393.3 105.7,427.3 123.7,414.6 112.8,351.4 			"/>
			
				<linearGradient id="SVGID_4_" gradientUnits="userSpaceOnUse" x1="390.7333" y1="428.18" x2="479.4333" y2="428.18" gradientTransform="matrix(-1 0 0 -1 496.9333 843.47)">
				<stop  offset="3.141360e-002" style="stop-color:#40B3B3"/>
				<stop  offset="1" style="stop-color:#00303C"/>
			</linearGradient>
			<polygon class="st3" points="106.2,428.6 65.8,455.6 17.5,424.5 63.9,375 94.6,393.3 			"/>
			
				<linearGradient id="SVGID_5_" gradientUnits="userSpaceOnUse" x1="508.0333" y1="495.13" x2="433.6333" y2="495.13" gradientTransform="matrix(-1 0 0 -1 496.9333 843.47)">
				<stop  offset="0" style="stop-color:#07999D"/>
				<stop  offset="0.2492" style="stop-color:#03979C"/>
				<stop  offset="0.4005" style="stop-color:#009297"/>
				<stop  offset="0.5258" style="stop-color:#008A90"/>
				<stop  offset="0.6368" style="stop-color:#007E87"/>
				<stop  offset="0.7385" style="stop-color:#006E79"/>
				<stop  offset="0.8331" style="stop-color:#005C69"/>
				<stop  offset="0.9207" style="stop-color:#004754"/>
				<stop  offset="1" style="stop-color:#00303C"/>
			</linearGradient>
			<polygon class="st4" points="63.3,375.3 -11.1,291.5 35.6,405.2 			"/>
			
				<linearGradient id="SVGID_6_" gradientUnits="userSpaceOnUse" x1="455.9077" y1="375.349" x2="443.4754" y2="396.8826" gradientTransform="matrix(-1 0 0 -1 496.9333 843.47)">
				<stop  offset="0" style="stop-color:#07999D"/>
				<stop  offset="0.4999" style="stop-color:#006570"/>
				<stop  offset="1" style="stop-color:#00303C"/>
			</linearGradient>
			<polygon class="st5" points="65.8,455.6 38.2,437.8 56.3,476.9 			"/>
			
				<linearGradient id="SVGID_7_" gradientUnits="userSpaceOnUse" x1="391.004" y1="439.1399" x2="366.3626" y2="481.8201" gradientTransform="matrix(-1 0 0 -1 496.9333 843.47)">
				<stop  offset="3.141360e-002" style="stop-color:#40B3B3"/>
				<stop  offset="0.1722" style="stop-color:#2DA2A6"/>
				<stop  offset="0.4633" style="stop-color:#007A84"/>
				<stop  offset="0.8762" style="stop-color:#00414E"/>
				<stop  offset="1" style="stop-color:#00303C"/>
			</linearGradient>
			<polygon class="st6" points="130.7,369 123.7,414.6 112.8,351.4 			"/>
			
				<linearGradient id="SVGID_8_" gradientUnits="userSpaceOnUse" x1="407.5333" y1="371.18" x2="440.6333" y2="371.18" gradientTransform="matrix(-1 0 0 -1 496.9333 843.47)">
				<stop  offset="3.141360e-002" style="stop-color:#9D1C16"/>
				<stop  offset="0.4446" style="stop-color:#9C1C15"/>
				<stop  offset="0.5935" style="stop-color:#971C15"/>
				<stop  offset="0.6996" style="stop-color:#8E1B13"/>
				<stop  offset="0.7854" style="stop-color:#811A11"/>
				<stop  offset="0.8589" style="stop-color:#72180E"/>
				<stop  offset="0.9239" style="stop-color:#5F1509"/>
				<stop  offset="0.9814" style="stop-color:#491003"/>
				<stop  offset="1" style="stop-color:#410E00"/>
			</linearGradient>
			<polygon class="st7" points="62.2,463.7 89.4,480.9 56.3,476.9 			"/>
			
				<linearGradient id="SVGID_9_" gradientUnits="userSpaceOnUse" x1="434.7333" y1="402.38" x2="373.2333" y2="402.38" gradientTransform="matrix(-1 0 0 -1 496.9333 843.47)">
				<stop  offset="3.141360e-002" style="stop-color:#7FC9C9"/>
				<stop  offset="6.852533e-002" style="stop-color:#5BA8AE"/>
				<stop  offset="0.1171" style="stop-color:#348892"/>
				<stop  offset="0.1717" style="stop-color:#0D6D7A"/>
				<stop  offset="0.2321" style="stop-color:#005966"/>
				<stop  offset="0.3003" style="stop-color:#004956"/>
				<stop  offset="0.38" style="stop-color:#003D4A"/>
				<stop  offset="0.4784" style="stop-color:#003542"/>
				<stop  offset="0.6166" style="stop-color:#00313D"/>
				<stop  offset="1" style="stop-color:#00303C"/>
			</linearGradient>
			<polygon class="st8" points="123.7,414.6 71.9,458.7 68.3,467.6 62.2,463.7 65.8,455.6 			"/>
			
				<linearGradient id="SVGID_10_" gradientUnits="userSpaceOnUse" x1="401.2333" y1="374.43" x2="428.6333" y2="374.43" gradientTransform="matrix(-1 0 0 -1 496.9333 843.47)">
				<stop  offset="3.141360e-002" style="stop-color:#9D1C16"/>
				<stop  offset="0.1748" style="stop-color:#941C14"/>
				<stop  offset="0.4313" style="stop-color:#7E1A11"/>
				<stop  offset="0.7688" style="stop-color:#5B1508"/>
				<stop  offset="1" style="stop-color:#410E00"/>
			</linearGradient>
			<polygon class="st9" points="70.4,462.5 95.7,474 81,475.6 68.3,467.6 			"/>
			
				<linearGradient id="SVGID_11_" gradientUnits="userSpaceOnUse" x1="376.4833" y1="555.98" x2="376.4833" y2="512.2366" gradientTransform="matrix(-1 0 0 -1 496.9333 843.47)">
				<stop  offset="3.141360e-002" style="stop-color:#9D1C16"/>
				<stop  offset="0.1717" style="stop-color:#951C15"/>
				<stop  offset="0.4171" style="stop-color:#801A11"/>
				<stop  offset="0.736" style="stop-color:#5F1509"/>
				<stop  offset="1" style="stop-color:#410E00"/>
			</linearGradient>
			<polygon class="st10" points="137.6,324.7 117.4,293.2 108.2,287.5 114.2,298.1 108,291.2 111,300.1 107.2,295.6 108.7,301.4 
				103.3,305.4 105.4,331.3 114.3,315.4 			"/>
		</g>
		<g>
			<path class="st11" d="M235,397.9c-2.9,0.2-5.6,0.8-8.5,1c-2.3,0.3-4.5,0.5-6.8,0.5c-3.2,0.2-6,1.3-8.4,3.7c-1.9,1.9-4,4-6.1,6
				c-4.4,4-8.7,8.1-13.1,12.1c-1.3,1.1-2.3,2.4-3.4,3.7c-0.6,0.8-0.2,2.6,1,2.9c1.1,0.2,2.1,0.5,3.2,0.5c4.4,0.3,8.5,0.2,12.7-0.6
				c2.7-0.6,5.6-1,8.4-0.5c0.5,0,0.8,0.8,1,1.1c0.3,0.6,0.2,1.3-0.3,1.6c-0.8,0.5-1.5,1.1-2.3,1.3c-7.6,1.1-15,2.7-22.7,2.4
				c-2.4,0-4.5-1-6.3-2.3c-0.8-0.3-1.3-1.1-1.8-1.8c-1-1.3-1-2.6-0.5-4c0.8-1.9,2.1-3.4,3.5-4.7c4.7-4.5,9.5-9,14.2-13.5
				c1.5-1.3,3.1-2.6,3.9-4.5c0-0.2,0.2-0.6,0-0.8c0-0.2-0.5-0.3-0.6-0.3c-1.1,0-2.3,0-3.4,0.2c-2.3,0.5-4.5,1.1-6.8,1.3
				c-2.3,0.3-3.5,1.3-4.2,3.5c-0.2,0.8-1,1.3-1.9,1.3c-3.7,0-7.4,0-11.1-0.3c-1.5,0-2.4-1.3-2.9-2.7c-0.3-1.3,0.2-3.1,1.5-3.7
				c1-0.5,1.9-1.3,3.1-1.3c5.6-0.6,11.1-2.1,16.8-2.3c4.8-0.2,9.7-1.1,14.5-1.6c1.9-0.2,2.9-1.5,3.5-3.2c0.2-0.6,0.2-1.1-0.5-1.5
				c-1.3-1.1-2.9-1.6-4.7-1.8c-5.2-0.3-10.2,0.6-15.2,1.9c-0.6,0.2-1.3,1-1.9,1.5c-0.6,1-1.6,1.6-2.7,1.8c-1.8,0-3.4-0.2-4.8-1.3
				c-1.1-0.8-1.8-2.4-1.5-3.7c0.5-1.5,1.3-2.7,2.7-3.2c2.7-0.6,5.5-1.1,8.4-1.6c6.9-1.1,14-1.9,21.1-0.8c1.1,0.2,2.3,0.3,3.2,0.8
				c1.8,1,3.2,2.4,3.2,4.7c0,0.8,0,1.6,0,2.6c-0.2,1.8,0.3,2.3,2.4,2.3c1.9,0,3.9,0,7.3,0c1.6-0.2,3.5-0.3,5.6-0.5
				c0.2,0,0.3,0.2,0.6,0.2c1.1,0,2.3,0,3.4,0.2c1.3,0.2,2.7,0.2,3.7,1c0.3,0.2,0.3,0.2,0.2,0.5c-0.3,0.8-1.3,1.3-2.1,1.6
				c-0.5,0.2-1,0.5-1.6,0.5C237.1,397.9,236,397.9,235,397.9z"/>
			<path class="st11" d="M286.3,391c-4.4,4.4-7.1,9.8-9.5,15.5c-3.4,7.7-8.1,15-12.3,22.6c-12.4,21.9-24,44.5-34.7,67.6
				c-1.3,2.9-2.6,5.8-3.9,8.7c-0.2,0.2-0.6,0.3-1,0.3c-0.6,0.2-1.1-0.3-1.1-1.3c-0.3-2.1,0.2-4.2,1-6.3c2.7-7.7,5.6-15.3,9.2-22.7
				c7.9-16.4,16-32.7,24.5-48.7c1.1-1.9,2.1-3.9,2.9-5.8c0.5-1.1,0.3-2.4,0.5-3.7c-6.1,4.7-12.1,9.7-18.7,13.7
				c-1.1,0.8-2.4,1.6-3.7,2.1c-2.4,1.1-4.8,1-7.1-0.3c-4.8-2.9-6.6-7.4-6.4-12.7c0.2-4.7,1.6-9.2,3.2-13.5
				c2.7-6.6,6.4-12.7,11.4-17.9c1-1,2.3-1.6,3.5-2.4c0.8-0.3,2.1,0,2.9,0.8c1.8,2.1,2.1,3.9,0.3,5.6c-6.4,6.1-10.5,13.5-12.9,21.8
				c-1,3.2-1.3,6.3,0.2,9.5c0.5,0.6,1,1.1,1.8,1c0.3,0,0.6,0.2,1,0c7.7-3.2,14.8-7.1,20.5-13.4c3.4-3.7,6.9-7.1,10.3-10.8
				c3.4-3.9,6-8.1,6.8-13.2c0.2-1.5,1-2.6,2.3-3.4c2.4-1.5,5-1.3,6.9,0.6c1,1,1.6,2.3,2.3,3.5C286.9,389.1,287.1,390.4,286.3,391z"
				/>
			<path class="st11" d="M317.7,401.2c-0.2-0.2-0.3-0.6-0.6-0.6c-0.3-0.2-0.8-0.2-1.1,0.2c-3.2,3.4-6.8,6.6-9.7,10.2
				c-3.9,5-8.5,9-12.9,13.5c-1,1-2.6,1.3-4,1.5c-3.1,0.3-5.8-2.1-5.5-5.2c0.5-3.7,0.6-7.4,1.6-10.8c1.9-7.4,4.2-14.8,6.3-22.1
				c0.2-0.8,0.5-1.5,1-2.1c1-1.5,2.4-2.7,4.4-2.7c1.6-0.2,3.4,3.1,3.1,5.2c-0.2,1.5-0.5,2.7-0.8,4.2c-1.8,5.6-3.5,11.1-5.2,16.8
				c-0.2,0.5,0.3,1.3,0.6,1.8c0,0.2,0.8,0,1-0.2c1.3-1,2.4-1.8,3.5-2.7c5.5-5.2,11-10.6,16.6-16c1.6-1.5,3.4-2.7,5-4.2
				c1.9-1.6,4.4,0,5.2,2.1c0.3,1.1,0.6,2.1,0.6,3.2c-0.2,4.4-0.2,8.7-1.1,13.1c-1.5,5.8-1.9,11.6-1.6,17.4c0.2,4.4,1.9,7.7,5.8,10
				c0.6,0.3,1.3,0.6,1.8,1.1c0.8,0.5,1.3,2.3,0.8,2.9c-0.5,0.6-2.3,1.1-3.1,1c-6.6-1.9-10.2-6.8-11.3-13.4
				c-0.6-4.2-0.5-8.7-0.6-13.1C317.5,408.4,318.5,404.9,317.7,401.2z"/>
			<path class="st11" d="M339.5,414.4c0.2,2.9,2.9,5.3,6.1,5.3c1.3-0.2,2.7-0.2,3.9-0.5c1.9-0.5,3.9-1.3,5.6-1.9
				c10-3.9,19.5-8.7,28.5-14.5c1.1-0.6,2.1-1.5,3.2-2.3c2.1-1.3,4.7-0.5,6,1.8c1,1.3,1.6,2.9,2.4,4.4c0.5,0.6,1.3,0.6,1.6,0.2
				c1-1.1,1.6-2.3,2.4-3.2c6.8-9,15.8-14,26.8-15.5c0.3-0.2,0.6,0,1-0.2c4.4-0.5,8.4-2.4,12.7-1.9c4,0.3,8.1-0.2,11.9,0
				c1,0,1.9,0.6,2.7,1c0.2,0.2,0.2,0.6,0.2,1c0,0.3-0.2,0.8-0.2,0.8c-1.3,0.3-2.6,0.8-3.9,0.8c-5.6,0.3-11.3,1-16.9,1.9
				c-8.2,1.6-15.8,4.7-22.9,9.2c-1.5,0.8-2.7,1.9-3.7,3.2c-3.7,4.8-6.9,9.8-8.5,15.6c0,0.3-0.3,0.6-0.3,1c-0.8,5-3.7,8.4-7.7,11.3
				c-1.6,1.1-4.2,0.2-4.4-1.9c-0.3-1.6-0.3-3.4-0.2-5c0.5-3.2,1.5-6.4,1.3-9.8c0-1,0-1.9,0-2.9c0-1.6-2.1-2.7-3.7-1.9
				c-1,0.3-1.8,0.8-2.7,1.3c-6.1,3.1-12.3,6.4-18.5,9.5c-3.4,1.6-6.8,2.9-10.3,4c-3.4,1.1-7.1,1.3-10.8,0.8c-3.1-0.5-5.5-2.3-7.1-5
				c-2.4-4.4-3.1-8.9-1.8-13.5c2.4-8.1,5.8-15.6,11.6-21.8c3.5-3.5,7.6-6.8,12.1-8.9c2.7-1.3,5.6-1.6,8.7-1.3c2.7,0.3,5,2.9,4.8,5.5
				c-0.2,1.8-0.5,3.2-1.5,4.7c-1.6,2.6-3.7,4.8-6.1,6.6c-2.9,2.3-5.8,4.4-8.9,6.3c-2.4,1.6-4.8,1.9-7.6,0.5c-1.1-0.6-2.6,0-3.2,1
				c-2.1,3.5-3.1,7.4-2.9,11.4C339.3,412.3,339.3,413.3,339.5,414.4z M359.9,382.3c-0.2-0.2-0.6-0.3-0.8-0.2
				c-4.2,1.5-7.4,4.4-10.3,7.6c-0.6,0.6-0.6,1.1,0.3,1.5c0.3,0.2,0.6,0.2,1,0.2c4-1.8,7.6-4,10.3-7.6c0.2-0.3,0.2-0.6,0.3-1
				C360.6,382.6,360.3,382.5,359.9,382.3z"/>
			<path class="st11" d="M441.5,486.6c1.5-0.5,2.9-1.1,4.2-2.1c7.7-5.3,16.4-11.9,21.6-21.6c4.2-7.7,6.8-14.3,8.5-20.8
				c1.5-5.6,2.9-11.8,4.7-19.3c0.3-1.5,0.6-3.1,0.6-4.7c0-0.8-0.3-1.5-0.5-2.1c-0.2-0.2-0.2-0.3-0.3-0.5c0-0.2-0.3-0.3-0.6-0.3
				c-0.2,0-1.1,0-1.6,0.5c-1.3,1.3-2.6,2.6-3.9,3.7c-1.9,2.1-4,4-6.3,6c-1.9,1.9-4.5,4.2-7.1,6c-1.9,1.5-4.5,1.9-7.4,1.6
				c-4.5-0.6-7.1-3.4-7.3-7.9c-0.3-4,0.2-7.1,1.3-10.2c2.7-7.4,7.7-13.5,12.6-19.5c0.3-0.5,0.8-1,1.1-1.5c1.3-0.8,2.4-1.8,3.5-2.6
				c2.7-1.9,5.3-3.9,8.1-5.6c1.8-1.3,3.9-2.4,6-2.4c1.3,0,2.6,0.5,3.9,1.5c0.6,0.5,1.5,0.8,2.3,0.8s1.5-0.2,2.1-0.3
				c0.6-0.2,1.3-0.2,1.8-0.2c1.6,0,3.1,0.6,4,1.8c1.1,1.3,1.5,2.9,1.1,4.4v0.3c-0.3,1-0.5,2.1-0.8,3.1c-2.4,7.4-3.7,13.7-3.9,19.7
				c0,2.4-0.5,5-1.3,7.9c-1.6,5.6-3.2,11.4-5,16.9l-0.6,2.3c-3.2,10.5-7.9,20.5-14,29.3c-5.6,8.4-12.9,14.7-21.4,18.9
				c-3.1,1.5-6.6,2.4-11.1,2.7c-0.5,0-0.8,0-1.3,0c-3.2,0-5.8-1-7.7-3.2c-0.5-0.6-0.3-1-0.2-1.1l0.2-0.2c0.2-0.3,0.6-1,1-1
				c0.2,0,0.3,0,0.5,0c1,0,1.8,0.2,2.4,0.5c1.6,0.6,3.2,1,4.7,1c1.6,0,3.4-0.3,5-1.1C440.7,486.9,441,486.8,441.5,486.6z
				 M481.2,397.6l0.2-0.2l-0.2-0.2c0-0.5,0-0.8-0.2-1.1c-0.2-0.8-0.2-1.3-0.3-1.8c-0.3-1.8-1.9-3.1-3.9-3.1c-0.6,0-1.1,0.2-1.6,0.5
				c-0.5,0.2-0.8,0.3-1.3,0.5c-1,0.5-2.1,1-3.1,1.8c-9.7,6.9-15.6,15.3-18.5,25.5c-0.2,0.6-0.2,1.1-0.2,1.8c0,0.3,0,0.5,0,0.6
				c0,0.8,0.3,1.6,1,2.3c0.8,0.8,1.9,1.5,3.1,1.5c0.5,0,0.8-0.2,1.3-0.3c0.2-0.2,0.5-0.2,0.6-0.3c0.6-0.2,1.1-0.3,1.6-0.6
				c9.2-6.4,16-13.9,20.5-22.6c0.6-1.1,0.8-2.3,1-3.2C481.2,398.1,481.2,397.8,481.2,397.6z"/>
			<path class="st11" d="M554.7,391c-4.4,4.4-7.1,9.8-9.5,15.5c-3.4,7.7-8.1,15-12.3,22.6c-12.4,21.9-24,44.5-34.7,67.6
				c-1.3,2.9-2.6,5.8-3.9,8.7c-0.2,0.2-0.6,0.3-1,0.3c-0.6,0.2-1.1-0.3-1.1-1.3c-0.3-2.1,0.2-4.2,1-6.3c2.7-7.7,5.6-15.3,9.2-22.7
				c7.9-16.4,16-32.7,24.5-48.7c1.1-1.9,2.1-3.9,2.9-5.8c0.5-1.1,0.3-2.4,0.5-3.7c-6.1,4.7-12.1,9.7-18.7,13.7
				c-1.1,0.8-2.4,1.6-3.7,2.1c-2.4,1.1-4.8,1-7.1-0.3c-4.8-2.9-6.6-7.4-6.4-12.7c0.2-4.7,1.6-9.2,3.2-13.5
				c2.7-6.6,6.4-12.7,11.4-17.9c1-1,2.3-1.6,3.5-2.4c0.8-0.3,2.1,0,2.9,0.8c1.8,2.1,2.1,3.9,0.3,5.6c-6.4,6.1-10.5,13.5-12.9,21.8
				c-1,3.2-1.3,6.3,0.2,9.5c0.5,0.6,1,1.1,1.8,1c0.3,0,0.6,0.2,1,0c7.7-3.2,14.8-7.1,20.5-13.4c3.4-3.7,6.9-7.1,10.3-10.8
				c3.4-3.9,6-8.1,6.8-13.2c0.2-1.5,1-2.6,2.3-3.4c2.4-1.5,5-1.3,6.9,0.6c1,1,1.6,2.3,2.3,3.5C555.4,389.1,555.5,390.4,554.7,391z"
				/>
		</g>
		<g>
			<g>
				<path class="st11" d="M179.2,494.4c11.5-0.1,22.7-2.5,34-4.4c12.1-2,24.3-3.7,36.5-5.4c24.5-3.5,49-6.4,73.6-8.6
					c24.8-2.2,49.7-3.7,74.6-3.5c24.3,0.3,48.6,2.1,72.9,4.2c27.5,2.3,55,4.8,82.7,5.6c3.2,0.1,3.2-4.9,0-5
					c-48.7-1.4-97.1-8.3-145.8-9.6c-49-1.3-98.1,3.8-146.6,10.3c-13.8,1.9-27.6,4.1-41.5,6c-13.4,1.8-26.7,5.2-40.3,5.4
					C176,489.5,176,494.5,179.2,494.4L179.2,494.4z"/>
			</g>
		</g>
		<g class="st12">
			<polyline class="st13" points="447.7,518.2 461.9,518.3 461.9,544.7 465.7,544.7 465.7,518 479.7,518 479.7,544.7 502.9,544.7 
				502.9,541 483.3,541 483.3,515 444.5,515 			"/>
			<path class="st14" d="M429.1,507.4v35.4h18.1c0,0,7.9,0.6,7.9-7.5c0-6.5-7.7-6.5-7.7-6.5h-18.2"/>
		</g>
	</g>
	<g class="st15">
		<path class="st16" d="M227.6,545.2v-24.5h15.1c2.5,0,4.4,0.5,5.7,1.5c1.3,1,1.9,2.5,1.9,4.5c0,1-0.2,1.9-0.6,2.7
			c-0.4,0.8-1,1.4-1.8,1.9c1.4,0.8,2.4,1.7,3.1,2.8c0.7,1.1,1,2.3,1,3.7c0,2.3-0.8,4.1-2.3,5.4c-1.5,1.3-3.6,2-6.3,2H227.6z
			 M242.6,524.3h-11.1v5.8h11.2c1.2,0,2.1-0.2,2.8-0.7c0.6-0.5,0.9-1.2,0.9-2.2c0-1-0.3-1.7-0.9-2.2
			C244.8,524.5,243.9,524.3,242.6,524.3z M243.9,533.6h-12.4v8h12.4c1.3,0,2.4-0.4,3.1-1.1c0.7-0.7,1.1-1.7,1.1-3
			c0-1.3-0.4-2.2-1.1-2.9C246.3,534,245.2,533.6,243.9,533.6z"/>
		<path class="st16" d="M259.6,545.2v-24.5h23v3.6h-19.2v6.1H276v3.5h-12.6v7.8h20.2v3.5H259.6z"/>
		<path class="st16" d="M296.2,545.2v-12.5l-11.2-12h4.9l8.1,8.7l8-8.7h5.1l-11.2,12v12.6H296.2z"/>
		<path class="st16" d="M326.2,546c-4.4,0-8-1.2-10.8-3.7c-2.8-2.5-4.2-5.6-4.2-9.3c0-3.8,1.4-6.9,4.2-9.3c2.8-2.4,6.4-3.7,10.8-3.7
			c4.4,0,8,1.2,10.8,3.6c2.8,2.4,4.2,5.5,4.2,9.3c0,3.8-1.4,6.9-4.2,9.3C334.2,544.8,330.6,546,326.2,546z M326.2,542.4
			c3.3,0,5.9-0.9,8-2.7c2.1-1.8,3.1-4,3.1-6.8c0-2.7-1-5-3.1-6.8c-2.1-1.8-4.7-2.7-8-2.7c-3.3,0-5.9,0.9-8,2.7
			c-2.1,1.8-3.1,4-3.1,6.8c0,2.7,1,5,3.1,6.8C320.3,541.5,322.9,542.4,326.2,542.4z"/>
		<path class="st16" d="M347.5,545.2v-24.5h2l15.6,17.2v-17.2h3.8v24.5h-2L351.3,528v17.2H347.5z"/>
		<path class="st16" d="M388.2,520.7c4,0,7.2,1.1,9.7,3.4c2.5,2.3,3.7,5.3,3.7,8.9c0,3.7-1.2,6.7-3.6,8.9c-2.4,2.2-5.7,3.3-9.8,3.3
			h-10.9v-24.5H388.2z M388.3,524.2h-7.1v17.5h7.1c2.9,0,5.2-0.8,6.9-2.3c1.7-1.6,2.5-3.7,2.5-6.4c0-2.6-0.9-4.7-2.6-6.3
			C393.4,525,391.1,524.2,388.3,524.2z"/>
	</g>
</g>
</svg>
