<?xml version="1.0" encoding="utf-8"?>
<!-- Generator: Adobe Illustrator 19.1.0, SVG Export Plug-In . SVG Version: 6.00 Build 0)  -->
<svg version="1.1" id="Capa_1" xmlns="http://www.w3.org/2000/svg" xmlns:xlink="http://www.w3.org/1999/xlink" x="0px" y="0px"
	 viewBox="0 0 568.8 271.1" style="enable-background:new 0 0 568.8 271.1;" xml:space="preserve">
<style type="text/css">
	.st0{fill:url(#SVGID_1_);stroke:#FFFFFF;stroke-width:1.2;stroke-miterlimit:10;}
	.st1{fill:url(#SVGID_2_);stroke:#FFFFFF;stroke-width:1.2;stroke-miterlimit:10;}
	.st2{fill:url(#SVGID_3_);stroke:#FFFFFF;stroke-width:1.2;stroke-miterlimit:10;}
	.st3{fill:url(#SVGID_4_);stroke:#FFFFFF;stroke-width:1.2;stroke-miterlimit:10;}
	.st4{fill:url(#SVGID_5_);stroke:#FFFFFF;stroke-width:1.2;stroke-miterlimit:10;}
	.st5{fill:url(#SVGID_6_);stroke:#FFFFFF;stroke-width:1.2;stroke-miterlimit:10;}
	.st6{fill:url(#SVGID_7_);stroke:#FFFFFF;stroke-width:1.2;stroke-miterlimit:10;}
	.st7{fill:url(#SVGID_8_);stroke:#FFFFFF;stroke-width:1.2;stroke-miterlimit:10;}
	.st8{fill:url(#SVGID_9_);stroke:#FFFFFF;stroke-width:1.2;stroke-miterlimit:10;}
	.st9{fill:url(#SVGID_10_);stroke:#FFFFFF;stroke-width:1.2;stroke-miterlimit:10;}
	.st10{fill:url(#SVGID_11_);stroke:#FFFFFF;stroke-width:1.2;stroke-miterlimit:10;}
	.st11{fill:#025F6A;}
	.st12{opacity:0.9;}
	.st13{fill:#059999;}
	.st14{fill:none;stroke:#059999;stroke-width:4;stroke-miterlimit:10;}
</style>
<g>
	<g>
		
			<linearGradient id="SVGID_1_" gradientUnits="userSpaceOnUse" x1="349.2457" y1="58.5807" x2="394.1217" y2="58.5807" gradientTransform="matrix(-1 0 0 1 548.9333 0)">
			<stop  offset="0" style="stop-color:#07999D"/>
			<stop  offset="0.1137" style="stop-color:#00959A"/>
			<stop  offset="0.2685" style="stop-color:#008B91"/>
			<stop  offset="0.447" style="stop-color:#007A83"/>
			<stop  offset="0.643" style="stop-color:#00636F"/>
			<stop  offset="0.851" style="stop-color:#004754"/>
			<stop  offset="1" style="stop-color:#00303C"/>
		</linearGradient>
		<polygon class="st0" points="199.7,49.9 166.9,49.9 154.8,67.3 		"/>
		
			<linearGradient id="SVGID_2_" gradientUnits="userSpaceOnUse" x1="379.6539" y1="56.4057" x2="423.1803" y2="56.4057" gradientTransform="matrix(-1 0 0 1 548.9333 0)">
			<stop  offset="3.141360e-002" style="stop-color:#7FC9C9"/>
			<stop  offset="0.4149" style="stop-color:#7DC7C8"/>
			<stop  offset="0.553" style="stop-color:#75C0C2"/>
			<stop  offset="0.6515" style="stop-color:#69B4B8"/>
			<stop  offset="0.7311" style="stop-color:#57A4AB"/>
			<stop  offset="0.7993" style="stop-color:#3F909A"/>
			<stop  offset="0.8597" style="stop-color:#227A85"/>
			<stop  offset="0.9144" style="stop-color:#00606D"/>
			<stop  offset="0.9629" style="stop-color:#004654"/>
			<stop  offset="1" style="stop-color:#00303C"/>
		</linearGradient>
		<polygon class="st1" points="169.3,46.4 127.3,29.6 125.8,65.6 143.7,83.2 		"/>
		
			<linearGradient id="SVGID_3_" gradientUnits="userSpaceOnUse" x1="396.9245" y1="102.258" x2="446.9173" y2="73.3946" gradientTransform="matrix(-1 0 0 1 548.9333 0)">
			<stop  offset="0" style="stop-color:#07999D"/>
			<stop  offset="0.2575" style="stop-color:#03979C"/>
			<stop  offset="0.4089" style="stop-color:#009298"/>
			<stop  offset="0.5328" style="stop-color:#008A91"/>
			<stop  offset="0.6419" style="stop-color:#007E87"/>
			<stop  offset="0.7412" style="stop-color:#006F7A"/>
			<stop  offset="0.8334" style="stop-color:#005D6A"/>
			<stop  offset="0.9185" style="stop-color:#004956"/>
			<stop  offset="0.999" style="stop-color:#00303C"/>
			<stop  offset="1" style="stop-color:#00303C"/>
		</linearGradient>
		<polygon class="st2" points="127.3,29.6 89.6,97.2 107.6,107.5 118.7,141.5 136.7,128.8 125.8,65.6 		"/>
		
			<linearGradient id="SVGID_4_" gradientUnits="userSpaceOnUse" x1="429.752" y1="129.49" x2="518.4263" y2="129.49" gradientTransform="matrix(-1 0 0 1 548.9333 0)">
			<stop  offset="3.141360e-002" style="stop-color:#40B3B3"/>
			<stop  offset="1" style="stop-color:#00303C"/>
		</linearGradient>
		<polygon class="st3" points="119.2,142.8 78.8,169.8 30.5,138.7 76.9,89.2 107.6,107.5 		"/>
		
			<linearGradient id="SVGID_5_" gradientUnits="userSpaceOnUse" x1="547.0338" y1="62.5471" x2="472.5991" y2="62.5471" gradientTransform="matrix(-1 0 0 1 548.9333 0)">
			<stop  offset="0" style="stop-color:#07999D"/>
			<stop  offset="0.2492" style="stop-color:#03979C"/>
			<stop  offset="0.4005" style="stop-color:#009297"/>
			<stop  offset="0.5258" style="stop-color:#008A90"/>
			<stop  offset="0.6368" style="stop-color:#007E87"/>
			<stop  offset="0.7385" style="stop-color:#006E79"/>
			<stop  offset="0.8331" style="stop-color:#005C69"/>
			<stop  offset="0.9207" style="stop-color:#004754"/>
			<stop  offset="1" style="stop-color:#00303C"/>
		</linearGradient>
		<polygon class="st4" points="76.3,89.5 1.9,5.7 48.6,119.4 		"/>
		
			<linearGradient id="SVGID_6_" gradientUnits="userSpaceOnUse" x1="494.8925" y1="182.3398" x2="482.4602" y2="160.8062" gradientTransform="matrix(-1 0 0 1 548.9333 0)">
			<stop  offset="0" style="stop-color:#07999D"/>
			<stop  offset="0.4999" style="stop-color:#006570"/>
			<stop  offset="1" style="stop-color:#00303C"/>
		</linearGradient>
		<polygon class="st5" points="78.8,169.8 51.2,152 69.3,191.1 		"/>
		
			<linearGradient id="SVGID_7_" gradientUnits="userSpaceOnUse" x1="430.0192" y1="118.4897" x2="405.3877" y2="75.8267" gradientTransform="matrix(-1 0 0 1 548.9333 0)">
			<stop  offset="3.141360e-002" style="stop-color:#40B3B3"/>
			<stop  offset="0.1722" style="stop-color:#2DA2A6"/>
			<stop  offset="0.4633" style="stop-color:#007A84"/>
			<stop  offset="0.8762" style="stop-color:#00414E"/>
			<stop  offset="1" style="stop-color:#00303C"/>
		</linearGradient>
		<polygon class="st6" points="143.7,83.2 136.7,128.8 125.8,65.6 		"/>
		
			<linearGradient id="SVGID_8_" gradientUnits="userSpaceOnUse" x1="446.5442" y1="186.5138" x2="479.6589" y2="186.5138" gradientTransform="matrix(-1 0 0 1 548.9333 0)">
			<stop  offset="3.141360e-002" style="stop-color:#9D1C16"/>
			<stop  offset="0.4446" style="stop-color:#9C1C15"/>
			<stop  offset="0.5935" style="stop-color:#971C15"/>
			<stop  offset="0.6996" style="stop-color:#8E1B13"/>
			<stop  offset="0.7854" style="stop-color:#811A11"/>
			<stop  offset="0.8589" style="stop-color:#72180E"/>
			<stop  offset="0.9239" style="stop-color:#5F1509"/>
			<stop  offset="0.9814" style="stop-color:#491003"/>
			<stop  offset="1" style="stop-color:#410E00"/>
		</linearGradient>
		<polygon class="st7" points="75.2,177.9 102.4,195.1 69.3,191.1 		"/>
		
			<linearGradient id="SVGID_9_" gradientUnits="userSpaceOnUse" x1="473.7652" y1="155.2852" x2="412.2267" y2="155.2852" gradientTransform="matrix(-1 0 0 1 548.9333 0)">
			<stop  offset="3.141360e-002" style="stop-color:#7FC9C9"/>
			<stop  offset="6.852533e-002" style="stop-color:#5BA8AE"/>
			<stop  offset="0.1171" style="stop-color:#348892"/>
			<stop  offset="0.1717" style="stop-color:#0D6D7A"/>
			<stop  offset="0.2321" style="stop-color:#005966"/>
			<stop  offset="0.3003" style="stop-color:#004956"/>
			<stop  offset="0.38" style="stop-color:#003D4A"/>
			<stop  offset="0.4784" style="stop-color:#003542"/>
			<stop  offset="0.6166" style="stop-color:#00313D"/>
			<stop  offset="1" style="stop-color:#00303C"/>
		</linearGradient>
		<polygon class="st8" points="136.7,128.8 84.9,172.9 81.3,181.8 75.2,177.9 78.8,169.8 		"/>
		
			<linearGradient id="SVGID_10_" gradientUnits="userSpaceOnUse" x1="440.2319" y1="183.225" x2="467.6118" y2="183.225" gradientTransform="matrix(-1 0 0 1 548.9333 0)">
			<stop  offset="3.141360e-002" style="stop-color:#9D1C16"/>
			<stop  offset="0.1748" style="stop-color:#941C14"/>
			<stop  offset="0.4313" style="stop-color:#7E1A11"/>
			<stop  offset="0.7688" style="stop-color:#5B1508"/>
			<stop  offset="1" style="stop-color:#410E00"/>
		</linearGradient>
		<polygon class="st9" points="83.4,176.7 108.7,188.2 94,189.8 81.3,181.8 		"/>
		
			<linearGradient id="SVGID_11_" gradientUnits="userSpaceOnUse" x1="415.5167" y1="1.718" x2="415.5167" y2="45.4614" gradientTransform="matrix(-1 0 0 1 548.9333 0)">
			<stop  offset="3.141360e-002" style="stop-color:#9D1C16"/>
			<stop  offset="0.1717" style="stop-color:#951C15"/>
			<stop  offset="0.4171" style="stop-color:#801A11"/>
			<stop  offset="0.736" style="stop-color:#5F1509"/>
			<stop  offset="1" style="stop-color:#410E00"/>
		</linearGradient>
		<polygon class="st10" points="150.6,38.9 130.4,7.4 121.2,1.7 127.2,12.3 121,5.4 124,14.3 120.2,9.8 121.7,15.6 116.3,19.6 
			118.4,45.5 127.3,29.6 		"/>
	</g>
	<g>
		<path class="st11" d="M248,112.1c-2.9,0.2-5.6,0.8-8.5,1c-2.3,0.3-4.5,0.5-6.8,0.5c-3.2,0.2-6,1.3-8.4,3.7c-1.9,1.9-4,4-6.1,6
			c-4.4,4-8.7,8.1-13.1,12.1c-1.3,1.1-2.3,2.4-3.4,3.7c-0.6,0.8-0.2,2.6,1,2.9c1.1,0.2,2.1,0.5,3.2,0.5c4.4,0.3,8.5,0.2,12.7-0.6
			c2.7-0.6,5.6-1,8.4-0.5c0.5,0,0.8,0.8,1,1.1c0.3,0.6,0.2,1.3-0.3,1.6c-0.8,0.5-1.5,1.1-2.3,1.3c-7.6,1.1-15,2.7-22.7,2.4
			c-2.4,0-4.5-1-6.3-2.3c-0.8-0.3-1.3-1.1-1.8-1.8c-1-1.3-1-2.6-0.5-4c0.8-1.9,2.1-3.4,3.5-4.7c4.7-4.5,9.5-9,14.2-13.5
			c1.5-1.3,3.1-2.6,3.9-4.5c0-0.2,0.2-0.6,0-0.8c0-0.2-0.5-0.3-0.6-0.3c-1.1,0-2.3,0-3.4,0.2c-2.3,0.5-4.5,1.1-6.8,1.3
			c-2.3,0.3-3.5,1.3-4.2,3.5c-0.2,0.8-1,1.3-1.9,1.3c-3.7,0-7.4,0-11.1-0.3c-1.5,0-2.4-1.3-2.9-2.7c-0.3-1.3,0.2-3.1,1.5-3.7
			c1-0.5,1.9-1.3,3.1-1.3c5.6-0.6,11.1-2.1,16.8-2.3c4.8-0.2,9.7-1.1,14.5-1.6c1.9-0.2,2.9-1.5,3.5-3.2c0.2-0.6,0.2-1.1-0.5-1.5
			c-1.3-1.1-2.9-1.6-4.7-1.8c-5.2-0.3-10.2,0.6-15.2,1.9c-0.6,0.2-1.3,1-1.9,1.5c-0.6,1-1.6,1.6-2.7,1.8c-1.8,0-3.4-0.2-4.8-1.3
			c-1.1-0.8-1.8-2.4-1.5-3.7c0.5-1.5,1.3-2.7,2.7-3.2c2.7-0.6,5.5-1.1,8.4-1.6c6.9-1.1,14-1.9,21.1-0.8c1.1,0.2,2.3,0.3,3.2,0.8
			c1.8,1,3.2,2.4,3.2,4.7c0,0.8,0,1.6,0,2.6c-0.2,1.8,0.3,2.3,2.4,2.3c1.9,0,3.9,0,7.3,0c1.6-0.2,3.5-0.3,5.6-0.5
			c0.2,0,0.3,0.2,0.6,0.2c1.1,0,2.3,0,3.4,0.2c1.3,0.2,2.7,0.2,3.7,1c0.3,0.2,0.3,0.2,0.2,0.5c-0.3,0.8-1.3,1.3-2.1,1.6
			c-0.5,0.2-1,0.5-1.6,0.5C250.1,112.1,249,112.1,248,112.1z"/>
		<path class="st11" d="M299.3,105.2c-4.4,4.4-7.1,9.8-9.5,15.5c-3.4,7.7-8.1,15-12.3,22.6c-12.4,21.9-24,44.5-34.7,67.6
			c-1.3,2.9-2.6,5.8-3.9,8.7c-0.2,0.2-0.6,0.3-1,0.3c-0.6,0.2-1.1-0.3-1.1-1.3c-0.3-2.1,0.2-4.2,1-6.3c2.7-7.7,5.6-15.3,9.2-22.7
			c7.9-16.4,16-32.7,24.5-48.7c1.1-1.9,2.1-3.9,2.9-5.8c0.5-1.1,0.3-2.4,0.5-3.7c-6.1,4.7-12.1,9.7-18.7,13.7
			c-1.1,0.8-2.4,1.6-3.7,2.1c-2.4,1.1-4.8,1-7.1-0.3c-4.8-2.9-6.6-7.4-6.4-12.7c0.2-4.7,1.6-9.2,3.2-13.5
			c2.7-6.6,6.4-12.7,11.4-17.9c1-1,2.3-1.6,3.5-2.4c0.8-0.3,2.1,0,2.9,0.8c1.8,2.1,2.1,3.9,0.3,5.6c-6.4,6.1-10.5,13.5-12.9,21.8
			c-1,3.2-1.3,6.3,0.2,9.5c0.5,0.6,1,1.1,1.8,1c0.3,0,0.6,0.2,1,0c7.7-3.2,14.8-7.1,20.5-13.4c3.4-3.7,6.9-7.1,10.3-10.8
			c3.4-3.9,6-8.1,6.8-13.2c0.2-1.5,1-2.6,2.3-3.4c2.4-1.5,5-1.3,6.9,0.6c1,1,1.6,2.3,2.3,3.5C299.9,103.3,300.1,104.6,299.3,105.2z"
			/>
		<path class="st11" d="M330.7,115.4c-0.2-0.2-0.3-0.6-0.6-0.6c-0.3-0.2-0.8-0.2-1.1,0.2c-3.2,3.4-6.8,6.6-9.7,10.2
			c-3.9,5-8.5,9-12.9,13.5c-1,1-2.6,1.3-4,1.5c-3.1,0.3-5.8-2.1-5.5-5.2c0.5-3.7,0.6-7.4,1.6-10.8c1.9-7.4,4.2-14.8,6.3-22.1
			c0.2-0.8,0.5-1.5,1-2.1c1-1.5,2.4-2.7,4.4-2.7c1.6-0.2,3.4,3.1,3.1,5.2c-0.2,1.5-0.5,2.7-0.8,4.2c-1.8,5.6-3.5,11.1-5.2,16.8
			c-0.2,0.5,0.3,1.3,0.6,1.8c0,0.2,0.8,0,1-0.2c1.3-1,2.4-1.8,3.5-2.7c5.5-5.2,11-10.6,16.6-16c1.6-1.5,3.4-2.7,5-4.2
			c1.9-1.6,4.4,0,5.2,2.1c0.3,1.1,0.6,2.1,0.6,3.2c-0.2,4.4-0.2,8.7-1.1,13.1c-1.5,5.8-1.9,11.6-1.6,17.4c0.2,4.4,1.9,7.7,5.8,10
			c0.6,0.3,1.3,0.6,1.8,1.1c0.8,0.5,1.3,2.3,0.8,2.9c-0.5,0.6-2.3,1.1-3.1,1c-6.6-1.9-10.2-6.8-11.3-13.4c-0.6-4.2-0.5-8.7-0.6-13.1
			C330.5,122.6,331.5,119.1,330.7,115.4z"/>
		<path class="st11" d="M352.5,128.6c0.2,2.9,2.9,5.3,6.1,5.3c1.3-0.2,2.7-0.2,3.9-0.5c1.9-0.5,3.9-1.3,5.6-1.9
			c10-3.9,19.5-8.7,28.5-14.5c1.1-0.6,2.1-1.5,3.2-2.3c2.1-1.3,4.7-0.5,6,1.8c1,1.3,1.6,2.9,2.4,4.4c0.5,0.6,1.3,0.6,1.6,0.2
			c1-1.1,1.6-2.3,2.4-3.2c6.8-9,15.8-14,26.8-15.5c0.3-0.2,0.6,0,1-0.2c4.4-0.5,8.4-2.4,12.7-1.9c4,0.3,8.1-0.2,11.9,0
			c1,0,1.9,0.6,2.7,1c0.2,0.2,0.2,0.6,0.2,1c0,0.3-0.2,0.8-0.2,0.8c-1.3,0.3-2.6,0.8-3.9,0.8c-5.6,0.3-11.3,1-16.9,1.9
			c-8.2,1.6-15.8,4.7-22.9,9.2c-1.5,0.8-2.7,1.9-3.7,3.2c-3.7,4.8-6.9,9.8-8.5,15.6c0,0.3-0.3,0.6-0.3,1c-0.8,5-3.7,8.4-7.7,11.3
			c-1.6,1.1-4.2,0.2-4.4-1.9c-0.3-1.6-0.3-3.4-0.2-5c0.5-3.2,1.5-6.4,1.3-9.8c0-1,0-1.9,0-2.9c0-1.6-2.1-2.7-3.7-1.9
			c-1,0.3-1.8,0.8-2.7,1.3c-6.1,3.1-12.3,6.4-18.5,9.5c-3.4,1.6-6.8,2.9-10.3,4c-3.4,1.1-7.1,1.3-10.8,0.8c-3.1-0.5-5.5-2.3-7.1-5
			c-2.4-4.4-3.1-8.9-1.8-13.5c2.4-8.1,5.8-15.6,11.6-21.8c3.5-3.5,7.6-6.8,12.1-8.9c2.7-1.3,5.6-1.6,8.7-1.3c2.7,0.3,5,2.9,4.8,5.5
			c-0.2,1.8-0.5,3.2-1.5,4.7c-1.6,2.6-3.7,4.8-6.1,6.6c-2.9,2.3-5.8,4.4-8.9,6.3c-2.4,1.6-4.8,1.9-7.6,0.5c-1.1-0.6-2.6,0-3.2,1
			c-2.1,3.5-3.1,7.4-2.9,11.4C352.3,126.5,352.3,127.5,352.5,128.6z M372.9,96.5c-0.2-0.2-0.6-0.3-0.8-0.2
			c-4.2,1.5-7.4,4.4-10.3,7.6c-0.6,0.6-0.6,1.1,0.3,1.5c0.3,0.2,0.6,0.2,1,0.2c4-1.8,7.6-4,10.3-7.6c0.2-0.3,0.2-0.6,0.3-1
			C373.6,96.8,373.3,96.7,372.9,96.5z"/>
		<path class="st11" d="M454.5,200.8c1.5-0.5,2.9-1.1,4.2-2.1c7.7-5.3,16.4-11.9,21.6-21.6c4.2-7.7,6.8-14.3,8.5-20.8
			c1.5-5.6,2.9-11.8,4.7-19.3c0.3-1.5,0.6-3.1,0.6-4.7c0-0.8-0.3-1.5-0.5-2.1c-0.2-0.2-0.2-0.3-0.3-0.5c0-0.2-0.3-0.3-0.6-0.3
			c-0.2,0-1.1,0-1.6,0.5c-1.3,1.3-2.6,2.6-3.9,3.7c-1.9,2.1-4,4-6.3,6c-1.9,1.9-4.5,4.2-7.1,6c-1.9,1.5-4.5,1.9-7.4,1.6
			c-4.5-0.6-7.1-3.4-7.3-7.9c-0.3-4,0.2-7.1,1.3-10.2c2.7-7.4,7.7-13.5,12.6-19.5c0.3-0.5,0.8-1,1.1-1.5c1.3-0.8,2.4-1.8,3.5-2.6
			c2.7-1.9,5.3-3.9,8.1-5.6c1.8-1.3,3.9-2.4,6-2.4c1.3,0,2.6,0.5,3.9,1.5c0.6,0.5,1.5,0.8,2.3,0.8s1.5-0.2,2.1-0.3
			c0.6-0.2,1.3-0.2,1.8-0.2c1.6,0,3.1,0.6,4,1.8c1.1,1.3,1.5,2.9,1.1,4.4v0.3c-0.3,1-0.5,2.1-0.8,3.1c-2.4,7.4-3.7,13.7-3.9,19.7
			c0,2.4-0.5,5-1.3,7.9c-1.6,5.6-3.2,11.4-5,16.9l-0.6,2.3c-3.2,10.5-7.9,20.5-14,29.3c-5.6,8.4-12.9,14.7-21.4,18.9
			c-3.1,1.5-6.6,2.4-11.1,2.7c-0.5,0-0.8,0-1.3,0c-3.2,0-5.8-1-7.7-3.2c-0.5-0.6-0.3-1-0.2-1.1l0.2-0.2c0.2-0.3,0.6-1,1-1
			c0.2,0,0.3,0,0.5,0c1,0,1.8,0.2,2.4,0.5c1.6,0.6,3.2,1,4.7,1c1.6,0,3.4-0.3,5-1.1C453.7,201.1,454,201,454.5,200.8z M494.2,111.8
			l0.2-0.2l-0.2-0.2c0-0.5,0-0.8-0.2-1.1c-0.2-0.8-0.2-1.3-0.3-1.8c-0.3-1.8-1.9-3.1-3.9-3.1c-0.6,0-1.1,0.2-1.6,0.5
			c-0.5,0.2-0.8,0.3-1.3,0.5c-1,0.5-2.1,1-3.1,1.8c-9.7,6.9-15.6,15.3-18.5,25.5c-0.2,0.6-0.2,1.1-0.2,1.8c0,0.3,0,0.5,0,0.6
			c0,0.8,0.3,1.6,1,2.3c0.8,0.8,1.9,1.5,3.1,1.5c0.5,0,0.8-0.2,1.3-0.3c0.2-0.2,0.5-0.2,0.6-0.3c0.6-0.2,1.1-0.3,1.6-0.6
			c9.2-6.4,16-13.9,20.5-22.6c0.6-1.1,0.8-2.3,1-3.2C494.2,112.3,494.2,112,494.2,111.8z"/>
		<path class="st11" d="M567.7,105.2c-4.4,4.4-7.1,9.8-9.5,15.5c-3.4,7.7-8.1,15-12.3,22.6c-12.4,21.9-24,44.5-34.7,67.6
			c-1.3,2.9-2.6,5.8-3.9,8.7c-0.2,0.2-0.6,0.3-1,0.3c-0.6,0.2-1.1-0.3-1.1-1.3c-0.3-2.1,0.2-4.2,1-6.3c2.7-7.7,5.6-15.3,9.2-22.7
			c7.9-16.4,16-32.7,24.5-48.7c1.1-1.9,2.1-3.9,2.9-5.8c0.5-1.1,0.3-2.4,0.5-3.7c-6.1,4.7-12.1,9.7-18.7,13.7
			c-1.1,0.8-2.4,1.6-3.7,2.1c-2.4,1.1-4.8,1-7.1-0.3c-4.8-2.9-6.6-7.4-6.4-12.7c0.2-4.7,1.6-9.2,3.2-13.5
			c2.7-6.6,6.4-12.7,11.4-17.9c1-1,2.3-1.6,3.5-2.4c0.8-0.3,2.1,0,2.9,0.8c1.8,2.1,2.1,3.9,0.3,5.6c-6.4,6.1-10.5,13.5-12.9,21.8
			c-1,3.2-1.3,6.3,0.2,9.5c0.5,0.6,1,1.1,1.8,1c0.3,0,0.6,0.2,1,0c7.7-3.2,14.8-7.1,20.5-13.4c3.4-3.7,6.9-7.1,10.3-10.8
			c3.4-3.9,6-8.1,6.8-13.2c0.2-1.5,1-2.6,2.3-3.4c2.4-1.5,5-1.3,6.9,0.6c1,1,1.6,2.3,2.3,3.5C568.4,103.3,568.5,104.6,567.7,105.2z"
			/>
	</g>
	<g>
		<g>
			<path class="st11" d="M192.2,208.6c11.5-0.1,22.7-2.5,34-4.4c12.1-2,24.3-3.7,36.5-5.4c24.5-3.5,49-6.4,73.6-8.6
				c24.8-2.2,49.7-3.7,74.6-3.5c24.3,0.3,48.6,2.1,72.9,4.2c27.5,2.3,55,4.8,82.7,5.6c3.2,0.1,3.2-4.9,0-5
				c-48.7-1.4-97.1-8.3-145.8-9.6c-49-1.3-98.1,3.8-146.6,10.3c-13.8,1.9-27.6,4.1-41.5,6c-13.4,1.8-26.7,5.2-40.3,5.4
				C189,203.7,189,208.7,192.2,208.6L192.2,208.6z"/>
		</g>
	</g>
	<g class="st12">
		<g>
			<g>
				<path class="st13" d="M246.5,258.9c0.1-1.8,0.2-4.5,0.2-6.9v-32.3h4.8v16.8h0.1c1.7-3,4.8-4.9,9.1-4.9c6.6,0,11.3,5.5,11.3,13.6
					c0,9.5-6,14.3-12,14.3c-3.9,0-7-1.5-8.9-5h-0.2l-0.2,4.4H246.5z M251.5,248.1c0,0.6,0.1,1.2,0.2,1.8c0.9,3.4,3.8,5.7,7.3,5.7
					c5.1,0,8.1-4.1,8.1-10.3c0-5.4-2.8-9.9-7.9-9.9c-3.3,0-6.4,2.3-7.4,6c-0.1,0.6-0.3,1.2-0.3,2V248.1z"/>
				<path class="st13" d="M280.8,246.4c0.1,6.6,4.3,9.3,9.2,9.3c3.5,0,5.6-0.6,7.4-1.4l0.8,3.5c-1.7,0.8-4.6,1.7-8.9,1.7
					c-8.2,0-13.1-5.4-13.1-13.5s4.7-14.4,12.5-14.4c8.7,0,11,7.7,11,12.6c0,1-0.1,1.8-0.2,2.3H280.8z M295.1,242.9
					c0.1-3.1-1.3-7.9-6.7-7.9c-4.9,0-7.1,4.5-7.5,7.9H295.1z"/>
				<path class="st13" d="M307.5,232.1l5.9,15.8c0.6,1.8,1.3,3.9,1.7,5.5h0.1c0.5-1.6,1-3.6,1.7-5.6l5.3-15.7h5.1l-7.3,19
					c-3.5,9.2-5.9,13.9-9.2,16.7c-2.4,2.1-4.7,2.9-6,3.1l-1.2-4.1c1.2-0.4,2.8-1.2,4.2-2.4c1.3-1,3-2.9,4.1-5.4
					c0.2-0.5,0.4-0.9,0.4-1.2s-0.1-0.7-0.3-1.3l-9.9-24.6H307.5z"/>
				<path class="st13" d="M355.4,245.3c0,9.9-6.8,14.2-13.3,14.2c-7.2,0-12.8-5.3-12.8-13.7c0-8.9,5.9-14.2,13.2-14.2
					C350.2,231.5,355.4,237.1,355.4,245.3z M334.2,245.6c0,5.9,3.4,10.3,8.1,10.3c4.6,0,8.1-4.4,8.1-10.4c0-4.5-2.3-10.3-8-10.3
					S334.2,240.5,334.2,245.6z"/>
				<path class="st13" d="M361.5,239.4c0-2.8-0.1-5-0.2-7.2h4.3l0.3,4.4h0.1c1.3-2.5,4.4-5,8.8-5c3.7,0,9.4,2.2,9.4,11.4v16h-4.9
					v-15.4c0-4.3-1.6-7.9-6.2-7.9c-3.2,0-5.7,2.3-6.5,5c-0.2,0.6-0.3,1.4-0.3,2.3v16.1h-4.9V239.4z"/>
				<path class="st13" d="M415.2,219.7V252c0,2.4,0.1,5.1,0.2,6.9h-4.4l-0.2-4.6h-0.1c-1.5,3-4.7,5.2-9.1,5.2
					c-6.5,0-11.4-5.5-11.4-13.6c-0.1-8.9,5.5-14.3,12-14.3c4.1,0,6.8,1.9,8.1,4.1h0.1v-16H415.2z M410.4,243c0-0.6-0.1-1.4-0.2-2
					c-0.7-3.1-3.4-5.6-7-5.6c-5,0-8,4.4-8,10.3c0,5.4,2.6,9.9,7.9,9.9c3.3,0,6.2-2.2,7.1-5.8c0.2-0.7,0.2-1.3,0.2-2.1V243z"/>
			</g>
		</g>
		<polyline class="st13" points="460.7,232.4 474.9,232.5 474.9,258.9 478.7,258.9 478.7,232.2 492.7,232.2 492.7,258.9 
			515.9,258.9 515.9,255.2 496.3,255.2 496.3,229.2 457.5,229.2 		"/>
		<path class="st14" d="M442.1,221.6V257h18.1c0,0,7.9,0.6,7.9-7.5c0-6.5-7.7-6.5-7.7-6.5h-18.2"/>
	</g>
</g>
</svg>
