<?xml version="1.0" encoding="utf-8"?>
<!-- Generator: Adobe Illustrator 19.1.0, SVG Export Plug-In . SVG Version: 6.00 Build 0)  -->
<svg version="1.1" id="Capa_1" xmlns="http://www.w3.org/2000/svg" xmlns:xlink="http://www.w3.org/1999/xlink" x="0px" y="0px"
	 viewBox="0 0 563.7 158.6" style="enable-background:new 0 0 563.7 158.6;" xml:space="preserve">
<style type="text/css">
	.st0{fill:#FFFFFF;}
</style>
<g>
	<g>
		<path class="st0" d="M563.5,68.5c0.1,1.4,0.2,2.9,0.2,4.4v17.8V115h-17.5V72.9c0-1.5-0.1-3-0.3-4.4H563.5z"/>
		<path class="st0" d="M545.7,65.2c-0.2-0.7-0.5-1.4-0.7-2c-1.3-3-3.1-5.7-5.3-7.9c-2.2-2.2-4.9-4-7.8-5.3c-3-1.3-6.1-1.9-9.5-1.9
			c-3.4,0-6.5,0.6-9.5,1.9c-3,1.3-5.6,3.1-7.8,5.3c-2.2,2.2-4,4.9-5.3,7.9c-0.3,0.6-0.5,1.3-0.7,2h-18c0.5-3,1.4-5.9,2.6-8.6
			c2.2-5.1,5.2-9.6,9-13.4c3.8-3.8,8.3-6.8,13.4-9c5.1-2.2,10.6-3.3,16.4-3.3c5.8,0,11.3,1.1,16.4,3.3c5.1,2.2,9.6,5.2,13.4,9
			c3.8,3.8,6.8,8.3,9,13.4c1.2,2.8,2.1,5.6,2.6,8.6L545.7,65.2z"/>
		<path class="st0" d="M498.7,68.5c-0.2,1.4-0.4,2.9-0.4,4.4c0,3.4,0.6,6.5,1.9,9.5c1.3,3,3.1,5.6,5.3,7.8c2.2,2.2,4.8,4,7.8,5.3
			c3,1.3,6.1,1.9,9.5,1.9c1.1,0,2.2-0.1,3.1-0.2c0.9-0.1,1.9-0.3,3-0.5l4,17c-1.6,0.2-3.2,0.5-5,0.8c-1.7,0.3-3.4,0.4-5.1,0.4
			c-5.8,0-11.3-1.1-16.4-3.4c-5.1-2.3-9.6-5.3-13.4-9.1c-3.8-3.8-6.8-8.3-9-13.4c-2.2-5.1-3.3-10.5-3.3-16.2c0-1.5,0.1-3,0.2-4.4
			H498.7z"/>
	</g>
	<g>
		<path class="st0" d="M56.8,100.3c5.7,0,11.1-1.1,16.3-3.4c5.2-2.3,9.5-5.2,13.1-8.8l8.1,8.1c-2.1,2.4-4.6,4.6-7.6,6.5
			c-3,1.9-6.2,3.6-9.8,5c-3.5,1.4-7.1,2.5-10.6,3.4c-3.6,0.8-7.1,1.2-10.3,1.2c-7.3,0-14.4-1.5-21.1-4.6
			c-6.7-3.1-12.7-7.2-17.8-12.2c-5.2-5.1-9.3-11-12.4-17.7C1.5,71.1,0,64,0,56.5c0-7.2,1.5-14.2,4.4-21c2.9-6.8,6.9-12.8,11.9-18.1
			C21.3,12.3,27.2,8,34,4.8C40.8,1.6,48.1,0,55.9,0c4,0,7.8,0.4,11.3,1.2C70.7,2.1,74,3,77,4c3.6,1.7,6.9,3.4,9.8,5.3
			c2.9,1.9,5.4,3.8,7.5,5.7l1.1,1.1l-9.2,8.1c-8.5-7.3-18.3-11-29.4-11c-6.1,0-11.8,1.1-17.1,3.4c-5.2,2.2-9.8,5.3-13.8,9.2
			c-4,3.9-7.1,8.5-9.3,13.8c-2.2,5.3-3.4,11-3.4,16.9c0,5.8,1.1,11.4,3.4,16.7c2.3,5.3,5.4,9.9,9.3,13.9c4,4,8.5,7.1,13.8,9.5
			C45,99.1,50.6,100.3,56.8,100.3"/>
		<path class="st0" d="M175.7,55.9c1.2,2.7,2,5.4,2.4,7.9c0.4,2.6,0.6,5.2,0.6,7.9v17.6v23h-8.8V71.7c0-4.3-0.8-8.5-2.5-12.3
			c-1.7-3.9-4-7.2-6.8-10.2c-2.9-2.9-6.3-5.3-10.2-7c-3.9-1.7-8.1-2.6-12.5-2.6c-4.5,0-8.6,0.9-12.5,2.6c-3.9,1.7-7.2,4.1-10,7
			c-2.8,2.9-5.1,6.3-6.8,10.2c-1.7,3.8-2.5,8-2.5,12.3c0,4.4,0.8,8.6,2.5,12.5c1.7,3.8,3.9,7.2,6.8,10c2.8,2.8,6.2,5.1,10,6.8
			c3.8,1.7,8,2.5,12.5,2.5c1.5,0,2.9,0,4.1-0.1c1.2-0.1,2.6-0.3,4.2-0.7l1.5,8.8c-0.8,0-1.7,0.1-2.9,0.4c-1.2,0.3-3.5,0.4-6.8,0.4
			c-5.5,0-10.8-1.1-15.7-3.2c-4.9-2.1-9.3-5-12.9-8.6c-3.7-3.6-6.6-7.9-8.7-12.9c-2.1-4.9-3.2-10.2-3.2-15.9c0-5.4,1-10.6,2.9-15.6
			c2-4.9,4.7-9.3,8.3-13c3.6-3.8,7.9-6.7,12.9-9c5-2.2,10.5-3.3,16.4-3.3c8.1,0,15.6,2.2,22.3,6.7C166.7,42,172,48.1,175.7,55.9"/>
		<path class="st0" d="M264.6,88.2c-4,7.8-9.3,13.9-15.7,18.1c-6.5,4.2-13.9,6.3-22.2,6.3h-5c-2,0-3.5-0.3-4.6-0.8l2.3-9.6
			c1.2,0.4,2.4,0.7,3.7,0.7c1.3,0.1,2.5,0.1,3.6,0.1c4.4,0,8.6-0.8,12.5-2.4c3.9-1.6,7.3-3.9,10.2-6.8c2.9-2.9,5.1-6.2,6.8-9.9
			c1.6-3.8,2.5-7.7,2.5-12c0-4.4-0.8-8.6-2.5-12.5c-1.6-3.9-3.9-7.3-6.8-10.2c-2.9-2.9-6.3-5.1-10.2-6.8c-3.9-1.6-8.1-2.4-12.5-2.4
			c-4.2,0-8.3,0.8-12.1,2.4c-3.9,1.6-7.3,3.8-10.3,6.7c-3,2.8-5.4,6.1-7.1,9.9c-1.7,3.8-2.6,7.8-2.6,12.1v72l-8.6-9V89.6V71.9
			c0-5.1,0.9-10.1,2.8-15c1.9-4.9,4.5-9.2,8-13.1c3.5-3.8,7.7-6.9,12.8-9.3c5-2.3,10.8-3.5,17.2-3.5c5.8,0,11.1,1.1,16.1,3.4
			c5,2.3,9.3,5.3,13,9.1c3.6,3.8,6.5,8.1,8.6,13c2.1,4.9,3.2,10,3.2,15.3c0,2.9-0.2,5.7-0.6,8.4C266.4,82.9,265.6,85.6,264.6,88.2"
			/>
		<path class="st0" d="M285.7,84.6c1.6,3.8,3.8,7.1,6.7,10c2.8,2.9,6.1,5.1,9.8,6.8c3.7,1.6,7.7,2.4,11.9,2.4v8
			c-5.1,0-10.2-0.9-15.2-2.9c-5-1.9-9.5-4.9-13.3-8.9c-3.6-3.5-6.4-7.8-8.5-12.9c-2.1-5.1-3.2-10.3-3.3-15.5V10.6l8.8-9.5v30h31.4
			V40h-31.4v32.2h0.7C283.3,76.7,284.1,80.8,285.7,84.6"/>
		<path class="st0" d="M355.7,103.6c4.1,0,8.1-0.8,11.8-2.4c3.7-1.6,6.9-3.7,9.5-6.3l5.9,5.9c-1.5,1.7-3.4,3.3-5.5,4.7
			c-2.2,1.4-4.5,2.6-7.1,3.7c-2.5,1-5.1,1.8-7.7,2.4c-2.6,0.6-5.1,0.9-7.5,0.9c-5.3,0-10.4-1.1-15.3-3.3c-4.9-2.2-9.2-5.2-13-8.9
			c-3.7-3.7-6.7-8-8.9-12.9c-2.2-4.9-3.3-10-3.3-15.5c0-5.2,1.1-10.3,3.2-15.2c2.1-4.9,5-9.3,8.6-13.1c3.6-3.8,7.9-6.9,12.9-9.2
			c4.9-2.3,10.2-3.5,15.9-3.5c2.9,0,5.7,0.3,8.2,0.9c2.5,0.6,4.9,1.3,7.1,2c2.6,1.2,5,2.5,7.1,3.8c2.1,1.4,3.9,2.7,5.5,4.2l0.8,0.8
			l-6.7,5.9c-6.2-5.3-13.3-8-21.3-8c-4.4,0-8.6,0.8-12.4,2.5c-3.8,1.6-7.1,3.8-10,6.7c-2.9,2.8-5.1,6.2-6.8,10
			c-1.6,3.9-2.4,8-2.4,12.3c0,4.2,0.8,8.3,2.4,12.1c1.6,3.9,3.9,7.2,6.8,10.1c2.9,2.9,6.2,5.2,10,6.9
			C347.2,102.8,351.3,103.6,355.7,103.6"/>
		<path class="st0" d="M466.8,56.2c0.8,2.6,1.5,5.2,2.1,7.7c0.7,2.5,1,5.2,1,7.9v40.4h-9V70.9c0-4.2-0.8-8.2-2.4-11.9
			c-1.6-3.7-3.9-6.9-6.8-9.8c-2.9-2.8-6.2-5-10.1-6.7c-3.9-1.6-8-2.4-12.5-2.4c-4.2,0-8.2,0.8-12,2.4c-3.7,1.6-7,3.8-9.9,6.7
			c-2.8,2.8-5.1,6.1-6.8,9.8c-1.7,3.7-2.7,7.7-2.9,11.9v41.4h-8.8V10.5l8.8-8.6v44.9c3.6-5.1,8.2-8.9,13.7-11.5
			c5.5-2.6,11.5-3.9,17.9-4.2c4.4-0.1,8.6,0.4,12.5,1.6c3.9,1.2,7.5,2.9,10.7,5c3.2,2.2,6,4.8,8.5,8C463.3,49,465.3,52.4,466.8,56.2
			"/>
	</g>
	<g>
		<path class="st0" d="M398.1,137.1c1-5.4,1.2-6.9,1.4-8.2h-3.9c-1.9,0-3.2,0-4.5,0.4c-1,0.3-1.8-0.7-1.6-1.6c0.3-1.3,1.7-2.1,3.1-2
			c0.5,0,1.1,0,1.8,0h15.1c1.2,0,2.1,0,2.8-0.1c1.1,0,2.1,0.9,1.9,2.1c-0.3,1.1-1.6,1.5-2.6,1.3c-0.5-0.1-1.1-0.1-1.9-0.1h-5.3
			c-0.5,2.2-1.5,7.1-1.8,8.4l-2.1,11.6c-0.6,3.2-0.9,5.3-1,6.6c-0.1,1.3-1.3,2.2-2.6,2.2c-0.2,0-0.4,0-0.6,0c-1.2,0-2.3-1-1.9-2.1
			c0.6-1.9,1.1-4.2,1.7-7.4L398.1,137.1z"/>
		<path class="st0" d="M418,147.1c-0.5,2.3-0.7,3.4-0.7,4.4c0,1.7,0.8,3.2,3.3,3.2c1,0,3.9-0.2,5.8-3.5c1.1-2,2.1-5.9,2.8-9.5
			c0.5-2.7,0.7-4.5,0.8-5.6c0-1.3,0.8-2.6,2.1-2.8c0.4,0,0.7-0.1,1.1-0.2c1-0.2,2.1,0.7,1.7,1.7c-0.7,2.4-1.3,5-2.1,9.5
			c-1.1,6.3-1.6,9.4-1.6,11.1c0,0.1,0,0.2,0,0.4c0,1.2-1,2.1-2.1,2.1c-1.3,0-2.4-1.1-2.3-2.4c0-1.1,0.5-3.9,0.6-4.9
			c-0.7,1.1-2.1,4.8-4.1,6.2c-2.1,1.5-4.5,1.6-5.1,1.6c-3,0-5.7-1.6-5.7-4.9c0-0.6,0.1-1.3,0.4-3l2.3-12.2c0.2-0.9,0.3-1.6,0.3-2.2
			c0.1-1.2,0.6-2.6,1.8-2.8c0.4,0,0.7-0.1,1.1-0.2c1.2-0.3,2.2,0.8,1.9,2c-0.6,2.1-0.7,3-1.2,5.1L418,147.1z"/>
		<path class="st0" d="M441.7,146.4c-1.3-0.8-3.7-2.2-3.7-5.3c0-2.6,1.5-4.9,3.6-6.5c2.3-1.7,5.5-2.1,7.3-2.1c1.2,0,2.1,0.1,2.9,0.3
			c1.1,0.2,1.6,1.5,1.2,2.6c-0.5,1-1.6,1.2-2.6,0.7c-0.7-0.3-1.6-0.5-2.6-0.5c-3.5,0-5.4,2.2-5.4,4.1c0,2,1.7,3,3.4,3.9l2.3,1.4
			c1.3,0.8,3.2,2,3.2,4.9c0,2.1-0.9,4.7-3.5,6.6c-2.7,2-5.8,2.1-7.7,2.1c-1.3,0-2.3-0.1-3.2-0.3c-1.3-0.3-2-1.7-1.6-3
			c0.3-1,1.5-1.3,2.4-0.8c0.9,0.4,2.1,0.7,3.9,0.7c3.6,0,5.5-2,5.5-3.9c0-1.6-1.3-2.5-2.7-3.3L441.7,146.4z"/>
		<path class="st0" d="M469.4,133.7c0.5-2.5,0.7-4.2,0.9-5.4c0.1-1.3,1-2.6,2.3-2.5c0.2,0,0.3,0,0.5,0c0.2,0,0.4,0,0.5,0
			c1.2,0,2,1.1,1.6,2.3c-0.4,1.2-0.8,3.2-1.4,6.2l-2.9,16c-0.5,2.4-0.7,4-0.8,5.2c-0.1,1.4-1.2,2.4-2.6,2.4c-0.3,0-0.5,0-0.8,0
			c-1.2,0-2-1.1-1.7-2.2c0.4-1.2,0.7-2.7,1.3-5.3L469.4,133.7z"/>
		<path class="st0" d="M496.1,147c-0.5,2.7-1.1,6.1-1.1,8.5c0,1.2-0.8,2.3-2,2.3c-1.3,0-2.5-1.1-2.3-2.4c0.1-0.7,0.5-3.7,0.8-5.1
			c-1.8,2.4-4.5,7.9-8.7,7.9c-3.7,0-6.8-2.6-6.8-7.8c0-1.3,0.4-7.7,4.6-12.8c2.6-3.1,6.4-5.2,10.3-5.2c1.4,0,2.3,0.3,3.4,0.6
			c0.5-2.4,0.7-3.8,0.6-4.8c0-1.2,0.5-2.4,1.7-2.6c0.4,0,0.7-0.1,1-0.2c1.1-0.2,2.3,0.6,2.1,1.7c-0.3,1.2-0.5,2.8-1.1,5.9L496.1,147
			z M480.7,149.1c0,3.2,1.5,5.6,4,5.6c1.6,0,4-1.1,5.6-4.3c1.3-2.7,1.9-5.4,3.7-14.4c-1.1-0.3-2.1-0.6-3.4-0.6
			C482.6,135.4,480.7,146.3,480.7,149.1z"/>
		<path class="st0" d="M511.5,155.6c1.9,0,3.4-0.5,4.5-0.9c0.6-0.3,1.2,0.4,1,1c-0.3,1.1-1.1,2.1-2.2,2.4c-1.1,0.2-2.6,0.5-4.3,0.5
			c-7.3-0.2-9-4.4-9.1-10.1c0-5.1,2.4-9.1,3.8-10.9c3.1-3.9,7.3-5.2,10.2-5.2c4.3,0,6.5,2.4,6.5,5.5c0,1.5-0.5,3.2-1.5,4.6
			c-1.2,1.9-2.9,3-4.4,3.7c-3.2,1.6-6.3,1.6-10,1.8C506,148,504.5,155.6,511.5,155.6z M509.5,137.7c-2.1,2.3-3,6.8-3.3,9.3
			c3.3,0,6.5-1.9,9-4.3c1.3-1.2,2.2-2.8,2.2-4.6c0-2.1-1.5-3-3.1-3C513.4,135.1,511.4,135.4,509.5,137.7z"/>
		<path class="st0" d="M543.9,133.2c1.1-0.4,2,0.8,1.7,1.9c-0.4,1.5-0.9,3.8-1.6,8.1l-0.8,4.5c-0.8,4.4-1,6.8-1,8.3
			c0,1.1-1.1,1.9-2.1,1.9c-1.1,0-2.1-0.9-2-2c0.2-1.9,0.8-5.3,0.8-5.8c-2.1,2.8-5.1,8.3-9.3,8.3c-3.3,0-6.7-2.4-6.7-7.6
			c0-2.2,0.8-10.7,7.6-15.7c1.1-0.8,3.7-2.6,7.5-2.6c2.1,0,3.4,0.5,4.9,1.1L543.9,133.2z M541.1,136.1c-0.9-0.3-2.1-0.7-3.9-0.7
			c-7.7,0-9.7,9.9-9.7,13.7c0,3.2,1.1,5.5,4.1,5.5c1.7,0,3.7-0.8,5.3-3.1c1.3-1.9,2.2-4.6,3-9L541.1,136.1z"/>
		<path class="st0" d="M552.3,146.4c-1.3-0.8-3.7-2.2-3.7-5.3c0-2.6,1.5-4.9,3.6-6.5c2.3-1.7,5.5-2.1,7.3-2.1c1.2,0,2.1,0.1,2.9,0.3
			c1.1,0.2,1.6,1.5,1.2,2.6c-0.5,1-1.6,1.2-2.6,0.7c-0.7-0.3-1.6-0.5-2.6-0.5c-3.5,0-5.4,2.2-5.4,4.1c0,2,1.7,3,3.4,3.9l2.3,1.4
			c1.3,0.8,3.2,2,3.2,4.9c0,2.1-0.9,4.7-3.5,6.6c-2.7,2-5.8,2.1-7.7,2.1c-1.3,0-2.3-0.1-3.2-0.3c-1.3-0.3-2-1.7-1.6-3
			c0.3-1,1.5-1.3,2.4-0.8c0.9,0.4,2.1,0.7,3.9,0.7c3.6,0,5.5-2,5.5-3.9c0-1.6-1.3-2.5-2.7-3.3L552.3,146.4z"/>
	</g>
</g>
</svg>
