<?xml version="1.0" encoding="utf-8"?>
<!-- Generator: Adobe Illustrator 16.0.0, SVG Export Plug-In . SVG Version: 6.00 Build 0)  -->
<!DOCTYPE svg PUBLIC "-//W3C//DTD SVG 1.1//EN" "http://www.w3.org/Graphics/SVG/1.1/DTD/svg11.dtd">
<svg version="1.1" id="Capa_1" xmlns="http://www.w3.org/2000/svg" xmlns:xlink="http://www.w3.org/1999/xlink" x="0px" y="0px"
	 width="605.439px" height="362.905px" viewBox="6.704 5.862 605.439 362.905" enable-background="new 6.704 5.862 605.439 362.905"
	 xml:space="preserve">
<g>
	<g>
		
			<linearGradient id="SVGID_1_" gradientUnits="userSpaceOnUse" x1="409.6133" y1="740.5811" x2="464.168" y2="740.5811" gradientTransform="matrix(-1 0 0 -1 658.3408 817)">
			<stop  offset="0" style="stop-color:#07999D"/>
			<stop  offset="0.1137" style="stop-color:#00959A"/>
			<stop  offset="0.2685" style="stop-color:#008B91"/>
			<stop  offset="0.447" style="stop-color:#007A83"/>
			<stop  offset="0.643" style="stop-color:#00636F"/>
			<stop  offset="0.851" style="stop-color:#004754"/>
			<stop  offset="1" style="stop-color:#00303C"/>
		</linearGradient>
		<polygon fill="url(#SVGID_1_)" stroke="#FFFFFF" stroke-miterlimit="10" points="248.728,65.877 208.81,65.877 194.172,86.961 		
			"/>
		
			<linearGradient id="SVGID_2_" gradientUnits="userSpaceOnUse" x1="446.5801" y1="743.2256" x2="499.4922" y2="743.2256" gradientTransform="matrix(-1 0 0 -1 658.3408 817)">
			<stop  offset="0.0314" style="stop-color:#7FC9C9"/>
			<stop  offset="0.4149" style="stop-color:#7DC7C8"/>
			<stop  offset="0.553" style="stop-color:#75C0C2"/>
			<stop  offset="0.6515" style="stop-color:#69B4B8"/>
			<stop  offset="0.7311" style="stop-color:#57A4AB"/>
			<stop  offset="0.7993" style="stop-color:#3F909A"/>
			<stop  offset="0.8597" style="stop-color:#227A85"/>
			<stop  offset="0.9144" style="stop-color:#00606D"/>
			<stop  offset="0.9629" style="stop-color:#004654"/>
			<stop  offset="1" style="stop-color:#00303C"/>
		</linearGradient>
		<polygon fill="url(#SVGID_2_)" stroke="#FFFFFF" stroke-miterlimit="10" points="211.761,61.624 160.752,41.148 158.849,84.896 
			180.677,106.401 		"/>
		
			<linearGradient id="SVGID_3_" gradientUnits="userSpaceOnUse" x1="467.5752" y1="687.4844" x2="528.35" y2="722.5728" gradientTransform="matrix(-1 0 0 -1 658.3408 817)">
			<stop  offset="0" style="stop-color:#07999D"/>
			<stop  offset="0.2575" style="stop-color:#03979C"/>
			<stop  offset="0.4089" style="stop-color:#009298"/>
			<stop  offset="0.5328" style="stop-color:#008A91"/>
			<stop  offset="0.6419" style="stop-color:#007E87"/>
			<stop  offset="0.7412" style="stop-color:#006F7A"/>
			<stop  offset="0.8334" style="stop-color:#005D6A"/>
			<stop  offset="0.9185" style="stop-color:#004956"/>
			<stop  offset="0.999" style="stop-color:#00303C"/>
			<stop  offset="1" style="stop-color:#00303C"/>
		</linearGradient>
		<polygon fill="url(#SVGID_3_)" stroke="#FFFFFF" stroke-miterlimit="10" points="160.752,41.148 114.863,123.317 136.786,135.868 
			150.319,177.202 172.165,161.735 158.849,84.896 		"/>
		
			<linearGradient id="SVGID_4_" gradientUnits="userSpaceOnUse" x1="507.4814" y1="654.3799" x2="615.2783" y2="654.3799" gradientTransform="matrix(-1 0 0 -1 658.3408 817)">
			<stop  offset="0.0314" style="stop-color:#40B3B3"/>
			<stop  offset="1" style="stop-color:#00303C"/>
		</linearGradient>
		<polygon fill="url(#SVGID_4_)" stroke="#FFFFFF" stroke-miterlimit="10" points="150.859,178.851 101.79,211.565 43.062,173.784 
			99.492,113.675 136.786,135.868 		"/>
		
			<linearGradient id="SVGID_5_" gradientUnits="userSpaceOnUse" x1="650.0537" y1="735.7598" x2="559.5674" y2="735.7598" gradientTransform="matrix(-1 0 0 -1 658.3408 817)">
			<stop  offset="0" style="stop-color:#07999D"/>
			<stop  offset="0.2492" style="stop-color:#03979C"/>
			<stop  offset="0.4005" style="stop-color:#009297"/>
			<stop  offset="0.5258" style="stop-color:#008A90"/>
			<stop  offset="0.6368" style="stop-color:#007E87"/>
			<stop  offset="0.7385" style="stop-color:#006E79"/>
			<stop  offset="0.8331" style="stop-color:#005C69"/>
			<stop  offset="0.9207" style="stop-color:#004754"/>
			<stop  offset="1" style="stop-color:#00303C"/>
		</linearGradient>
		<polygon fill="url(#SVGID_5_)" stroke="#FFFFFF" stroke-miterlimit="10" points="98.772,114.043 8.287,12.163 65.088,150.321 		
			"/>
		
			<linearGradient id="SVGID_6_" gradientUnits="userSpaceOnUse" x1="586.8164" y1="590.2178" x2="571.4103" y2="616.9017" gradientTransform="matrix(-1 0 0 -1 658.3408 817)">
			<stop  offset="0" style="stop-color:#07999D"/>
			<stop  offset="0.4999" style="stop-color:#006570"/>
			<stop  offset="1" style="stop-color:#00303C"/>
		</linearGradient>
		<polygon fill="url(#SVGID_6_)" stroke="#FFFFFF" stroke-miterlimit="10" points="101.79,211.565 68.267,189.323 90.19,237.559 		
			"/>
		
			<linearGradient id="SVGID_7_" gradientUnits="userSpaceOnUse" x1="507.8057" y1="667.752" x2="477.8626" y2="719.6147" gradientTransform="matrix(-1 0 0 -1 658.3408 817)">
			<stop  offset="0.0314" style="stop-color:#40B3B3"/>
			<stop  offset="0.1722" style="stop-color:#2DA2A6"/>
			<stop  offset="0.4633" style="stop-color:#007A84"/>
			<stop  offset="0.8762" style="stop-color:#00414E"/>
			<stop  offset="1" style="stop-color:#00303C"/>
		</linearGradient>
		<polygon fill="url(#SVGID_7_)" stroke="#FFFFFF" stroke-miterlimit="10" points="180.677,106.401 172.165,161.735 158.849,84.896 
					"/>
		
			<linearGradient id="SVGID_8_" gradientUnits="userSpaceOnUse" x1="527.8945" y1="585.0576" x2="568.1504" y2="585.0576" gradientTransform="matrix(-1 0 0 -1 658.3408 817)">
			<stop  offset="0.0314" style="stop-color:#9D1C16"/>
			<stop  offset="0.4446" style="stop-color:#9C1C15"/>
			<stop  offset="0.5935" style="stop-color:#971C15"/>
			<stop  offset="0.6996" style="stop-color:#8E1B13"/>
			<stop  offset="0.7854" style="stop-color:#811A11"/>
			<stop  offset="0.8589" style="stop-color:#72180E"/>
			<stop  offset="0.9239" style="stop-color:#5F1509"/>
			<stop  offset="0.9814" style="stop-color:#491003"/>
			<stop  offset="1" style="stop-color:#410E00"/>
		</linearGradient>
		<polygon fill="url(#SVGID_8_)" stroke="#FFFFFF" stroke-miterlimit="10" points="97.354,221.506 130.446,242.379 90.19,237.559 		
			"/>
		
			<linearGradient id="SVGID_9_" gradientUnits="userSpaceOnUse" x1="560.9854" y1="623.0234" x2="486.1748" y2="623.0234" gradientTransform="matrix(-1 0 0 -1 658.3408 817)">
			<stop  offset="0.0314" style="stop-color:#7FC9C9"/>
			<stop  offset="0.0685" style="stop-color:#5BA8AE"/>
			<stop  offset="0.1171" style="stop-color:#348892"/>
			<stop  offset="0.1717" style="stop-color:#0D6D7A"/>
			<stop  offset="0.2321" style="stop-color:#005966"/>
			<stop  offset="0.3003" style="stop-color:#004956"/>
			<stop  offset="0.38" style="stop-color:#003D4A"/>
			<stop  offset="0.4784" style="stop-color:#003542"/>
			<stop  offset="0.6166" style="stop-color:#00313D"/>
			<stop  offset="1" style="stop-color:#00303C"/>
		</linearGradient>
		<polygon fill="url(#SVGID_9_)" stroke="#FFFFFF" stroke-miterlimit="10" points="172.165,161.735 109.208,215.372 
			104.834,226.221 97.354,221.506 101.79,211.565 		"/>
		
			<linearGradient id="SVGID_10_" gradientUnits="userSpaceOnUse" x1="520.2207" y1="589.0566" x2="553.5059" y2="589.0566" gradientTransform="matrix(-1 0 0 -1 658.3408 817)">
			<stop  offset="0.0314" style="stop-color:#9D1C16"/>
			<stop  offset="0.1748" style="stop-color:#941C14"/>
			<stop  offset="0.4313" style="stop-color:#7E1A11"/>
			<stop  offset="0.7688" style="stop-color:#5B1508"/>
			<stop  offset="1" style="stop-color:#410E00"/>
		</linearGradient>
		<polygon fill="url(#SVGID_10_)" stroke="#FFFFFF" stroke-miterlimit="10" points="107.358,219.956 138.121,234.01 
			120.227,235.932 104.834,226.221 		"/>
		
			<linearGradient id="SVGID_11_" gradientUnits="userSpaceOnUse" x1="490.1758" y1="809.7061" x2="490.1758" y2="756.5273" gradientTransform="matrix(-1 0 0 -1 658.3408 817)">
			<stop  offset="0.0314" style="stop-color:#9D1C16"/>
			<stop  offset="0.1717" style="stop-color:#951C15"/>
			<stop  offset="0.4171" style="stop-color:#801A11"/>
			<stop  offset="0.736" style="stop-color:#5F1509"/>
			<stop  offset="1" style="stop-color:#410E00"/>
		</linearGradient>
		<polygon fill="url(#SVGID_11_)" stroke="#FFFFFF" stroke-miterlimit="10" points="188.996,52.485 164.556,14.141 153.271,7.293 
			160.66,20.206 153.121,11.754 156.759,22.605 152.144,17.148 153.901,24.167 147.334,29.04 149.96,60.472 160.752,41.148 		"/>
	</g>
	<g>
		<path fill="#025F6A" d="M284.306,145.698c-2.971,0.165-5.778,0.825-8.749,0.989c-2.312,0.33-4.62,0.496-6.932,0.496
			c-3.301,0.164-6.105,1.319-8.581,3.795c-1.98,1.98-4.126,4.127-6.272,6.107c-4.455,4.125-8.911,8.251-13.367,12.377
			c-1.319,1.154-2.311,2.477-3.465,3.795c-0.66,0.826-0.166,2.643,0.99,2.971c1.154,0.166,2.145,0.496,3.301,0.496
			c4.455,0.33,8.746,0.166,13.037-0.66c2.807-0.659,5.776-0.989,8.582-0.495c0.495,0,0.825,0.825,0.99,1.155
			c0.33,0.66,0.165,1.32-0.33,1.649c-0.826,0.495-1.485,1.155-2.312,1.32c-7.756,1.155-15.349,2.806-23.27,2.476
			c-2.478,0-4.621-0.988-6.438-2.31c-0.823-0.331-1.319-1.155-1.813-1.815c-0.99-1.32-0.99-2.641-0.496-4.126
			c0.826-1.979,2.146-3.467,3.631-4.786c4.787-4.621,9.738-9.242,14.523-13.863c1.484-1.319,3.135-2.641,3.961-4.621
			c0-0.164,0.166-0.659,0-0.824c0-0.165-0.495-0.33-0.66-0.33c-1.155,0-2.312,0-3.466,0.165c-2.312,0.495-4.62,1.155-6.933,1.319
			c-2.31,0.33-3.631,1.32-4.29,3.632c-0.166,0.825-0.991,1.319-1.979,1.319c-3.797,0-7.592,0-11.39-0.33
			c-1.483,0-2.475-1.319-2.971-2.807c-0.329-1.318,0.166-3.135,1.486-3.795c0.989-0.495,1.979-1.32,3.135-1.32
			c5.777-0.66,11.389-2.146,17.164-2.311c4.951-0.165,9.902-1.155,14.854-1.65c1.979-0.164,2.971-1.484,3.631-3.301
			c0.165-0.66,0.165-1.154-0.496-1.484c-1.319-1.155-2.971-1.65-4.785-1.815c-5.281-0.33-10.396,0.66-15.514,1.979
			c-0.66,0.166-1.32,0.99-1.98,1.485c-0.66,0.99-1.65,1.649-2.805,1.815c-1.816,0-3.467-0.166-4.952-1.32
			c-1.155-0.825-1.815-2.477-1.485-3.796c0.496-1.485,1.32-2.806,2.808-3.302c2.805-0.658,5.61-1.154,8.582-1.648
			c7.096-1.156,14.356-1.98,21.618-0.826c1.155,0.165,2.312,0.33,3.302,0.826c1.814,0.99,3.301,2.475,3.301,4.785
			c0,0.826,0,1.65,0,2.641c-0.165,1.815,0.33,2.312,2.475,2.312c1.98,0,3.961,0,7.429,0c1.649-0.165,3.631-0.33,5.775-0.495
			c0.166,0,0.33,0.165,0.66,0.165c1.156,0,2.311,0,3.465,0.165c1.322,0.165,2.807,0.165,3.797,0.99
			c0.33,0.164,0.33,0.164,0.166,0.494c-0.332,0.825-1.322,1.32-2.146,1.65c-0.494,0.165-0.99,0.495-1.65,0.495
			C286.451,145.698,285.294,145.698,284.306,145.698z"/>
		<path fill="#025F6A" d="M336.783,138.601c-4.455,4.455-7.262,10.066-9.734,15.844c-3.467,7.922-8.252,15.349-12.543,23.104
			c-12.707,22.445-24.59,45.552-35.482,69.15c-1.32,2.971-2.641,5.942-3.961,8.912c-0.166,0.165-0.66,0.331-0.99,0.331
			c-0.66,0.162-1.155-0.331-1.155-1.321c-0.33-2.146,0.165-4.291,0.989-6.437c2.808-7.922,5.777-15.68,9.408-23.271
			c8.086-16.833,16.338-33.501,25.086-49.84c1.154-1.981,2.146-3.961,2.971-5.941c0.494-1.155,0.328-2.477,0.494-3.796
			c-6.27,4.786-12.377,9.901-19.145,14.027c-1.154,0.826-2.475,1.65-3.795,2.146c-2.477,1.155-4.951,0.99-7.263-0.329
			c-4.949-2.971-6.767-7.592-6.601-13.037c0.165-4.787,1.65-9.406,3.301-13.863c2.806-6.768,6.602-13.038,11.717-18.318
			c0.99-0.99,2.311-1.65,3.631-2.477c0.826-0.33,2.146,0,2.971,0.826c1.816,2.145,2.146,3.959,0.33,5.774
			c-6.602,6.271-10.727,13.863-13.203,22.28c-0.99,3.3-1.319,6.436,0.166,9.736c0.494,0.66,0.99,1.154,1.814,0.989
			c0.33,0,0.66,0.165,0.99,0c7.922-3.3,15.184-7.261,20.961-13.698c3.465-3.795,7.096-7.262,10.561-11.057
			c3.467-3.961,6.105-8.252,6.934-13.533c0.164-1.484,0.988-2.641,2.311-3.466c2.475-1.485,5.115-1.319,7.096,0.66
			c0.99,0.99,1.648,2.312,2.311,3.631C337.443,136.621,337.609,137.942,336.783,138.601z"/>
		<path fill="#025F6A" d="M368.966,148.999c-0.168-0.165-0.332-0.66-0.662-0.66c-0.33-0.165-0.826-0.165-1.154,0.165
			c-3.301,3.467-6.932,6.768-9.902,10.397c-3.961,5.116-8.744,9.241-13.201,13.862c-0.99,0.99-2.643,1.32-4.125,1.484
			c-3.139,0.33-5.941-2.146-5.611-5.281c0.494-3.795,0.66-7.591,1.648-11.057c1.979-7.592,4.289-15.184,6.438-22.609
			c0.164-0.826,0.494-1.486,0.99-2.146c0.99-1.485,2.475-2.807,4.457-2.807c1.646-0.164,3.465,3.137,3.133,5.281
			c-0.164,1.485-0.494,2.807-0.822,4.291c-1.816,5.776-3.631,11.389-5.283,17.165c-0.164,0.494,0.332,1.318,0.662,1.813
			c0,0.166,0.824,0,0.99-0.163c1.32-0.992,2.475-1.816,3.631-2.808c5.609-5.281,11.221-10.893,16.998-16.338
			c1.648-1.486,3.465-2.807,5.117-4.292c1.979-1.649,4.454,0,5.28,2.146c0.33,1.155,0.658,2.146,0.658,3.301
			c-0.162,4.456-0.162,8.912-1.152,13.368c-1.484,5.939-1.98,11.882-1.65,17.824c0.166,4.455,1.98,7.922,5.941,10.23
			c0.658,0.33,1.318,0.66,1.812,1.155c0.826,0.495,1.32,2.312,0.826,2.972c-0.494,0.659-2.311,1.155-3.137,0.989
			c-6.768-1.979-10.397-6.933-11.553-13.697c-0.66-4.291-0.496-8.913-0.66-13.368C368.798,156.425,369.789,152.793,368.966,148.999z
			"/>
		<path fill="#025F6A" d="M391.244,162.532c0.164,2.971,2.972,5.444,6.271,5.444c1.319-0.164,2.806-0.164,3.962-0.493
			c1.979-0.495,3.959-1.32,5.775-1.98c10.23-3.961,19.971-8.911,29.213-14.854c1.152-0.659,2.145-1.484,3.301-2.311
			c2.145-1.32,4.785-0.494,6.104,1.815c0.99,1.319,1.65,2.971,2.479,4.456c0.494,0.66,1.316,0.66,1.648,0.164
			c0.988-1.154,1.65-2.311,2.477-3.301c6.932-9.242,16.174-14.357,27.395-15.844c0.33-0.165,0.658,0,0.99-0.165
			c4.455-0.495,8.582-2.476,13.039-1.979c4.123,0.33,8.25-0.164,12.211,0c0.99,0,1.98,0.66,2.807,0.99
			c0.164,0.164,0.164,0.66,0.164,0.989c0,0.33-0.164,0.825-0.164,0.825c-1.318,0.33-2.641,0.825-3.963,0.825
			c-5.773,0.33-11.551,0.989-17.328,1.979c-8.416,1.65-16.174,4.786-23.436,9.407c-1.484,0.825-2.805,1.98-3.795,3.302
			c-3.795,4.95-7.096,10.066-8.746,16.008c0,0.33-0.33,0.66-0.33,0.99c-0.826,5.116-3.797,8.582-7.924,11.553
			c-1.648,1.154-4.289,0.164-4.453-1.98c-0.332-1.65-0.332-3.466-0.166-5.115c0.494-3.302,1.484-6.603,1.318-10.066
			c0-0.99,0-1.98,0-2.971c0-1.65-2.145-2.808-3.795-1.98c-0.99,0.33-1.814,0.825-2.805,1.32c-6.271,3.135-12.545,6.602-18.98,9.736
			c-3.467,1.65-6.932,2.971-10.562,4.125c-3.465,1.155-7.261,1.321-11.057,0.825c-3.135-0.494-5.609-2.31-7.26-5.114
			c-2.477-4.457-3.137-9.078-1.816-13.863c2.475-8.252,5.941-16.01,11.882-22.28c3.63-3.631,7.757-6.931,12.376-9.077
			c2.809-1.32,5.777-1.65,8.914-1.32c2.807,0.33,5.115,2.971,4.949,5.611c-0.164,1.814-0.496,3.301-1.484,4.786
			c-1.648,2.641-3.797,4.952-6.27,6.767c-2.971,2.312-5.941,4.456-9.076,6.438c-2.477,1.65-4.951,1.98-7.757,0.494
			c-1.154-0.659-2.641,0-3.301,0.99c-2.146,3.631-3.138,7.592-2.97,11.717C391.08,160.386,391.08,161.376,391.244,162.532z
			 M412.201,129.689c-0.166-0.166-0.658-0.33-0.824-0.166c-4.289,1.486-7.592,4.457-10.562,7.758
			c-0.658,0.661-0.658,1.154,0.33,1.484c0.332,0.166,0.66,0.166,0.99,0.166c4.127-1.815,7.758-4.127,10.562-7.758
			c0.164-0.33,0.164-0.66,0.328-0.99C412.861,130.019,412.531,129.853,412.201,129.689z"/>
		<path fill="#025F6A" d="M495.707,236.467c1.486-0.494,2.973-1.154,4.291-2.146c7.922-5.446,16.834-12.212,22.117-22.114
			c4.289-7.922,6.93-14.688,8.746-21.29c1.484-5.775,2.969-12.048,4.785-19.804c0.33-1.485,0.662-3.138,0.662-4.787
			c0-0.824-0.332-1.483-0.496-2.146c-0.166-0.164-0.166-0.33-0.33-0.494c0-0.166-0.33-0.332-0.66-0.332c-0.166,0-1.156,0-1.65,0.496
			c-1.32,1.32-2.643,2.642-3.961,3.797c-1.982,2.146-4.127,4.125-6.436,6.105c-1.98,1.98-4.623,4.291-7.264,6.106
			c-1.98,1.485-4.619,1.979-7.592,1.648c-4.621-0.659-7.262-3.465-7.428-8.087c-0.33-4.125,0.166-7.261,1.32-10.396
			c2.805-7.592,7.922-13.862,12.873-19.969c0.328-0.496,0.824-0.99,1.154-1.485c1.32-0.825,2.477-1.815,3.633-2.642
			c2.805-1.979,5.445-3.961,8.25-5.775c1.814-1.32,3.961-2.475,6.105-2.475c1.322,0,2.643,0.493,3.963,1.483
			c0.66,0.496,1.484,0.825,2.311,0.825c0.824,0,1.484-0.165,2.145-0.329c0.66-0.166,1.32-0.166,1.814-0.166
			c1.652,0,3.137,0.66,4.127,1.815c1.156,1.319,1.486,2.971,1.156,4.455v0.33c-0.33,0.99-0.496,2.146-0.826,3.137
			c-2.475,7.592-3.795,14.027-3.961,20.135c0,2.476-0.496,5.115-1.318,8.086c-1.65,5.775-3.303,11.718-5.115,17.329l-0.66,2.311
			c-3.303,10.729-8.088,20.96-14.359,30.036c-5.775,8.583-13.201,15.021-21.949,19.31c-3.135,1.485-6.768,2.477-11.387,2.807
			c-0.494,0-0.826,0-1.32,0c-3.301,0-5.941-0.99-7.922-3.301c-0.496-0.66-0.33-0.99-0.164-1.155l0.164-0.165
			c0.164-0.329,0.66-0.99,0.99-0.99c0.164,0,0.33,0,0.494,0c0.99,0,1.814,0.165,2.477,0.496c1.65,0.659,3.299,0.99,4.787,0.99
			c1.648,0,3.465-0.331,5.113-1.155C494.885,236.797,495.213,236.633,495.707,236.467z M536.309,145.368l0.164-0.165l-0.164-0.165
			c0-0.495,0-0.825-0.168-1.155c-0.164-0.824-0.164-1.32-0.328-1.814c-0.33-1.815-1.982-3.137-3.961-3.137
			c-0.66,0-1.156,0.166-1.65,0.496c-0.494,0.166-0.824,0.329-1.318,0.494c-0.99,0.495-2.146,0.99-3.139,1.815
			c-9.9,7.097-16.008,15.678-18.979,26.075c-0.166,0.66-0.166,1.154-0.166,1.815c0,0.329,0,0.495,0,0.659
			c0,0.826,0.33,1.65,0.992,2.312c0.824,0.823,1.979,1.484,3.135,1.484c0.494,0,0.826-0.165,1.32-0.33
			c0.164-0.165,0.496-0.165,0.658-0.331c0.662-0.165,1.156-0.329,1.652-0.659c9.406-6.602,16.338-14.192,20.961-23.104
			c0.658-1.155,0.822-2.312,0.99-3.302C536.309,145.863,536.309,145.533,536.309,145.368z"/>
		<path fill="#025F6A" d="M611.562,138.601c-4.457,4.455-7.262,10.066-9.736,15.844c-3.465,7.922-8.254,15.349-12.543,23.104
			c-12.709,22.445-24.59,45.552-35.48,69.15c-1.32,2.971-2.643,5.942-3.961,8.912c-0.164,0.165-0.66,0.331-0.99,0.331
			c-0.66,0.162-1.154-0.331-1.154-1.321c-0.332-2.146,0.164-4.291,0.99-6.437c2.805-7.922,5.775-15.68,9.406-23.271
			c8.086-16.833,16.338-33.501,25.084-49.84c1.156-1.981,2.145-3.961,2.973-5.941c0.494-1.155,0.328-2.477,0.494-3.796
			c-6.271,4.786-12.379,9.901-19.145,14.027c-1.156,0.826-2.477,1.65-3.797,2.146c-2.475,1.155-4.949,0.99-7.264-0.329
			c-4.949-2.971-6.764-7.592-6.6-13.037c0.164-4.787,1.65-9.406,3.299-13.863c2.807-6.768,6.602-13.038,11.719-18.318
			c0.99-0.99,2.312-1.65,3.631-2.477c0.826-0.33,2.146,0,2.973,0.826c1.812,2.145,2.145,3.959,0.33,5.774
			c-6.604,6.271-10.729,13.863-13.203,22.28c-0.99,3.3-1.32,6.436,0.166,9.736c0.494,0.66,0.986,1.154,1.812,0.989
			c0.33,0,0.662,0.165,0.99,0c7.922-3.3,15.186-7.261,20.961-13.698c3.465-3.795,7.096-7.262,10.562-11.057
			c3.467-3.961,6.105-8.252,6.932-13.533c0.166-1.484,0.99-2.641,2.311-3.466c2.477-1.485,5.117-1.319,7.098,0.66
			c0.988,0.99,1.65,2.312,2.311,3.631C612.223,136.621,612.389,137.942,611.562,138.601z"/>
	</g>
	<g>
		<g>
			<path fill="#025F6A" d="M224.327,248.998c14.695-0.173,28.95-3.981,43.472-5.755c16.263-1.984,32.441-4.85,48.695-6.967
				c32.502-4.236,65.149-7.414,97.895-8.946c64.604-3.022,128.488,7.474,192.938,9.337c2.42,0.07,2.412-3.681,0-3.75
				c-64.465-1.863-128.318-12.224-192.938-9.337c-32.092,1.435-64.088,4.621-95.946,8.694c-15.777,2.018-31.523,4.289-47.25,6.688
				c-15.47,2.359-31.184,6.102-46.865,6.286C221.91,245.276,221.907,249.026,224.327,248.998L224.327,248.998z"/>
		</g>
	</g>
	<g opacity="0.8">
		<g opacity="0.6">
			<path fill="#007672" d="M238.181,367.883v-27.912h17.199c2.838,0,4.989,0.586,6.452,1.754c1.464,1.17,2.195,2.889,2.195,5.16
				c0,1.137-0.229,2.146-0.688,3.029c-0.458,0.885-1.125,1.602-1.998,2.146c1.55,0.875,2.719,1.938,3.505,3.193
				c0.787,1.256,1.18,2.67,1.18,4.242c0,2.6-0.868,4.646-2.604,6.143c-1.736,1.498-4.134,2.244-7.19,2.244H238.181z
				 M255.248,344.002h-12.68v6.584h12.744c1.397,0,2.451-0.277,3.162-0.836c0.709-0.557,1.064-1.381,1.064-2.473
				s-0.355-1.91-1.064-2.457C257.765,344.273,256.689,344.002,255.248,344.002z M256.722,354.682h-14.152v9.174h14.152
				c1.529,0,2.715-0.404,3.555-1.213c0.841-0.809,1.263-1.943,1.263-3.406c0-1.441-0.422-2.562-1.263-3.359
				C259.437,355.08,258.251,354.682,256.722,354.682z"/>
			<path fill="#007672" d="M274.609,367.883v-27.977h26.242v4.096h-21.853v6.979h14.351v4.027h-14.351v8.848h23.062v4.027H274.609z"
				/>
			<path fill="#007672" d="M316.345,367.883v-14.281l-12.744-13.695h5.635l9.271,9.928l9.107-9.928h5.832l-12.809,13.629v14.35
				h-4.293V367.883z"/>
			<path fill="#007672" d="M350.58,368.768c-4.979,0-9.072-1.408-12.283-4.227s-4.814-6.355-4.814-10.615
				c0-4.279,1.6-7.812,4.799-10.598s7.299-4.176,12.301-4.176c5.045,0,9.168,1.387,12.367,4.16s4.799,6.311,4.799,10.613
				c0,4.281-1.604,7.824-4.814,10.631C359.72,367.365,355.603,368.768,350.58,368.768z M350.58,364.672
				c3.734,0,6.781-1.01,9.143-3.029c2.357-2.02,3.537-4.592,3.537-7.715c0-3.102-1.186-5.668-3.555-7.697
				c-2.371-2.031-5.41-3.047-9.125-3.047c-3.713,0-6.74,1.01-9.09,3.029c-2.35,2.021-3.521,4.592-3.521,7.715
				s1.174,5.695,3.521,7.715S346.867,364.672,350.58,364.672z"/>
			<path fill="#007672" d="M374.922,367.883v-27.977h2.293l17.788,19.656v-19.656h4.29v27.977h-2.292l-17.755-19.59v19.59H374.922z"
				/>
			<path fill="#007672" d="M421.342,339.906c4.564,0,8.244,1.305,11.039,3.914s4.193,6.002,4.193,10.172
				c0,4.217-1.371,7.584-4.111,10.107c-2.74,2.521-6.449,3.783-11.121,3.783h-12.416v-27.979h12.416V339.906z M421.406,343.936
				h-8.092v19.918h8.092c3.32,0,5.932-0.891,7.83-2.67c1.9-1.779,2.852-4.197,2.852-7.258c0-2.947-0.982-5.35-2.947-7.207
				C427.172,344.863,424.596,343.936,421.406,343.936z"/>
		</g>
		<polyline opacity="0.6" fill="#007672" enable-background="new    " points="498.436,335.686 515.654,335.801 515.654,367.883 
			520.244,367.883 520.244,335.457 537.234,335.457 537.234,367.938 565.473,367.938 565.473,363.465 541.596,363.465 
			541.596,331.783 494.531,331.783 		"/>
		<path opacity="0.6" fill="none" stroke="#007672" stroke-width="5" stroke-miterlimit="10" enable-background="new    " d="
			M475.707,322.6v43.086h21.943c0,0,9.547,0.713,9.57-9.082c0.02-7.93-9.361-7.93-9.361-7.93h-22.152"/>
	</g>
	<g>
		<path fill="#00A39C" d="M385.314,256.371c2.684,0,5.275,0.647,7.775,1.388c0.646,0.187,0.831,0.557,0.463,1.111
			c-0.277,0.37-0.648,0.555-1.111,0.833c-0.186,0.093-0.463,0.185-0.646,0.093c-8.146-1.111-16.291-0.277-24.438-0.093
			c-2.406,0.74-4.811,0.37-7.219,0.556c-1.943,0.092-3.795,0.647-5.369,1.758c-5.83,4.352-11.754,8.424-17.309,13.052
			c-2.592,2.129-4.906,4.629-6.572,7.59c-0.555,1.111,0.094,2.407,1.48,2.592c0.463,0.093,0.928,0.187,1.391,0.187
			c0.738,0.093,1.479,0.093,2.221,0.093c3.055-0.093,6.201-0.093,9.348-0.278c2.129-0.092,4.352-0.277,6.389-0.74
			c5.275-1.109,10.551-0.739,15.828-0.833c0.369,0,0.926,0.464,1.018,0.74c0,0.37-0.277,0.926-0.555,1.296
			c-0.279,0.278-0.834,0.648-1.203,0.648c-2.408,0.093-4.814,0.926-7.129,1.109c-8.145,0.74-16.197,2.406-24.436,2.593
			c-2.592,0.093-5.275-0.277-7.775-1.02c-2.684-0.646-4.072-4.165-2.869-6.387c0.742-1.203,1.48-2.499,2.5-3.517
			c2.961-2.869,5.924-5.646,8.979-8.332c2.406-2.035,4.906-3.887,7.312-5.83c0.369-0.37,0.74-0.74,0.926-1.11
			c0.277-0.37,0.277-0.926,0.277-1.39c0-0.092-0.371-0.369-0.557-0.369c-3.055-0.647-6.201-0.463-9.256,0.093
			c-0.557,0.093-1.018,0.926-1.48,1.39c-0.648,0.924-1.48,1.295-2.498,1.109c-1.854-0.557-3.611-1.109-5.461-1.759
			c-0.928-0.277-1.76-2.13-1.391-3.056c0.277-0.926,0.926-1.759,1.943-1.851c3.146-0.278,6.295-0.463,9.35-0.647
			c4.812-0.094,9.625,0.092,14.439-0.834c3.701,0.278,6.387-1.479,8.793-4.072c1.48-1.665,2.869-3.239,4.35-4.812
			c0.463-0.556,0.094-1.389-0.646-1.759c-1.111-0.463-2.223-1.11-3.332-1.203c-5.738-0.185-11.57-0.739-17.217,1.111
			c-1.02,0.37-2.314,0.092-3.518,0.092c-0.834-0.092-1.666-1.11-1.76-2.036c-0.092-1.572,0.926-3.055,2.223-3.238
			c1.203-0.187,2.406-0.371,3.609-0.464c1.943-0.093,3.887-0.093,5.738-0.37c1.943-0.277,3.795-0.647,5.738-0.556
			c3.609,0.276,7.221,0.463,10.736,1.203c0.926,0.187,1.76,0.647,2.592,1.11c2.777,1.759,3.148,4.535,1.943,6.941
			c-1.109,2.129-2.775,3.889-4.164,5.924c-0.186,0.37-0.186,0.834-0.277,1.297c0,0.092,0.463,0.277,0.646,0.277
			c3.609,0.092,7.221,0.186,10.831,0.277c0-0.094,0-0.187,0-0.187C379.113,256.184,382.26,256.371,385.314,256.371z"/>
		<path fill="#00A39C" d="M415.396,241.561c0.094-0.834,0.926-1.853,1.76-2.037c1.02-0.277,2.314-0.092,2.686,0.556
			c1.203,2.036,2.498,4.073,3.701,6.108c0.463,0.74-0.277,1.943-1.389,1.943c-1.758,0-2.592,0.834-2.963,2.406
			c-0.277,0.926-0.555,1.852-0.646,2.777c-0.557,4.721-1.02,9.441-1.572,14.16c-0.557,4.074-1.02,8.146-1.945,12.033
			c-0.646,2.776-1.85,5.461-3.145,7.96c-1.02,2.036-3.057,2.869-5.277,3.147c-0.463,0.092-1.018-0.093-1.387-0.37
			c-1.205-1.204-2.408-2.313-3.426-3.61c-4.071-5.091-7.034-10.736-9.348-16.752c-1.389-3.61-2.406-7.221-4.35-10.553
			c-0.094-0.186-0.371-0.463-0.557-0.463s-0.369,0.277-0.555,0.463c-1.205,2.592-2.777,4.998-3.703,7.682
			c-2.5,6.666-5.646,13.145-7.59,20.087c-0.186,0.646-0.463,1.296-0.74,1.942c-0.277,0.648-2.686,1.481-3.147,0.926
			c-0.648-0.646-1.02-1.572-1.389-2.405c-0.186-0.37-0.094-0.927,0-1.39c0.555-3.055,1.48-6.017,2.684-8.886
			c2.038-5.091,4.258-10.089,6.479-15.087c1.391-3.24,2.963-6.479,4.535-9.719c0.463-1.02,1.297-2.036,2.037-2.869
			c1.666-1.852,4.352-1.296,4.998,1.018c0.926,3.24,1.852,6.479,2.776,9.627c1.48,5.646,3.795,10.829,6.292,15.92
			c1.203,2.685,3.055,4.812,5.184,6.851c0.926,0.925,2.406,0.74,2.963-0.371c1.572-3.239,3.055-6.479,3.055-10.181
			c1.389-5.555,1.852-11.2,2.686-16.848c0.092-0.74,0.184-1.479,0.369-2.129c0.371-1.388,0.834-2.775,1.018-4.165
			c0.188-1.388,0-2.868,0-4.258c0,0,0,0-0.092,0C415.396,243.875,415.396,242.671,415.396,241.561z"/>
		<path fill="#00A39C" d="M426.969,278.214c0.092,3.702,3.607,7.034,7.496,7.405c5.832,0.646,11.479-0.463,16.846-2.592
			c6.203-2.592,5-1.759,7.684-7.59c0.832-1.76,1.48-3.61,1.76-5.463c0.092-0.646-0.465-1.295-1.203-1.388
			c-4.443-0.739-8.609,0.37-12.588,2.13c-1.111,0.463-2.223,1.109-3.332,1.202c-1.111,0.093-2.314-0.463-3.057-1.481
			c-0.646-0.924-0.738-2.59,0-3.332c0.463-0.555,1.02-1.109,1.666-1.295c1.574-0.556,3.24-1.019,4.906-1.297
			c4.721-0.646,9.348-1.572,14.068-2.684c0.463-0.093,0.926-0.093,1.389-0.093c3.24,0.093,4.998,1.759,5.092,4.813
			c0,1.942-0.371,3.795-1.203,5.553c-0.74,1.574-0.74,3.24-0.371,4.906c0.186,1.018-0.186,2.035-0.834,2.592
			c-2.221,1.942-3.979,4.165-5.553,6.57c-0.463,0.648-1.295,0.648-1.943,0.37c-1.203-0.555-2.223-0.739-3.426-0.185
			c-0.926,0.37-1.85,0.646-2.684,1.018c-5.924,2.499-12.033,2.87-18.326,2.592c-3.055-0.093-5.555-1.296-7.869-3.146
			c-1.941-1.481-2.961-3.703-3.607-6.017c-0.928-3.795-1.111-7.59-0.465-11.479c0.094-0.463,0.188-0.926,0.371-1.389
			c1.76-3.889,3.426-7.867,6.479-11.016c5.092-5.183,10.922-9.256,17.217-12.771c2.314-1.296,4.812-2.314,7.127-3.426
			c2.498-1.11,4.998-1.48,7.682-1.389c2.594,0.186,4.629,1.389,6.203,3.332c0.74,0.926,0.926,2.129,0.646,3.332
			c-0.277,1.203-1.758,2.036-2.775,1.389c-1.48-0.832-2.777-1.758-4.258-2.592c-0.834-0.463-1.852-0.646-2.777-0.369
			c-6.479,1.851-12.682,4.441-17.771,8.979c-0.926,0.833-1.758,1.573-2.775,2.312c-2.777,1.944-4.721,4.629-6.664,7.405
			c-2.592,3.702-3.609,7.774-3.24,13.884C426.783,276.27,426.875,277.289,426.969,278.214z"/>
	</g>
</g>
</svg>
